<?xml version="1.0" encoding="UTF-8"?>
<!DOCTYPE svg PUBLIC "-//W3C//DTD SVG 1.1//EN" "http://www.w3.org/Graphics/SVG/1.1/DTD/svg11.dtd">
<!-- Creator: CorelDRAW -->
<svg xmlns="http://www.w3.org/2000/svg" xml:space="preserve" width="192px" height="51px" version="1.1" shape-rendering="geometricPrecision" text-rendering="geometricPrecision" image-rendering="optimizeQuality" fill-rule="evenodd" clip-rule="evenodd"
viewBox="0 0 62.074 16.553"
 xmlns:xlink="http://www.w3.org/1999/xlink"
 xmlns:xodm="http://www.corel.com/coreldraw/odm/2003">
 <g id="Capa_x0020_1">
  <metadata id="CorelCorpID_0Corel-Layer"/>
  <path fill="none" d="M0 0l62.074 0 0 16.553 -62.074 0 0 -16.553z"/>
  <g id="_1790095313952">
   <g id="LOGO">
    <path fill="#2B2A29" fill-rule="nonzero" d="M26.293 6.963l1.618 0c-0.27,-1.72 -1.76,-2.919 -3.698,-2.919 -2.294,0 -4.015,1.687 -4.015,4.511 0,2.774 1.644,4.495 4.062,4.495 2.17,0 3.723,-1.396 3.723,-3.656l0 -1.053 -3.556 0 0 1.241 2.02 0c-0.026,1.251 -0.86,2.042 -2.179,2.042 -1.467,0 -2.473,-1.1 -2.473,-3.086 0,-1.973 1.023,-3.068 2.439,-3.068 1.057,0 1.78,0.564 2.059,1.493z"/>
    <path fill="#2B2A29" fill-rule="nonzero" d="M29.053 12.93l1.549 0 0 -6.571 -1.549 0 0 6.571zm0.781 -7.615c0.493,0 0.895,-0.378 0.895,-0.839 0,-0.462 -0.402,-0.844 -0.895,-0.844 -0.492,0 -0.898,0.377 -0.898,0.844 0,0.466 0.399,0.839 0.896,0.839l0.002 0z"/>
    <path fill="#2B2A29" fill-rule="nonzero" d="M35.242 6.359l-1.298 0 0 -1.579 -1.549 0 0 1.579 -0.932 0 0 1.198 0.932 0 0 3.656c-0.008,1.236 0.891,1.847 2.055,1.81 0.309,-0.006 0.617,-0.058 0.911,-0.154l-0.261 -1.212c-0.148,0.038 -0.3,0.059 -0.453,0.061 -0.39,0 -0.703,-0.137 -0.703,-0.762l0 -3.402 1.298 0 0 -1.195z"/>
    <path fill="#2B2A29" fill-rule="nonzero" d="M36.441 12.93l5.448 0 0 -1.332 -3.86 0 0 -7.434 -1.588 0 0 8.766z"/>
    <path fill="#2B2A29" fill-rule="nonzero" d="M44.857 13.062c1.031,0 1.647,-0.483 1.93,-1.035l0.051 0 0 0.903 1.492 0 0 -4.4c0,-1.738 -1.417,-2.26 -2.671,-2.26 -1.382,0 -2.444,0.616 -2.786,1.814l1.447 0.206c0.153,-0.449 0.59,-0.834 1.35,-0.834 0.719,0 1.113,0.368 1.113,1.014l0 0.026c0,0.444 -0.467,0.466 -1.627,0.59 -1.275,0.137 -2.495,0.518 -2.495,1.999 -0.004,1.293 0.941,1.977 2.196,1.977zm0.509 -1.136c-0.646,0 -1.109,-0.296 -1.109,-0.865 0,-0.595 0.518,-0.843 1.208,-0.942 0.407,-0.055 1.22,-0.158 1.421,-0.32l0 0.774c0.004,0.73 -0.587,1.351 -1.52,1.351l0 0.002z"/>
    <path fill="#2B2A29" fill-rule="nonzero" d="M49.471 12.93l1.523 0 0 -1.036 0.09 0c0.244,0.479 0.754,1.151 1.884,1.151 1.549,0 2.709,-1.229 2.709,-3.394 0,-2.191 -1.194,-3.381 -2.714,-3.381 -1.16,0 -1.643,0.698 -1.879,1.173l-0.065 0 0 -3.279 -1.548 0 0 8.766zm1.519 -3.287c0,-1.279 0.548,-2.102 1.545,-2.102 1.031,0 1.563,0.877 1.563,2.102 0,1.224 -0.539,2.131 -1.563,2.131 -0.989,0 -1.545,-0.856 -1.545,-2.131z"/>
    <path fill="#2B2A29" fill-rule="nonzero" d="M17.277 7.166l-0.015 -0.039 -1.506 -3.929c-0.03,-0.077 -0.085,-0.142 -0.155,-0.186 -0.064,-0.041 -0.138,-0.063 -0.214,-0.063 -0.179,0 -0.335,0.119 -0.383,0.29l-1.017 3.112 -4.116 0 -1.017 -3.112c-0.048,-0.171 -0.205,-0.29 -0.383,-0.29 -0.076,0 -0.15,0.022 -0.214,0.063 -0.07,0.044 -0.125,0.109 -0.155,0.186l-1.505 3.929 -0.016 0.039c-0.122,0.319 -0.184,0.658 -0.184,1 0,0.877 0.412,1.704 1.112,2.232l0.006 0.004 0.013 0.01 2.29 1.717 1.137 0.859 0.69 0.522c0.081,0.061 0.18,0.094 0.282,0.094 0.101,0 0.2,-0.033 0.281,-0.094l0.69 -0.522 1.137 -0.859 2.307 -1.727 0.007 -0.005c0.699,-0.528 1.112,-1.355 1.112,-2.232 0,-0.341 -0.063,-0.68 -0.184,-0.998l0 -0.001z"/>
    <path fill="#2B2A29" fill-rule="nonzero" d="M17.277 7.166l-0.015 -0.039c-0.733,0.15 -1.426,0.462 -2.024,0.911l-3.307 2.5 2.106 1.591 2.307 -1.727 0.006 -0.005c0.699,-0.528 1.111,-1.355 1.111,-2.231 0,-0.342 -0.062,-0.681 -0.184,-1l0 0z"/>
    <path fill="#2B2A29" fill-rule="nonzero" d="M9.818 12.129l1.137 0.859 0.69 0.522c0.081,0.061 0.18,0.094 0.282,0.094 0.101,0 0.2,-0.033 0.281,-0.094l0.69 -0.522 1.137 -0.859 -2.106 -1.591 -2.111 1.591z"/>
    <path fill="#2B2A29" fill-rule="nonzero" d="M8.621 8.037c-0.599,-0.448 -1.292,-0.76 -2.025,-0.909l-0.015 0.039c-0.122,0.318 -0.184,0.657 -0.184,0.999 0,0.877 0.412,1.704 1.112,2.232l0.006 0.004 0.013 0.01 2.29 1.717 2.107 -1.591 -3.304 -2.501z"/>
   </g>
  </g>
 </g>
</svg>
