<?xml version="1.0" encoding="UTF-8"?>
<!DOCTYPE svg PUBLIC "-//W3C//DTD SVG 1.1//EN" "http://www.w3.org/Graphics/SVG/1.1/DTD/svg11.dtd">
<!-- Creator: CorelDRAW -->
<svg xmlns="http://www.w3.org/2000/svg" xml:space="preserve" width="143px" height="101px" version="1.1" shape-rendering="geometricPrecision" text-rendering="geometricPrecision" image-rendering="optimizeQuality" fill-rule="evenodd" clip-rule="evenodd"
viewBox="0 0 25.397 17.876"
 xmlns:xlink="http://www.w3.org/1999/xlink"
 xmlns:xodm="http://www.corel.com/coreldraw/odm/2003">
 <g id="Capa_x0020_1">
  <metadata id="CorelCorpID_0Corel-Layer"/>
  <path fill="#0E1B24" d="M9.643 4.502c0.284,-0.554 0.288,-0.759 0.801,-1.257 0.097,-0.093 0.14,-0.177 0.255,-0.262 0.836,-0.617 1.729,-0.9 2.819,-0.656 0.768,0.171 1.108,0.606 1.4,0.726 0.359,-0.401 0.71,-0.692 1.133,-1.163 0.121,-0.135 0.274,-0.254 0.408,-0.382 -0.211,-0.432 -1.38,-1.07 -2.045,-1.262 -1.88,-0.542 -3.655,-0.175 -5.147,0.976 -0.34,0.262 -1.353,1.298 -1.469,1.867 -0.391,0.435 -0.611,1.727 -0.613,2.454 -0.002,0.95 0.211,1.804 0.583,2.534 1.052,2.337 3.846,3.568 6.51,2.907 0.794,-0.197 1.782,-0.707 2.14,-1.17 0.569,-0.324 1.164,-1.492 1.387,-2.127 0.289,-0.828 0.363,-1.818 0.247,-2.709 -0.007,-0.052 -0.018,-0.155 -0.028,-0.199 -0.039,-0.176 -0.011,-0.09 -0.076,-0.169 -0.143,-0.082 -4.625,-0.072 -5.138,-0.033 -0.079,0.273 -0.041,1.781 -0.024,2.151l2.844 0.013c0.065,0.743 -0.634,1.31 -0.957,1.663 -0.549,0.228 -0.721,0.415 -1.45,0.497 -1.359,0.154 -2.623,-0.462 -3.259,-1.569 -0.11,-0.191 -0.21,-0.465 -0.324,-0.657 -0.219,-0.973 -0.237,-1.196 0.003,-2.173zm7 11.144l0.016 0.11 -0.151 -0.013c-0.384,-0.016 -1.308,-0.057 -1.17,0.755 0.077,0.451 0.638,0.779 1.261,0.382 0.157,0.058 0.136,0.172 0.445,0.074 0.016,-0.56 0.119,-1.503 -0.239,-1.785 -0.445,-0.349 -1.251,-0.228 -1.38,0.256l0.246 0.16c0.304,-0.206 0.745,-0.468 0.972,0.061zm3.146 1.326c0.093,-0.128 0.082,-0.135 0.046,-0.317l-0.392 -0.005c-0.145,-0.158 -0.088,-0.944 -0.071,-1.228l0.404 -0.028 0.033 -0.355 -0.386 -0.014c-0.139,-0.259 0.009,-0.393 -0.11,-0.492 -0.427,-0.19 -0.354,0.165 -0.355,0.479l-0.332 0.036 -0.012 0.333 0.328 0.049c0.076,0.653 -0.154,1.337 0.278,1.556 0.117,0.06 0.457,0.105 0.569,-0.014zm-2.014 -1.775c-0.162,-0.15 -0.112,-0.118 -0.406,-0.106l-0.003 1.915 0.384 0.012c0.052,-1.145 -0.24,-1.552 0.675,-1.613l0.026 -0.373c-0.382,-0.015 -0.411,0.023 -0.676,0.165zm6.916 -0.051c-0.23,-0.155 -0.124,-0.126 -0.45,-0.095l-0.001 1.907 0.392 0.022c0.006,-1.288 -0.141,-1.634 0.765,-1.576l-0.009 -0.398c-0.366,-0.072 -0.453,-0.013 -0.697,0.14zm-15.018 -0.877l0.006 2.731 0.43 -0.008 -0.006 -2.728 -0.43 0.005zm10.878 0.882c-0.142,-0.078 -0.046,-0.16 -0.462,-0.103l-0.006 1.921 0.401 0.007c0.019,-0.575 -0.181,-1.568 0.442,-1.625 0.417,-0.038 0.461,0.221 0.473,0.588 0.012,0.344 -0.008,0.688 0.004,1.034l0.383 0.012c0.012,-0.35 0.059,-1.392 -0.076,-1.64 -0.246,-0.449 -0.71,-0.456 -1.159,-0.194zm-4.796 1.102c0.142,-0.126 0.182,-0.195 0.422,-0.203 0.207,-0.007 0.318,0.017 0.467,0.124 -0.016,0.619 -0.963,0.759 -0.889,0.079zm6.754 -0.487c0.039,-0.575 1.061,-0.529 0.982,0.009l-0.982 -0.009zm1.385 0.738l-0.278 -0.134c-0.24,0.155 -0.257,0.37 -0.66,0.315 -0.295,-0.04 -0.455,-0.267 -0.481,-0.57 0.356,-0.018 1.191,0.053 1.464,-0.035 0.204,-1.2 -1.542,-1.59 -1.85,-0.35 -0.154,0.622 0.165,1.079 0.568,1.255 0.521,0.228 1.169,-0.075 1.237,-0.481zm-17.12 -0.283c-0.237,0.788 -1.421,0.442 -1.121,-0.453 0.245,-0.732 1.372,-0.381 1.121,0.453zm-0.807 -1.243c-1.324,0.309 -0.853,2.441 0.504,2.072 1.292,-0.351 0.845,-2.386 -0.504,-2.072zm7.779 -0.294c0.461,-0.045 0.969,-0.088 0.967,0.408 -0.002,0.507 -0.539,0.47 -0.986,0.424l0.019 -0.832zm-0.407 2.297l0.386 -0.001 0.01 -1.06c0.28,-0.019 1.58,0.154 1.368,-1.017 -0.131,-0.722 -0.998,-0.65 -1.759,-0.62l-0.005 2.698zm-9.888 -0.76c-0.221,-1.004 0.98,-1.1 1.126,-0.398 0.198,0.959 -0.968,1.118 -1.126,0.398zm0.308 -1.24c-1.341,0.349 -0.822,2.448 0.538,2.063 1.282,-0.363 0.786,-2.408 -0.538,-2.063zm8.05 0.771l-0.952 0.003c0.06,-0.248 0.175,-0.381 0.473,-0.386 0.286,-0.004 0.421,0.129 0.479,0.383zm0.434 0.695l-0.302 -0.11c-0.169,0.112 -0.299,0.376 -0.642,0.329 -0.276,-0.037 -0.458,-0.233 -0.472,-0.526l1.432 -0.018c0.314,-1.173 -1.541,-1.746 -1.872,-0.371 -0.347,1.443 1.705,1.771 1.856,0.696zm-4.038 -1.055c0.387,-0.117 0.646,0.14 0.706,0.47 0.062,0.342 -0.105,0.697 -0.364,0.778 -0.8,0.252 -1.004,-1.047 -0.342,-1.248zm0.679 -0.258c-0.383,-0.176 -0.632,-0.317 -1.069,-0.029 -0.236,0.155 -0.441,0.485 -0.44,0.929 0.001,0.439 0.206,0.761 0.492,0.922 0.506,0.285 0.666,0.062 1.047,-0.063 -0.007,0.347 -0.132,0.542 -0.465,0.58 -0.335,0.039 -0.44,-0.164 -0.647,-0.344 -0.154,0.014 -0.228,0.077 -0.328,0.124 0.113,0.743 1.351,0.815 1.702,0.248 0.229,-0.369 0.167,-0.726 0.168,-1.186 0.001,-0.382 0.032,-0.925 -0.017,-1.297l-0.353 -0.005 -0.09 0.121zm-6.116 0.377c-0.234,-0.014 -0.47,-0.014 -0.705,-0.016 -0.11,-0.001 -0.22,0 -0.33,0.003l-0.309 0.043c-0.008,0.004 -0.021,0.013 -0.032,0.02l-0.001 0.325 0.945 0.012c-0.017,1.003 -1.64,0.995 -1.854,0.026 -0.187,-0.843 0.457,-1.433 1.183,-1.282 0.276,0.058 0.355,0.212 0.539,0.288l0.261 -0.254c-0.264,-0.54 -1.269,-0.609 -1.821,-0.25 -1.28,0.835 -0.52,2.973 1.122,2.626 0.354,-0.075 0.647,-0.294 0.784,-0.485 0.215,-0.304 0.251,-0.623 0.218,-1.056z"/>
 </g>
</svg>
