<?xml version="1.0" encoding="UTF-8"?>
<!DOCTYPE svg PUBLIC "-//W3C//DTD SVG 1.1//EN" "http://www.w3.org/Graphics/SVG/1.1/DTD/svg11.dtd">
<!-- Creator: CorelDRAW -->
<svg xmlns="http://www.w3.org/2000/svg" xml:space="preserve" width="192px" height="51px" version="1.1" shape-rendering="geometricPrecision" text-rendering="geometricPrecision" image-rendering="optimizeQuality" fill-rule="evenodd" clip-rule="evenodd"
viewBox="0 0 62.074 16.553"
 xmlns:xlink="http://www.w3.org/1999/xlink"
 xmlns:xodm="http://www.corel.com/coreldraw/odm/2003">
 <g id="Capa_x0020_1">
  <metadata id="CorelCorpID_0Corel-Layer"/>
  <g id="_1789952623584">
   <g>
    <path fill="#1B1F24" fill-rule="nonzero" d="M11.234 1.802c-3.67,0 -6.635,2.965 -6.635,6.635 0,2.936 1.9,5.426 4.534,6.304 0.331,0.057 0.46,-0.144 0.46,-0.317 0,-0.158 -0.014,-0.676 -0.014,-1.238 -1.67,0.302 -2.101,-0.403 -2.231,-0.777 -0.072,-0.187 -0.403,-0.777 -0.676,-0.935 -0.231,-0.13 -0.562,-0.432 -0.015,-0.446 0.518,-0.015 0.893,0.474 1.022,0.676 0.605,1.007 1.554,0.719 1.929,0.547 0.057,-0.432 0.23,-0.72 0.417,-0.892 -1.482,-0.173 -3.022,-0.735 -3.022,-3.282 0,-0.719 0.259,-1.324 0.676,-1.784 -0.072,-0.173 -0.302,-0.849 0.072,-1.756 0,0 0.561,-0.173 1.828,0.676 0.532,-0.144 1.093,-0.23 1.655,-0.23 0.561,0 1.122,0.072 1.655,0.23 1.266,-0.863 1.827,-0.676 1.827,-0.676 0.36,0.907 0.13,1.597 0.072,1.756 0.418,0.46 0.677,1.05 0.677,1.784 0,2.547 -1.554,3.109 -3.037,3.282 0.245,0.201 0.446,0.604 0.446,1.223 0,0.892 -0.014,1.597 -0.014,1.828 0,0.172 0.129,0.388 0.46,0.316 2.62,-0.878 4.519,-3.367 4.519,-6.303 0.044,-3.656 -2.935,-6.621 -6.605,-6.621z"/>
    <path fill="#1B1F24" fill-rule="nonzero" d="M36.491 11.459l-0.014 0c0.014,0 0.014,0 0.014,0l0 0 0 0zm0 0c-0.072,0 -0.259,0.043 -0.46,0.043 -0.634,0 -0.849,-0.287 -0.849,-0.662l0 -2.518 1.28 0c0.072,0 0.13,-0.058 0.13,-0.158l0 -1.368c0,-0.072 -0.058,-0.129 -0.13,-0.129l-1.28 0 0 -1.684c0,-0.058 -0.044,-0.101 -0.116,-0.101l-1.727 0c-0.072,0 -0.115,0.043 -0.115,0.101l0 1.741c0,0 -0.878,0.216 -0.935,0.231 -0.058,0.014 -0.101,0.072 -0.101,0.129l0 1.094c0,0.086 0.058,0.158 0.13,0.158l0.892 0 0 2.634c0,1.957 1.367,2.159 2.303,2.159 0.431,0 0.935,-0.13 1.021,-0.173 0.044,-0.014 0.072,-0.072 0.072,-0.13l0 -1.208c0.015,-0.087 -0.043,-0.144 -0.115,-0.159zm19.026 -1.755c0,-1.454 -0.59,-1.641 -1.209,-1.584 -0.475,0.029 -0.863,0.274 -0.863,0.274l0 2.821c0,0 0.388,0.273 0.978,0.287 0.835,0.029 1.094,-0.273 1.094,-1.798zm1.957 -0.13c0,2.749 -0.892,3.54 -2.446,3.54 -1.31,0 -2.029,-0.662 -2.029,-0.662 0,0 -0.029,0.374 -0.072,0.418 -0.029,0.043 -0.058,0.057 -0.116,0.057l-1.194 0c-0.086,0 -0.158,-0.057 -0.158,-0.129l0.014 -8.923c0,-0.072 0.058,-0.13 0.13,-0.13l1.712 0c0.072,0 0.13,0.058 0.13,0.13l-0.015 3.008c0,0 0.662,-0.432 1.626,-0.432l0.015 0c0.979,0 2.403,0.36 2.403,3.123zm-7.008 -2.907l-1.684 0c-0.087,0 -0.13,0.057 -0.13,0.158l0 4.361c0,0 -0.446,0.316 -1.05,0.316 -0.605,0 -0.778,-0.273 -0.778,-0.878l0 -3.813c0,-0.072 -0.057,-0.13 -0.129,-0.13l-1.713 0c-0.072,0 -0.129,0.058 -0.129,0.13l0 4.101c0,1.771 0.993,2.202 2.346,2.202 1.122,0 2.029,-0.619 2.029,-0.619 0,0 0.043,0.317 0.057,0.36 0.015,0.043 0.072,0.072 0.13,0.072l1.079 0c0.087,0 0.13,-0.057 0.13,-0.129l0.014 -6.002c-0.014,-0.057 -0.086,-0.129 -0.172,-0.129zm-19.026 0l-1.713 0c-0.072,0 -0.129,0.072 -0.129,0.158l0 5.886c0,0.159 0.1,0.216 0.244,0.216l1.54 0c0.159,0 0.202,-0.072 0.202,-0.216l0 -5.915c0,-0.072 -0.072,-0.129 -0.144,-0.129zm-0.835 -2.72c-0.619,0 -1.108,0.489 -1.108,1.108 0,0.619 0.489,1.108 1.108,1.108 0.605,0 1.094,-0.489 1.094,-1.108 0,-0.619 -0.489,-1.108 -1.094,-1.108zm13.24 -0.202l-1.698 0c-0.072,0 -0.129,0.058 -0.129,0.13l0 3.281 -2.663 0 0 -3.267c0,-0.072 -0.057,-0.129 -0.129,-0.129l-1.713 0c-0.072,0 -0.129,0.057 -0.129,0.129l0 8.923c0,0.072 0.071,0.13 0.129,0.13l1.713 0c0.072,0 0.129,-0.058 0.129,-0.13l0 -3.828 2.663 0 -0.015 3.814c0,0.072 0.058,0.129 0.13,0.129l1.712 0c0.072,0 0.13,-0.057 0.13,-0.129l0 -8.923c0,-0.058 -0.058,-0.13 -0.13,-0.13zm-15.154 3.958l0 4.605c0,0.029 -0.014,0.087 -0.043,0.101 0,0 -1.008,0.72 -2.663,0.72 -2,0 -4.36,-0.634 -4.36,-4.75 0,-4.13 2.072,-4.979 4.087,-4.965 1.756,0 2.461,0.389 2.562,0.461 0.028,0.043 0.043,0.072 0.043,0.115l-0.331 1.425c0,0.072 -0.072,0.158 -0.159,0.129 -0.287,-0.086 -0.719,-0.259 -1.741,-0.259 -1.18,0 -2.446,0.331 -2.446,2.994 0,2.662 1.208,2.964 2.072,2.964 0.734,0 1.007,-0.086 1.007,-0.086l0 -1.842 -1.18 0c-0.086,0 -0.158,-0.058 -0.158,-0.13l0 -1.482c0,-0.072 0.057,-0.13 0.158,-0.13l3.008 0c0.086,-0.014 0.144,0.058 0.144,0.13z"/>
   </g>
  </g>
  <path fill="none" d="M0 0l62.074 0 0 16.553 -62.074 0 0 -16.553z"/>
 </g>
</svg>
