<?xml version="1.0" encoding="UTF-8"?>
<!DOCTYPE svg PUBLIC "-//W3C//DTD SVG 1.1//EN" "http://www.w3.org/Graphics/SVG/1.1/DTD/svg11.dtd">
<!-- Creator: CorelDRAW -->
<svg xmlns="http://www.w3.org/2000/svg" xml:space="preserve" width="194px" height="45px" version="1.1" shape-rendering="geometricPrecision" text-rendering="geometricPrecision" image-rendering="optimizeQuality" fill-rule="evenodd" clip-rule="evenodd"
viewBox="0 0 28.428 6.556"
 xmlns:xlink="http://www.w3.org/1999/xlink"
 xmlns:xodm="http://www.corel.com/coreldraw/odm/2003">
 <g id="Capa_x0020_1">
  <metadata id="CorelCorpID_0Corel-Layer"/>
  <path fill="#2B2A29" fill-rule="nonzero" d="M6.139 6.139l1.364 0 0 -4.093 -1.364 0 0 4.093zm2.046 -4.775l3.41 0 0 -1.364 -3.41 0 0 1.364zm-2.046 -1.364l1.364 0 0 1.364 -1.364 0 0 -1.364zm-2.046 6.139l1.364 0 0 -6.139 -1.364 0 0 6.139zm-2.047 -1.364l1.364 0 0 -4.775 -1.364 0 0 4.775zm-2.046 1.364l1.364 0 0 -6.139 -1.364 0 0 6.139zm8.185 0l1.364 0 0 -4.093 -1.364 0 0 4.093zm5.261 -6.139l0.241 0.856c0.029,0.11 0.057,0.22 0.076,0.31 0.012,0.053 0.022,0.103 0.031,0.15l0.005 0c0.01,-0.047 0.019,-0.097 0.031,-0.15 0.019,-0.09 0.043,-0.2 0.074,-0.31l0.241 -0.856 0.494 0 0 1.705 -0.322 0 0 -0.978c0,-0.069 0,-0.155 0.007,-0.229 0.002,-0.04 0.005,-0.083 0.007,-0.124l-0.005 0c-0.007,0.041 -0.017,0.079 -0.024,0.117 -0.016,0.067 -0.033,0.143 -0.05,0.208l-0.293 1.006 -0.332 0 -0.286 -1.006c-0.019,-0.065 -0.033,-0.141 -0.05,-0.208 -0.007,-0.038 -0.017,-0.076 -0.024,-0.117l-0.004 0c0.002,0.041 0.004,0.084 0.007,0.124 0.002,0.074 0.007,0.16 0.007,0.229l0 0.978 -0.317 0 0 -1.705 0.486 0 0 0zm2.147 1.569l-0.005 0c-0.031,0.048 -0.069,0.089 -0.124,0.117 -0.057,0.029 -0.131,0.048 -0.236,0.048 -0.253,0 -0.427,-0.129 -0.427,-0.375 0,-0.133 0.052,-0.224 0.143,-0.283 0.091,-0.06 0.21,-0.091 0.348,-0.11 0.205,-0.029 0.296,-0.045 0.296,-0.138 0,-0.091 -0.067,-0.146 -0.205,-0.146 -0.153,0 -0.227,0.053 -0.236,0.172l-0.289 0c0.002,-0.11 0.048,-0.208 0.134,-0.282 0.085,-0.074 0.214,-0.121 0.393,-0.121 0.367,0 0.515,0.162 0.515,0.45l0 0.623c0,0.093 0.015,0.148 0.043,0.169l0 0.012 -0.312 0c-0.019,-0.026 -0.031,-0.081 -0.038,-0.136l0 0zm-0.072 -0.136c0.048,-0.043 0.074,-0.1 0.074,-0.159l0 -0.184c-0.057,0.036 -0.143,0.052 -0.227,0.071 -0.171,0.039 -0.252,0.077 -0.252,0.191 0,0.115 0.076,0.155 0.19,0.155 0.093,0 0.165,-0.028 0.215,-0.074l0 0zm0.494 -0.124l0.3 0c0.022,0.143 0.119,0.203 0.267,0.203 0.143,0 0.224,-0.055 0.224,-0.141 0,-0.057 -0.04,-0.09 -0.097,-0.112 -0.06,-0.021 -0.141,-0.033 -0.224,-0.05 -0.113,-0.021 -0.217,-0.045 -0.299,-0.1 -0.083,-0.055 -0.136,-0.136 -0.136,-0.27 0,-0.133 0.053,-0.228 0.146,-0.295 0.091,-0.065 0.212,-0.096 0.353,-0.096 0.327,0 0.498,0.155 0.525,0.406l-0.294 0c-0.016,-0.134 -0.095,-0.179 -0.236,-0.179 -0.129,0 -0.21,0.045 -0.21,0.136 0,0.055 0.041,0.081 0.105,0.1 0.062,0.022 0.146,0.031 0.232,0.05 0.102,0.022 0.209,0.045 0.293,0.1 0.083,0.058 0.138,0.143 0.138,0.286 0,0.124 -0.052,0.222 -0.143,0.289 -0.093,0.067 -0.219,0.105 -0.372,0.105 -0.358,0 -0.553,-0.169 -0.572,-0.432l0 0zm1.159 0l0.3 0c0.022,0.143 0.119,0.203 0.267,0.203 0.143,0 0.225,-0.055 0.225,-0.141 0,-0.057 -0.041,-0.09 -0.098,-0.112 -0.06,-0.021 -0.141,-0.033 -0.224,-0.05 -0.113,-0.021 -0.217,-0.045 -0.299,-0.1 -0.083,-0.055 -0.135,-0.136 -0.135,-0.27 0,-0.133 0.052,-0.228 0.145,-0.295 0.091,-0.065 0.212,-0.096 0.353,-0.096 0.327,0 0.498,0.155 0.525,0.406l-0.294 0c-0.016,-0.134 -0.095,-0.179 -0.236,-0.179 -0.129,0 -0.21,0.045 -0.21,0.136 0,0.055 0.041,0.081 0.105,0.1 0.062,0.022 0.146,0.031 0.232,0.05 0.102,0.022 0.209,0.045 0.293,0.1 0.083,0.058 0.138,0.143 0.138,0.286 0,0.124 -0.052,0.222 -0.143,0.289 -0.093,0.067 -0.219,0.105 -0.372,0.105 -0.358,0 -0.553,-0.169 -0.572,-0.432l0 0zm1.967 0.26l-0.005 0c-0.031,0.048 -0.069,0.089 -0.124,0.117 -0.057,0.029 -0.131,0.048 -0.236,0.048 -0.252,0 -0.427,-0.129 -0.427,-0.375 0,-0.133 0.053,-0.224 0.144,-0.283 0.09,-0.06 0.209,-0.091 0.348,-0.11 0.205,-0.029 0.295,-0.045 0.295,-0.138 0,-0.091 -0.066,-0.146 -0.205,-0.146 -0.152,0 -0.226,0.053 -0.236,0.172l-0.288 0c0.002,-0.11 0.047,-0.208 0.133,-0.282 0.086,-0.074 0.215,-0.121 0.394,-0.121 0.367,0 0.515,0.162 0.515,0.45l0 0.623c0,0.093 0.014,0.148 0.043,0.169l0 0.012 -0.313 0c-0.019,-0.026 -0.031,-0.081 -0.038,-0.136l0 0zm-0.071 -0.136c0.047,-0.043 0.074,-0.1 0.074,-0.159l0 -0.184c-0.058,0.036 -0.143,0.052 -0.227,0.071 -0.172,0.039 -0.253,0.077 -0.253,0.191 0,0.115 0.077,0.155 0.191,0.155 0.093,0 0.165,-0.028 0.215,-0.074l0 0zm0.679 0.12c-0.109,-0.115 -0.169,-0.277 -0.169,-0.458 0,-0.182 0.06,-0.344 0.167,-0.461 0.105,-0.114 0.255,-0.186 0.444,-0.186 0.159,0 0.286,0.048 0.381,0.124 0.093,0.079 0.153,0.191 0.174,0.325l-0.317 0c-0.021,-0.11 -0.102,-0.189 -0.224,-0.189 -0.198,0 -0.296,0.146 -0.296,0.387 0,0.233 0.091,0.386 0.291,0.386 0.134,0 0.224,-0.067 0.246,-0.207l0.312 0c-0.009,0.131 -0.067,0.245 -0.16,0.329 -0.095,0.086 -0.229,0.138 -0.391,0.138 -0.195,0 -0.348,-0.072 -0.458,-0.188l0 0zm1.467 -0.911c0.091,-0.132 0.186,-0.194 0.355,-0.194 0.129,0 0.232,0.048 0.306,0.129 0.074,0.084 0.117,0.196 0.117,0.329l0 0.799 -0.325 0 0 -0.751c0,-0.134 -0.074,-0.224 -0.212,-0.224 -0.143,0 -0.248,0.112 -0.248,0.281l0 0.694 -0.324 0 0 -1.705 0.324 0 0 0.642 0.007 0zm1.736 0.92l-0.007 0c-0.083,0.112 -0.179,0.177 -0.35,0.177 -0.275,0 -0.425,-0.17 -0.425,-0.442l0 -0.815 0.322 0 0 0.761c0,0.143 0.062,0.221 0.203,0.221 0.152,0 0.245,-0.114 0.245,-0.276l0 -0.706 0.325 0 0 1.223 -0.313 0 0 -0.143 0 0zm0.432 -0.253l0.3 0c0.022,0.143 0.12,0.203 0.268,0.203 0.143,0 0.224,-0.055 0.224,-0.141 0,-0.057 -0.041,-0.09 -0.098,-0.112 -0.06,-0.021 -0.141,-0.033 -0.224,-0.05 -0.112,-0.021 -0.217,-0.045 -0.298,-0.1 -0.084,-0.055 -0.136,-0.136 -0.136,-0.27 0,-0.133 0.052,-0.228 0.145,-0.295 0.091,-0.065 0.212,-0.096 0.353,-0.096 0.327,0 0.499,0.155 0.525,0.406l-0.293 0c-0.017,-0.134 -0.096,-0.179 -0.237,-0.179 -0.128,0 -0.209,0.045 -0.209,0.136 0,0.055 0.04,0.081 0.104,0.1 0.062,0.022 0.146,0.031 0.232,0.05 0.102,0.022 0.21,0.045 0.293,0.1 0.084,0.058 0.139,0.143 0.139,0.286 0,0.124 -0.053,0.222 -0.144,0.289 -0.093,0.067 -0.219,0.105 -0.372,0.105 -0.357,0 -0.553,-0.169 -0.572,-0.432l0 0zm1.335 0.244c-0.109,-0.115 -0.164,-0.279 -0.164,-0.461 0,-0.181 0.062,-0.343 0.169,-0.458 0.105,-0.114 0.255,-0.186 0.434,-0.186 0.198,0 0.346,0.074 0.449,0.205 0.102,0.132 0.155,0.313 0.155,0.532l-0.887 0c0.026,0.191 0.126,0.306 0.312,0.306 0.129,0 0.2,-0.058 0.236,-0.151l0.32 0c-0.022,0.11 -0.081,0.208 -0.175,0.282 -0.095,0.074 -0.221,0.119 -0.379,0.119 -0.205,0 -0.36,-0.072 -0.47,-0.188l0 0zm0.16 -0.592l0.544 0c-0.01,-0.157 -0.11,-0.262 -0.26,-0.262 -0.172,0 -0.255,0.1 -0.284,0.262l0 0zm1.093 -0.479l0 -0.382 0.317 0 0 0.382 0.21 0 0 0.226 -0.21 0 0 0.637c0,0.093 0.047,0.122 0.121,0.122l0.062 0c0.012,0 0.022,0 0.034,-0.003l0 0.239c-0.017,0.002 -0.034,0.002 -0.053,0.002 -0.035,0.003 -0.086,0.003 -0.15,0.003 -0.079,0 -0.16,-0.015 -0.224,-0.06 -0.065,-0.045 -0.107,-0.119 -0.107,-0.234l0 -0.706 -0.17 0 0 -0.226 0.17 0 0 0zm0.753 0l0 -0.382 0.317 0 0 0.382 0.21 0 0 0.226 -0.21 0 0 0.637c0,0.093 0.048,0.122 0.122,0.122l0.062 0c0.012,0 0.021,0 0.033,-0.003l0 0.239c-0.016,0.002 -0.033,0.002 -0.052,0.002 -0.036,0.003 -0.086,0.003 -0.15,0.003 -0.079,0 -0.16,-0.015 -0.224,-0.06 -0.065,-0.045 -0.108,-0.119 -0.108,-0.234l0 -0.706 -0.169 0 0 -0.226 0.169 0 0 0zm0.615 0.827l0.301 0c0.021,0.143 0.119,0.203 0.267,0.203 0.143,0 0.224,-0.055 0.224,-0.141 0,-0.057 -0.04,-0.09 -0.098,-0.112 -0.059,-0.021 -0.14,-0.033 -0.224,-0.05 -0.112,-0.021 -0.217,-0.045 -0.298,-0.1 -0.083,-0.055 -0.136,-0.136 -0.136,-0.27 0,-0.133 0.053,-0.228 0.146,-0.295 0.09,-0.065 0.212,-0.096 0.353,-0.096 0.326,0 0.498,0.155 0.524,0.406l-0.293 0c-0.017,-0.134 -0.095,-0.179 -0.236,-0.179 -0.129,0 -0.21,0.045 -0.21,0.136 0,0.055 0.041,0.081 0.105,0.1 0.062,0.022 0.145,0.031 0.231,0.05 0.103,0.022 0.21,0.045 0.294,0.1 0.083,0.058 0.138,0.143 0.138,0.286 0,0.124 -0.052,0.222 -0.143,0.289 -0.093,0.067 -0.22,0.105 -0.372,0.105 -0.358,0 -0.553,-0.169 -0.573,-0.432l0 0zm-14.035 0.908l0 1.705 -0.345 0 0 -1.705 0.345 0zm0.549 0.648c0.083,-0.133 0.193,-0.2 0.362,-0.2 0.129,0 0.232,0.048 0.306,0.129 0.074,0.083 0.117,0.196 0.117,0.329l0 0.799 -0.325 0 0 -0.751c0,-0.134 -0.074,-0.224 -0.212,-0.224 -0.143,0 -0.248,0.112 -0.248,0.281l0 0.694 -0.324 0 0 -1.223 0.317 0 0 0.166 0.007 0 0 0zm0.894 0.661l0.301 0c0.021,0.143 0.119,0.203 0.267,0.203 0.143,0 0.224,-0.055 0.224,-0.141 0,-0.057 -0.04,-0.091 -0.098,-0.112 -0.059,-0.021 -0.14,-0.033 -0.224,-0.05 -0.112,-0.022 -0.217,-0.045 -0.298,-0.1 -0.083,-0.055 -0.136,-0.136 -0.136,-0.27 0,-0.133 0.053,-0.229 0.146,-0.295 0.09,-0.065 0.212,-0.096 0.352,-0.096 0.327,0 0.499,0.155 0.525,0.406l-0.293 0c-0.017,-0.134 -0.096,-0.179 -0.236,-0.179 -0.129,0 -0.21,0.045 -0.21,0.136 0,0.055 0.04,0.081 0.105,0.1 0.062,0.021 0.145,0.031 0.231,0.05 0.103,0.021 0.21,0.045 0.293,0.1 0.084,0.057 0.139,0.143 0.139,0.286 0,0.124 -0.053,0.222 -0.143,0.289 -0.093,0.067 -0.22,0.105 -0.372,0.105 -0.358,0 -0.554,-0.17 -0.573,-0.432l0 0zm1.293 -0.827l0 -0.382 0.317 0 0 0.382 0.21 0 0 0.226 -0.21 0 0 0.637c0,0.093 0.048,0.121 0.122,0.121l0.062 0c0.012,0 0.021,0 0.033,-0.002l0 0.239c-0.017,0.002 -0.033,0.002 -0.052,0.002 -0.036,0.002 -0.086,0.002 -0.151,0.002 -0.078,0 -0.159,-0.014 -0.224,-0.059 -0.064,-0.046 -0.107,-0.119 -0.107,-0.234l0 -0.706 -0.169 0 0 -0.226 0.169 0 0 0zm1.004 -0.437l0 0.291 -0.324 0 0 -0.291 0.324 0zm0 0.437l0 1.223 -0.324 0 0 -1.223 0.324 0zm0.293 0l0 -0.382 0.317 0 0 0.382 0.21 0 0 0.226 -0.21 0 0 0.637c0,0.093 0.048,0.121 0.122,0.121l0.062 0c0.012,0 0.022,0 0.034,-0.002l0 0.239c-0.017,0.002 -0.034,0.002 -0.053,0.002 -0.036,0.002 -0.086,0.002 -0.15,0.002 -0.079,0 -0.16,-0.014 -0.224,-0.059 -0.065,-0.046 -0.108,-0.119 -0.108,-0.234l0 -0.706 -0.169 0 0 -0.226 0.169 0 0 0zm1.453 1.08l-0.008 0c-0.083,0.112 -0.178,0.176 -0.35,0.176 -0.274,0 -0.425,-0.169 -0.425,-0.441l0 -0.815 0.322 0 0 0.76c0,0.143 0.062,0.222 0.203,0.222 0.153,0 0.246,-0.114 0.246,-0.277l0 -0.705 0.324 0 0 1.223 -0.312 0 0 -0.143 0 0zm0.605 -1.08l0 -0.382 0.318 0 0 0.382 0.21 0 0 0.226 -0.21 0 0 0.637c0,0.093 0.047,0.121 0.121,0.121l0.062 0c0.012,0 0.022,0 0.034,-0.002l0 0.239c-0.017,0.002 -0.034,0.002 -0.053,0.002 -0.036,0.002 -0.086,0.002 -0.15,0.002 -0.079,0 -0.16,-0.014 -0.224,-0.059 -0.065,-0.046 -0.108,-0.119 -0.108,-0.234l0 -0.706 -0.169 0 0 -0.226 0.169 0 0 0zm0.773 1.07c-0.11,-0.114 -0.164,-0.279 -0.164,-0.46 0,-0.181 0.062,-0.343 0.169,-0.458 0.105,-0.114 0.255,-0.186 0.434,-0.186 0.198,0 0.346,0.074 0.448,0.205 0.103,0.131 0.155,0.313 0.155,0.532l-0.887 0c0.026,0.191 0.127,0.305 0.313,0.305 0.128,0 0.2,-0.057 0.236,-0.15l0.319 0c-0.021,0.11 -0.081,0.208 -0.174,0.281 -0.095,0.074 -0.222,0.12 -0.379,0.12 -0.205,0 -0.36,-0.072 -0.47,-0.189l0 0zm0.16 -0.591l0.544 0c-0.01,-0.158 -0.11,-0.262 -0.26,-0.262 -0.172,0 -0.255,0.1 -0.284,0.262l0 0zm1.524 0.591c-0.115,-0.114 -0.179,-0.276 -0.179,-0.458 0,-0.181 0.064,-0.343 0.179,-0.46 0.112,-0.114 0.269,-0.186 0.46,-0.186 0.191,0 0.348,0.072 0.463,0.186 0.112,0.117 0.176,0.279 0.176,0.46 0,0.182 -0.064,0.344 -0.176,0.458 -0.115,0.117 -0.272,0.189 -0.463,0.189 -0.191,0 -0.348,-0.072 -0.46,-0.189zm0.77 -0.458c0,-0.24 -0.11,-0.4 -0.31,-0.4 -0.2,0 -0.31,0.16 -0.31,0.4 0,0.239 0.11,0.399 0.31,0.399 0.201,0 0.31,-0.16 0.31,-0.399zm0.537 -0.612l0 -0.11c0,-0.15 0.057,-0.251 0.155,-0.31 0.095,-0.057 0.231,-0.077 0.389,-0.06l0 0.251c-0.153,-0.008 -0.22,0.009 -0.22,0.138l0 0.091 0.22 0 0 0.233 -0.22 0 0 0.99 -0.324 0 0 -0.99 -0.167 0 0 -0.233 0.167 0 0 0zm-9.342 1.735l0 0.29 -0.513 0 0 1.415 -0.345 0 0 -1.415 -0.513 0 0 -0.29 1.371 0zm-0.036 1.552c-0.109,-0.114 -0.164,-0.279 -0.164,-0.46 0,-0.181 0.062,-0.344 0.169,-0.458 0.105,-0.115 0.255,-0.186 0.434,-0.186 0.198,0 0.346,0.074 0.449,0.205 0.102,0.131 0.155,0.312 0.155,0.532l-0.888 0c0.027,0.191 0.127,0.305 0.313,0.305 0.129,0 0.2,-0.057 0.236,-0.15l0.32 0c-0.022,0.11 -0.082,0.207 -0.175,0.281 -0.095,0.074 -0.221,0.12 -0.379,0.12 -0.205,0 -0.36,-0.072 -0.47,-0.189l0 0zm0.16 -0.591l0.544 0c-0.01,-0.158 -0.11,-0.263 -0.26,-0.263 -0.172,0 -0.255,0.1 -0.284,0.263l0 0zm1.128 0.591c-0.109,-0.114 -0.169,-0.277 -0.169,-0.458 0,-0.181 0.06,-0.343 0.167,-0.46 0.105,-0.115 0.255,-0.186 0.444,-0.186 0.159,0 0.286,0.048 0.381,0.124 0.093,0.079 0.153,0.191 0.174,0.324l-0.317 0c-0.021,-0.109 -0.103,-0.188 -0.224,-0.188 -0.198,0 -0.296,0.145 -0.296,0.386 0,0.234 0.091,0.387 0.291,0.387 0.134,0 0.224,-0.067 0.246,-0.208l0.312 0c-0.009,0.131 -0.067,0.246 -0.16,0.329 -0.095,0.086 -0.229,0.139 -0.391,0.139 -0.195,0 -0.348,-0.072 -0.458,-0.189l0 0zm1.467 -0.911c0.091,-0.131 0.186,-0.193 0.355,-0.193 0.129,0 0.232,0.048 0.306,0.129 0.074,0.083 0.116,0.195 0.116,0.329l0 0.799 -0.324 0 0 -0.752c0,-0.133 -0.074,-0.224 -0.212,-0.224 -0.143,0 -0.248,0.112 -0.248,0.282l0 0.694 -0.325 0 0 -1.705 0.325 0 0 0.641 0.007 0 0 0zm1.288 0.007c0.083,-0.133 0.193,-0.2 0.362,-0.2 0.129,0 0.232,0.048 0.306,0.129 0.074,0.083 0.116,0.195 0.116,0.329l0 0.799 -0.324 0 0 -0.752c0,-0.133 -0.074,-0.224 -0.212,-0.224 -0.143,0 -0.248,0.112 -0.248,0.282l0 0.694 -0.324 0 0 -1.224 0.317 0 0 0.167 0.007 0 0 0zm1.09 0.904c-0.115,-0.114 -0.179,-0.277 -0.179,-0.458 0,-0.181 0.064,-0.343 0.179,-0.46 0.112,-0.115 0.269,-0.186 0.46,-0.186 0.191,0 0.348,0.071 0.463,0.186 0.112,0.117 0.176,0.279 0.176,0.46 0,0.182 -0.064,0.344 -0.176,0.458 -0.115,0.117 -0.272,0.189 -0.463,0.189 -0.191,0 -0.348,-0.072 -0.46,-0.189zm0.77 -0.458c0,-0.241 -0.11,-0.4 -0.31,-0.4 -0.2,0 -0.31,0.159 -0.31,0.4 0,0.239 0.11,0.399 0.31,0.399 0.2,0 0.31,-0.16 0.31,-0.399zm0.794 -1.094l0 1.705 -0.324 0 0 -1.705 0.324 0zm0.32 1.552c-0.115,-0.114 -0.179,-0.277 -0.179,-0.458 0,-0.181 0.064,-0.343 0.179,-0.46 0.112,-0.115 0.269,-0.186 0.46,-0.186 0.191,0 0.348,0.071 0.463,0.186 0.112,0.117 0.176,0.279 0.176,0.46 0,0.182 -0.064,0.344 -0.176,0.458 -0.115,0.117 -0.272,0.189 -0.463,0.189 -0.191,0 -0.348,-0.072 -0.46,-0.189zm0.77 -0.458c0,-0.241 -0.11,-0.4 -0.31,-0.4 -0.2,0 -0.31,0.159 -0.31,0.4 0,0.239 0.11,0.399 0.31,0.399 0.2,0 0.31,-0.16 0.31,-0.399zm0.432 0.647l0.322 0c0.026,0.076 0.093,0.135 0.245,0.135 0.182,0 0.272,-0.083 0.272,-0.255l0 -0.133 -0.007 0c-0.074,0.083 -0.162,0.143 -0.319,0.143 -0.139,0 -0.27,-0.053 -0.37,-0.155 -0.103,-0.1 -0.169,-0.243 -0.169,-0.429 0,-0.182 0.054,-0.332 0.15,-0.437 0.093,-0.105 0.222,-0.162 0.379,-0.162 0.153,0 0.265,0.06 0.339,0.162l0.004 0 0 -0.129 0.313 0 0 1.131c0,0.171 -0.053,0.288 -0.146,0.372 -0.102,0.095 -0.26,0.138 -0.441,0.138 -0.339,0 -0.536,-0.143 -0.572,-0.381l0 0zm0.789 -0.468c0.045,-0.06 0.067,-0.141 0.067,-0.234 0,-0.09 -0.024,-0.174 -0.072,-0.233 -0.047,-0.06 -0.119,-0.098 -0.219,-0.098 -0.167,0 -0.274,0.126 -0.274,0.334 0,0.21 0.107,0.329 0.276,0.329 0.103,0 0.174,-0.038 0.222,-0.098l0 0zm0.706 0.577c0.131,0 0.181,-0.064 0.181,-0.167 0,-0.031 -0.004,-0.071 -0.019,-0.121 -0.016,-0.05 -0.038,-0.117 -0.074,-0.21l-0.329 -0.871 0.341 0 0.182 0.551c0.019,0.057 0.035,0.122 0.052,0.177 0.007,0.031 0.017,0.059 0.026,0.09l0.005 0c0.007,-0.031 0.014,-0.059 0.022,-0.09 0.011,-0.055 0.03,-0.12 0.05,-0.177l0.171 -0.551 0.327 0 -0.427 1.255c-0.048,0.138 -0.093,0.229 -0.157,0.286 -0.067,0.06 -0.151,0.083 -0.275,0.083l-0.19 0 0 -0.255 0.114 0 0 0z"/>
 </g>
</svg>
