<?xml version="1.0" encoding="UTF-8"?>
<!DOCTYPE svg PUBLIC "-//W3C//DTD SVG 1.1//EN" "http://www.w3.org/Graphics/SVG/1.1/DTD/svg11.dtd">
<!-- Creator: CorelDRAW -->
<svg xmlns="http://www.w3.org/2000/svg" xml:space="preserve" width="348px" height="60px" version="1.1" shape-rendering="geometricPrecision" text-rendering="geometricPrecision" image-rendering="optimizeQuality" fill-rule="evenodd" clip-rule="evenodd"
viewBox="0 0 53.831 9.211"
 xmlns:xlink="http://www.w3.org/1999/xlink"
 xmlns:xodm="http://www.corel.com/coreldraw/odm/2003">
 <g id="Capa_x0020_1">
  <metadata id="CorelCorpID_0Corel-Layer"/>
  <g id="_2625343636512">
   <path fill="#2B2A29" fill-rule="nonzero" d="M0 0.31l1.677 0c0.653,0 1.137,0.096 1.453,0.29 0.318,0.194 0.476,0.496 0.476,0.905 0,0.271 -0.07,0.5 -0.208,0.691 -0.137,0.191 -0.319,0.313 -0.545,0.368l0 0.033c0.298,0.078 0.514,0.21 0.648,0.394 0.133,0.184 0.2,0.423 0.2,0.717 0,0.436 -0.163,0.78 -0.491,1.03 -0.327,0.251 -0.775,0.377 -1.34,0.377l-1.87 0 0 -4.805zm1.298 1.844l0.391 0c0.186,0 0.331,-0.039 0.433,-0.116 0.102,-0.076 0.153,-0.191 0.153,-0.341 0,-0.27 -0.205,-0.405 -0.612,-0.405l-0.365 0 0 0.862zm0 0.948l0 1.01 0.457 0c0.405,0 0.608,-0.171 0.608,-0.513 0,-0.16 -0.054,-0.282 -0.162,-0.369 -0.109,-0.085 -0.266,-0.128 -0.473,-0.128l-0.43 0z"/>
   <path id="_1" fill="#2B2A29" fill-rule="nonzero" d="M5.912 5.182c-0.62,0 -1.101,-0.165 -1.444,-0.495 -0.342,-0.329 -0.514,-0.799 -0.514,-1.409 0,-0.629 0.158,-1.111 0.477,-1.448 0.317,-0.336 0.77,-0.504 1.359,-0.504 0.561,0 0.994,0.146 1.3,0.438 0.305,0.293 0.458,0.715 0.458,1.264l0 0.572 -2.296 0c0.009,0.208 0.085,0.372 0.228,0.489 0.143,0.118 0.339,0.178 0.586,0.178 0.225,0 0.433,-0.022 0.622,-0.064 0.19,-0.043 0.395,-0.116 0.616,-0.219l0 0.925c-0.201,0.102 -0.409,0.174 -0.623,0.213 -0.215,0.04 -0.472,0.06 -0.769,0.06zm-0.076 -2.981c-0.15,0 -0.277,0.048 -0.379,0.143 -0.102,0.095 -0.162,0.245 -0.178,0.449l1.102 0c-0.004,-0.18 -0.055,-0.323 -0.152,-0.431 -0.098,-0.108 -0.228,-0.161 -0.393,-0.161z"/>
   <path id="_2" fill="#2B2A29" fill-rule="nonzero" d="M11.894 1.306c-0.308,0 -0.55,0.126 -0.722,0.379 -0.174,0.253 -0.261,0.602 -0.261,1.047 0,0.924 0.353,1.387 1.056,1.387 0.212,0 0.418,-0.03 0.618,-0.089 0.199,-0.059 0.399,-0.13 0.601,-0.214l0 1.099c-0.401,0.178 -0.854,0.267 -1.36,0.267 -0.726,0 -1.281,-0.211 -1.668,-0.632 -0.387,-0.42 -0.58,-1.028 -0.58,-1.823 0,-0.497 0.093,-0.935 0.28,-1.312 0.188,-0.376 0.457,-0.666 0.809,-0.869 0.352,-0.203 0.765,-0.304 1.241,-0.304 0.519,0 1.015,0.112 1.488,0.338l-0.397 1.022c-0.177,-0.084 -0.356,-0.154 -0.533,-0.211 -0.177,-0.057 -0.368,-0.085 -0.572,-0.085z"/>
   <path id="_3" fill="#2B2A29" fill-rule="nonzero" d="M17.257 3.246c0,0.609 -0.164,1.083 -0.492,1.424 -0.326,0.341 -0.785,0.512 -1.374,0.512 -0.565,0 -1.015,-0.174 -1.348,-0.523 -0.334,-0.349 -0.501,-0.82 -0.501,-1.413 0,-0.608 0.164,-1.079 0.491,-1.416 0.328,-0.336 0.786,-0.504 1.378,-0.504 0.365,0 0.688,0.077 0.969,0.233 0.28,0.156 0.496,0.379 0.649,0.67 0.151,0.289 0.228,0.629 0.228,1.017zm-2.411 -0.002c0,0.319 0.043,0.564 0.128,0.731 0.085,0.167 0.229,0.251 0.431,0.251 0.198,0 0.339,-0.084 0.422,-0.251 0.082,-0.167 0.122,-0.412 0.122,-0.731 0,-0.318 -0.042,-0.558 -0.125,-0.719 -0.083,-0.163 -0.225,-0.244 -0.426,-0.244 -0.197,0 -0.339,0.081 -0.424,0.242 -0.085,0.161 -0.128,0.401 -0.128,0.721z"/>
   <path id="_4" fill="#2B2A29" fill-rule="nonzero" d="M19.893 1.326c0.112,0 0.218,0.009 0.318,0.026l0.073 0.013 -0.115 1.212c-0.105,-0.025 -0.25,-0.039 -0.437,-0.039 -0.28,0 -0.483,0.064 -0.61,0.192 -0.128,0.129 -0.19,0.313 -0.19,0.554l0 1.831 -1.286 0 0 -3.722 0.957 0 0.201 0.593 0.061 0c0.108,-0.197 0.257,-0.356 0.449,-0.477 0.192,-0.123 0.385,-0.183 0.579,-0.183z"/>
   <path id="_5" fill="#2B2A29" fill-rule="nonzero" d="M21.482 5.182c-0.266,0 -0.497,-0.075 -0.695,-0.227 -0.199,-0.151 -0.351,-0.373 -0.46,-0.667 -0.109,-0.294 -0.163,-0.637 -0.163,-1.03 0,-0.604 0.122,-1.078 0.365,-1.42 0.243,-0.342 0.578,-0.512 1.001,-0.512 0.209,0 0.392,0.041 0.548,0.124 0.157,0.084 0.299,0.225 0.428,0.422l0.027 0c-0.041,-0.292 -0.063,-0.583 -0.063,-0.875l0 -0.997 1.296 0 0 5.115 -0.97 0 -0.276 -0.469 -0.05 0c-0.221,0.358 -0.55,0.536 -0.988,0.536zm0.525 -1.016c0.207,0 0.351,-0.065 0.435,-0.194 0.084,-0.129 0.13,-0.329 0.137,-0.598l0 -0.102c0,-0.329 -0.047,-0.562 -0.141,-0.701 -0.094,-0.139 -0.242,-0.209 -0.443,-0.209 -0.17,0 -0.3,0.08 -0.393,0.238 -0.093,0.159 -0.14,0.386 -0.14,0.678 0,0.29 0.047,0.51 0.141,0.661 0.095,0.152 0.229,0.227 0.404,0.227z"/>
   <path id="_6" fill="#2B2A29" fill-rule="nonzero" d="M25.593 5.115l-1.285 0 0 -5.115 1.285 0 0 5.115z"/>
   <path id="_7" fill="#2B2A29" fill-rule="nonzero" d="M27.936 5.182c-0.62,0 -1.101,-0.165 -1.444,-0.495 -0.342,-0.329 -0.514,-0.799 -0.514,-1.409 0,-0.629 0.158,-1.111 0.477,-1.448 0.317,-0.336 0.77,-0.504 1.359,-0.504 0.561,0 0.994,0.146 1.3,0.438 0.305,0.293 0.458,0.715 0.458,1.264l0 0.572 -2.296 0c0.009,0.208 0.085,0.372 0.229,0.489 0.142,0.118 0.338,0.178 0.585,0.178 0.226,0 0.433,-0.022 0.623,-0.064 0.189,-0.043 0.395,-0.116 0.615,-0.219l0 0.925c-0.2,0.102 -0.409,0.174 -0.623,0.213 -0.214,0.04 -0.471,0.06 -0.769,0.06zm-0.076 -2.981c-0.15,0 -0.277,0.048 -0.379,0.143 -0.102,0.095 -0.161,0.245 -0.178,0.449l1.102 0c-0.004,-0.18 -0.055,-0.323 -0.152,-0.431 -0.098,-0.108 -0.228,-0.161 -0.393,-0.161z"/>
   <path id="_8" fill="#2B2A29" fill-rule="nonzero" d="M32.829 3.971c0,0.399 -0.136,0.701 -0.407,0.905 -0.271,0.204 -0.662,0.306 -1.17,0.306 -0.276,0 -0.516,-0.015 -0.719,-0.045 -0.204,-0.029 -0.411,-0.083 -0.624,-0.163l0 -1.029c0.199,0.087 0.418,0.159 0.654,0.216 0.238,0.057 0.45,0.085 0.636,0.085 0.279,0 0.418,-0.063 0.418,-0.19 0,-0.065 -0.04,-0.125 -0.117,-0.175 -0.078,-0.052 -0.304,-0.153 -0.679,-0.301 -0.34,-0.14 -0.579,-0.299 -0.715,-0.478 -0.136,-0.178 -0.204,-0.405 -0.204,-0.678 0,-0.347 0.134,-0.616 0.401,-0.809 0.267,-0.193 0.645,-0.289 1.133,-0.289 0.246,0 0.476,0.027 0.692,0.081 0.216,0.053 0.439,0.132 0.671,0.234l-0.348 0.829c-0.17,-0.076 -0.351,-0.142 -0.542,-0.195 -0.19,-0.054 -0.345,-0.081 -0.466,-0.081 -0.21,0 -0.315,0.051 -0.315,0.155 0,0.062 0.037,0.117 0.11,0.162 0.074,0.045 0.286,0.136 0.636,0.274 0.26,0.108 0.454,0.212 0.582,0.315 0.129,0.103 0.223,0.224 0.282,0.364 0.061,0.138 0.091,0.307 0.091,0.507z"/>
   <path id="_9" fill="#2B2A29" fill-rule="nonzero" d="M36.073 3.971c0,0.399 -0.136,0.701 -0.407,0.905 -0.271,0.204 -0.662,0.306 -1.17,0.306 -0.276,0 -0.516,-0.015 -0.719,-0.045 -0.204,-0.029 -0.411,-0.083 -0.625,-0.163l0 -1.029c0.2,0.087 0.419,0.159 0.655,0.216 0.238,0.057 0.45,0.085 0.636,0.085 0.279,0 0.418,-0.063 0.418,-0.19 0,-0.065 -0.04,-0.125 -0.117,-0.175 -0.079,-0.052 -0.304,-0.153 -0.679,-0.301 -0.341,-0.14 -0.579,-0.299 -0.715,-0.478 -0.136,-0.178 -0.204,-0.405 -0.204,-0.678 0,-0.347 0.134,-0.616 0.401,-0.809 0.267,-0.193 0.645,-0.289 1.133,-0.289 0.246,0 0.476,0.027 0.692,0.081 0.215,0.053 0.439,0.132 0.671,0.234l-0.348 0.829c-0.17,-0.076 -0.351,-0.142 -0.542,-0.195 -0.19,-0.054 -0.345,-0.081 -0.466,-0.081 -0.21,0 -0.315,0.051 -0.315,0.155 0,0.062 0.037,0.117 0.11,0.162 0.074,0.045 0.286,0.136 0.636,0.274 0.26,0.108 0.454,0.212 0.582,0.315 0.129,0.103 0.223,0.224 0.282,0.364 0.061,0.138 0.091,0.307 0.091,0.507z"/>
   <path id="_10" fill="#2B2A29" fill-rule="nonzero" d="M40.387 5.115l-1.298 0 0 -3.742 -1.174 0 0 -1.063 3.643 0 0 1.063 -1.171 0 0 3.742z"/>
   <path id="_11" fill="#2B2A29" fill-rule="nonzero" d="M43.151 5.182c-0.62,0 -1.101,-0.165 -1.445,-0.495 -0.342,-0.329 -0.513,-0.799 -0.513,-1.409 0,-0.629 0.158,-1.111 0.476,-1.448 0.318,-0.336 0.771,-0.504 1.36,-0.504 0.561,0 0.993,0.146 1.3,0.438 0.305,0.293 0.457,0.715 0.457,1.264l0 0.572 -2.296 0c0.009,0.208 0.086,0.372 0.229,0.489 0.143,0.118 0.339,0.178 0.586,0.178 0.225,0 0.433,-0.022 0.622,-0.064 0.19,-0.043 0.395,-0.116 0.616,-0.219l0 0.925c-0.201,0.102 -0.41,0.174 -0.624,0.213 -0.214,0.04 -0.471,0.06 -0.768,0.06zm-0.076 -2.981c-0.151,0 -0.277,0.048 -0.379,0.143 -0.102,0.095 -0.162,0.245 -0.179,0.449l1.103 0c-0.005,-0.18 -0.055,-0.323 -0.153,-0.431 -0.097,-0.108 -0.227,-0.161 -0.392,-0.161z"/>
   <path id="_12" fill="#2B2A29" fill-rule="nonzero" d="M46.865 5.182c-0.609,0 -1.07,-0.165 -1.385,-0.494 -0.314,-0.328 -0.471,-0.8 -0.471,-1.416 0,-0.618 0.169,-1.097 0.509,-1.437 0.34,-0.34 0.822,-0.509 1.449,-0.509 0.432,0 0.838,0.094 1.219,0.282l-0.378 0.95c-0.156,-0.067 -0.299,-0.122 -0.431,-0.162 -0.131,-0.041 -0.268,-0.061 -0.41,-0.061 -0.209,0 -0.369,0.081 -0.483,0.244 -0.114,0.161 -0.171,0.39 -0.171,0.686 0,0.596 0.22,0.894 0.661,0.894 0.377,0 0.738,-0.11 1.083,-0.329l0 1.023c-0.331,0.219 -0.728,0.329 -1.192,0.329z"/>
   <path id="_13" fill="#2B2A29" fill-rule="nonzero" d="M50.796 5.115l0 -2.031c0,-0.499 -0.148,-0.749 -0.444,-0.749 -0.21,0 -0.365,0.089 -0.465,0.265 -0.099,0.176 -0.149,0.469 -0.149,0.878l0 1.637 -1.285 0 0 -5.115 1.285 0 0 0.727c0,0.328 -0.018,0.703 -0.053,1.125l0.059 0c0.123,-0.193 0.268,-0.329 0.438,-0.409 0.168,-0.078 0.364,-0.117 0.587,-0.117 0.417,0 0.741,0.12 0.972,0.36 0.231,0.24 0.346,0.575 0.346,1.007l0 2.422 -1.291 0z"/>
   <path id="_14" fill="#ED2E38" fill-rule="nonzero" d="M52.456 4.567c0,-0.201 0.06,-0.356 0.18,-0.466 0.119,-0.109 0.293,-0.164 0.52,-0.164 0.217,0 0.384,0.055 0.5,0.164 0.116,0.11 0.175,0.265 0.175,0.466 0,0.198 -0.061,0.351 -0.18,0.462 -0.12,0.111 -0.284,0.166 -0.495,0.166 -0.216,0 -0.388,-0.055 -0.512,-0.163 -0.125,-0.11 -0.188,-0.265 -0.188,-0.465z"/>
   <path fill="#2B2A29" fill-rule="nonzero" d="M2.642 8.531l-0.541 0 -0.873 -1.519 -0.012 0c0.017,0.269 0.026,0.46 0.026,0.574l0 0.945 -0.38 0 0 -2.007 0.536 0 0.872 1.503 0.009 0c-0.014,-0.261 -0.02,-0.446 -0.02,-0.553l0 -0.95 0.383 0 0 2.007z"/>
   <path id="_1_0" fill="#2B2A29" fill-rule="nonzero" d="M4.155 8.531l-1.156 0 0 -2.007 1.156 0 0 0.348 -0.73 0 0 0.442 0.679 0 0 0.348 -0.679 0 0 0.517 0.73 0 0 0.352z"/>
   <path id="_2_1" fill="#2B2A29" fill-rule="nonzero" d="M6.381 8.531l-0.485 0 -0.272 -1.055c-0.01,-0.037 -0.027,-0.115 -0.051,-0.232 -0.024,-0.118 -0.038,-0.197 -0.042,-0.237 -0.006,0.049 -0.019,0.129 -0.041,0.238 -0.022,0.109 -0.039,0.188 -0.051,0.234l-0.271 1.052 -0.482 0 -0.513 -2.007 0.419 0 0.257 1.095c0.045,0.202 0.077,0.378 0.097,0.526 0.006,-0.052 0.018,-0.133 0.038,-0.242 0.02,-0.11 0.038,-0.195 0.056,-0.255l0.292 -1.124 0.402 0 0.293 1.124c0.012,0.05 0.029,0.127 0.048,0.23 0.019,0.104 0.034,0.193 0.043,0.267 0.01,-0.072 0.024,-0.161 0.044,-0.267 0.021,-0.107 0.039,-0.193 0.055,-0.259l0.256 -1.095 0.418 0 -0.51 2.007z"/>
   <path id="_3_2" fill="#2B2A29" fill-rule="nonzero" d="M7.517 9.121c-0.096,0 -0.18,-0.011 -0.251,-0.03l0 -0.355c0.073,0.018 0.14,0.028 0.2,0.028 0.093,0 0.16,-0.029 0.2,-0.087 0.04,-0.058 0.06,-0.149 0.06,-0.273l0 -1.88 0.426 0 0 1.878c0,0.234 -0.054,0.412 -0.16,0.535 -0.108,0.122 -0.266,0.184 -0.475,0.184z"/>
   <path id="_4_3" fill="#2B2A29" fill-rule="nonzero" d="M10.331 7.525c0,0.332 -0.082,0.588 -0.247,0.766 -0.165,0.179 -0.401,0.268 -0.708,0.268 -0.308,0 -0.544,-0.089 -0.709,-0.268 -0.164,-0.178 -0.246,-0.435 -0.246,-0.769 0,-0.334 0.082,-0.589 0.247,-0.765 0.165,-0.176 0.402,-0.264 0.711,-0.264 0.308,0 0.544,0.088 0.707,0.266 0.163,0.177 0.245,0.433 0.245,0.766zm-1.464 0c0,0.224 0.042,0.393 0.127,0.507 0.085,0.113 0.213,0.17 0.382,0.17 0.339,0 0.509,-0.226 0.509,-0.677 0,-0.452 -0.169,-0.678 -0.506,-0.678 -0.17,0 -0.297,0.057 -0.384,0.171 -0.085,0.114 -0.128,0.283 -0.128,0.507z"/>
   <path id="_5_4" fill="#2B2A29" fill-rule="nonzero" d="M10.599 8.531l0 -2.007 0.425 0 0 2.007 -0.425 0z"/>
   <path id="_6_5" fill="#2B2A29" fill-rule="nonzero" d="M13.162 8.531l-0.54 0 -0.873 -1.519 -0.013 0c0.018,0.269 0.027,0.46 0.027,0.574l0 0.945 -0.381 0 0 -2.007 0.537 0 0.871 1.503 0.01 0c-0.014,-0.261 -0.02,-0.446 -0.02,-0.553l0 -0.95 0.382 0 0 2.007z"/>
   <path id="_7_6" fill="#2B2A29" fill-rule="nonzero" d="M14.294 8.531l-0.425 0 0 -1.653 -0.545 0 0 -0.354 1.515 0 0 0.354 -0.545 0 0 1.653z"/>
   <path id="_8_7" fill="#2B2A29" fill-rule="nonzero" d="M16.876 6.524l0.429 0 -0.682 2.007 -0.464 0 -0.681 -2.007 0.43 0 0.378 1.194c0.021,0.071 0.042,0.153 0.065,0.246 0.022,0.094 0.036,0.159 0.042,0.196 0.01,-0.084 0.044,-0.231 0.102,-0.442l0.381 -1.194z"/>
   <path id="_9_8" fill="#2B2A29" fill-rule="nonzero" d="M18.566 8.531l-1.156 0 0 -2.007 1.156 0 0 0.348 -0.731 0 0 0.442 0.68 0 0 0.348 -0.68 0 0 0.517 0.731 0 0 0.352z"/>
   <path id="_10_9" fill="#2B2A29" fill-rule="nonzero" d="M20.617 8.531l-0.541 0 -0.873 -1.519 -0.012 0c0.017,0.269 0.026,0.46 0.026,0.574l0 0.945 -0.38 0 0 -2.007 0.537 0 0.871 1.503 0.01 0c-0.014,-0.261 -0.021,-0.446 -0.021,-0.553l0 -0.95 0.383 0 0 2.007z"/>
   <path id="_11_10" fill="#2B2A29" fill-rule="nonzero" d="M21.749 8.531l-0.426 0 0 -1.653 -0.545 0 0 -0.354 1.515 0 0 0.354 -0.544 0 0 1.653z"/>
   <path id="_12_11" fill="#2B2A29" fill-rule="nonzero" d="M24.089 6.524l0 1.299c0,0.148 -0.034,0.278 -0.1,0.389 -0.066,0.112 -0.162,0.198 -0.287,0.257 -0.126,0.06 -0.274,0.09 -0.445,0.09 -0.258,0 -0.458,-0.066 -0.601,-0.199 -0.143,-0.132 -0.214,-0.313 -0.214,-0.543l0 -1.293 0.424 0 0 1.228c0,0.156 0.031,0.269 0.093,0.341 0.062,0.073 0.165,0.109 0.309,0.109 0.139,0 0.24,-0.037 0.303,-0.109 0.062,-0.073 0.094,-0.187 0.094,-0.343l0 -1.226 0.424 0z"/>
   <path id="_13_12" fill="#2B2A29" fill-rule="nonzero" d="M24.858 7.415l0.137 0c0.134,0 0.234,-0.023 0.297,-0.068 0.065,-0.044 0.096,-0.115 0.096,-0.211 0,-0.095 -0.032,-0.163 -0.097,-0.203 -0.066,-0.041 -0.167,-0.061 -0.304,-0.061l-0.129 0 0 0.543zm0 0.345l0 0.771 -0.426 0 0 -2.007 0.585 0c0.273,0 0.474,0.049 0.605,0.149 0.131,0.099 0.196,0.25 0.196,0.452 0,0.118 -0.032,0.223 -0.097,0.315 -0.065,0.092 -0.157,0.164 -0.276,0.216 0.302,0.451 0.499,0.743 0.59,0.875l-0.472 0 -0.479 -0.771 -0.226 0z"/>
   <path id="_14_13" fill="#2B2A29" fill-rule="nonzero" d="M27.296 8.531l-1.155 0 0 -2.007 1.155 0 0 0.348 -0.73 0 0 0.442 0.679 0 0 0.348 -0.679 0 0 0.517 0.73 0 0 0.352z"/>
   <path id="_15" fill="#2B2A29" fill-rule="nonzero" d="M28.723 6.394l0.194 0 0 2.817 -0.194 0 0 -2.817z"/>
   <path id="_16" fill="#2B2A29" fill-rule="nonzero" d="M30.452 6.524l0.567 0c0.266,0 0.459,0.04 0.578,0.119 0.119,0.08 0.178,0.206 0.178,0.378 0,0.119 -0.033,0.217 -0.099,0.294 -0.067,0.078 -0.163,0.128 -0.291,0.151l0 0.013c0.305,0.052 0.458,0.213 0.458,0.481 0,0.179 -0.061,0.319 -0.182,0.42 -0.121,0.1 -0.291,0.151 -0.509,0.151l-0.7 0 0 -2.007zm0.234 0.86l0.384 0c0.165,0 0.283,-0.026 0.355,-0.078 0.073,-0.052 0.109,-0.139 0.109,-0.261 0,-0.113 -0.04,-0.194 -0.121,-0.244 -0.08,-0.05 -0.208,-0.075 -0.384,-0.075l-0.343 0 0 0.658zm0 0.197l0 0.75 0.418 0c0.162,0 0.284,-0.031 0.366,-0.094 0.082,-0.062 0.123,-0.161 0.123,-0.294 0,-0.125 -0.042,-0.216 -0.126,-0.275 -0.083,-0.058 -0.211,-0.087 -0.382,-0.087l-0.399 0z"/>
   <path id="_17" fill="#2B2A29" fill-rule="nonzero" d="M32.727 8.559c-0.222,0 -0.397,-0.068 -0.526,-0.204 -0.128,-0.135 -0.193,-0.323 -0.193,-0.564 0,-0.243 0.06,-0.435 0.179,-0.578 0.12,-0.143 0.28,-0.214 0.481,-0.214 0.189,0 0.338,0.062 0.448,0.186 0.109,0.124 0.165,0.287 0.165,0.49l0 0.144 -1.036 0c0.004,0.177 0.049,0.311 0.133,0.403 0.085,0.091 0.204,0.137 0.358,0.137 0.162,0 0.322,-0.034 0.48,-0.102l0 0.204c-0.081,0.035 -0.157,0.06 -0.229,0.075 -0.071,0.015 -0.158,0.023 -0.26,0.023zm-0.061 -1.369c-0.121,0 -0.217,0.039 -0.289,0.118 -0.072,0.078 -0.114,0.187 -0.127,0.326l0.786 0c0,-0.143 -0.032,-0.254 -0.096,-0.33 -0.064,-0.076 -0.155,-0.114 -0.274,-0.114z"/>
   <path id="_18" fill="#2B2A29" fill-rule="nonzero" d="M34.208 6.999c0.066,0 0.126,0.005 0.179,0.016l-0.031 0.212c-0.063,-0.013 -0.118,-0.02 -0.165,-0.02 -0.122,0 -0.226,0.049 -0.312,0.148 -0.086,0.099 -0.13,0.222 -0.13,0.369l0 0.807 -0.228 0 0 -1.504 0.189 0 0.025 0.278 0.012 0c0.055,-0.098 0.122,-0.174 0.201,-0.227 0.079,-0.053 0.165,-0.079 0.26,-0.079z"/>
   <path id="_19" fill="#2B2A29" fill-rule="nonzero" d="M35.725 7.027l0 0.144 -0.278 0.033c0.025,0.032 0.048,0.074 0.068,0.125 0.02,0.052 0.03,0.11 0.03,0.175 0,0.147 -0.05,0.265 -0.151,0.352 -0.1,0.088 -0.238,0.132 -0.414,0.132 -0.045,0 -0.087,-0.004 -0.127,-0.011 -0.097,0.051 -0.145,0.116 -0.145,0.194 0,0.041 0.017,0.071 0.051,0.091 0.034,0.02 0.092,0.03 0.174,0.03l0.267 0c0.163,0 0.288,0.034 0.375,0.103 0.087,0.068 0.131,0.168 0.131,0.299 0,0.166 -0.067,0.293 -0.2,0.38 -0.134,0.088 -0.329,0.131 -0.585,0.131 -0.197,0 -0.349,-0.036 -0.455,-0.11 -0.107,-0.073 -0.16,-0.176 -0.16,-0.309 0,-0.092 0.029,-0.171 0.088,-0.238 0.058,-0.066 0.141,-0.112 0.247,-0.135 -0.039,-0.018 -0.071,-0.045 -0.097,-0.081 -0.026,-0.037 -0.039,-0.08 -0.039,-0.128 0,-0.055 0.015,-0.103 0.044,-0.144 0.029,-0.041 0.075,-0.081 0.139,-0.12 -0.078,-0.032 -0.141,-0.086 -0.191,-0.163 -0.048,-0.077 -0.073,-0.165 -0.073,-0.264 0,-0.164 0.049,-0.291 0.148,-0.38 0.099,-0.09 0.239,-0.134 0.42,-0.134 0.079,0 0.15,0.009 0.213,0.028l0.52 0zm-1.2 1.756c0,0.081 0.035,0.143 0.104,0.185 0.068,0.042 0.166,0.063 0.295,0.063 0.191,0 0.333,-0.029 0.425,-0.086 0.091,-0.057 0.138,-0.134 0.138,-0.232 0,-0.081 -0.026,-0.138 -0.076,-0.169 -0.05,-0.031 -0.145,-0.047 -0.284,-0.047l-0.273 0c-0.104,0 -0.184,0.025 -0.242,0.074 -0.058,0.049 -0.087,0.12 -0.087,0.212zm0.124 -1.275c0,0.105 0.03,0.185 0.089,0.239 0.06,0.054 0.143,0.081 0.249,0.081 0.222,0 0.333,-0.108 0.333,-0.324 0,-0.227 -0.112,-0.339 -0.337,-0.339 -0.108,0 -0.19,0.029 -0.248,0.086 -0.057,0.058 -0.086,0.144 -0.086,0.257z"/>
   <path id="_20" fill="#2B2A29" fill-rule="nonzero" d="M36.916 8.531l0 -0.973c0,-0.123 -0.027,-0.214 -0.084,-0.275 -0.055,-0.06 -0.143,-0.09 -0.262,-0.09 -0.157,0 -0.273,0.042 -0.346,0.127 -0.073,0.085 -0.11,0.226 -0.11,0.422l0 0.789 -0.227 0 0 -1.504 0.185 0 0.037 0.205 0.011 0c0.047,-0.074 0.112,-0.132 0.196,-0.172 0.085,-0.041 0.178,-0.061 0.282,-0.061 0.181,0 0.317,0.043 0.409,0.131 0.091,0.087 0.137,0.227 0.137,0.419l0 0.982 -0.228 0z"/>
   <path id="_21" fill="#2B2A29" fill-rule="nonzero" d="M38.1 8.559c-0.223,0 -0.398,-0.068 -0.526,-0.204 -0.129,-0.135 -0.193,-0.323 -0.193,-0.564 0,-0.243 0.059,-0.435 0.179,-0.578 0.119,-0.143 0.279,-0.214 0.481,-0.214 0.188,0 0.338,0.062 0.447,0.186 0.11,0.124 0.165,0.287 0.165,0.49l0 0.144 -1.036 0c0.005,0.177 0.049,0.311 0.133,0.403 0.085,0.091 0.204,0.137 0.358,0.137 0.162,0 0.322,-0.034 0.48,-0.102l0 0.204c-0.08,0.035 -0.156,0.06 -0.228,0.075 -0.072,0.015 -0.158,0.023 -0.26,0.023zm-0.062 -1.369c-0.121,0 -0.217,0.039 -0.289,0.118 -0.072,0.078 -0.114,0.187 -0.127,0.326l0.787 0c0,-0.143 -0.032,-0.254 -0.096,-0.33 -0.065,-0.076 -0.156,-0.114 -0.275,-0.114z"/>
   <path id="_22" fill="#2B2A29" fill-rule="nonzero" d="M39.58 6.999c0.066,0 0.126,0.005 0.179,0.016l-0.031 0.212c-0.062,-0.013 -0.117,-0.02 -0.165,-0.02 -0.121,0 -0.225,0.049 -0.312,0.148 -0.086,0.099 -0.129,0.222 -0.129,0.369l0 0.807 -0.228 0 0 -1.504 0.188 0 0.026 0.278 0.011 0c0.056,-0.098 0.123,-0.174 0.201,-0.227 0.079,-0.053 0.165,-0.079 0.26,-0.079z"/>
   <path id="_23" fill="#2B2A29" fill-rule="nonzero" d="M41.549 8.531l-0.045 -0.215 -0.011 0c-0.075,0.095 -0.15,0.159 -0.224,0.193 -0.075,0.033 -0.168,0.05 -0.28,0.05 -0.149,0 -0.266,-0.039 -0.35,-0.116 -0.085,-0.077 -0.127,-0.186 -0.127,-0.328 0,-0.304 0.243,-0.464 0.728,-0.478l0.255 -0.009 0 -0.093c0,-0.117 -0.025,-0.205 -0.076,-0.261 -0.051,-0.056 -0.132,-0.084 -0.243,-0.084 -0.126,0 -0.267,0.038 -0.426,0.115l-0.069 -0.174c0.074,-0.04 0.155,-0.072 0.243,-0.095 0.088,-0.023 0.177,-0.034 0.265,-0.034 0.18,0 0.312,0.039 0.399,0.119 0.087,0.08 0.13,0.207 0.13,0.383l0 1.027 -0.169 0zm-0.515 -0.161c0.142,0 0.254,-0.039 0.334,-0.116 0.081,-0.078 0.122,-0.187 0.122,-0.327l0 -0.136 -0.228 0.01c-0.181,0.006 -0.311,0.034 -0.392,0.085 -0.08,0.049 -0.12,0.127 -0.12,0.232 0,0.082 0.025,0.145 0.075,0.188 0.05,0.043 0.12,0.064 0.209,0.064z"/>
   <path id="_24" fill="#2B2A29" fill-rule="nonzero" d="M43.07 8.531l0 -0.973c0,-0.123 -0.028,-0.214 -0.084,-0.275 -0.056,-0.06 -0.143,-0.09 -0.262,-0.09 -0.158,0 -0.273,0.042 -0.346,0.127 -0.073,0.085 -0.11,0.226 -0.11,0.422l0 0.789 -0.228 0 0 -1.504 0.185 0 0.037 0.205 0.012 0c0.046,-0.074 0.112,-0.132 0.196,-0.172 0.084,-0.041 0.178,-0.061 0.281,-0.061 0.182,0 0.318,0.043 0.409,0.131 0.092,0.087 0.138,0.227 0.138,0.419l0 0.982 -0.228 0z"/>
   <path id="_25" fill="#2B2A29" fill-rule="nonzero" d="M44.642 8.329l-0.012 0c-0.105,0.153 -0.263,0.23 -0.472,0.23 -0.197,0 -0.35,-0.068 -0.46,-0.202 -0.109,-0.135 -0.163,-0.326 -0.163,-0.574 0,-0.248 0.054,-0.441 0.164,-0.578 0.11,-0.137 0.263,-0.206 0.459,-0.206 0.204,0 0.36,0.074 0.469,0.222l0.018 0 -0.009 -0.108 -0.006 -0.106 0 -0.613 0.228 0 0 2.137 -0.185 0 -0.031 -0.202zm-0.455 0.038c0.155,0 0.268,-0.042 0.338,-0.126 0.07,-0.085 0.105,-0.222 0.105,-0.41l0 -0.048c0,-0.213 -0.035,-0.365 -0.106,-0.456 -0.071,-0.092 -0.185,-0.137 -0.34,-0.137 -0.134,0 -0.236,0.052 -0.307,0.156 -0.071,0.103 -0.106,0.25 -0.106,0.44 0,0.192 0.035,0.337 0.106,0.434 0.07,0.098 0.173,0.147 0.31,0.147z"/>
   <path id="_26" fill="#2B2A29" fill-rule="nonzero" d="M46.817 6.704c-0.22,0 -0.394,0.073 -0.522,0.22 -0.127,0.147 -0.191,0.348 -0.191,0.603 0,0.263 0.061,0.466 0.184,0.609 0.123,0.143 0.299,0.215 0.527,0.215 0.14,0 0.299,-0.026 0.479,-0.076l0 0.205c-0.139,0.052 -0.311,0.079 -0.515,0.079 -0.296,0 -0.524,-0.09 -0.684,-0.269 -0.161,-0.18 -0.241,-0.434 -0.241,-0.765 0,-0.207 0.039,-0.388 0.116,-0.544 0.077,-0.155 0.189,-0.275 0.335,-0.359 0.145,-0.084 0.317,-0.126 0.515,-0.126 0.211,0 0.395,0.038 0.552,0.114l-0.099 0.201c-0.152,-0.072 -0.303,-0.107 -0.456,-0.107z"/>
   <path id="_27" fill="#2B2A29" fill-rule="nonzero" d="M47.777 8.531l-0.227 0 0 -2.137 0.227 0 0 2.137z"/>
   <path id="_28" fill="#2B2A29" fill-rule="nonzero" d="M49.412 7.777c0,0.246 -0.062,0.437 -0.185,0.575 -0.124,0.138 -0.295,0.207 -0.512,0.207 -0.135,0 -0.254,-0.032 -0.359,-0.095 -0.104,-0.063 -0.184,-0.154 -0.241,-0.272 -0.057,-0.118 -0.085,-0.256 -0.085,-0.415 0,-0.245 0.061,-0.436 0.184,-0.573 0.122,-0.137 0.293,-0.205 0.51,-0.205 0.211,0 0.378,0.069 0.502,0.21 0.124,0.14 0.186,0.329 0.186,0.568zm-1.146 0c0,0.192 0.038,0.339 0.115,0.44 0.077,0.1 0.19,0.15 0.339,0.15 0.149,0 0.263,-0.05 0.34,-0.15 0.077,-0.1 0.116,-0.247 0.116,-0.44 0,-0.191 -0.039,-0.336 -0.116,-0.435 -0.077,-0.1 -0.192,-0.149 -0.343,-0.149 -0.149,0 -0.261,0.048 -0.337,0.146 -0.076,0.098 -0.114,0.244 -0.114,0.438z"/>
   <path id="_29" fill="#2B2A29" fill-rule="nonzero" d="M50.299 8.559c-0.222,0 -0.397,-0.068 -0.526,-0.204 -0.129,-0.135 -0.193,-0.323 -0.193,-0.564 0,-0.243 0.06,-0.435 0.179,-0.578 0.12,-0.143 0.28,-0.214 0.481,-0.214 0.189,0 0.338,0.062 0.448,0.186 0.109,0.124 0.165,0.287 0.165,0.49l0 0.144 -1.037 0c0.005,0.177 0.049,0.311 0.134,0.403 0.085,0.091 0.204,0.137 0.358,0.137 0.161,0 0.322,-0.034 0.48,-0.102l0 0.204c-0.081,0.035 -0.157,0.06 -0.229,0.075 -0.071,0.015 -0.158,0.023 -0.26,0.023zm-0.062 -1.369c-0.12,0 -0.216,0.039 -0.288,0.118 -0.072,0.078 -0.114,0.187 -0.127,0.326l0.786 0c0,-0.143 -0.032,-0.254 -0.096,-0.33 -0.064,-0.076 -0.156,-0.114 -0.275,-0.114z"/>
   <path id="_30" fill="#2B2A29" fill-rule="nonzero" d="M52.123 8.531l0 -0.973c0,-0.123 -0.027,-0.214 -0.084,-0.275 -0.055,-0.06 -0.143,-0.09 -0.262,-0.09 -0.157,0 -0.273,0.042 -0.346,0.127 -0.073,0.085 -0.11,0.226 -0.11,0.422l0 0.789 -0.227 0 0 -1.504 0.185 0 0.037 0.205 0.011 0c0.047,-0.074 0.112,-0.132 0.196,-0.172 0.084,-0.041 0.178,-0.061 0.282,-0.061 0.181,0 0.317,0.043 0.409,0.131 0.091,0.087 0.137,0.227 0.137,0.419l0 0.982 -0.228 0z"/>
   <path id="_31" fill="#ED2E38" fill-rule="nonzero" d="M52.638 8.385c0,-0.061 0.014,-0.107 0.042,-0.139 0.028,-0.031 0.068,-0.047 0.12,-0.047 0.053,0 0.095,0.016 0.125,0.047 0.029,0.032 0.044,0.078 0.044,0.139 0,0.059 -0.015,0.105 -0.045,0.137 -0.03,0.032 -0.072,0.048 -0.124,0.048 -0.046,0 -0.085,-0.015 -0.116,-0.043 -0.03,-0.029 -0.046,-0.076 -0.046,-0.142z"/>
  </g>
 </g>
</svg>
