<?xml version="1.0" encoding="UTF-8"?>
<!DOCTYPE svg PUBLIC "-//W3C//DTD SVG 1.1//EN" "http://www.w3.org/Graphics/SVG/1.1/DTD/svg11.dtd">
<!-- Creator: CorelDRAW -->
<svg xmlns="http://www.w3.org/2000/svg" xml:space="preserve" width="192px" height="51px" version="1.1" shape-rendering="geometricPrecision" text-rendering="geometricPrecision" image-rendering="optimizeQuality" fill-rule="evenodd" clip-rule="evenodd"
viewBox="0 0 59.36 15.829"
 xmlns:xlink="http://www.w3.org/1999/xlink"
 xmlns:xodm="http://www.corel.com/coreldraw/odm/2003">
 <g id="Capa_x0020_1">
  <metadata id="CorelCorpID_0Corel-Layer"/>
  <g id="_1790281812608">
   <path fill="#2B2A29" d="M50.681 4.733l0 1.281c-0.664,-0.25 -1.255,-0.377 -1.772,-0.377 -0.306,0 -0.55,0.057 -0.733,0.166 -0.184,0.111 -0.277,0.247 -0.277,0.408 0,0.213 0.207,0.403 0.624,0.574l1.204 0.586c0.973,0.464 1.456,1.08 1.456,1.854 0,0.644 -0.256,1.157 -0.773,1.537 -0.513,0.384 -1.204,0.574 -2.064,0.574 -0.397,0 -0.754,-0.017 -1.07,-0.053 -0.317,-0.034 -0.681,-0.104 -1.084,-0.204l0 -1.34c0.74,0.25 1.414,0.377 2.021,0.377 0.724,0 1.084,-0.21 1.084,-0.634 0,-0.21 -0.148,-0.381 -0.447,-0.514l-1.338 -0.57c-0.493,-0.223 -0.86,-0.493 -1.1,-0.814 -0.237,-0.323 -0.356,-0.693 -0.356,-1.117 0,-0.593 0.249,-1.07 0.742,-1.433 0.498,-0.36 1.157,-0.541 1.978,-0.541 0.266,0 0.574,0.024 0.914,0.067 0.343,0.047 0.673,0.103 0.991,0.173z"/>
   <path fill="#2B2A29" d="M12.799 4.733l0 1.281c-0.664,-0.25 -1.254,-0.377 -1.771,-0.377 -0.307,0 -0.55,0.057 -0.733,0.166 -0.184,0.111 -0.277,0.247 -0.277,0.408 0,0.213 0.21,0.403 0.626,0.574l1.205 0.586c0.969,0.464 1.453,1.08 1.453,1.854 0,0.644 -0.257,1.157 -0.77,1.537 -0.517,0.384 -1.204,0.574 -2.067,0.574 -0.397,0 -0.754,-0.017 -1.071,-0.053 -0.317,-0.034 -0.677,-0.104 -1.083,-0.204l0 -1.34c0.743,0.25 1.416,0.377 2.02,0.377 0.724,0 1.084,-0.21 1.084,-0.634 0,-0.21 -0.147,-0.381 -0.444,-0.514l-1.337 -0.57c-0.497,-0.223 -0.864,-0.493 -1.1,-0.814 -0.24,-0.323 -0.358,-0.693 -0.358,-1.117 0,-0.593 0.248,-1.07 0.744,-1.433 0.494,-0.36 1.154,-0.541 1.975,-0.541 0.269,0 0.573,0.024 0.917,0.067 0.34,0.047 0.67,0.103 0.987,0.173z"/>
   <path fill="#2B2A29" d="M14.179 4.613l1.961 0 0 6.603 -1.961 0 0 -6.603z"/>
   <path fill="#2B2A29" d="M22.459 4.613l0 1.221 -2.914 0 0 1.464 2.528 0 0 1.1 -2.528 0 0 1.537 2.974 0 0 1.281 -4.862 0 0 -6.603 4.802 0z"/>
   <path fill="#2B2A29" d="M31.616 4.613l0 6.603 -1.831 0 0 -4.355 -1.9 4.415 -1.131 0 -1.827 -4.415 0 4.355 -1.324 0 0 -6.603 2.394 0 1.635 4.042 1.709 -4.042 2.275 0z"/>
   <path fill="#2B2A29" d="M37.932 4.613l0 1.221 -2.898 0 0 1.464 2.527 0 0 1.1 -2.527 0 0 1.537 2.958 0 0 1.281 -4.862 0 0 -6.603 4.802 0z"/>
   <path fill="#2B2A29" d="M44.814 4.613l0 6.603 -2.08 0 -2.335 -4.235 0 4.235 -1.323 0 0 -6.603 2.141 0 2.274 4.162 0 -4.162 1.323 0z"/>
  </g>
  <path fill="none" d="M0 0l59.36 0 0 15.829 -59.36 0 0 -15.829z"/>
 </g>
</svg>
