<?xml version="1.0" encoding="UTF-8"?>
<!DOCTYPE svg PUBLIC "-//W3C//DTD SVG 1.1//EN" "http://www.w3.org/Graphics/SVG/1.1/DTD/svg11.dtd">
<!-- Creator: CorelDRAW -->
<svg xmlns="http://www.w3.org/2000/svg" xml:space="preserve" width="233px" height="41px" version="1.1" shape-rendering="geometricPrecision" text-rendering="geometricPrecision" image-rendering="optimizeQuality" fill-rule="evenodd" clip-rule="evenodd"
viewBox="0 0 26.163 4.557"
 xmlns:xlink="http://www.w3.org/1999/xlink"
 xmlns:xodm="http://www.corel.com/coreldraw/odm/2003">
 <g id="Capa_x0020_1">
  <metadata id="CorelCorpID_0Corel-Layer"/>
  <path fill="#0E1B24" d="M1.552 2.756c-0.125,-0.264 -0.19,-0.318 -0.204,-0.679 -0.509,0.088 -0.986,0.394 -1.188,0.685 -0.056,0 -0.041,-0.014 -0.047,0.041 -0.664,1.453 1.747,1.977 3.182,1.669 0.653,-0.14 1.452,-0.53 1.507,-1.143 0.067,-0.739 -0.767,-1.043 -1.36,-1.268 -0.062,-0.462 -0.491,-1.066 -0.761,-1.538 -0.088,-0.153 -0.169,-0.378 -0.267,-0.523 -0.789,0.977 1.236,2.012 0.564,3.182 -0.052,-0.081 -0.065,-0.166 -0.114,-0.258 -0.052,-0.097 -0.109,-0.185 -0.158,-0.272l-0.86 -1.544c-0.025,-0.049 -0.025,-0.04 -0.049,-0.068 -0.646,1.311 1.268,2.019 0.582,3.186 -0.074,-0.095 -0.12,-0.258 -0.176,-0.354 -0.076,-0.132 -0.132,-0.222 -0.211,-0.363 -0.129,-0.231 -0.294,-0.47 -0.401,-0.703 -0.004,-0.062 0.015,-0.05 -0.039,-0.05zm17.843 -0.058c-0.01,-0.111 0.008,-0.061 -0.046,-0.11 -0.084,-0.788 -1.454,-0.555 -1.951,-0.453l-0.012 2.27 0.493 0.004 0.011 -1.924c0.206,-0.041 0.479,-0.063 0.677,-0.011 0.223,0.059 0.308,0.159 0.322,0.432 0.025,0.481 -0.037,1.029 0.009,1.5l0.492 0.003 0.005 -1.711zm-11.063 1.392c0.007,0.055 -0.008,0.04 0.048,0.04 0.404,0.462 0.909,0.435 1.372,0.06l0.03 0.217 0.46 0.001 -0.005 -2.254c-0.375,-0.21 -2.066,-0.464 -2.121,1.041 -0.014,0.389 0.065,0.621 0.216,0.895zm11.813 0.139c0,0.058 -0.014,0.042 0.042,0.049 0.202,0.12 0.364,0.21 0.679,0.186 0.365,-0.027 0.46,-0.219 0.571,-0.305l0.021 0.236 0.415 0.015c0.097,-0.037 0.071,0.052 0.068,-0.353 -0.004,-0.623 0.033,-2.503 -0.01,-2.828 -0.114,-0.016 -0.231,-0.023 -0.303,0.042l-0.179 0.021c-0.053,0.053 -0.046,-0.081 -0.047,0.109l-0.001 0.622 -0.148 -0.016c-0.431,0.043 -1.073,-0.034 -1.357,0.652 -0.187,0.452 -0.169,1.183 0.249,1.57zm4.735 -2.039l0 2.219 0.495 -0.002 0.007 -1.937 0.756 -0.022c0.008,-0.068 0.018,-0.14 0.025,-0.211l-0.008 -0.173c-0.002,-0.006 -0.008,-0.017 -0.011,-0.026 -0.172,-0.047 -1.142,-0.049 -1.264,0.152zm-11.591 -0.903c-0.047,0.683 -0.005,1.505 -0.006,2.195 0,0.391 0.023,0.682 0.272,0.849 0.21,0.141 0.89,0.237 0.962,-0.014l0.043 -0.343c-0.355,0.066 -0.741,0.162 -0.768,-0.31 -0.018,-0.31 -0.018,-0.834 0.005,-1.142l0.74 -0.006 0.039 -0.418 -0.784 -0.008 0 -0.852 -0.503 0.049zm-2 1.198c1.433,-0.297 0.897,0.712 1.007,1.922l0.489 0.002c0.038,-0.324 0.011,-0.801 0.011,-1.142 0,-0.367 0.037,-0.724 -0.191,-0.966 -0.419,-0.444 -1.558,-0.287 -1.828,-0.147l0.008 2.254 0.498 0 0.006 -1.923zm5.049 1.392c-0.23,0.237 -1.084,0.377 -1.102,-0.573 -0.014,-0.731 0.404,-0.916 1.109,-0.833l-0.007 1.406zm0.502 -1.723c-0.302,-0.188 -1.079,-0.176 -1.416,-0.056 -0.921,0.33 -0.873,1.723 -0.285,2.192 0.506,0.403 1.153,0.032 1.182,-0.08 0.003,-0.012 0.013,-0.012 0.033,-0.02l0.034 0.218 0.458 0 -0.006 -2.254zm-7.117 1.747c-0.561,0.361 -1.079,0.08 -1.092,-0.597 -0.014,-0.724 0.403,-0.924 1.104,-0.831l-0.012 1.428zm14.217 -0.894l-1.103 0.009c0.065,-0.804 1.106,-0.772 1.103,-0.009zm0.436 0.869c-0.299,0.058 -1.402,0.506 -1.532,-0.43 1.476,-0.126 1.588,0.245 1.611,-0.286 0.059,-1.373 -1.33,-1.303 -1.787,-0.889 -0.484,0.438 -0.711,2.269 0.996,2.195 0.152,-0.007 0.426,-0.046 0.555,-0.105 0.133,-0.061 0.124,-0.174 0.157,-0.485zm-16.712 -2.557c-0.732,-0.181 -2.04,-0.267 -1.922,0.837 0.105,0.977 1.607,0.785 1.535,1.507 -0.066,0.655 -1.34,0.224 -1.501,0.195l-0.066 0.462c2.082,0.672 2.466,-0.795 1.822,-1.36 -0.298,-0.262 -1.159,-0.463 -1.258,-0.792 -0.096,-0.319 0.168,-0.486 0.448,-0.508 0.322,-0.024 0.571,0.051 0.86,0.125l0.082 -0.466zm13.755 1.18l0.005 1.372c-0.494,0.387 -1.091,0.169 -1.119,-0.532 -0.027,-0.695 0.405,-1.072 1.114,-0.84z"/>
 </g>
</svg>
