<?xml version="1.0" encoding="UTF-8"?>
<!DOCTYPE svg PUBLIC "-//W3C//DTD SVG 1.1//EN" "http://www.w3.org/Graphics/SVG/1.1/DTD/svg11.dtd">
<!-- Creator: CorelDRAW -->
<svg xmlns="http://www.w3.org/2000/svg" xml:space="preserve" width="366px" height="34px" version="1.1" shape-rendering="geometricPrecision" text-rendering="geometricPrecision" image-rendering="optimizeQuality" fill-rule="evenodd" clip-rule="evenodd"
viewBox="0 0 63.336 5.816"
 xmlns:xlink="http://www.w3.org/1999/xlink"
 xmlns:xodm="http://www.corel.com/coreldraw/odm/2003">
 <g id="Capa_x0020_1">
  <metadata id="CorelCorpID_0Corel-Layer"/>
  <g id="logo_x0020_Gamadecor_x0020_Porcelanosa_x0020_Grupo.cdr">
   <g>
    <path fill="black" d="M10.15 0.303c0.399,0.004 0.746,-0.018 1.051,0.168 0.562,0.341 0.441,1.281 -0.061,1.617 -0.293,0.197 -0.582,0.221 -0.995,0.173l0.005 -1.958zm-0.896 -0.208c0.021,0.02 -0.011,0.005 0.045,0.034 0.123,0.065 0.214,0.09 0.237,0.318 0.02,0.186 0.021,3.556 0.002,3.784 -0.008,0.094 -0.028,0.177 -0.079,0.237 -0.021,0.025 -0.056,0.053 -0.093,0.074 -0.055,0.029 -0.062,0.013 -0.111,0.06 0.037,0.026 -0.001,0.025 0.133,0.023 0.05,0 0.1,0 0.149,0l0.898 0c-0.043,-0.124 -0.228,-0.053 -0.276,-0.328 -0.033,-0.183 -0.024,-1.632 -0.009,-1.769 0.802,0.011 0.642,-0.065 1.138,0.731 0.163,0.263 0.582,1.008 0.733,1.14 0.337,0.293 0.941,0.244 0.998,0.184 -0.078,-0.082 -0.186,-0.036 -0.494,-0.485 -0.36,-0.525 -0.666,-1.261 -1.116,-1.628 -0.054,-0.044 -0.107,-0.071 -0.148,-0.115 0.383,-0.121 0.682,-0.387 0.832,-0.705 0.298,-0.633 0.01,-1.231 -0.635,-1.455 -0.506,-0.176 -1.403,-0.117 -2.014,-0.119 -0.075,0 -0.136,-0.011 -0.19,0.019z"/>
    <path fill="black" d="M36.238 0.25c1.148,-0.146 1.937,0.809 2.062,1.812 0.072,0.589 -0.043,1.188 -0.285,1.621 -0.213,0.38 -0.599,0.687 -1.168,0.76 -1.138,0.146 -1.945,-0.81 -2.069,-1.807 -0.128,-1.04 0.243,-2.23 1.46,-2.386zm0.102 -0.235c-0.363,0.037 -0.647,0.116 -0.94,0.257 -0.87,0.417 -1.397,1.303 -1.306,2.29 0.116,1.271 1.226,2.263 2.656,2.123 0.919,-0.09 1.761,-0.643 2.09,-1.494 0.126,-0.324 0.181,-0.664 0.142,-1.054 -0.127,-1.264 -1.208,-2.267 -2.642,-2.122z"/>
    <path fill="black" d="M4.297 2.302c-0.001,-1.186 0.607,-2.15 1.846,-2.061 2.272,0.164 2.355,4.398 -0.112,4.211 -1.01,-0.076 -1.732,-1.05 -1.734,-2.15zm1.589 -2.288c-0.347,0.035 -0.667,0.121 -0.94,0.258 -0.14,0.07 -0.259,0.14 -0.37,0.222 -0.239,0.177 -0.161,0.139 -0.322,0.29 -0.389,0.362 -0.686,1.008 -0.619,1.76 0.158,1.772 1.995,2.621 3.577,1.884 0.133,-0.062 0.267,-0.143 0.371,-0.222 0.112,-0.085 0.245,-0.189 0.329,-0.283 0.44,-0.49 0.684,-1.059 0.613,-1.774 -0.065,-0.65 -0.355,-1.198 -0.815,-1.581 -0.207,-0.173 -0.457,-0.338 -0.77,-0.436 -0.34,-0.107 -0.672,-0.155 -1.054,-0.118z"/>
    <path fill="black" d="M29.549 0.577l0 3.561c0,0.115 -0.018,0.241 -0.074,0.316 -0.092,0.122 -0.188,0.081 -0.218,0.166l0.867 0.005c-0.027,-0.085 0.053,0.01 -0.143,-0.103 -0.178,-0.103 -0.149,-0.412 -0.149,-0.625l0 -3.06 1.031 1.208c0.216,0.278 0.577,0.679 0.821,0.979l0.101 0.121c0.022,0.025 0.034,0.032 0.054,0.056 0.02,0.023 0.029,0.042 0.048,0.065l0.417 0.491c0.075,0.08 0.133,0.168 0.203,0.242l0.559 0.665c0.04,0.053 0.009,0.041 0.077,0.048l0 -4.135c0,-0.117 0.011,-0.241 0.07,-0.323 0.057,-0.079 0.092,-0.084 0.161,-0.117 0.098,-0.048 0.032,0.01 0.06,-0.061l-0.867 0c0.026,0.069 -0.036,0.015 0.058,0.059 0.074,0.036 0.147,0.064 0.19,0.162 0.046,0.104 0.045,0.282 0.045,0.41 -0.001,0.912 0.017,1.896 -0.001,2.79 -0.094,-0.079 -0.263,-0.303 -0.352,-0.407 -0.065,-0.076 -0.122,-0.132 -0.18,-0.209l-1.1 -1.292c-0.058,-0.071 -0.113,-0.145 -0.177,-0.214 -0.055,-0.058 -0.123,-0.145 -0.176,-0.213l-0.556 -0.649c-0.054,-0.06 -0.116,-0.15 -0.176,-0.214l-0.182 -0.222 -0.704 0.002c0.042,0.122 0.293,0.009 0.293,0.498z"/>
    <path fill="black" d="M0.896 0.304c0.41,0 0.866,-0.051 1.175,0.153 0.254,0.166 0.433,0.478 0.385,0.92 -0.043,0.395 -0.252,0.692 -0.501,0.835 -0.432,0.248 -0.754,0.093 -1.065,0.004l0.006 -1.912zm-0.604 3.574c0,0.149 0.006,0.401 -0.045,0.522 -0.036,0.083 -0.101,0.126 -0.175,0.158 -0.091,0.038 -0.05,0.002 -0.072,0.067l1.302 0c-0.027,-0.076 0.061,-0.007 -0.148,-0.079 -0.046,-0.016 -0.13,-0.061 -0.158,-0.083 -0.08,-0.065 -0.106,-0.218 -0.106,-0.362l0.002 -1.61c0.483,0.107 1.028,0.241 1.531,-0.05 1.122,-0.648 0.844,-2.365 -0.713,-2.365l-1.71 0c0.023,0.066 -0.033,0.016 0.056,0.06 0.08,0.039 0.159,0.069 0.2,0.189 0.071,0.208 0.036,3.265 0.036,3.553z"/>
    <path fill="black" d="M17.243 4.235c0.018,-0.107 0.022,-0.845 -0.009,-0.918 -0.042,0.025 -0.185,0.344 -0.317,0.523 -0.097,0.13 -0.288,0.288 -0.449,0.385 -0.37,0.221 -0.944,0.277 -1.4,0.131 -1.8,-0.578 -1.799,-3.622 -0.013,-4.047 0.472,-0.113 1.041,-0.047 1.398,0.177 0.549,0.343 0.563,0.698 0.72,0.96 0.03,-0.03 0.013,0.014 0.026,-0.036l0.002 -0.928c-0.119,-0.047 -0.287,-0.164 -0.592,-0.282 -1.795,-0.692 -3.588,0.564 -3.562,2.158 0.015,0.922 0.571,1.754 1.38,2.102 0.481,0.207 0.903,0.273 1.491,0.22 0.43,-0.039 1.068,-0.226 1.325,-0.445z"/>
    <path fill="black" d="M44.128 1.064l0.796 1.905 -1.581 0.005 0.785 -1.91zm-1.986 3.561c0.163,0 0.667,0.02 0.789,-0.011 -0.069,-0.178 -0.315,0.094 0.007,-0.664l0.294 -0.722 1.802 0.001c0.031,0.114 0.095,0.234 0.138,0.346 0.048,0.123 0.097,0.235 0.146,0.355 0.05,0.124 0.101,0.231 0.145,0.355 0.049,0.135 0.045,0.215 -0.065,0.271 -0.078,0.039 -0.047,0.007 -0.066,0.069l1.108 -0.001c-0.037,-0.11 -0.204,-0.022 -0.387,-0.445 -0.085,-0.196 -0.159,-0.393 -0.242,-0.594 -0.162,-0.393 -0.325,-0.799 -0.49,-1.198 -0.02,-0.048 -0.929,-2.327 -0.99,-2.385 -0.06,0.029 -0.099,0.166 -0.141,0.269 -0.436,1.068 -0.953,2.212 -1.401,3.289 -0.083,0.198 -0.285,0.72 -0.405,0.876 -0.033,0.043 -0.065,0.062 -0.112,0.091 -0.177,0.11 -0.102,0.004 -0.13,0.098z"/>
    <path fill="black" d="M26.462 1.064l0.785 1.91 -1.582 -0.002 0.797 -1.908zm-1.995 3.561l0.793 -0.001c-0.04,-0.114 -0.225,-0.059 -0.141,-0.316 0.101,-0.31 0.346,-0.773 0.439,-1.079l1.799 0c0.115,0.342 0.348,0.797 0.437,1.07 0.022,0.069 0.033,0.142 -0.001,0.197 -0.025,0.042 -0.037,0.044 -0.069,0.061 -0.084,0.046 -0.046,-0.002 -0.066,0.068l1.108 -0.001c-0.037,-0.112 -0.205,-0.014 -0.387,-0.446l-1.588 -3.884c-0.03,-0.073 -0.079,-0.243 -0.135,-0.292 -0.072,0.039 -0.225,0.467 -0.268,0.566l-0.764 1.797c-0.176,0.402 -0.333,0.792 -0.509,1.197 -0.128,0.297 -0.299,0.832 -0.518,0.966 -0.178,0.109 -0.102,0.008 -0.13,0.097z"/>
    <path fill="black" d="M39.464 3.262l-0.001 0.95c0.2,0.159 0.165,0.175 0.461,0.309 0.415,0.187 0.819,0.24 1.26,0.087 0.173,-0.06 0.4,-0.184 0.495,-0.284 0.13,-0.138 0.229,-0.219 0.327,-0.434 0.266,-0.581 0.08,-1.252 -0.476,-1.606 -0.458,-0.291 -1.203,-0.493 -1.387,-0.894 -0.249,-0.547 0.131,-1.335 1.013,-1.107 0.609,0.157 0.678,0.709 0.764,0.77 0.034,-0.064 0.016,-0.584 0.013,-0.698 -0.043,-0.101 -0.331,-0.24 -0.473,-0.282 -0.597,-0.178 -1.393,-0.032 -1.73,0.466 -0.217,0.32 -0.282,0.854 -0.082,1.233 0.186,0.353 0.471,0.509 0.859,0.701 0.349,0.172 0.761,0.341 0.937,0.601 0.248,0.366 0.109,0.957 -0.159,1.152 -0.344,0.25 -0.85,0.211 -1.188,-0.028 -0.33,-0.233 -0.443,-0.508 -0.576,-0.869 -0.035,-0.096 0.001,-0.039 -0.057,-0.067z"/>
    <path fill="black" d="M18.249 0.633l0 3.431c0,0.123 -0.002,0.26 -0.057,0.364 -0.048,0.09 -0.102,0.098 -0.18,0.136 -0.088,0.043 -0.034,-0.006 -0.054,0.061l2.825 0 0.121 -0.647c-0.073,0.023 -0.069,0.076 -0.203,0.178 -0.382,0.292 -1.423,0.241 -1.853,0.1l0 -1.977c0.207,0 0.995,-0.017 1.165,0.027 0.154,0.039 0.128,0.1 0.225,0.15 0.034,-0.08 0.034,-0.524 0,-0.605 -0.144,0.08 -0.018,0.177 -0.556,0.177l-0.834 0c0,-0.435 -0.017,-1.343 0.003,-1.724 0.28,0 1.426,-0.045 1.63,0.067 0.116,0.064 0.045,0.085 0.155,0.113l0.001 -0.408 -2.68 0c0.045,0.146 0.292,-0.022 0.292,0.557z"/>
    <path fill="black" d="M21.458 0.095c0.064,0.066 0.105,0.034 0.196,0.124 0.059,0.057 0.078,0.129 0.089,0.228l0.001 3.79c-0.017,0.156 -0.05,0.24 -0.174,0.305l-0.078 0.034c-0.023,0.013 -0.02,0.014 -0.033,0.026 0.028,0.02 -0.026,0.014 0.058,0.024l1.281 -0.001c0.266,0 1.17,0.035 1.364,-0.01l0.121 -0.638c-0.077,0.022 -0.084,0.09 -0.15,0.141 -0.451,0.352 -1.3,0.269 -1.784,0.14 -0.002,-0.273 -0.022,-3.667 0.018,-3.869 0.038,-0.193 0.141,-0.21 0.226,-0.258 0.004,-0.002 0.009,-0.004 0.013,-0.006 0.003,-0.003 0.008,-0.006 0.012,-0.009l-0.041 -0.041 -1.119 0.02z"/>
    <g>
     <path fill="black" d="M50.887 4.134c0.004,-0.209 -0.017,-1.221 0.02,-1.368 0.052,-0.204 0.177,-0.144 0.237,-0.256l-1.114 0.001c0.102,0.166 0.324,-0.058 0.323,0.564 0,0.297 0.001,0.595 0,0.892 -0.024,0.087 -0.353,0.227 -0.432,0.252 -0.582,0.182 -1.125,0.062 -1.597,-0.295 -0.234,-0.178 -0.462,-0.521 -0.562,-0.806 -0.13,-0.373 -0.159,-0.808 -0.068,-1.224 0.344,-1.568 2.207,-1.674 2.896,-0.711 0.15,0.21 0.14,0.273 0.201,0.392 0.04,0.079 0,0.027 0.057,0.057l0 -0.837c-0.005,-0.004 -0.011,-0.015 -0.013,-0.012l-0.036 -0.028c-0.017,-0.012 -0.04,-0.023 -0.064,-0.035 -0.044,-0.022 -0.083,-0.043 -0.131,-0.068 -1.627,-0.843 -3.57,0.189 -3.562,1.788 0.005,0.882 0.532,1.542 1.276,1.887 0.573,0.265 1.394,0.261 2.021,0.052 0.268,-0.09 0.409,-0.192 0.548,-0.245z"/>
     <path fill="black" d="M57.966 2.053c0.319,-0.293 1.548,-0.491 1.552,1.022 0.003,1.458 -1.122,1.387 -1.552,1.06l0 -2.082zm-0.069 -0.341l-0.666 0.002c0.032,0.124 0.234,-0.028 0.234,0.469l0 3.192c0,0.103 -0.004,0.211 -0.052,0.289 -0.063,0.099 -0.136,0.072 -0.185,0.146l1.006 0.006c0.133,0 0.051,-0.003 0.077,-0.025 -0.12,-0.056 -0.199,-0.041 -0.277,-0.138 -0.112,-0.138 -0.068,-0.952 -0.068,-1.178 0.606,0.074 1.087,0.122 1.545,-0.182 0.749,-0.497 0.806,-1.921 -0.053,-2.442 -0.19,-0.115 -0.442,-0.194 -0.709,-0.203 -0.414,-0.015 -0.632,0.064 -0.852,0.064z"/>
     <path fill="black" d="M53.873 1.826c0.128,0.102 0.23,0.064 0.237,0.416 0.01,0.548 -0.079,1.539 0.122,1.88 0.267,0.454 0.841,0.555 1.379,0.177 0.139,-0.098 0.288,-0.305 0.334,-0.327l-0.001 0.573 0.739 -0.175c-0.057,-0.097 -0.183,-0.063 -0.225,-0.253 -0.049,-0.223 0.025,-2.125 -0.012,-2.431 -0.012,-0.099 -0.099,-0.04 -0.352,0.022 -0.061,0.015 -0.123,0.032 -0.19,0.049 -0.115,0.029 -0.144,0.016 -0.197,0.069 0.013,0.011 0.014,0.015 0.037,0.03 0.036,0.022 0.08,0.033 0.121,0.078 0.113,0.123 0.079,0.546 0.079,0.744 0,0.37 -0.001,0.741 0,1.111 -0.086,0.129 -0.41,0.395 -0.63,0.449 -0.369,0.091 -0.614,-0.133 -0.678,-0.418 -0.086,-0.385 0.03,-1.905 -0.037,-2.186l-0.694 0.165c-0.038,0.019 -0.012,0.008 -0.032,0.027z"/>
     <path fill="black" d="M61.157 3.313c-0.089,-0.636 0.073,-1.333 0.597,-1.454 1.16,-0.268 1.391,2.233 0.4,2.46 -0.612,0.14 -0.924,-0.478 -0.997,-1.006zm0.611 -1.651c-0.427,0.065 -0.716,0.26 -0.905,0.513 -0.201,0.271 -0.324,0.669 -0.278,1.101 0.081,0.778 0.686,1.369 1.572,1.24 0.745,-0.109 1.265,-0.765 1.167,-1.639 -0.084,-0.753 -0.694,-1.345 -1.556,-1.215z"/>
     <path fill="black" d="M51.668 1.826c0.076,0.063 0.164,0.072 0.205,0.174 0.062,0.154 0.031,1.638 0.031,1.908 0,0.637 -0.148,0.383 -0.238,0.559l0.978 0.001c0.076,0 0.068,0.013 0.11,-0.025 -0.302,-0.19 -0.349,0.114 -0.349,-0.833 0,-0.396 0,-0.793 0,-1.189 0.021,-0.104 0.467,-0.393 0.793,-0.39 0.136,0.002 0.204,0.044 0.297,0.098 0.039,-0.057 0.041,-0.11 0.058,-0.187 0.015,-0.07 0.035,-0.141 0.039,-0.215 -0.246,-0.142 -0.517,-0.088 -0.699,0.051 -0.17,0.129 -0.451,0.412 -0.488,0.432 -0.001,-0.737 0.118,-0.608 -0.449,-0.475 -0.077,0.018 -0.23,0.038 -0.288,0.091z"/>
    </g>
   </g>
  </g>
 </g>
</svg>
