<?xml version="1.0" encoding="UTF-8"?>
<!DOCTYPE svg PUBLIC "-//W3C//DTD SVG 1.1//EN" "http://www.w3.org/Graphics/SVG/1.1/DTD/svg11.dtd">
<!-- Creator: CorelDRAW -->
<svg xmlns="http://www.w3.org/2000/svg" xml:space="preserve" width="192px" height="51px" version="1.1" shape-rendering="geometricPrecision" text-rendering="geometricPrecision" image-rendering="optimizeQuality" fill-rule="evenodd" clip-rule="evenodd"
viewBox="0 0 59.36 15.829"
 xmlns:xlink="http://www.w3.org/1999/xlink"
 xmlns:xodm="http://www.corel.com/coreldraw/odm/2003">
 <g id="Capa_x0020_1">
  <metadata id="CorelCorpID_0Corel-Layer"/>
  <g id="_1790095274592">
   <path fill="black" d="M32.399 1.066l0.212 0c0.514,0 0.876,0.361 0.983,0.769 0.08,0.309 -0.004,4.538 0.024,5.308 0.004,0.091 0.036,0.296 0.049,0.376 0.109,0.689 0.348,1.307 0.848,1.805 1.447,1.442 4.306,1.372 5.625,0.226 0.054,-0.048 0.067,-0.045 0.119,-0.093 0.269,-0.243 0.513,-0.572 0.674,-0.891 0.092,-0.183 0.183,-0.421 0.238,-0.638 0.047,-0.192 0.117,-0.588 0.117,-0.786 -0.001,-0.571 -0.044,-4.93 0.027,-5.278 0.085,-0.418 0.473,-0.798 0.98,-0.798l0.266 0 0 -0.557 -3.768 0 0 0.557c0.486,0 0.834,0.006 1.173,0.473 0.04,0.055 0.06,0.107 0.092,0.172 0.061,0.127 0.088,0.291 0.088,0.47l0 4.775c0,0.66 -0.137,1.131 -0.577,1.572 -0.395,0.397 -0.945,0.607 -1.546,0.629 -0.127,0.005 -0.096,0.034 -0.221,0.013 -0.095,-0.017 -0.159,-0.01 -0.257,-0.011 -0.131,-0.001 -0.365,-0.05 -0.473,-0.084 -0.143,-0.044 -0.254,-0.071 -0.393,-0.137 -0.366,-0.175 -0.659,-0.436 -0.849,-0.796 -0.109,-0.208 -0.221,-0.561 -0.221,-0.868l0 -5.2c0,-0.561 0.476,-1.008 0.956,-1.008l0.424 0 0 -0.557 -4.59 0 0 0.557z"/>
   <path fill="black" d="M28.658 3.534c0.031,0.131 0.1,0.233 0.149,0.355 0.23,0.574 0.557,1.232 0.79,1.81 0.07,0.172 0.27,0.564 0.308,0.726l-2.547 0c0.222,-0.418 0.573,-1.328 0.805,-1.794 0.037,-0.073 0.044,-0.114 0.079,-0.187l0.167 -0.364c0.035,-0.088 0.044,-0.105 0.082,-0.183 0.034,-0.073 0.042,-0.114 0.078,-0.187 0.025,-0.049 0.022,-0.039 0.044,-0.089l0.045 -0.087zm-4.51 6.102l0 0.583 3.21 0c0,-1.059 -0.015,-0.286 -0.674,-0.731 -0.096,-0.065 -0.162,-0.135 -0.223,-0.228 -0.117,-0.178 -0.127,-0.355 -0.083,-0.552 0.019,-0.089 0.034,-0.089 0.068,-0.17l0.461 -1.025 2.627 0c0.318,0 0.553,-0.026 0.849,-0.026 0.031,0.135 0.231,0.547 0.295,0.713 0.135,0.347 0.262,0.445 0.262,0.879 0,0.334 -0.32,0.557 -0.663,0.557l0 0.583 3.581 0 0 -0.583c-0.481,-0.011 -0.752,-0.398 -0.905,-0.793l-3.605 -8.334 -0.743 0 -1.005 2.391c-0.226,0.577 -0.514,1.192 -0.756,1.791 -0.307,0.759 -0.703,1.604 -1.016,2.379l-0.635 1.489c-0.085,0.217 -0.266,0.69 -0.445,0.828 -0.139,0.108 -0.368,0.249 -0.6,0.249z"/>
   <path fill="black" d="M16.799 3.321l0.584 0c0.061,-0.264 0.103,-0.436 0.203,-0.672 0.103,-0.243 0.292,-0.435 0.479,-0.608 0.039,-0.036 0.076,-0.06 0.124,-0.089l0.299 -0.152c0.454,-0.214 1.311,-0.15 1.866,-0.15l0 7.031c0,0.276 -0.178,0.543 -0.324,0.683 -0.215,0.206 -0.479,0.272 -0.843,0.272 0,0.357 -0.054,0.583 0.079,0.583l4.166 0c0.132,0 0.079,-0.226 0.079,-0.583 -0.364,0 -0.628,-0.066 -0.843,-0.272 -0.17,-0.162 -0.324,-0.411 -0.324,-0.736l0 -6.978c0.823,0 1.748,-0.12 2.382,0.484 0.341,0.324 0.484,0.737 0.589,1.187l0.584 0c0,-0.105 -0.012,-0.104 -0.021,-0.164l-0.057 -0.527c-0.007,-0.061 0.003,-0.115 -0.007,-0.179 -0.061,-0.389 -0.116,-1.286 -0.17,-1.581l-0.037 -0.361 -8.516 0 -0.106 1.035c-0.004,0.111 -0.016,0.081 -0.025,0.161 -0.009,0.075 0.002,0.12 -0.012,0.2l-0.149 1.416z"/>
   <path fill="black" d="M39.483 14.969c-0.12,0 -0.266,-0.089 -0.32,-0.159 -0.412,-0.534 0.228,-1.293 0.505,-1.673 0.3,-0.409 0.982,-0.235 0.982,0.08 0,0.163 -0.09,0.445 -0.136,0.581 -0.032,0.097 -0.057,0.178 -0.102,0.269 -0.137,0.271 -0.168,0.391 -0.431,0.656 -0.098,0.099 -0.316,0.246 -0.498,0.246zm-13.982 -0.107c-0.17,0 -0.301,-0.016 -0.399,-0.157 -0.295,-0.423 0.094,-1.227 0.352,-1.455 0.046,-0.04 0.023,-0.014 0.063,-0.043 0.039,-0.029 0.035,-0.03 0.074,-0.059l0.549 -0.326c0.144,-0.053 0.227,-0.055 0.372,-0.032 0.122,0.02 0.245,0.06 0.333,0.119 0.243,0.161 -0.047,0.637 -0.176,0.892 -0.199,0.394 -0.706,1.061 -1.168,1.061zm-5.545 -0.955c-0.087,0 -0.119,-0.096 -0.166,-0.152 -0.072,-0.087 -0.391,-0.249 -0.391,-0.644 0,-0.804 0.842,-0.968 1.285,-0.621 0.118,0.092 0.058,0.158 0.044,0.279 -0.049,0.404 -0.064,0.523 -0.341,0.8 -0.081,0.081 -0.31,0.338 -0.431,0.338zm-0.902 -1.008c0,0.413 0.233,0.713 0.44,1.019 0.116,0.171 0.117,0.135 -0.035,0.261 -0.203,0.168 -0.267,0.361 -0.548,0.567 -0.323,0.236 -0.644,0.362 -1.043,0.162 -0.066,-0.034 -0.116,-0.072 -0.178,-0.114l-0.168 -0.124c-0.087,-0.073 -0.195,-0.21 -0.246,-0.311 -0.221,-0.433 -0.089,-1.224 0.148,-1.577 0.151,-0.224 0.843,-0.601 1.147,-0.328 0.11,0.099 0.005,0.123 0.191,0.127 0,-0.938 -1.356,-0.433 -1.603,-0.064 -0.25,0.374 -0.307,0.834 -0.307,1.311 0,0.467 0.326,0.976 0.695,1.215 0.08,0.053 0.163,0.105 0.256,0.142 0.677,0.261 0.941,0.129 1.49,-0.269 0.113,-0.082 0.52,-0.558 0.69,-0.558 0.164,0 0.732,0.887 1.359,0.776 0.502,-0.089 0.621,-0.425 0.79,-0.855l0.132 -0.425c0.219,0.051 0.308,0.403 0.361,0.594 0.068,0.246 0.155,0.627 0.409,0.627 0.284,-0.593 -0.581,-1.543 0.211,-2.097 0.158,-0.11 0.512,-0.265 0.744,-0.211 -0.16,0.139 -0.273,0.338 -0.044,0.494 0.088,0.059 0.166,0.064 0.278,0.094 0.173,0.046 0.397,0.138 0.588,0.154 -0.01,0.47 -0.305,1.01 0.125,1.44 0.401,0.401 1.083,0.226 1.448,-0.133l0.268 -0.314c0.078,-0.105 0.174,-0.257 0.282,-0.329 0.111,0.478 0.398,0.928 0.981,0.928 0.94,0 0.73,-1.231 1.072,-1.794 0.118,-0.195 0.349,-0.33 0.547,-0.434 0.154,0.291 0.048,0.724 -0.011,1.023 -0.029,0.148 -0.333,1.454 0.276,1.046 0,-0.561 0.256,-1.024 0.356,-1.528 0.022,-0.112 0.038,-0.206 0.071,-0.3 0.032,-0.088 0.075,-0.171 0.156,-0.216 0.281,-0.154 0.584,-0.082 0.584,0.293 0,0.103 -0.067,0.318 0.027,0.318 0.153,0 0.279,-0.205 0.355,-0.308 0.127,-0.17 0.28,-0.275 0.494,-0.275 0.359,0.536 -0.253,1.326 0.159,1.91 0.305,0.435 0.837,0.277 1.162,-0.033 0.067,-0.063 0.074,-0.093 0.132,-0.159 0.091,-0.105 0.161,-0.226 0.24,-0.344 0.073,-0.11 0.136,-0.277 0.27,-0.313 0,0.556 0.3,1.114 0.902,1.114 0.653,0 0.737,-0.324 1.035,-0.769 0.089,0.059 0.306,0.443 0.525,0.615 0.539,0.424 1.12,0.486 1.617,-0.012 0.1,-0.099 0.18,-0.178 0.279,-0.278 0.402,-0.404 0.363,-1.13 0.809,-1.5 0.081,-0.067 0.251,-0.205 0.352,-0.231 -0.017,0.201 -0.163,0.31 -0.266,0.451 -0.033,0.046 -0.064,0.087 -0.101,0.137 -0.32,0.422 -0.35,0.944 -0.053,1.397 0.426,0.648 1.296,0.393 1.614,-0.208 0.066,0.045 0.087,0.069 0.132,0.133 0.307,0.433 0.933,0.292 1.345,0.124 0.183,-0.074 0.372,-0.185 0.566,-0.23 0,-0.238 0.015,-0.319 -0.185,-0.373 -0.432,-0.117 -0.89,0.452 -1.222,0.452 -0.301,0 -0.265,-0.292 -0.265,-0.504 0,-0.616 0.319,-1.313 -0.307,-1.735 -0.38,-0.256 -0.885,-0.275 -1.315,-0.126 -0.359,0.125 -0.773,0.566 -0.914,0.917 -0.2,0.495 -0.268,0.67 -0.589,1.082 -0.481,0.617 -1.537,0.834 -1.672,-0.701l0.053 -0.413c0.081,-0.321 0.262,-0.525 0.552,-0.669 0.211,-0.105 0.601,-0.208 0.839,-0.069 0.181,0.104 0.263,0.326 0.435,0.441l0.112 -0.1c-0.091,-0.882 -1.382,-1.213 -2.166,-0.15l-0.122 0.196c-0.03,0.051 -0.033,0.036 -0.062,0.098 -0.021,0.044 -0.025,0.074 -0.044,0.115 -0.199,0.441 -0.299,1.134 -0.726,1.449 -0.198,0.146 -0.258,0.128 -0.459,0.028 -0.285,-0.142 -0.214,-0.318 -0.307,-0.781 -0.051,-0.254 -0.02,-0.343 -0.021,-0.644 0,-0.263 0.199,-0.43 0.186,-0.53 -0.014,-0.114 -0.327,-0.432 -0.698,0.31l-0.31 0.672c-0.156,0.311 -0.277,0.707 -0.601,0.885 -0.115,0.063 -0.286,0.123 -0.433,0.123 -0.071,-0.133 -0.069,-0.1 -0.083,-0.29l0.004 -0.345c0.052,-0.451 0.216,-1.114 -0.266,-1.408 -0.246,-0.15 -0.571,-0.026 -0.77,0.107 -0.248,-0.371 -0.551,-0.461 -0.982,-0.266 -0.067,0.03 -0.129,0.066 -0.186,0.106 -0.068,0.047 -0.09,0.087 -0.158,0.133 -0.047,-0.025 -0.093,-0.041 -0.138,-0.074 -0.131,-0.096 -0.275,-0.213 -0.451,-0.172 -0.165,0.039 -0.17,0.06 -0.282,0.144l-0.224 0.227c-0.323,0.386 -0.365,0.8 -0.487,1.292 -0.196,0.794 -0.764,0.722 -0.875,0.35 -0.038,-0.126 -0.117,-1.47 -0.117,-1.661 -0.077,-0.052 -0.1,-0.094 -0.191,-0.154 -0.55,-0.365 -1.115,-0.266 -1.675,0.013 -0.226,0.112 -0.557,0.433 -0.734,0.433 -0.125,0 -0.044,-0.13 -0.073,-0.272 -0.16,-0.788 -1.074,-0.616 -1.588,-0.301 -0.408,0.249 -0.385,0.492 -0.568,0.626 -0.054,-0.103 -0.362,-0.63 -0.479,-0.373 -0.031,0.066 0.002,0.033 -0.009,0.123 -0.013,0.112 -0.056,0.233 -0.067,0.331 -0.035,0.309 0.033,0.418 -0.064,0.705 -0.13,0.382 -0.275,0.806 -0.76,0.806 -0.266,0 -0.743,-0.407 -0.796,-0.637 0.197,-0.052 0.408,-0.339 0.505,-0.503 0.637,-1.08 -0.096,-1.977 -1.172,-1.597 -0.144,0.051 -0.197,0.084 -0.295,0.183 -0.181,0.183 -0.285,0.379 -0.285,0.67z"/>
   <path fill="black" d="M26.615 12.156c0.338,0.226 0.417,-0.062 0.637,-0.477 -0.157,-0.105 -0.083,-0.159 -0.292,-0.159 -0.15,0 -0.331,0.469 -0.345,0.636z"/>
   <path fill="black" d="M34.044 11.785c0,0.217 0.072,0.451 0.318,0.451l0.186 0c0.107,-0.223 0.055,-0.504 -0.186,-0.504 -0.119,0 -0.318,-0.027 -0.318,0.053z"/>
  </g>
  <path fill="none" d="M0 0l59.36 0 0 15.829 -59.36 0 0 -15.829z"/>
 </g>
</svg>
