<?xml version="1.0" encoding="UTF-8"?>
<!DOCTYPE svg PUBLIC "-//W3C//DTD SVG 1.1//EN" "http://www.w3.org/Graphics/SVG/1.1/DTD/svg11.dtd">
<!-- Creator: CorelDRAW -->
<svg xmlns="http://www.w3.org/2000/svg" xml:space="preserve" width="282px" height="80px" version="1.1" shape-rendering="geometricPrecision" text-rendering="geometricPrecision" image-rendering="optimizeQuality" fill-rule="evenodd" clip-rule="evenodd"
viewBox="0 0 56.507 16.079"
 xmlns:xlink="http://www.w3.org/1999/xlink"
 xmlns:xodm="http://www.corel.com/coreldraw/odm/2003">
 <g id="Capa_x0020_1">
  <metadata id="CorelCorpID_0Corel-Layer"/>
  <g id="_2661010411632">
   <path fill="#0E1B24" d="M28.776 4.839c0.592,-0.063 1.011,0.346 1.062,0.874 0.057,0.592 -0.309,1.04 -0.836,1.088 -0.615,0.057 -1.034,-0.323 -1.083,-0.874 -0.055,-0.606 0.321,-1.031 0.857,-1.088zm1.022 -0.871c-0.138,-0.051 -0.219,-0.1 -0.39,-0.139 -0.621,-0.143 -1.41,0.005 -1.928,0.403l-0.141 0.125c-0.424,0.409 -0.617,0.884 -0.617,1.51 0,1.256 0.893,1.993 2.153,1.993 0.488,0 0.957,0.216 0.944,0.7 -0.024,0.892 -1.493,0.927 -1.833,0.269 -0.087,-0.168 -0.045,-0.21 -0.077,-0.378l-1.182 0c-0.061,0.336 0.13,0.886 0.353,1.145 0.104,0.122 0.178,0.204 0.313,0.307 0.794,0.6 2.187,0.599 2.949,0.023l0.195 -0.172c0.125,-0.125 0.233,-0.262 0.312,-0.432 0.241,-0.514 0.267,-1.253 -0.147,-1.716 -0.117,-0.13 -0.246,-0.248 -0.41,-0.331 0.052,-0.071 0.294,-0.139 0.524,-0.555 0.322,-0.58 0.298,-1.369 -0.094,-1.929 -0.018,-0.025 -0.068,-0.091 -0.084,-0.107 0.033,-0.047 0.071,-0.092 0.113,-0.139l0.286 -0.348c0.035,-0.04 0.036,-0.035 0.059,-0.075l-0.892 -0.641c-0.035,0.037 -0.064,0.079 -0.096,0.117 -0.039,0.045 -0.069,0.076 -0.105,0.122l-0.205 0.248z"/>
   <path fill="#0E1B24" d="M15.787 6.08l-1.014 0.523c0.051,0.273 0.419,0.787 0.675,0.969 0.108,0.077 0.21,0.152 0.342,0.215 0.574,0.269 1.17,0.338 1.894,0.28 0.746,-0.059 1.392,-0.344 1.767,-0.977 0.064,-0.108 0.123,-0.265 0.156,-0.4 0.113,-0.454 0.056,-0.977 -0.187,-1.37 -0.048,-0.077 -0.193,-0.249 -0.258,-0.299 -0.132,-0.1 -0.17,-0.136 -0.325,-0.219 -0.388,-0.207 -0.845,-0.303 -1.292,-0.365 -0.327,-0.045 -0.627,-0.072 -0.922,-0.177 -0.614,-0.217 -0.52,-0.932 0.355,-1.059 0.491,-0.071 0.937,0.041 1.31,0.317 0.157,0.117 0.211,0.251 0.256,0.298 0.051,-0.015 0.95,-0.482 0.971,-0.503 -0.114,-0.287 -0.269,-0.44 -0.455,-0.631 -0.558,-0.578 -1.824,-0.695 -2.614,-0.48 -0.928,0.252 -1.528,0.86 -1.392,1.869 0.045,0.333 0.155,0.52 0.345,0.755 0.318,0.391 1.016,0.58 1.526,0.662 0.576,0.092 1.43,0.111 1.522,0.679 0.113,0.694 -0.82,0.859 -1.352,0.805 -0.529,-0.054 -0.976,-0.25 -1.218,-0.702 -0.031,-0.059 -0.053,-0.14 -0.09,-0.19z"/>
   <path fill="#0E1B24" d="M40.052 4.863c0.449,-0.084 0.889,0.122 1.082,0.492 0.348,0.671 0.022,1.537 -0.715,1.636 -0.665,0.089 -1.145,-0.305 -1.216,-0.883 -0.078,-0.626 0.207,-1.127 0.849,-1.245zm1.261 2.702l0.032 0.377 1.077 0.003 -0.001 -4.04 -1.095 0.001 -0.019 0.36c-0.047,-0.028 -0.09,-0.087 -0.198,-0.164 -0.23,-0.162 -0.52,-0.264 -0.816,-0.285 -0.805,-0.057 -1.579,0.272 -1.971,0.964 -0.371,0.656 -0.355,1.673 0.027,2.36 0.16,0.287 0.444,0.559 0.761,0.706 0.634,0.294 1.428,0.315 2.012,-0.114l0.191 -0.168z"/>
   <path fill="#0E1B24" d="M52.83 9.559l1.244 -0.002 2.433 -5.651 -1.258 0 -0.526 1.267c-0.149,0.342 -0.25,0.632 -0.381,0.961 -0.038,0.096 -0.079,0.25 -0.127,0.329 -0.025,-0.038 -0.044,-0.115 -0.058,-0.158l-0.387 -1.12c-0.075,-0.203 -0.155,-0.428 -0.223,-0.636 -0.069,-0.208 -0.168,-0.438 -0.225,-0.643l-1.31 0c0.029,0.104 0.097,0.252 0.14,0.357l1.294 3.182c0.17,0.416 0.175,0.285 -0.017,0.709 -0.103,0.227 -0.195,0.469 -0.3,0.699l-0.299 0.706z"/>
   <path fill="#0E1B24" d="M34.514 7.532c0.007,0.112 0.027,0.222 0.038,0.333 0.011,0.109 -0.021,0.084 0.291,0.084 0.242,0 0.501,0.009 0.74,-0.002l0.005 -4.04 -1.129 -0.001c-0.015,0.647 -0.001,1.312 -0.001,1.961 0,0.448 -0.116,0.765 -0.477,0.984 -0.298,0.181 -0.805,0.148 -1.067,-0.194 -0.161,-0.21 -0.191,-0.473 -0.191,-0.79 0,-0.646 0.018,-1.318 -0.001,-1.961l-1.133 0c-0.01,0.621 -0.001,1.25 -0.001,1.872 0,0.631 0.046,1.092 0.342,1.535 0.225,0.337 0.603,0.644 1.18,0.688 0.29,0.022 0.584,-0.011 0.824,-0.109 0.118,-0.048 0.21,-0.095 0.308,-0.16l0.272 -0.2z"/>
   <path fill="#0E1B24" d="M22.22 3.902l0.002 4.031 1.115 -0.001c-0.011,-0.133 -0.001,-0.87 -0.001,-1.066 0,-0.129 -0.016,-1.029 0.015,-1.067 -0.012,-0.514 0.506,-1.066 1.18,-0.861 0.652,0.198 0.548,1.038 0.548,1.574 0,0.304 -0.015,1.193 0.002,1.424l1.13 0 -0.006 -2.272c0.04,-0.462 -0.29,-1.186 -0.653,-1.457 -0.134,-0.1 -0.127,-0.103 -0.301,-0.193 -0.477,-0.246 -1.084,-0.227 -1.58,0.038 -0.072,0.039 -0.14,0.085 -0.201,0.128l-0.178 0.138 -0.051 -0.407 -1.021 -0.009z"/>
   <path fill="#0E1B24" d="M49.45 2.93l0.001 0.976 -0.72 -0.002 0.001 1.01 0.719 0.005c-0.003,0.467 0,0.935 0,1.403 0,0.484 0.037,0.804 0.267,1.146 0.325,0.484 0.977,0.597 1.568,0.49 0.154,-0.027 0.418,-0.101 0.539,-0.169 -0.006,-0.07 -0.053,-0.184 -0.076,-0.253 -0.029,-0.083 -0.05,-0.162 -0.081,-0.248 -0.052,-0.146 -0.101,-0.36 -0.165,-0.492 -0.289,0.178 -0.914,0.332 -0.922,-0.322 -0.006,-0.517 -0.001,-1.039 0,-1.556l1.072 0.001 -0.001 -1.015 -1.061 0 -0.002 -1.097 -1.139 0.123z"/>
   <path fill="#0E1B24" d="M44.336 4.204l-0.045 -0.299 -1.054 0.001 -0.001 4.039 1.139 0c-0.006,-0.407 -0.001,-0.814 -0.001,-1.218 0,-0.327 -0.033,-0.909 0.033,-1.198 0.15,-0.67 1.012,-0.715 1.377,-0.437 0.062,0.047 0.122,0.095 0.174,0.138l0.516 -0.981c-0.041,-0.052 -0.131,-0.132 -0.193,-0.173 -0.418,-0.281 -1.035,-0.357 -1.498,-0.181 -0.307,0.116 -0.351,0.256 -0.447,0.309z"/>
   <path fill="#0E1B24" d="M36.398 7.945l1.13 0.001c-0.019,-0.934 -0.001,-1.889 -0.001,-2.825 0,-0.152 0.015,-2.749 -0.008,-2.826l-1.114 0c-0.021,0.094 -0.006,2.646 -0.006,2.813 0,0.944 0.011,1.894 -0.001,2.837z"/>
   <path fill="#0E1B24" d="M46.919 3.97c-0.002,1.308 0.013,2.677 -0.001,3.976l1.139 -0.001 0 -4.042 -1.139 0.001 0.001 0.066z"/>
   <path fill="#0E1B24" d="M20.269 7.944l1.133 0.001 0.005 -4.041 -1.138 0.001 0 4.039z"/>
   <path fill="#0E1B24" d="M7.476 0.003c-0.873,0.066 -1.216,1.096 -0.737,1.685 0.021,0.026 0.039,0.041 0.06,0.067 0.175,0.221 0.551,0.352 0.858,0.328 0.54,-0.044 1.003,-0.528 0.946,-1.135 -0.052,-0.544 -0.518,-0.991 -1.127,-0.945z"/>
   <path fill="#0E1B24" d="M3.541 15.135c0.011,0.138 0.064,0.297 0.123,0.401 0.044,0.076 0.167,0.241 0.23,0.29 0.802,0.624 1.798,0.002 1.725,-0.892 -0.034,-0.4 -0.309,-0.746 -0.686,-0.881 -0.689,-0.247 -1.455,0.277 -1.392,1.082z"/>
   <path fill="#0E1B24" d="M20.356 12.031l0.352 0.485c0.286,0.41 0.599,0.817 0.884,1.228l0.176 0.242 0.377 -0.003 -0.001 -2.564 -0.388 0.001 0 1.91 -1.39 -1.912 -0.402 0.005 0 2.563 0.387 -0.001 0.005 -1.954z"/>
   <path fill="#0E1B24" d="M37.812 11.759l0.635 0c0.646,0.001 0.667,0.895 -0.013,0.899 -0.207,0.001 -0.414,-0.001 -0.622,0l0 -0.848 0 -0.051zm0.887 1.198c0.285,-0.031 0.495,-0.221 0.579,-0.442 0.109,-0.283 0.051,-0.607 -0.108,-0.808 -0.152,-0.192 -0.384,-0.288 -0.736,-0.288 -0.314,0 -0.704,-0.021 -1.01,0.002l0 2.565 0.388 -0.002 0.001 -0.985 0.483 0 0.602 0.987 0.449 0c-0.024,-0.055 -0.051,-0.086 -0.082,-0.136l-0.566 -0.893z"/>
   <path fill="#0E1B24" d="M33.317 11.76l1.339 -0.001 0 -0.34 -1.725 0c-0.01,0.834 -0.001,1.727 -0.001,2.567l1.726 0 -0.001 -0.341 -1.337 -0.005 0.001 -0.791 1.31 -0.001 0.002 -0.342c-0.334,0.003 -1.015,0.013 -1.314,-0.004l0 -0.742z"/>
   <path fill="#0E1B24" d="M15.256 11.419c-0.004,0.333 -0.02,1.582 0.025,1.833 0.09,0.503 0.485,0.784 1.063,0.783 0.582,-0.001 0.958,-0.279 1.051,-0.796 0.045,-0.248 0.023,-0.63 0.023,-0.898 0,-0.301 0.01,-0.622 -0.002,-0.922l-0.388 0c-0.017,0.352 -0.002,1.083 -0.002,1.478 0,0.232 -0.035,0.446 -0.164,0.581 -0.144,0.151 -0.298,0.213 -0.531,0.21 -0.241,-0.002 -0.415,-0.089 -0.531,-0.221 -0.12,-0.137 -0.152,-0.354 -0.153,-0.582 0,-0.32 0.016,-1.219 -0.002,-1.466l-0.389 0z"/>
   <path fill="#0E1B24" d="M41.573 13.63c0.178,0.176 0.351,0.293 0.615,0.356 0.269,0.065 0.588,0.067 0.844,-0.019 0.657,-0.218 0.616,-0.963 0.315,-1.203 -0.451,-0.36 -1.239,-0.28 -1.293,-0.64 -0.045,-0.291 0.277,-0.422 0.56,-0.397 0.145,0.013 0.267,0.042 0.384,0.097 0.161,0.076 0.208,0.153 0.281,0.2 0.047,-0.085 0.186,-0.221 0.212,-0.29 -0.047,-0.04 -0.025,-0.043 -0.133,-0.118 -0.048,-0.034 -0.093,-0.062 -0.15,-0.092 -0.34,-0.176 -0.856,-0.201 -1.175,-0.023 -0.189,0.106 -0.37,0.29 -0.381,0.587 -0.024,0.639 0.672,0.702 1.107,0.835 0.231,0.071 0.511,0.222 0.368,0.52 -0.189,0.389 -1.014,0.291 -1.328,-0.114 -0.037,0.026 -0.211,0.265 -0.226,0.301z"/>
   <path fill="#0E1B24" d="M28.907 13.986l0.488 -0.001 1.017 -2.565 -0.439 -0.001 -0.82 2.13 -0.819 -2.131 -0.441 0.006 1.014 2.562z"/>
   <path fill="#0E1B24" d="M5.933 7.237c-0.402,0.071 -0.737,0.441 -0.667,0.931 0.058,0.399 0.459,0.759 0.938,0.674 0.404,-0.072 0.74,-0.438 0.67,-0.927 -0.058,-0.407 -0.453,-0.764 -0.941,-0.678z"/>
   <path fill="#0E1B24" d="M10.549 9.893c-0.411,0.053 -0.773,0.432 -0.703,0.917 0.059,0.416 0.432,0.76 0.921,0.697 0.404,-0.053 0.758,-0.442 0.691,-0.918 -0.057,-0.407 -0.434,-0.757 -0.909,-0.696z"/>
   <path fill="#0E1B24" d="M5.249 13.441c0.073,0.456 0.448,0.754 0.909,0.701 0.411,-0.049 0.773,-0.436 0.703,-0.916 -0.015,-0.11 -0.058,-0.23 -0.107,-0.31 -0.239,-0.391 -0.763,-0.505 -1.108,-0.285 -0.044,0.028 -0.083,0.053 -0.121,0.082 -0.176,0.141 -0.321,0.447 -0.276,0.728z"/>
   <path fill="#0E1B24" d="M1.357 4.57c-0.248,0.05 -0.397,0.164 -0.51,0.304 -0.114,0.141 -0.198,0.385 -0.16,0.626 0.073,0.458 0.509,0.753 0.939,0.675 0.243,-0.043 0.4,-0.167 0.509,-0.304 0.118,-0.15 0.197,-0.378 0.16,-0.623 -0.071,-0.463 -0.52,-0.762 -0.938,-0.678z"/>
   <path fill="#0E1B24" d="M10.597 4.592c-0.425,0.03 -0.78,0.411 -0.743,0.883 0.034,0.426 0.42,0.786 0.888,0.739 0.191,-0.019 0.361,-0.095 0.485,-0.229 0.024,-0.026 0.029,-0.024 0.054,-0.047 0.13,-0.121 0.211,-0.402 0.193,-0.615 -0.035,-0.422 -0.415,-0.763 -0.877,-0.731z"/>
   <path fill="#0E1B24" d="M5.962 1.941c-0.14,0.024 -0.33,0.105 -0.419,0.194 -0.027,0.027 -0.019,0.026 -0.049,0.052 -0.13,0.11 -0.253,0.416 -0.208,0.69 0.117,0.713 1.043,0.912 1.442,0.366 0.207,-0.283 0.241,-0.598 0.053,-0.926 -0.152,-0.265 -0.496,-0.431 -0.819,-0.376z"/>
   <path fill="#0E1B24" d="M1.383 9.868c-0.137,0.018 -0.202,0.047 -0.307,0.102 -0.039,0.021 -0.093,0.055 -0.122,0.082 -0.187,0.169 -0.313,0.41 -0.282,0.712 0.043,0.421 0.431,0.78 0.916,0.717 0.551,-0.072 0.889,-0.696 0.6,-1.207l-0.182 -0.223c-0.052,-0.046 -0.172,-0.116 -0.26,-0.146 -0.111,-0.037 -0.24,-0.054 -0.363,-0.037z"/>
   <path fill="#0E1B24" d="M53.556 12.759c0.102,0.15 0.106,0.11 0.106,0.341 0,0.294 0.002,0.588 0,0.884l0.388 0.002c0.001,-0.299 0,-0.599 0,-0.899 0,-0.228 0.006,-0.183 0.108,-0.335 0.059,-0.089 0.116,-0.174 0.177,-0.265l0.537 -0.803c0.041,-0.062 0.149,-0.206 0.173,-0.263l-0.449 -0.001c-0.052,0.091 -0.122,0.201 -0.183,0.285l-0.549 0.853c-0.037,-0.025 -0.033,-0.027 -0.061,-0.071 -0.014,-0.022 -0.029,-0.045 -0.045,-0.069l-0.653 -0.999 -0.444 0 0.895 1.34z"/>
   <path fill="#0E1B24" d="M48.826 11.759l0.797 0.002 0 2.225 0.386 0.001 0 -2.227 0.792 -0.001 -0.001 -0.34 -1.974 -0.001 0 0.341z"/>
   <path fill="#0E1B24" d="M20.731 2.271c-0.843,0.146 -0.671,1.417 0.225,1.278 0.835,-0.13 0.647,-1.429 -0.225,-1.278z"/>
   <path fill="#0E1B24" d="M47.385 2.27c-0.853,0.144 -0.674,1.406 0.215,1.28 0.595,-0.083 0.716,-0.837 0.3,-1.155 -0.124,-0.095 -0.32,-0.158 -0.515,-0.125z"/>
   <path fill="#0E1B24" d="M46.094 13.986l0.079 0 0.309 0 0 -2.492 -0.001 -0.075 -0.385 0 -0.001 0.075 0 2.339 -0.001 0.153z"/>
   <path fill="#0E1B24" d="M24.98 13.986l0.388 0 0 -2.563 -0.387 -0.004 -0.001 2.567z"/>
   <path fill="#0E1B24" d="M5.045 10.454c-0.755,0.123 -0.558,1.212 0.166,1.1 0.274,-0.042 0.513,-0.31 0.457,-0.64 -0.047,-0.273 -0.299,-0.513 -0.623,-0.46z"/>
   <path fill="#0E1B24" d="M8.938 5.142c-0.733,0.097 -0.596,1.193 0.146,1.102 0.279,-0.034 0.519,-0.304 0.472,-0.63 -0.04,-0.278 -0.294,-0.514 -0.618,-0.472z"/>
   <path fill="#0E1B24" d="M9.017 6.84c-0.755,0.168 -0.48,1.242 0.209,1.092 0.478,-0.105 0.61,-0.696 0.221,-0.998 -0.099,-0.076 -0.271,-0.129 -0.43,-0.094z"/>
   <path fill="#0E1B24" d="M3.094 9.832c-0.32,0.029 -0.544,0.306 -0.508,0.613 0.086,0.728 1.177,0.617 1.106,-0.121 -0.027,-0.278 -0.283,-0.521 -0.598,-0.492z"/>
   <path fill="#0E1B24" d="M2.935 8.142c-0.741,0.142 -0.53,1.226 0.197,1.093 0.27,-0.049 0.502,-0.32 0.44,-0.648 -0.05,-0.265 -0.307,-0.508 -0.637,-0.445z"/>
   <path fill="#0E1B24" d="M3.896 5.184c-0.743,0.132 -0.537,1.217 0.186,1.093 0.274,-0.047 0.508,-0.311 0.449,-0.65 -0.047,-0.266 -0.311,-0.501 -0.635,-0.443z"/>
   <path fill="#0E1B24" d="M6.975 4.522c-0.762,0.095 -0.607,1.176 0.112,1.105 0.288,-0.029 0.524,-0.289 0.492,-0.619 -0.028,-0.28 -0.296,-0.524 -0.604,-0.486z"/>
   <path fill="#0E1B24" d="M5.451 3.77c-0.495,0.047 -0.661,0.673 -0.306,0.979 0.359,0.309 0.974,0.044 0.918,-0.488 -0.03,-0.283 -0.29,-0.521 -0.612,-0.491z"/>
   <path fill="#0E1B24" d="M8.092 9.797c-0.757,0.126 -0.572,1.196 0.159,1.1 0.266,-0.034 0.512,-0.309 0.461,-0.635 -0.041,-0.269 -0.306,-0.517 -0.62,-0.465z"/>
   <path fill="#0E1B24" d="M9.494 8.859c-0.285,0.047 -0.525,0.294 -0.472,0.637 0.042,0.276 0.3,0.515 0.638,0.463 0.275,-0.043 0.511,-0.304 0.461,-0.639 -0.04,-0.271 -0.305,-0.514 -0.627,-0.461z"/>
   <path fill="#0E1B24" d="M6.082 11.823c0.034,0.28 0.292,0.527 0.627,0.482 0.282,-0.038 0.515,-0.292 0.476,-0.62 -0.035,-0.289 -0.292,-0.523 -0.628,-0.483 -0.279,0.034 -0.514,0.299 -0.475,0.621z"/>
   <path fill="#0E1B24" d="M2.519 6.111c-0.298,0.023 -0.529,0.289 -0.5,0.616 0.026,0.288 0.291,0.521 0.617,0.49 0.286,-0.028 0.524,-0.292 0.488,-0.616 -0.012,-0.106 -0.059,-0.212 -0.121,-0.291l-0.068 -0.071c-0.112,-0.095 -0.266,-0.139 -0.416,-0.128z"/>
   <path fill="#0E1B24" d="M3.586 6.988c-0.55,0.132 -0.334,0.94 0.192,0.805 0.526,-0.134 0.336,-0.932 -0.192,-0.805z"/>
   <path fill="#0E1B24" d="M4.225 9.386c-0.194,0.046 -0.375,0.251 -0.307,0.509 0.136,0.51 0.93,0.343 0.808,-0.197 -0.046,-0.199 -0.248,-0.371 -0.501,-0.312z"/>
   <path fill="#0E1B24" d="M1.642 8.205c-0.55,0.136 -0.325,0.93 0.191,0.805 0.536,-0.13 0.337,-0.937 -0.191,-0.805z"/>
   <path fill="#0E1B24" d="M7.729 5.885c-0.534,0.13 -0.346,0.935 0.194,0.806 0.191,-0.046 0.366,-0.244 0.306,-0.497 -0.048,-0.195 -0.249,-0.371 -0.5,-0.309z"/>
   <path fill="#0E1B24" d="M6.651 10.024c-0.564,0.09 -0.404,0.908 0.125,0.818 0.542,-0.092 0.404,-0.902 -0.125,-0.818z"/>
   <path fill="#0E1B24" d="M5.342 5.241c-0.54,0.125 -0.348,0.94 0.194,0.806 0.057,-0.014 0.095,-0.034 0.139,-0.063 0.029,-0.019 0.08,-0.072 0.1,-0.103 0.067,-0.103 0.091,-0.196 0.063,-0.331 -0.04,-0.198 -0.253,-0.365 -0.496,-0.309z"/>
   <path fill="#0E1B24" d="M7.636 3.602c-0.192,0.057 -0.368,0.245 -0.295,0.506 0.149,0.533 0.948,0.306 0.801,-0.218 -0.053,-0.188 -0.254,-0.363 -0.506,-0.288z"/>
   <path fill="#0E1B24" d="M3.332 4.168c-0.539,0.112 -0.383,0.924 0.174,0.809 0.191,-0.04 0.363,-0.247 0.311,-0.491 -0.042,-0.2 -0.232,-0.371 -0.485,-0.318z"/>
   <path fill="#0E1B24" d="M8.669 11.097c-0.555,0.098 -0.404,0.913 0.151,0.813 0.192,-0.034 0.37,-0.242 0.322,-0.486 -0.039,-0.199 -0.233,-0.369 -0.473,-0.327z"/>
   <path fill="#0E1B24" d="M3.994 12.151c0.032,0.203 0.228,0.373 0.475,0.338 0.204,-0.029 0.383,-0.232 0.344,-0.477 -0.032,-0.204 -0.229,-0.387 -0.481,-0.342 -0.205,0.035 -0.378,0.232 -0.338,0.481z"/>
   <path fill="#0E1B24" d="M10.306 7.068c-0.562,0.175 -0.296,0.934 0.21,0.799 0.184,-0.049 0.364,-0.256 0.291,-0.51 -0.051,-0.178 -0.257,-0.366 -0.501,-0.289z"/>
   <path fill="#0E1B24" d="M8.39 8.276c-0.296,0.062 -0.429,0.378 -0.277,0.624 0.119,0.194 0.381,0.26 0.582,0.13 0.367,-0.238 0.142,-0.847 -0.305,-0.754z"/>
   <path fill="#0E1B24" d="M8.695 12.531c0.074,0.272 0.534,0.184 0.453,-0.138 -0.071,-0.279 -0.543,-0.191 -0.453,0.138z"/>
   <path fill="#0E1B24" d="M3.439 12.771c0.023,0.108 0.137,0.207 0.284,0.178 0.112,-0.023 0.211,-0.141 0.176,-0.289 -0.069,-0.287 -0.525,-0.202 -0.46,0.111z"/>
   <path fill="#0E1B24" d="M3.152 3.395c-0.109,0.039 -0.2,0.149 -0.15,0.299 0.034,0.105 0.144,0.192 0.291,0.148 0.298,-0.09 0.156,-0.552 -0.141,-0.447z"/>
   <path fill="#0E1B24" d="M8.43 3.131c-0.117,0.026 -0.216,0.128 -0.187,0.278 0.057,0.293 0.535,0.222 0.46,-0.106 -0.024,-0.107 -0.14,-0.201 -0.273,-0.172z"/>
   <path fill="#0E1B24" d="M0.775 8.06c-0.315,0.063 -0.216,0.535 0.1,0.459 0.111,-0.027 0.2,-0.143 0.173,-0.278 -0.024,-0.113 -0.135,-0.209 -0.273,-0.181z"/>
   <path fill="#0E1B24" d="M11.264 7.559c-0.306,0.09 -0.168,0.534 0.128,0.451 0.291,-0.083 0.176,-0.541 -0.128,-0.451z"/>
   <path fill="#0E1B24" d="M4.569 7.504c-0.284,0.078 -0.158,0.51 0.125,0.422 0.095,-0.029 0.184,-0.134 0.148,-0.267 -0.028,-0.108 -0.133,-0.194 -0.273,-0.155z"/>
   <path fill="#0E1B24" d="M7.023 6.733c-0.107,0.023 -0.203,0.126 -0.172,0.267 0.023,0.103 0.133,0.194 0.268,0.163 0.277,-0.063 0.184,-0.491 -0.096,-0.43z"/>
   <path fill="#0E1B24" d="M7.444 8.151c-0.281,0.102 -0.13,0.51 0.144,0.416 0.271,-0.093 0.131,-0.515 -0.144,-0.416z"/>
   <path fill="#0E1B24" d="M6.446 9.24c-0.282,0.098 -0.136,0.513 0.143,0.415 0.267,-0.095 0.135,-0.511 -0.143,-0.415z"/>
   <path fill="#0E1B24" d="M5.574 6.42c-0.288,0.076 -0.172,0.496 0.113,0.424 0.272,-0.069 0.174,-0.501 -0.113,-0.424z"/>
   <path fill="#0E1B24" d="M5.011 8.92c-0.276,0.092 -0.148,0.509 0.137,0.42 0.096,-0.031 0.186,-0.146 0.139,-0.282 -0.032,-0.094 -0.145,-0.181 -0.276,-0.138z"/>
   <path fill="#0E1B24" d="M23.351 5.799c-0.031,0.038 -0.015,0.938 -0.015,1.067 0,0.196 -0.01,0.933 0.001,1.066l-1.115 0.001 -0.002 -4.031c-0.001,0.003 -0.004,0.004 -0.004,0.009 -0.001,0.006 -0.003,0.007 -0.004,0.01l-0.002 0.226c0,0.499 -0.015,3.729 0.008,3.799l1.123 0.002c0.018,-0.064 0.014,-1.93 0.01,-2.149z"/>
   <path fill="#0E1B24" d="M9.066 13.289c0.092,-0.161 -0.181,-0.284 -0.252,-0.119 -0.07,0.164 0.158,0.286 0.252,0.119z"/>
   <path fill="#0E1B24" d="M2.877 13.15c0.027,0.163 0.31,0.137 0.272,-0.059 -0.034,-0.171 -0.304,-0.132 -0.272,0.059z"/>
   <path fill="#0E1B24" d="M0.084 7.799c-0.179,0.091 -0.04,0.323 0.119,0.25 0.156,-0.072 0.049,-0.335 -0.119,-0.25z"/>
   <path fill="#0E1B24" d="M3.172 2.716c-0.191,0.056 -0.104,0.321 0.079,0.263 0.162,-0.051 0.089,-0.313 -0.079,-0.263z"/>
   <path fill="#0E1B24" d="M11.947 8.027c-0.175,0.083 -0.048,0.323 0.117,0.25 0.156,-0.07 0.057,-0.331 -0.117,-0.25z"/>
   <path fill="#0E1B24" d="M9.095 2.826c-0.177,0.048 -0.107,0.321 0.084,0.264 0.158,-0.048 0.091,-0.312 -0.084,-0.264z"/>
   <path fill="#0E1B24" d="M25.081 7.936c0.017,0.012 -0.009,0.01 0.038,0.014l1.093 -0.001c0.029,-0.096 0.009,-0.974 0.009,-1.146 0,-0.173 0.026,-1.056 -0.016,-1.139l0.006 2.272 -1.13 0z"/>
  </g>
 </g>
</svg>
