<?xml version="1.0" encoding="UTF-8"?>
<!DOCTYPE svg PUBLIC "-//W3C//DTD SVG 1.1//EN" "http://www.w3.org/Graphics/SVG/1.1/DTD/svg11.dtd">
<!-- Creator: CorelDRAW -->
<svg xmlns="http://www.w3.org/2000/svg" xml:space="preserve" width="109px" height="58px" version="1.1" shape-rendering="geometricPrecision" text-rendering="geometricPrecision" image-rendering="optimizeQuality" fill-rule="evenodd" clip-rule="evenodd"
viewBox="0 0 20.548 10.83"
 xmlns:xlink="http://www.w3.org/1999/xlink"
 xmlns:xodm="http://www.corel.com/coreldraw/odm/2003">
 <g id="Capa_x0020_1">
  <metadata id="CorelCorpID_0Corel-Layer"/>
  <g id="_1789123577488">
   <path id="path268" fill="#2B2A29" fill-rule="nonzero" d="M6.713 7.196l-0.901 0 0 3.571 0.901 0 0 -3.571z"/>
   <g>
    <path fill="#2B2A29" fill-rule="nonzero" d="M13.977 8.219c-0.036,-0.019 -0.326,-0.19 -0.757,-0.19 -0.583,0 -0.987,0.405 -0.987,0.952 0,0.531 0.387,0.953 0.987,0.953 0.424,0 0.718,-0.168 0.757,-0.189l0 0.958c-0.112,0.032 -0.419,0.127 -0.821,0.127 -1.013,0 -1.902,-0.699 -1.902,-1.849 0,-1.066 0.805,-1.848 1.902,-1.848 0.424,0 0.737,0.103 0.821,0.128l0 0.958z"/>
   </g>
   <path id="path284" fill="#2B2A29" fill-rule="nonzero" d="M4.573 8.219c-0.036,-0.019 -0.326,-0.19 -0.757,-0.19 -0.584,0 -0.987,0.405 -0.987,0.952 0,0.531 0.387,0.953 0.987,0.953 0.424,0 0.718,-0.168 0.757,-0.189l0 0.958c-0.112,0.032 -0.419,0.127 -0.822,0.127 -1.012,0 -1.901,-0.699 -1.901,-1.849 0,-1.066 0.805,-1.848 1.901,-1.848 0.424,0 0.737,0.103 0.822,0.128l0 0.958z"/>
   <g>
    <path id="path288" fill="#2B2A29" fill-rule="nonzero" d="M16.812 8.042c-0.535,0 -0.932,0.421 -0.932,0.939 0,0.519 0.397,0.94 0.932,0.94 0.534,0 0.932,-0.421 0.932,-0.94 0,-0.518 -0.398,-0.939 -0.932,-0.939l0 0zm1.886 0.939c0,1.021 -0.788,1.849 -1.886,1.849 -1.099,0 -1.886,-0.828 -1.886,-1.849 0,-1.02 0.787,-1.848 1.886,-1.848 1.098,0 1.886,0.828 1.886,1.848z"/>
   </g>
   <path id="path292" fill="#2B2A29" fill-rule="nonzero" d="M10.129 8.008c-0.013,-0.005 -0.392,-0.109 -0.704,-0.109 -0.361,0 -0.557,0.121 -0.557,0.292 0,0.218 0.264,0.294 0.413,0.34l0.248 0.079c0.585,0.187 0.852,0.587 0.852,1.022 0,0.897 -0.789,1.198 -1.479,1.198 -0.479,0 -0.928,-0.088 -0.972,-0.097l0 -0.822c0.08,0.02 0.457,0.133 0.851,0.133 0.448,0 0.654,-0.131 0.654,-0.334 0,-0.181 -0.178,-0.285 -0.402,-0.355 -0.054,-0.019 -0.136,-0.044 -0.192,-0.063 -0.501,-0.158 -0.92,-0.453 -0.92,-1.044 0,-0.668 0.5,-1.116 1.331,-1.116 0.438,0 0.851,0.106 0.878,0.113l-0.001 0.763z"/>
   <g id="g383">
    <path id="path296" fill="#2B2A29" fill-rule="nonzero" d="M0.895 3.359c0,-0.246 -0.201,-0.445 -0.447,-0.445 -0.247,0 -0.448,0.199 -0.448,0.445l0 0.937c0,0.248 0.201,0.447 0.448,0.447 0.246,0 0.447,-0.199 0.447,-0.447l0 -0.937z"/>
    <path id="path300" fill="#2B2A29" fill-rule="nonzero" d="M3.352 2.129c0,-0.246 -0.201,-0.446 -0.448,-0.446 -0.246,0 -0.447,0.2 -0.447,0.446l0 2.167c0,0.248 0.201,0.447 0.447,0.447 0.247,0 0.448,-0.199 0.448,-0.447l0 -2.167z"/>
    <path id="path304" fill="#2B2A29" fill-rule="nonzero" d="M5.809 0.446c0,-0.246 -0.201,-0.446 -0.448,-0.446 -0.246,0 -0.447,0.2 -0.447,0.446l0 4.741c0,0.247 0.201,0.447 0.447,0.447 0.247,0 0.448,-0.2 0.448,-0.447l0 -4.741z"/>
    <path id="path308" fill="#2B2A29" fill-rule="nonzero" d="M8.266 2.129c0,-0.246 -0.201,-0.446 -0.447,-0.446 -0.247,0 -0.448,0.2 -0.448,0.446l0 2.167c0,0.248 0.201,0.447 0.448,0.447 0.246,0 0.447,-0.199 0.447,-0.447l0 -2.167z"/>
    <path id="path312" fill="#2B2A29" fill-rule="nonzero" d="M10.72 3.359c0,-0.246 -0.2,-0.445 -0.445,-0.445 -0.246,0 -0.447,0.199 -0.447,0.445l0 0.937c0,0.248 0.201,0.447 0.447,0.447 0.245,0 0.445,-0.199 0.445,-0.447l0 -0.937z"/>
   </g>
   <g>
    <g>
     <path fill="#2B2A29" fill-rule="nonzero" d="M10.721 3.359c0,-0.246 -0.201,-0.445 -0.447,-0.445 -0.246,0 -0.448,0.199 -0.448,0.445l0 0.937c0,0.248 0.201,0.447 0.448,0.447 0.246,0 0.447,-0.199 0.447,-0.447l0 -0.937z"/>
     <path fill="#2B2A29" fill-rule="nonzero" d="M13.178 2.129c0,-0.246 -0.201,-0.446 -0.447,-0.446 -0.247,0 -0.448,0.2 -0.448,0.446l0 2.167c0,0.248 0.201,0.447 0.448,0.447 0.246,0 0.447,-0.199 0.447,-0.447l0 -2.167z"/>
     <path fill="#2B2A29" fill-rule="nonzero" d="M15.635 0.446c0,-0.246 -0.201,-0.446 -0.447,-0.446 -0.247,0 -0.448,0.2 -0.448,0.446l0 4.741c0,0.247 0.201,0.447 0.448,0.447 0.246,0 0.447,-0.2 0.447,-0.447l0 -4.741z"/>
     <path fill="#2B2A29" fill-rule="nonzero" d="M18.092 2.129c0,-0.246 -0.201,-0.446 -0.447,-0.446 -0.247,0 -0.448,0.2 -0.448,0.446l0 2.167c0,0.248 0.201,0.447 0.448,0.447 0.246,0 0.447,-0.199 0.447,-0.447l0 -2.167z"/>
     <path fill="#2B2A29" fill-rule="nonzero" d="M20.546 3.359c0,-0.246 -0.199,-0.445 -0.444,-0.445 -0.247,0 -0.448,0.199 -0.448,0.445l0 0.937c0,0.248 0.201,0.447 0.448,0.447 0.245,0 0.444,-0.199 0.444,-0.447l0 -0.937z"/>
    </g>
   </g>
   <path id="path332" fill="#2B2A29" fill-rule="nonzero" d="M20.032 10.296l0 0.056 -0.159 0 0 0.414 -0.065 0 0 -0.414 -0.16 0 0 -0.056 0.384 0z"/>
   <path id="path336" fill="#2B2A29" fill-rule="nonzero" d="M20.066 10.296l0.102 0 0.141 0.386 0.002 0 0.136 -0.386 0.101 0 0 0.47 -0.067 0 0 -0.385 -0.003 0 -0.142 0.385 -0.062 0 -0.139 -0.385 -0.004 0 0 0.385 -0.065 0 0 -0.47z"/>
  </g>
 </g>
</svg>
