<?xml version="1.0" encoding="UTF-8"?>
<!DOCTYPE svg PUBLIC "-//W3C//DTD SVG 1.1//EN" "http://www.w3.org/Graphics/SVG/1.1/DTD/svg11.dtd">
<!-- Creator: CorelDRAW -->
<svg xmlns="http://www.w3.org/2000/svg" xml:space="preserve" width="274px" height="74px" version="1.1" shape-rendering="geometricPrecision" text-rendering="geometricPrecision" image-rendering="optimizeQuality" fill-rule="evenodd" clip-rule="evenodd"
viewBox="0 0 34.743 9.357"
 xmlns:xlink="http://www.w3.org/1999/xlink"
 xmlns:xodm="http://www.corel.com/coreldraw/odm/2003">
 <g id="Capa_x0020_1">
  <metadata id="CorelCorpID_0Corel-Layer"/>
  <path fill="#0E1B24" d="M0 8.511c0.11,0.331 0.66,0.698 1.174,0.808 2.054,0.367 2.385,-2.018 3.082,-2.715 0.807,-0.844 2.348,0.073 1.944,1.21 -0.147,0.441 -0.587,0.844 -1.211,0.808 -0.55,-0.037 -0.77,-0.367 -0.953,-0.587l-0.367 0.66c0.293,0.33 0.733,0.624 1.32,0.66 1.431,0 2.312,-1.32 1.908,-2.494 -0.44,-1.248 -1.871,-1.688 -2.898,-0.991 -0.917,0.624 -1.101,2.201 -1.945,2.641 -0.88,0.441 -1.394,-0.33 -1.577,-0.476l-0.477 0.476zm0 0l0 0zm3.889 -0.697l0 0 -0.037 0.074 0.037 -0.074z"/>
  <path fill="#0E1B24" d="M3.008 4.549l-2.311 0 -0.367 2.238 0.514 0.147c0.22,-0.073 0.403,-0.11 0.623,-0.11 0.257,0 0.477,0.037 0.661,0.183 0.11,0.11 0.147,0.22 0.183,0.33 0.11,-0.183 0.184,-0.366 0.294,-0.587 0.036,-0.073 0.11,-0.146 0.147,-0.22 -0.111,-0.073 -0.257,-0.183 -0.404,-0.22 -0.183,-0.073 -0.44,-0.11 -0.624,-0.11 -0.073,0 -0.183,0 -0.257,0.037 -0.073,0 -0.146,0 -0.256,0l-0.147 0.037 0.183 -1.028 1.248 0c0.073,0 0.183,0 0.257,-0.036 0.036,-0.037 0.11,-0.037 0.146,-0.074 0.037,-0.036 0.074,-0.073 0.074,-0.11 0.036,-0.037 0.036,-0.11 0.036,-0.183l0 -0.294z"/>
  <path fill="#0E1B24" d="M20.215 1.761c0,-0.404 0.037,-0.807 -0.074,-1.174 -0.073,-0.33 -0.33,-0.514 -0.697,-0.514 -0.11,0 -0.366,0.037 -0.44,0.074 -0.037,0.036 -0.147,0.146 -0.22,0.183 0,0 0,0.037 0,0.037l-0.257 0.22c-0.036,0.037 -0.036,0.073 -0.073,0.073 -0.037,0.074 -0.074,0.11 -0.11,0.147l-0.294 0.257c-0.037,0.037 -0.073,0.073 -0.147,0.11l-1.797 1.688c-0.037,0.073 -0.074,0.11 -0.11,0.146 -0.11,0.074 -0.147,0.147 -0.22,0.184l-0.404 0.403c-0.147,0.11 -0.404,0.33 -0.477,0.477l1.871 0 0.404 -0.367c0.036,-0.036 0.036,-0.036 0.073,-0.036 0.037,-0.037 0.037,-0.074 0.073,-0.074l0.514 -0.44c0.037,-0.037 0.037,-0.073 0.073,-0.073 0.037,-0.037 0.037,-0.037 0.074,-0.074l0.257 -0.22c0.036,-0.036 0.073,-0.073 0.11,-0.11 0.073,-0.037 0.073,-0.073 0.147,-0.11 0.036,-0.037 0.036,-0.037 0.073,-0.073l0.11 -0.11c0.073,-0.037 0.147,-0.147 0.22,-0.147 0,0.33 0,0.66 0,0.99 0,0.111 0.037,0.221 0.073,0.294 0.037,0.147 0.147,0.293 0.257,0.367 0.11,0.073 0.257,0.11 0.404,0.11 0.183,-0.074 0.22,-0.037 0.403,-0.147 0.184,-0.073 0.404,-0.293 0.551,-0.44l1.761 -1.761c0.073,-0.037 0.22,-0.22 0.256,-0.22l1.798 0c0.147,0 0.184,0.073 0.257,0.11 0.183,-0.147 0.183,-0.771 0.073,-0.991 -0.073,-0.183 -0.256,-0.367 -0.44,-0.44 -0.073,0 -0.11,-0.037 -0.183,-0.037 -0.037,-0.036 -0.037,-0.036 -0.074,-0.036 -0.036,0 -0.036,-0.037 -0.073,-0.037l-1.834 0c-0.037,0 -0.221,0.22 -0.294,0.257 -0.11,0.11 -0.33,0.33 -0.404,0.403l-1.137 1.028c-0.036,0.036 -0.036,0.036 -0.073,0.073z"/>
  <path fill="#0E1B24" d="M8.108 8.511l0 -1.137c0.073,0 0.44,-0.293 0.514,-0.33l0.183 -0.11c0.073,-0.073 0.66,-0.44 0.66,-0.44 0.147,0 0.294,0.036 0.404,0.073 0.257,0.147 0.22,0.44 0.11,0.66 -0.11,0.22 -0.404,0.367 -0.624,0.514l-0.954 0.587c-0.036,0.037 -0.073,0.073 -0.146,0.11 -0.037,0 -0.074,0.073 -0.147,0.073zm0 0l0 0zm-0.037 0.844l-0.623 0 0 -4.806c0.366,0 0.733,0 1.1,0 0.734,0 1.321,-0.147 1.541,0.551 0.147,0.403 0.037,0.733 0,0.953 0.147,0.074 0.294,0.184 0.367,0.294 0.037,0 0.037,0 0.037,0.037 0.036,0.036 0.036,0.036 0.073,0.036 0.037,0.11 0.073,0.184 0.11,0.294 0.073,0.33 0,0.697 -0.183,0.99 -0.11,0.147 -0.257,0.221 -0.441,0.331l-1.981 1.32zm0 0l0 0zm0.037 -2.678l0 -1.541 0.77 0c0.184,0 0.367,-0.036 0.514,0.074 0.073,0.036 0.037,0.036 0.073,0.073 0.037,0.11 0,0.44 -0.146,0.55l-0.844 0.587c-0.11,0.074 -0.257,0.184 -0.367,0.257z"/>
  <path fill="#0E1B24" d="M11.483 6.017l0 -0.954 1.064 0c0.11,0 0.184,0.183 0.037,0.257l-0.954 0.623c0,0 -0.037,0 -0.037,0 -0.036,0 -0.036,0 -0.036,0.037 -0.037,0 -0.037,0.037 -0.074,0.037zm0 0l0 0zm-0.587 1.394l0.514 0 0 -0.661c0.073,0 0.623,-0.366 0.697,-0.44 0.293,-0.146 0.22,-0.146 0.367,-0.073 0.11,0.037 0.293,0.22 0.293,0.367l0 0.843 0.477 0 0 -0.99c0,-0.147 -0.073,-0.257 -0.11,-0.33 -0.037,-0.074 -0.073,-0.11 -0.11,-0.147l-0.147 -0.073c0.037,0 0.11,-0.074 0.147,-0.11 0,-0.037 0.037,-0.037 0.037,-0.074 0.183,-0.293 0.33,-1.21 -0.551,-1.21l-1.614 0 0 2.898z"/>
  <path fill="#0E1B24" d="M20.325 3.925c0.183,-0.036 1.981,0 2.311,0 0.771,0 1.541,0 2.275,0 0.073,-0.22 0.073,-0.476 0,-0.66 -0.074,-0.147 -0.147,-0.257 -0.257,-0.33 -0.073,0 -0.147,-0.073 -0.22,-0.073l-3.009 0c-0.073,0 -0.146,0.146 -0.22,0.183l-0.403 0.404 0 0 -0.074 0.073c0,0 0,0 0,0l-0.366 0.33c-0.037,0.037 0,0 -0.037,0.073z"/>
  <path fill="#0E1B24" d="M16.913 5.136l-0.073 0 0 -0.587 -0.588 0 0 2.898 0.551 0 0 -1.54c0.403,-0.221 0.44,-0.294 0.734,-0.477 0.146,-0.11 0.366,-0.147 0.55,-0.074 0.073,0 0.037,0 0.073,0.037l0 2.054 0.551 0 0 -2.421c0,-0.11 -0.147,-0.367 -0.294,-0.44 -0.514,-0.294 -1.101,0.55 -1.504,0.55z"/>
  <path fill="#0E1B24" d="M14.235 6.494c0,-0.147 0,-1.248 0.036,-1.321 0,-0.037 0.074,-0.073 0.11,-0.073l0.771 0c0.11,0 0.183,0.073 0.183,0.183l0 0.697c0,0.147 -0.146,0.184 -0.22,0.257 -0.073,0.037 -0.11,0.037 -0.183,0.073 -0.11,0.074 -0.257,0.184 -0.44,0.257 -0.037,0.037 -0.111,0.073 -0.147,0.073 -0.074,0 -0.11,-0.11 -0.11,-0.146zm0 0l0 0zm-0.257 0.953c0.073,0 0.073,0 0.147,-0.036 0.036,-0.037 0.11,-0.074 0.146,-0.074 0.074,-0.073 0.147,-0.073 0.257,-0.146 0.037,0 0.037,0 0.074,-0.037l0.66 -0.33c0.073,-0.037 0.33,-0.184 0.404,-0.257 0.146,-0.11 0.22,-0.22 0.22,-0.403l0 -1.064c0,-0.331 -0.147,-0.587 -0.477,-0.587l-1.028 0c-0.807,0 -0.733,0.697 -0.733,1.247 0,0.147 0,1.394 0.036,1.467 0.037,0.147 0.147,0.22 0.294,0.22z"/>
  <path fill="#0E1B24" d="M21.352 4.989l0 1.982c0,0.146 0.037,0.256 0.11,0.33 0.11,0.11 0.22,0.146 0.367,0.146 0.11,0 0.33,-0.146 0.404,-0.22 0.073,-0.036 0.11,-0.036 0.183,-0.073 0.073,-0.073 0.11,-0.11 0.183,-0.147 0.147,-0.11 0.587,-0.403 0.734,-0.477l0 -0.623c-0.036,0 -0.183,0.11 -0.257,0.146l-0.623 0.367c-0.074,0.037 -0.11,0.074 -0.184,0.11l-0.367 0.22 0 -0.807 0.844 0c0.074,0 0.074,0 0.11,0l0 -0.587 -0.954 0c0,-0.146 0,-0.33 0.257,-0.33l1.211 0 0 -0.477 -1.321 0c-0.073,0 -0.11,-0.036 -0.22,0 -0.147,0.037 -0.147,0.037 -0.22,0.074 -0.147,0.073 -0.257,0.22 -0.257,0.366z"/>
  <path fill="#0E1B24" d="M29.13 5.65l0 0.55c-0.22,0 -0.367,0 -0.551,0l0.147 -0.22c0.037,0 0.037,0 0.037,-0.037 0.037,-0.036 0,0 0.037,-0.036l0.257 -0.294c0.036,-0.037 0.036,-0.073 0.073,-0.073 0,0.036 0,0.036 0,0.036 0,0.037 0,0 0,0.074zm0 0l0 0zm-2.201 1.761c0.11,0 0.183,0.036 0.293,0.036 0.073,0 0.11,0 0.184,0 0.22,0 0.11,0.074 0.366,-0.256l0.294 -0.367 1.101 0 0 0.55 0.477 0 0 -2.715c0,-0.22 -0.294,-0.257 -0.477,-0.073 -0.037,0 -0.037,0.037 -0.074,0.073 -0.036,0.037 -0.036,0.037 -0.073,0.074l-1.578 2.017c-0.036,0.037 -0.036,0.074 -0.073,0.074l-0.44 0.587z"/>
  <path fill="#0E1B24" d="M21.646 2.715l2.128 0.037c0.11,0 0.146,0 0.293,0 0.183,0 0.66,-0.037 0.77,0.036l0.074 0.074c0,0 0,0 0,0 0.147,0.146 0.257,0.477 0.257,0.697 0.183,-0.037 0.293,-0.514 0.293,-0.624 0,-0.33 0.073,-0.66 -0.22,-0.954 -0.147,-0.11 -0.257,-0.22 -0.404,-0.257 -0.073,-0.036 -0.146,-0.073 -0.183,-0.073l-1.981 0c-0.037,0 -0.22,0.22 -0.257,0.257 -0.11,0.11 -0.77,0.77 -0.77,0.807z"/>
  <path fill="#0E1B24" d="M25.791 7.044c0,0.33 0.22,0.514 0.551,0.33 0.146,-0.073 0.183,-0.183 0.256,-0.22 0.074,-0.073 0.074,-0.073 0.11,-0.147 0.367,-0.477 0.771,-1.064 1.174,-1.577 0.037,-0.074 0.111,-0.11 0.147,-0.184 0,-0.036 0.037,-0.073 0.074,-0.11l0.403 -0.55c0,0 0,0 0.037,-0.037 0.036,-0.036 0.036,-0.073 0.073,-0.11l-0.66 0 -1.614 2.128c-0.037,0.037 0,0 -0.074,0.037l0 -2.165 -0.477 0 0 2.605z"/>
  <path fill="#0E1B24" d="M23.737 5.1c0,0.33 0.037,0.586 0.33,0.807 0.367,0.257 0.697,0.073 0.697,0.293 0,0.074 -0.183,0.184 -0.293,0.257 -0.037,0.037 -0.037,0.037 -0.037,0.037 -0.037,0.036 -0.074,0.036 -0.074,0.036 -0.036,0.037 0,0.037 -0.036,0.037 -0.037,0.037 -0.037,0.037 -0.074,0.037l-1.027 0.697c-0.073,0.036 -0.22,0.11 -0.22,0.146l0.917 0 1.101 -0.733c0.403,-0.257 0.477,-0.257 0.477,-0.807 0,-0.294 -0.22,-0.477 -0.477,-0.477 -0.44,-0.037 -0.771,0.11 -0.771,-0.184 0,-0.183 0.11,-0.22 0.257,-0.22l0.917 0 0 -0.587 -1.064 0c-0.183,0 -0.33,0.11 -0.44,0.22 -0.11,0.11 -0.183,0.257 -0.183,0.441z"/>
  <path fill="#0E1B24" d="M19.114 4.916l0 2.201c0,0.22 0.184,0.404 0.44,0.294l0.477 -0.257c0.11,-0.073 0.918,-0.624 0.954,-0.624l0 -0.66 -0.844 0.514c-0.036,0.036 -0.11,0.073 -0.146,0.11 -0.074,0.036 -0.11,0.073 -0.184,0.11l-0.183 0.073c0,-0.477 0,-0.954 0,-1.467 0,-0.294 0.293,-0.221 0.513,-0.221 0.257,0 0.477,0 0.734,0 0.147,0 0.11,0.037 0.11,-0.22 0,-0.33 0.037,-0.293 -0.073,-0.293 -0.33,0.037 -1.248,-0.037 -1.431,0.037 -0.11,0 -0.183,0.073 -0.257,0.146 -0.073,0.037 -0.11,0.11 -0.11,0.257z"/>
  <path fill="#0E1B24" d="M30.157 7.081c0,0.146 0.073,0.366 0.257,0.366 0.11,0 0.33,-0.146 0.44,-0.183 0.147,-0.073 0.514,-0.33 0.661,-0.44l0 -0.734c-0.037,0.037 -0.074,0.037 -0.11,0.074l-0.698 0.403 0 -2.128 -0.55 0 0 2.642z"/>
  <path fill="#0E1B24" d="M32.028 5.833c0,0.184 0.074,0.367 0.22,0.477 0.11,0.147 0.257,0.147 0.404,0.147 0.11,0.037 0.147,0.11 -0.037,0.22l-0.624 0.44c-0.073,0.074 -0.476,0.294 -0.476,0.33 0.11,0 0.587,0 0.66,-0.036l0.33 -0.22c0.147,-0.074 0.66,-0.367 0.697,-0.514 0.074,-0.11 0.11,-0.403 -0.037,-0.587l-0.073 -0.037c-0.037,-0.036 -0.073,-0.036 -0.147,-0.036 -0.11,0 -0.22,0 -0.33,0 -0.073,0 -0.11,0 -0.183,0 0,-0.037 0,-0.037 0,-0.074 -0.074,-0.11 0,-0.22 0.073,-0.22l0.697 0 0 -0.403c-0.22,0 -0.623,-0.037 -0.844,0 -0.11,0.036 -0.256,0.183 -0.33,0.293 0,0.073 0,0.147 0,0.22z"/>
  <path fill="#0E1B24" d="M33.532 7.227c0,0.074 0.037,0.22 0.147,0.22 0.073,0 0.147,-0.036 0.22,-0.073 0.147,-0.073 0.184,-0.11 0.294,-0.183 0.073,-0.037 0.22,-0.147 0.293,-0.184l0 -0.477c-0.11,0.074 -0.513,0.331 -0.587,0.331l0 -1.541 -0.367 0 0 1.907z"/>
  <path fill="#0E1B24" d="M32.909 7.447l0.11 0 0 -0.183 -0.11 0 0 0.183z"/>
  <path fill="#0E1B24" d="M34.633 7.447l0.11 0 0 -0.183 -0.11 0 0 0.183z"/>
  <path fill="#0E1B24" d="M3.925 5.246l-0.11 0c0,0 -0.036,0 -0.036,0 0,-0.036 -0.037,-0.036 -0.037,-0.036l-0.037 -0.11 -0.256 0 -0.037 0.11c0,0 0,0 0,0 0,0.036 -0.037,0.036 -0.037,0.036l-0.11 0 0.257 -0.697 0.147 0 0.256 0.697zm0 0l0 0zm-0.44 -0.257l0.184 0 -0.037 -0.22c0,0 0,0 -0.037,0 0,-0.036 0,-0.073 0,-0.073 0,0 0,0.037 -0.036,0.073 0,0 0,0 0,0l-0.074 0.22zm0 0l0 0zm0.587 -0.44c0,0 0,0 0,0 0,0 0,0 0,0.037 0.037,0 0.037,0 0.037,0 0,0 0,0 0,0l0.33 0.403c0,0 0,-0.036 0,-0.036 0,0 0,-0.037 0,-0.037l0 -0.367 0.147 0 0 0.697 -0.11 0c0,0 0,0 0,0 -0.037,0 -0.037,-0.036 -0.037,-0.036l-0.33 -0.404c0,0 0,0.037 0,0.037 0,0 0,0.036 0,0.036l0 0.367 -0.11 0 0 -0.697 0.073 0zm0 0l0 0zm0.257 -0.11c0,0 0,0 0,0 0.037,0 0.037,-0.037 0.037,-0.037l0.073 0c0,0.037 0,0.037 0,0.037 -0.037,0.037 -0.037,0.037 -0.037,0.074 0,0 0,0 -0.036,0 0,0 -0.037,0 -0.037,0 0,0 0,0 -0.037,0 0,0 0,0 0,0 -0.036,0 -0.036,0 -0.036,0 0,0 -0.037,0 -0.037,0 0,0 0,0 0,0 0,0 0,0 0,0l-0.073 0c0,0 0,-0.037 0,-0.037 0,0 0,-0.037 0,-0.037 0,0 0.036,0 0.036,-0.037 0,0 0.037,0 0.037,0 0,0 0.037,0 0.037,0 0.036,0 0.036,0 0.036,0.037 0,0 0,0 0.037,0 0,0 0,0 0,0zm0 0l0 0zm0.991 0.477c0,0.037 0,0.073 0,0.11 -0.037,0.037 -0.037,0.074 -0.074,0.11 -0.036,0.037 -0.073,0.074 -0.11,0.074 -0.036,0.036 -0.073,0.036 -0.147,0.036 -0.073,0 -0.11,0 -0.146,-0.036 -0.037,0 -0.074,-0.037 -0.11,-0.074 -0.037,-0.036 -0.037,-0.073 -0.074,-0.11 0,-0.037 0,-0.073 0,-0.11 0,-0.073 0,-0.11 0,-0.147 0.037,-0.073 0.037,-0.073 0.074,-0.11 0.036,-0.036 0.073,-0.073 0.11,-0.073 0.036,-0.037 0.073,-0.037 0.146,-0.037 0.074,0 0.111,0 0.147,0.037 0.037,0 0.074,0.037 0.11,0.073 0.037,0.037 0.037,0.037 0.074,0.11 0,0.037 0,0.074 0,0.147zm0 0l0 0zm-0.147 0c0,-0.037 0,-0.073 0,-0.11 0,-0.037 -0.037,-0.037 -0.037,-0.073 -0.036,-0.037 -0.036,-0.037 -0.073,-0.037 0,0 -0.037,0 -0.074,0 -0.036,0 -0.073,0 -0.073,0 -0.037,0 -0.037,0 -0.073,0.037 0,0.036 -0.037,0.036 -0.037,0.073 0,0.037 0,0.073 0,0.11 0,0 0,0.037 0,0.073 0,0.037 0.037,0.037 0.037,0.074 0.036,0 0.036,0.037 0.073,0.037 0,0 0.037,0 0.073,0 0.037,0 0.074,0 0.074,0 0.037,0 0.037,-0.037 0.073,-0.037 0,-0.037 0.037,-0.037 0.037,-0.074 0,-0.036 0,-0.073 0,-0.073zm0 0l0 0zm0.624 -0.22c0,0 0,0 -0.037,0 0,0 0,0 0,0 -0.037,0 -0.037,0 -0.037,0 0,0 0,0 0,0 -0.037,0 -0.037,0 -0.073,0 0,-0.037 0,-0.037 -0.037,-0.037 -0.037,0 -0.037,0.037 -0.073,0.037 0,0 0,0.037 0,0.037 0,0.036 0,0.036 0,0.036 0,0 0.036,0 0.036,0.037 0,0 0.037,0 0.037,0 0.037,0 0.037,0.037 0.073,0.037 0.037,0 0.037,0 0.037,0 0.037,0.036 0.037,0.036 0.074,0.073 0,0 0,0 0.036,0.037 0,0.036 0,0.036 0,0.073 0,0 0,0.037 0,0.074 -0.036,0.036 -0.036,0.073 -0.073,0.073 0,0.037 -0.037,0.037 -0.074,0.073 -0.036,0 -0.073,0 -0.11,0 0,0 -0.036,0 -0.036,0 -0.037,0 -0.037,0 -0.074,-0.036 0,0 -0.036,0 -0.073,-0.037 0,0 0,0 -0.037,0l0.037 -0.11c0,0 0.037,0 0.037,0 0,0 0,0 0,0 0.036,0 0.036,0 0.036,0 0,0 0.037,0.037 0.037,0.037 0,0 0,0 0.037,0 0.036,0 0.036,0 0.036,0 0.037,0 0.074,0 0.074,0 0.036,0 0.036,-0.037 0.036,-0.074 0,0 0,0 0,-0.037 -0.036,0 -0.036,0 -0.036,0 -0.037,0 -0.037,-0.036 -0.074,-0.036 0,0 -0.036,0 -0.036,0 -0.037,0 -0.037,-0.037 -0.074,-0.037 0,0 0,0 -0.036,-0.037 0,0 -0.037,-0.036 -0.037,-0.036 0,-0.037 0,-0.074 0,-0.074 0,-0.036 0,-0.073 0,-0.073 0,-0.037 0.037,-0.073 0.073,-0.073 0,-0.037 0.037,-0.037 0.037,-0.037 0.037,-0.037 0.073,-0.037 0.11,-0.037 0.037,0 0.037,0 0.073,0 0,0 0.037,0.037 0.037,0.037 0.037,0 0.037,0 0.074,0 0,0 0,0.037 0.036,0.037l-0.036 0.073z"/>
 </g>
</svg>
