<?xml version="1.0" encoding="UTF-8"?>
<!DOCTYPE svg PUBLIC "-//W3C//DTD SVG 1.1//EN" "http://www.w3.org/Graphics/SVG/1.1/DTD/svg11.dtd">
<!-- Creator: CorelDRAW -->
<svg xmlns="http://www.w3.org/2000/svg" xml:space="preserve" width="188px" height="61px" version="1.1" shape-rendering="geometricPrecision" text-rendering="geometricPrecision" image-rendering="optimizeQuality" fill-rule="evenodd" clip-rule="evenodd"
viewBox="0 0 16.683 5.414"
 xmlns:xlink="http://www.w3.org/1999/xlink"
 xmlns:xodm="http://www.corel.com/coreldraw/odm/2003">
 <g id="Capa_x0020_1">
  <metadata id="CorelCorpID_0Corel-Layer"/>
  <path fill="#0E1B24" d="M9.731 3.806c0.107,-0.059 0.025,0.052 0.096,-0.099l0.555 -1.62 0.002 1.719 0.504 0c0,-0.45 0.057,-2.203 -0.021,-2.506l-0.728 0.01 -0.547 1.631 -0.159 -0.419c-0.047,-0.139 -0.093,-0.279 -0.139,-0.417 -0.083,-0.247 -0.168,-0.565 -0.278,-0.803l-0.733 -0.001c-0.043,0.166 -0.043,2.339 0,2.506l0.493 -0.01 0.006 -1.62c0.103,0.122 0.395,1.055 0.455,1.236 0.025,0.079 0.045,0.142 0.067,0.21 0.071,0.221 0.05,0.183 0.427,0.183z"/>
  <path fill="#0E1B24" d="M5.406 2.52c0.016,-0.176 -0.093,-0.495 -0.164,-0.64 -0.094,-0.194 -0.21,-0.353 -0.426,-0.402 -0.612,-0.139 -3.472,0.327 -4.816,-0.031 0.195,1.348 0.924,1.052 2.259,0.988 0.671,-0.033 2.64,-0.158 3.147,0.085z"/>
  <path fill="#0E1B24" d="M0 2.902c0.088,0.454 0.265,0.946 0.661,1.024 0.698,0.138 3.255,-0.325 4.761,0.049 -0.062,-0.426 -0.238,-0.976 -0.632,-1.047 -0.329,-0.059 -1.244,0.023 -1.623,0.042 -0.891,0.045 -2.35,0.172 -3.167,-0.068z"/>
  <path fill="#0E1B24" d="M15.068 3.335l0 -1.564c0.683,0 1.054,0.017 1.075,0.765 0.023,0.854 -0.524,0.799 -1.075,0.799zm-0.54 0.471c0.944,0 2.14,0.22 2.155,-1.235 0.006,-0.569 -0.195,-0.958 -0.564,-1.142 -0.387,-0.192 -1.097,-0.128 -1.575,-0.128l-0.016 2.505z"/>
  <path fill="#0E1B24" d="M13.694 3.787l0 -0.451 -1.312 -0.01 0 -0.589 1.171 -0.002 -0.008 -0.432 -1.163 -0.012 0 -0.518 1.277 -0.002 0 -0.451 -1.807 0 0 2.467 1.842 0z"/>
  <path fill="#0E1B24" d="M1.696 4.376c-0.027,0.235 -0.01,0.528 0.081,0.727 0.313,0.687 1.218,-0.076 1.935,0.311 0.091,-0.527 -0.036,-1.048 -0.584,-1.046 -0.624,0.003 -0.816,0.251 -1.432,0.008z"/>
  <path fill="#0E1B24" d="M3.719 1.053c0.138,-1.651 -0.986,-0.841 -1.74,-0.939 -0.151,-0.02 -0.191,-0.09 -0.285,-0.09 -0.051,0.449 0.004,1.001 0.564,1.007 0.529,0.006 1.013,-0.249 1.461,0.022z"/>
  <path fill="#0E1B24" d="M6.793 3.807l0.524 -0.01 -0.009 -2.493 -0.53 -0.003 0.015 2.506z"/>
  <path fill="#0E1B24" d="M8.07 4.899c-0.055,-0.236 0.053,-0.453 0.251,-0.505 0.237,-0.063 0.465,0.059 0.506,0.264 0.121,0.611 -0.656,0.669 -0.757,0.241zm0.869 0c0.15,-0.715 -0.842,-0.824 -0.98,-0.276 -0.186,0.742 0.856,0.867 0.98,0.276z"/>
  <path fill="#0E1B24" d="M14.996 4.394l0.618 0 0 -0.086 -0.73 0.01 0 0.92c0.159,0.016 0.635,0.049 0.74,-0.026 -0.056,-0.116 -0.505,-0.053 -0.646,-0.053l0.011 -0.355c0.163,0 0.492,0.053 0.6,-0.044 -0.108,-0.097 -0.437,-0.044 -0.608,-0.044l0.015 -0.322z"/>
  <path fill="#0E1B24" d="M9.343 4.482c0.081,-0.104 0.176,-0.137 0.351,-0.102 0.144,0.029 0.148,0.101 0.179,0.138 0.054,0.064 -0.012,0.01 0.067,0.049 0.02,-0.055 0.056,0.08 0.013,-0.096 -0.065,-0.263 -0.773,-0.282 -0.721,0.115 0.034,0.26 0.435,0.183 0.594,0.289 0.101,0.067 0.087,0.194 -0.001,0.257 -0.078,0.056 -0.287,0.06 -0.381,0.02 -0.158,-0.066 -0.075,-0.142 -0.199,-0.218 -0.017,0.024 -0.078,-0.066 -0.023,0.122 0.071,0.249 0.587,0.295 0.735,0.067 0.249,-0.38 -0.419,-0.393 -0.615,-0.495l0.001 -0.146z"/>
  <path fill="#0E1B24" d="M16.013 4.635c-0.028,-0.204 0.045,-0.279 0.288,-0.264 0.305,0.019 0.145,0.185 0.326,0.195 0.02,-0.365 -0.605,-0.356 -0.71,-0.118 -0.146,0.329 0.347,0.356 0.454,0.38 0.326,0.071 0.209,0.373 -0.14,0.349 -0.105,-0.008 -0.174,-0.033 -0.217,-0.096 -0.102,-0.149 0.041,-0.148 -0.149,-0.131 0.142,0.538 0.898,0.336 0.792,-0.05 -0.051,-0.184 -0.37,-0.15 -0.644,-0.265z"/>
  <path fill="#0E1B24" d="M10.41 4.397l0.295 -0.005 0.204 0.03c0.132,0.23 0.071,0.338 -0.239,0.338l-0.26 0 0 -0.363zm0 0.458c0.297,0 0.717,0.057 0.672,-0.334 -0.038,-0.323 -0.643,-0.236 -0.778,-0.201l0 0.917 0.106 -0.006 0 -0.376z"/>
  <path fill="#0E1B24" d="M13.216 4.441l0.175 0.421 -0.379 -0.003c0.049,-0.13 0.11,-0.319 0.204,-0.418zm-0.486 0.797c0.172,0.004 0.18,-0.134 0.22,-0.28l0.496 0.011c0.02,0.062 0.041,0.132 0.066,0.181 0.061,0.126 0.02,0.084 0.161,0.097 -0.065,-0.19 -0.15,-0.343 -0.224,-0.52 -0.142,-0.342 -0.131,-0.401 -0.277,-0.428 -0.036,0.035 -0.02,0.007 -0.054,0.06l-0.183 0.408c-0.062,0.128 -0.166,0.346 -0.205,0.471z"/>
  <path fill="#0E1B24" d="M6.777 5.247c0.13,-0.022 0.098,0.016 0.097,-0.171 0,-0.094 -0.002,-0.187 -0.002,-0.281l0.67 0 0 0.452c0.14,-0.024 0.099,-0.013 0.096,-0.207l0.001 -0.56c0.001,-0.188 0.032,-0.149 -0.097,-0.171l0 0.391 -0.67 0c0,-0.082 0.006,-0.177 0.004,-0.256 -0.005,-0.171 0.026,-0.114 -0.099,-0.135l0 0.938z"/>
  <path fill="#0E1B24" d="M13.694 3.787l-1.842 0 0 -2.467 1.807 0c-0.05,-0.038 0.057,-0.019 -0.103,-0.037l-1.739 0.019 0.017 2.503c0.2,0.044 0.721,0.017 0.956,0.017 0.11,0 0.835,0.048 0.904,-0.035z"/>
  <path fill="#0E1B24" d="M11.747 4.309l0 0.085 0.336 0c0.039,0.148 0.021,0.316 0.021,0.471 0,0.459 -0.04,0.359 0.094,0.382l0.017 -0.853c0.055,0 0.147,0.007 0.195,0.005 0.253,-0.015 0.104,0.022 0.154,-0.09l-0.817 0z"/>
  <path fill="#0E1B24" d="M13.928 5.247l0.678 0c-0.041,-0.15 -0.15,-0.088 -0.581,-0.088 0,-0.168 0,-0.335 0,-0.503 0.001,-0.421 0.036,-0.321 -0.097,-0.347l0 0.938z"/>
  <path fill="#0E1B24" d="M11.478 4.309c-0.151,0.03 -0.097,-0.007 -0.097,0.486 0,0.496 -0.047,0.423 0.097,0.452l0 -0.938z"/>
 </g>
</svg>
