<?xml version="1.0" encoding="UTF-8"?>
<!DOCTYPE svg PUBLIC "-//W3C//DTD SVG 1.1//EN" "http://www.w3.org/Graphics/SVG/1.1/DTD/svg11.dtd">
<!-- Creator: CorelDRAW -->
<svg xmlns="http://www.w3.org/2000/svg" xml:space="preserve" width="287px" height="71px" version="1.1" shape-rendering="geometricPrecision" text-rendering="geometricPrecision" image-rendering="optimizeQuality" fill-rule="evenodd" clip-rule="evenodd"
viewBox="0 0 57.588 14.176"
 xmlns:xlink="http://www.w3.org/1999/xlink"
 xmlns:xodm="http://www.corel.com/coreldraw/odm/2003">
 <g id="Capa_x0020_1">
  <metadata id="CorelCorpID_0Corel-Layer"/>
  <g id="_2625466370784">
   <path fill="#0E1B24" fill-rule="nonzero" d="M5.241 0.338c1.185,-0.351 2.453,-0.439 3.671,-0.215 2.238,0.37 4.304,1.785 5.364,3.804 -0.339,-0.244 -0.7,-0.481 -1.119,-0.557 -0.851,-0.185 -1.722,0.101 -2.48,0.479 -0.558,0.278 -1.068,0.646 -1.538,1.054 -0.301,0.272 -0.661,0.486 -1.06,0.575 -0.72,0.192 -1.52,-0.032 -2.069,-0.527 -0.924,-0.82 -2.046,-1.49 -3.293,-1.631 -0.72,-0.081 -1.44,0.198 -1.97,0.68 0.919,-1.766 2.588,-3.104 4.494,-3.662z"/>
   <path fill="#0E1B24" fill-rule="nonzero" d="M17.988 3.248c0.001,0.975 0,1.949 0.001,2.923 0.425,-0.009 0.85,0.015 1.274,-0.012 0.683,-0.063 1.26,-0.667 1.281,-1.354 0.051,-0.631 -0.362,-1.261 -0.964,-1.459 -0.513,-0.166 -1.062,-0.072 -1.592,-0.098zm-0.493 -0.465c0.532,-0.001 1.063,-0.001 1.595,0 0.554,0.005 1.109,0.237 1.476,0.656 0.547,0.615 0.623,1.59 0.187,2.287 -0.331,0.548 -0.956,0.875 -1.588,0.904 -0.557,0.016 -1.114,0.003 -1.671,0.006 0,-1.284 -0.001,-2.569 0.001,-3.853z"/>
   <path fill="#0E1B24" fill-rule="nonzero" d="M26.601 2.784c0.164,-0.002 0.328,-0.002 0.492,0 0.003,1.129 0.001,2.258 0.001,3.387 0.555,0 1.111,-0.003 1.666,0.002 0,0.153 0,0.307 -0.002,0.46 -0.72,0.007 -1.439,0.004 -2.159,0.002 0.003,-1.283 -0.002,-2.567 0.002,-3.851z"/>
   <path fill="#0E1B24" fill-rule="nonzero" d="M43.401 2.784c0.191,-0.002 0.383,-0.002 0.574,-0.001 0.448,0.901 0.908,1.797 1.366,2.693 0.466,-0.894 0.908,-1.799 1.371,-2.694 0.189,0.001 0.379,0 0.569,0.002 0.004,1.284 0.001,2.568 0.002,3.852 -0.151,0.001 -0.301,0.001 -0.451,0.001 -0.004,-1.019 0.002,-2.038 -0.003,-3.058 -0.447,0.884 -0.897,1.765 -1.34,2.649 -0.102,0 -0.203,0 -0.304,0 -0.444,-0.878 -0.881,-1.759 -1.331,-2.633 -0.004,1.013 0.001,2.028 -0.003,3.041 -0.15,0.001 -0.301,0.001 -0.45,0 -0.001,-1.284 -0.002,-2.568 0,-3.852z"/>
   <path fill="#0E1B24" fill-rule="nonzero" d="M21.76 3.731c0.154,-0.003 0.308,-0.003 0.462,-0.004 0.002,0.179 0.003,0.358 0,0.537 0.208,-0.362 0.617,-0.557 1.028,-0.55 0.005,0.157 0.005,0.314 0.004,0.472 -0.229,0.011 -0.47,0.043 -0.656,0.187 -0.241,0.177 -0.369,0.477 -0.374,0.77 -0.003,0.498 0.002,0.995 -0.002,1.493 -0.154,0.001 -0.308,0.001 -0.463,0 -0.002,-0.968 -0.003,-1.937 0.001,-2.905z"/>
   <path fill="#0E1B24" fill-rule="nonzero" d="M29.3 3.731c0.158,-0.003 0.316,-0.003 0.475,-0.002 0.006,0.567 -0.002,1.133 0.003,1.699 0.002,0.226 0.082,0.468 0.274,0.603 0.368,0.251 0.931,0.165 1.197,-0.198 0.13,-0.183 0.197,-0.409 0.193,-0.633 0.002,-0.489 -0.004,-0.979 0.004,-1.468 0.157,-0.004 0.316,-0.005 0.475,-0.003 0.004,0.969 0,1.938 0.002,2.907 -0.16,0.001 -0.32,0.002 -0.479,-0.004 -0.002,-0.178 -0.004,-0.355 0.001,-0.532 -0.35,0.608 -1.276,0.73 -1.803,0.293 -0.308,-0.267 -0.354,-0.702 -0.346,-1.084 0.003,-0.526 -0.004,-1.052 0.004,-1.578z"/>
   <path fill="#0E1B24" fill-rule="nonzero" d="M33.287 3.969c0.597,-0.401 1.487,-0.331 1.99,0.192 -0.086,0.112 -0.175,0.224 -0.263,0.334 -0.404,-0.377 -1.097,-0.475 -1.528,-0.091 -0.437,0.407 -0.428,1.195 0.027,1.584 0.443,0.371 1.155,0.268 1.533,-0.149 0.094,0.098 0.186,0.199 0.277,0.3 -0.521,0.61 -1.544,0.683 -2.154,0.168 -0.676,-0.592 -0.63,-1.825 0.118,-2.338z"/>
   <path fill="#0E1B24" fill-rule="nonzero" d="M36.394 5.446c-0.143,0.117 -0.162,0.334 -0.09,0.496 0.07,0.161 0.242,0.252 0.408,0.285 0.376,0.065 0.812,-0.06 1.024,-0.394 0.113,-0.151 0.106,-0.343 0.105,-0.522 -0.301,-0.001 -0.602,-0.001 -0.903,-0.002 -0.188,0 -0.388,0.024 -0.544,0.137zm-0.433 -1.329c0.379,-0.267 0.837,-0.434 1.305,-0.398 0.319,0.016 0.667,0.125 0.854,0.404 0.142,0.196 0.18,0.444 0.171,0.681 -0.01,0.611 0.008,1.222 0.012,1.832 -0.155,0.001 -0.309,0.001 -0.464,0 -0.001,-0.122 -0.001,-0.244 -0.001,-0.365 -0.383,0.384 -1.003,0.496 -1.503,0.296 -0.385,-0.157 -0.596,-0.61 -0.496,-1.009 0.068,-0.332 0.387,-0.548 0.705,-0.604 0.424,-0.075 0.856,-0.024 1.284,-0.042 0.018,-0.262 -0.05,-0.574 -0.315,-0.69 -0.45,-0.205 -0.964,-0.019 -1.346,0.248 -0.069,-0.118 -0.138,-0.235 -0.206,-0.353z"/>
   <path fill="#0E1B24" fill-rule="nonzero" d="M39.389 3.867c0.499,-0.258 1.127,-0.172 1.593,0.121 -0.06,0.128 -0.119,0.257 -0.186,0.383 -0.315,-0.182 -0.693,-0.298 -1.055,-0.204 -0.154,0.039 -0.297,0.183 -0.265,0.353 0.005,0.131 0.121,0.218 0.23,0.269 0.375,0.181 0.831,0.201 1.147,0.493 0.357,0.337 0.252,1.011 -0.197,1.217 -0.574,0.272 -1.312,0.163 -1.784,-0.263 0.059,-0.122 0.12,-0.244 0.184,-0.364 0.289,0.242 0.661,0.398 1.043,0.367 0.15,-0.017 0.315,-0.051 0.419,-0.171 0.128,-0.141 0.089,-0.386 -0.07,-0.488 -0.363,-0.237 -0.841,-0.227 -1.179,-0.511 -0.378,-0.302 -0.308,-0.978 0.12,-1.202z"/>
   <path fill="#0E1B24" fill-rule="nonzero" d="M48.385 3.73c0.154,-0.001 0.309,-0.001 0.463,0 0.002,0.969 0.004,1.937 -0.001,2.906 -0.154,0.001 -0.309,0.001 -0.463,0 0.001,-0.969 -0.003,-1.938 0.001,-2.906z"/>
   <path fill="#0E1B24" fill-rule="nonzero" d="M49.88 3.73c0.16,-0.001 0.319,-0.002 0.479,0 0.001,0.175 0.001,0.349 0.001,0.524 0.343,-0.547 1.126,-0.677 1.681,-0.4 0.354,0.175 0.514,0.584 0.519,0.961 0.006,0.607 0.003,1.214 0.001,1.821 -0.159,0.001 -0.318,0.001 -0.476,0 -0.007,-0.572 0,-1.145 -0.004,-1.718 0.004,-0.277 -0.158,-0.557 -0.421,-0.66 -0.363,-0.14 -0.825,-0.063 -1.078,0.245 -0.148,0.175 -0.227,0.407 -0.222,0.635 0,0.499 0.003,0.999 -0.002,1.498 -0.159,0.001 -0.318,0.001 -0.477,0 -0.002,-0.969 -0.001,-1.937 -0.001,-2.906z"/>
   <path fill="#0E1B24" fill-rule="nonzero" d="M53.526 3.732c0.158,-0.003 0.317,-0.004 0.476,-0.002 0.002,0.969 0.001,1.937 0.001,2.906 -0.16,0.001 -0.319,0.001 -0.478,-0.003 -0.004,-0.966 -0.006,-1.934 0.001,-2.901z"/>
   <path fill="#0E1B24" fill-rule="nonzero" d="M55.883 4.169c-0.612,0.147 -0.871,0.933 -0.566,1.455 0.261,0.518 1.024,0.633 1.452,0.26 0.442,-0.37 0.445,-1.128 0.022,-1.513 -0.242,-0.219 -0.597,-0.283 -0.908,-0.202zm-0.562 -0.237c0.556,-0.367 1.409,-0.269 1.789,0.308 -0.004,-0.171 -0.003,-0.341 0,-0.512 0.153,0 0.307,0.001 0.461,-0.001 0.009,0.829 0,1.658 0.005,2.487 0.01,0.319 -0.046,0.655 -0.236,0.919 -0.231,0.338 -0.637,0.518 -1.036,0.55 -0.5,0.056 -1.002,-0.113 -1.404,-0.408 0.072,-0.124 0.144,-0.248 0.217,-0.372 0.227,0.156 0.466,0.312 0.745,0.35 0.385,0.072 0.833,-0.03 1.072,-0.36 0.193,-0.259 0.174,-0.598 0.177,-0.905 -0.468,0.723 -1.675,0.678 -2.13,-0.036 -0.399,-0.623 -0.306,-1.594 0.34,-2.02z"/>
   <path fill="#0E1B24" fill-rule="nonzero" d="M27.645 8.57c0.104,-0.182 0.217,-0.358 0.327,-0.537 0.166,0.06 0.333,0.118 0.5,0.179 -0.134,0.122 -0.27,0.24 -0.405,0.359 -0.141,0 -0.282,0 -0.422,-0.001z"/>
   <path fill="#0E1B24" fill-rule="nonzero" d="M47.607 8.568c0.108,-0.181 0.221,-0.357 0.334,-0.534 0.163,0.06 0.329,0.117 0.493,0.179 -0.13,0.125 -0.267,0.24 -0.401,0.359 -0.143,-0.001 -0.284,-0.001 -0.426,-0.004z"/>
   <path fill="#0E1B24" fill-rule="nonzero" d="M17.737 9.039c0.45,-0.469 1.254,-0.438 1.73,-0.024 -0.106,0.127 -0.213,0.253 -0.318,0.38 -0.224,-0.184 -0.552,-0.316 -0.826,-0.159 -0.396,0.198 -0.403,0.836 -0.015,1.047 0.197,0.126 0.436,0.075 0.639,-0.006 0.001,-0.183 0.001,-0.366 0.001,-0.548 0.16,-0.001 0.32,0 0.48,-0.001 0.001,0.28 -0.001,0.559 0.002,0.839 -0.449,0.285 -1.076,0.387 -1.533,0.066 -0.52,-0.337 -0.604,-1.162 -0.16,-1.594z"/>
   <path fill="#0E1B24" fill-rule="nonzero" d="M19.768 8.712c0.187,0 0.374,0 0.562,0.002 0.004,0.696 0.002,1.391 0.001,2.087 -0.189,0.001 -0.377,0 -0.565,0.002 0.002,-0.697 -0.001,-1.394 0.002,-2.091z"/>
   <path fill="#0E1B24" fill-rule="nonzero" d="M20.699 8.713c0.162,-0.001 0.325,-0.001 0.487,-0.001 0.308,0.413 0.621,0.822 0.925,1.239 0,-0.413 -0.001,-0.826 0,-1.239 0.173,0 0.348,0 0.521,0.001 0.001,0.696 0.002,1.393 0,2.09 -0.166,-0.002 -0.332,-0.002 -0.497,0 -0.299,-0.412 -0.609,-0.815 -0.913,-1.223 -0.002,0.407 0.002,0.815 -0.002,1.223 -0.174,-0.002 -0.347,-0.002 -0.52,0 -0.002,-0.697 -0.001,-1.393 -0.001,-2.09z"/>
   <path fill="#0E1B24" fill-rule="nonzero" d="M23.001 8.713c0.546,-0.001 1.092,-0.002 1.638,0 -0.002,0.145 -0.001,0.29 0,0.436 -0.363,0.002 -0.726,0 -1.088,0.001 0,0.127 0,0.253 0.001,0.38 0.329,0.001 0.658,0 0.988,0.001 -0.001,0.146 -0.001,0.291 0,0.438 -0.33,0 -0.66,0 -0.989,0 0,0.131 0,0.263 0,0.395 0.376,-0.001 0.752,0 1.129,0 0,0.145 0.001,0.291 0,0.436 -0.56,0.004 -1.12,0 -1.68,0.003 0,-0.697 0,-1.394 0.001,-2.09z"/>
   <path fill="#0E1B24" fill-rule="nonzero" d="M25.143 8.988c0.449,-0.427 1.212,-0.366 1.642,0.06 -0.104,0.134 -0.215,0.262 -0.322,0.395 -0.183,-0.185 -0.451,-0.356 -0.718,-0.242 -0.454,0.156 -0.484,0.877 -0.056,1.083 0.268,0.154 0.562,-0.011 0.774,-0.182 0.111,0.113 0.22,0.228 0.325,0.346 -0.272,0.262 -0.653,0.428 -1.034,0.373 -0.319,-0.036 -0.621,-0.218 -0.787,-0.494 -0.257,-0.414 -0.194,-1.011 0.176,-1.339z"/>
   <path fill="#0E1B24" fill-rule="nonzero" d="M27.809 9.188c-0.483,0.12 -0.562,0.852 -0.134,1.091 0.319,0.225 0.771,-0.035 0.817,-0.4 0.097,-0.384 -0.284,-0.824 -0.683,-0.691zm-0.22 -0.445c0.44,-0.123 0.967,-0.013 1.259,0.356 0.336,0.416 0.292,1.088 -0.114,1.442 -0.538,0.511 -1.584,0.335 -1.84,-0.391 -0.236,-0.559 0.101,-1.262 0.695,-1.407z"/>
   <path fill="#0E1B24" fill-rule="nonzero" d="M29.311 8.713c0.183,-0.001 0.366,-0.001 0.55,-0.001 0.001,0.542 0.001,1.083 0,1.624 0.292,-0.001 0.584,0 0.877,-0.001 -0.001,0.156 -0.001,0.311 -0.001,0.468 -0.476,-0.002 -0.951,-0.001 -1.427,-0.001 0.001,-0.697 0,-1.393 0.001,-2.089z"/>
   <path fill="#0E1B24" fill-rule="nonzero" d="M31.819 9.19c-0.295,0.087 -0.472,0.432 -0.387,0.725 0.064,0.299 0.403,0.53 0.701,0.419 0.276,-0.087 0.434,-0.402 0.38,-0.679 -0.036,-0.318 -0.38,-0.576 -0.694,-0.465zm-0.015 -0.485c0.337,-0.041 0.697,0.043 0.951,0.276 0.391,0.338 0.446,0.972 0.152,1.389 -0.375,0.549 -1.242,0.613 -1.725,0.176 -0.414,-0.363 -0.454,-1.068 -0.088,-1.478 0.178,-0.208 0.441,-0.332 0.71,-0.363z"/>
   <path fill="#0E1B24" fill-rule="nonzero" d="M33.486 9.03c0.454,-0.459 1.246,-0.425 1.723,-0.018 -0.105,0.129 -0.21,0.256 -0.314,0.384 -0.225,-0.18 -0.543,-0.315 -0.819,-0.167 -0.391,0.186 -0.42,0.798 -0.061,1.031 0.199,0.152 0.459,0.105 0.674,0.016 0,-0.183 0,-0.365 0.001,-0.547 0.159,-0.001 0.319,-0.001 0.479,0 0.002,0.28 0,0.56 0.001,0.84 -0.447,0.282 -1.064,0.382 -1.521,0.071 -0.532,-0.335 -0.617,-1.175 -0.163,-1.61z"/>
   <path fill="#0E1B24" fill-rule="nonzero" d="M36.343 9.191c-0.481,0.138 -0.534,0.868 -0.103,1.101 0.36,0.227 0.836,-0.119 0.809,-0.52 0.03,-0.365 -0.346,-0.711 -0.706,-0.581zm-0.175 -0.455c0.416,-0.106 0.904,-0.008 1.194,0.324 0.379,0.412 0.337,1.13 -0.089,1.494 -0.43,0.376 -1.141,0.373 -1.564,-0.01 -0.299,-0.271 -0.412,-0.718 -0.293,-1.101 0.099,-0.349 0.404,-0.621 0.752,-0.707z"/>
   <path fill="#0E1B24" fill-rule="nonzero" d="M41.139 9.181c-0.238,0.061 -0.416,0.286 -0.432,0.529 -0.038,0.344 0.272,0.701 0.628,0.648 0.362,-0.05 0.575,-0.476 0.448,-0.806 -0.082,-0.261 -0.374,-0.449 -0.644,-0.371zm-0.224 -0.44c0.403,-0.111 0.871,-0.024 1.174,0.275 0.388,0.38 0.398,1.071 0.023,1.462 -0.431,0.474 -1.271,0.474 -1.702,0.001 -0.332,-0.351 -0.365,-0.937 -0.087,-1.329 0.139,-0.202 0.357,-0.344 0.592,-0.409z"/>
   <path fill="#0E1B24" fill-rule="nonzero" d="M42.61 8.713c0.164,-0.001 0.328,-0.001 0.493,-0.001 0.307,0.408 0.615,0.816 0.919,1.227 -0.002,-0.409 0,-0.818 -0.002,-1.226 0.174,-0.001 0.349,-0.001 0.524,0 -0.001,0.697 0.001,1.393 -0.001,2.09 -0.164,-0.002 -0.326,-0.002 -0.488,-0.002 -0.305,-0.415 -0.621,-0.821 -0.922,-1.237 -0.002,0.412 0,0.826 -0.002,1.239 -0.173,-0.002 -0.347,-0.002 -0.521,0 -0.001,-0.697 -0.001,-1.394 0,-2.09z"/>
   <path fill="#0E1B24" fill-rule="nonzero" d="M44.919 9.219c0.366,-0.637 1.338,-0.684 1.831,-0.17 -0.104,0.133 -0.212,0.263 -0.323,0.39 -0.19,-0.204 -0.502,-0.369 -0.772,-0.211 -0.402,0.189 -0.408,0.837 -0.019,1.045 0.266,0.167 0.584,0.014 0.791,-0.175 0.109,0.117 0.222,0.231 0.33,0.35 -0.294,0.277 -0.712,0.45 -1.117,0.359 -0.407,-0.068 -0.761,-0.398 -0.837,-0.806 -0.047,-0.263 -0.024,-0.549 0.116,-0.782z"/>
   <path fill="#0E1B24" fill-rule="nonzero" d="M47.731 9.202c-0.472,0.16 -0.495,0.903 -0.043,1.104 0.381,0.213 0.835,-0.19 0.779,-0.592 -0.006,-0.354 -0.395,-0.663 -0.736,-0.512zm-0.15 -0.466c0.417,-0.108 0.9,-0.008 1.194,0.318 0.347,0.377 0.347,1.008 0.017,1.396 -0.431,0.51 -1.323,0.513 -1.753,0.001 -0.297,-0.334 -0.333,-0.864 -0.101,-1.243 0.136,-0.239 0.381,-0.402 0.643,-0.472z"/>
   <path fill="#0E1B24" fill-rule="nonzero" d="M49.273 8.713c0.188,-0.001 0.377,-0.001 0.566,0 -0.002,0.54 -0.001,1.081 0,1.622 0.286,0.001 0.573,0 0.86,0.001 0,0.155 0,0.311 0,0.466 -0.475,-0.001 -0.951,-0.001 -1.426,0 0,-0.696 0,-1.393 0,-2.089z"/>
   <path fill="#0E1B24" fill-rule="nonzero" d="M51.812 9.181c-0.219,0.053 -0.391,0.253 -0.426,0.474 -0.059,0.304 0.147,0.637 0.456,0.698 0.298,0.066 0.589,-0.181 0.634,-0.47 0.102,-0.379 -0.268,-0.813 -0.664,-0.702zm-0.222 -0.441c0.39,-0.105 0.842,-0.028 1.144,0.252 0.402,0.367 0.436,1.058 0.07,1.463 -0.431,0.507 -1.317,0.503 -1.747,-0.003 -0.305,-0.356 -0.335,-0.92 -0.062,-1.302 0.139,-0.204 0.36,-0.341 0.595,-0.41z"/>
   <path fill="#0E1B24" fill-rule="nonzero" d="M53.559 8.934c0.469,-0.356 1.174,-0.302 1.612,0.081 -0.103,0.128 -0.208,0.254 -0.313,0.38 -0.228,-0.184 -0.558,-0.32 -0.834,-0.156 -0.381,0.198 -0.393,0.81 -0.03,1.031 0.197,0.142 0.448,0.092 0.657,0.006 0.001,-0.183 0.001,-0.365 0.001,-0.547 0.159,0 0.32,0 0.481,0 -0.001,0.281 -0.002,0.562 0,0.843 -0.332,0.201 -0.734,0.315 -1.121,0.234 -0.369,-0.071 -0.697,-0.35 -0.804,-0.713 -0.137,-0.409 0,-0.9 0.351,-1.159z"/>
   <path fill="#0E1B24" fill-rule="nonzero" d="M56.331 9.185c-0.312,0.081 -0.5,0.449 -0.399,0.752 0.073,0.291 0.41,0.507 0.701,0.395 0.332,-0.106 0.472,-0.533 0.327,-0.836 -0.101,-0.236 -0.379,-0.388 -0.629,-0.311zm-0.225 -0.442c0.428,-0.12 0.938,-0.018 1.234,0.329 0.343,0.39 0.326,1.034 -0.029,1.41 -0.38,0.413 -1.068,0.461 -1.524,0.151 -0.299,-0.197 -0.471,-0.563 -0.445,-0.918 -0.009,-0.452 0.336,-0.858 0.764,-0.972z"/>
   <path fill="#0E1B24" fill-rule="nonzero" d="M38.46 9.714c0.268,0.001 0.535,-0.001 0.804,0.001 -0.001,0.117 0,0.235 0,0.352 -0.269,0 -0.538,0.001 -0.807,0.001 0.001,-0.118 0.001,-0.236 0.003,-0.354z"/>
   <path fill="#0E1B24" fill-rule="nonzero" d="M10.752 6.025c-0.248,0.097 -0.346,0.389 -0.336,0.637 0.027,0.446 0.217,0.88 0.511,1.214 0.414,0.47 1.235,0.48 1.653,0.012 0.326,-0.321 0.365,-0.882 0.092,-1.247 -0.194,-0.267 -0.498,-0.427 -0.797,-0.547 -0.354,-0.127 -0.761,-0.215 -1.123,-0.069zm-7.336 0.004c-0.412,0.126 -0.847,0.332 -1.063,0.725 -0.204,0.358 -0.13,0.838 0.156,1.131 0.407,0.454 1.198,0.468 1.62,0.027 0.297,-0.304 0.48,-0.713 0.538,-1.132 0.034,-0.263 -0.019,-0.587 -0.271,-0.727 -0.3,-0.163 -0.665,-0.106 -0.98,-0.024zm-1.194 -1.429c0.332,-0.078 0.676,0.007 0.992,0.11 0.686,0.244 1.306,0.648 1.852,1.125 0.18,0.145 0.178,0.396 0.243,0.6 0.297,1.12 0.662,2.264 1.399,3.18 0.136,0.171 0.21,0.386 0.208,0.604 0.001,0.328 -0.007,0.656 0,0.983 0.42,-0.003 0.84,0 1.259,-0.001 0.045,-0.534 -0.144,-1.158 0.229,-1.61 0.677,-0.844 1.028,-1.888 1.319,-2.915 0.07,-0.239 0.106,-0.488 0.198,-0.72 0.096,-0.142 0.249,-0.232 0.377,-0.343 0.462,-0.379 0.986,-0.68 1.545,-0.892 0.338,-0.126 0.709,-0.179 1.066,-0.112 0.483,0.127 0.843,0.635 0.748,1.136 -0.029,0.275 -0.2,0.503 -0.392,0.69 0.222,0.419 0.256,0.918 0.091,1.363 0.542,-0.203 1.046,-0.56 1.337,-1.069 0.136,-0.216 0.202,-0.464 0.285,-0.703 0.238,1.409 -0.007,2.893 -0.667,4.159 -0.73,1.427 -1.968,2.57 -3.415,3.247 -1.448,0.675 -3.104,0.906 -4.679,0.631 -1.613,-0.258 -3.144,-1.043 -4.273,-2.228 -1.503,-1.527 -2.233,-3.791 -1.838,-5.904 0.108,0.579 0.417,1.129 0.901,1.474 0.225,0.164 0.472,0.295 0.731,0.396 -0.164,-0.446 -0.138,-0.954 0.097,-1.371 -0.222,-0.2 -0.409,-0.467 -0.407,-0.779 -0.051,-0.487 0.327,-0.947 0.794,-1.051z"/>
   <path fill="#0E1B24" fill-rule="nonzero" d="M24.216 6.371c0,0.172 -0.139,0.311 -0.311,0.311 -0.172,0 -0.311,-0.139 -0.311,-0.311 0,-0.172 0.139,-0.311 0.311,-0.311 0.172,0 0.311,0.139 0.311,0.311z"/>
   <path fill="#0E1B24" fill-rule="nonzero" d="M48.935 2.931c0,0.171 -0.139,0.31 -0.311,0.31 -0.171,0 -0.31,-0.139 -0.31,-0.31 0,-0.172 0.139,-0.311 0.31,-0.311 0.172,0 0.311,0.139 0.311,0.311z"/>
   <path fill="#0E1B24" fill-rule="nonzero" d="M54.085 2.938c0,0.172 -0.139,0.311 -0.311,0.311 -0.172,0 -0.311,-0.139 -0.311,-0.311 0,-0.172 0.139,-0.311 0.311,-0.311 0.172,0 0.311,0.139 0.311,0.311z"/>
  </g>
 </g>
</svg>
