<?xml version="1.0" encoding="UTF-8"?>
<!DOCTYPE svg PUBLIC "-//W3C//DTD SVG 1.1//EN" "http://www.w3.org/Graphics/SVG/1.1/DTD/svg11.dtd">
<!-- Creator: CorelDRAW -->
<svg xmlns="http://www.w3.org/2000/svg" xml:space="preserve" width="261px" height="50px" version="1.1" shape-rendering="geometricPrecision" text-rendering="geometricPrecision" image-rendering="optimizeQuality" fill-rule="evenodd" clip-rule="evenodd"
viewBox="0 0 49.854 9.6"
 xmlns:xlink="http://www.w3.org/1999/xlink"
 xmlns:xodm="http://www.corel.com/coreldraw/odm/2003">
 <g id="Capa_x0020_1">
  <metadata id="CorelCorpID_0Corel-Layer"/>
  <path fill="#0E1B24" d="M4.391 4.063c-0.077,0.069 -0.142,0.169 -0.22,0.259 -0.187,0.058 -0.566,0.46 -1.272,0.204 -0.643,-0.234 -0.988,-0.963 -0.748,-1.613 0.036,-0.095 0.053,-0.096 0.079,-0.218 0.055,-0.057 -0.015,0.036 0.058,-0.061 0.039,-0.052 0.041,-0.062 0.063,-0.099l0.113 -0.125c0.174,-0.094 0.377,-0.306 0.763,-0.333 0.822,-0.058 1.46,0.611 1.37,1.412 -0.03,0.263 -0.122,0.257 -0.086,0.468 -0.091,-0.01 -0.078,-0.038 -0.078,0.032l-0.042 0.074zm23.189 3.667c0,0.095 0.029,0.124 0.125,0.124l0.706 0 0 -5.527 -0.831 0 0 5.403zm19.532 -2.577c0,1.469 2.078,0.839 2.078,1.662 0,0.638 -1.389,0.653 -1.58,-0.166 -0.254,0.021 -0.364,0.186 -0.623,0.208 0.198,0.852 1.586,1.405 2.436,0.774 0.249,-0.185 0.392,-0.433 0.431,-0.689l0 -0.291c-0.058,-0.379 -0.346,-0.725 -0.855,-0.85 -0.293,-0.072 -1.222,-0.21 -1.222,-0.523 0,-0.578 1.099,-0.713 1.454,-0.042 0.223,-0.052 0.379,-0.16 0.582,-0.208 -0.04,-0.173 -0.082,-0.203 -0.173,-0.325 -0.67,-0.894 -2.528,-0.52 -2.528,0.45zm-6.026 2.119c-1.04,0 -1.051,-1.205 0.249,-1.205 0.343,0 0.543,0.071 0.748,0.208 0,0.6 -0.535,0.997 -0.997,0.997zm-1.288 -2.202c0.226,0.053 0.384,0.202 0.623,0.208 0.114,-0.49 0.992,-0.65 1.445,-0.198 0.185,0.185 0.217,0.261 0.217,0.613 -0.618,-0.144 -0.111,-0.166 -1.122,-0.166 -1.105,0 -1.801,1.206 -0.946,2.027 0.397,0.381 1.139,0.449 1.611,0.175l0.343 -0.28c0.035,-0.037 0.023,-0.026 0.057,-0.067l0.057 0.389 0.665 0 0 -1.912c0,-0.524 -0.093,-0.902 -0.363,-1.174 -0.985,-0.995 -2.53,-0.308 -2.587,0.385zm-10.223 0.914c0,-0.291 0.11,-0.543 0.258,-0.697 0.43,-0.446 1.052,-0.494 1.404,0.032 -0.245,0.057 -1.327,0.587 -1.662,0.665zm-0.79 -0.041c0,0.617 0.082,1.016 0.53,1.464 0.168,0.168 0.249,0.241 0.481,0.351 0.571,0.272 1.26,0.24 1.799,-0.086 0.172,-0.104 0.539,-0.402 0.556,-0.607 -0.239,-0.064 -0.404,-0.314 -0.665,-0.374 -0.161,0.604 -1.555,0.733 -1.745,-0.083 0.17,-0.015 0.464,-0.168 0.636,-0.237l0.907 -0.381c0.114,-0.045 0.224,-0.084 0.327,-0.13 0.644,-0.293 0.728,-0.106 0.347,-0.804 -0.829,-1.517 -3.173,-0.879 -3.173,0.887zm-11.553 1.246c-1.382,0 -1.382,-2.244 0,-2.244 0.965,0 1.366,1.276 0.738,1.902 -0.182,0.181 -0.394,0.342 -0.738,0.342zm-1.87 -1.288c0,0.872 0.261,1.497 1.08,1.871 0.73,0.332 1.5,0.165 2.11,-0.344 0.697,-0.582 0.939,-2.4 -0.53,-3.065 -0.48,-0.217 -1.062,-0.222 -1.551,-0.013 -0.632,0.27 -1.109,0.888 -1.109,1.551zm4.862 0.166c0,-0.117 0.053,-0.362 0.087,-0.453 0.04,-0.11 0.13,-0.239 0.214,-0.327 0.723,-0.758 1.777,-0.134 1.777,0.656 0,0.355 -0.016,0.663 -0.299,0.947 -0.536,0.535 -1.413,0.299 -1.681,-0.339 -0.041,-0.097 -0.098,-0.364 -0.098,-0.484zm-0.831 -0.041c0,0.671 0.366,1.296 0.764,1.563 1.397,0.938 3.095,-0.132 2.999,-1.549 -0.042,-0.614 -0.204,-0.965 -0.532,-1.292 -1.158,-1.159 -3.231,-0.381 -3.231,1.278zm24.56 0c0,-1.636 2.161,-1.555 2.161,-0.083 0,0.734 -0.31,1.329 -1.08,1.329 -0.676,0 -1.081,-0.556 -1.081,-1.246zm0 -1.247l0 -0.457 -0.623 0 0 4.987c0.867,0 0.665,0.273 0.665,-1.455 0,-0.253 -0.042,-0.303 -0.042,-0.54 0.102,0.075 0.41,0.582 1.206,0.582 0.869,0 1.62,-0.828 1.62,-1.704 0,-0.593 -0.017,-0.999 -0.488,-1.465 -0.415,-0.41 -0.612,-0.53 -1.216,-0.53 -0.417,0 -0.812,0.213 -1.065,0.514l-0.057 0.068zm-19.656 1.288c0,-0.693 0.605,-1.334 1.409,-1.034 0.26,0.096 0.586,0.498 0.586,0.868 0,0.39 0.021,0.657 -0.266,0.981 -0.373,0.421 -1.111,0.437 -1.529,-0.142 -0.044,-0.061 -0.07,-0.111 -0.101,-0.19 -0.043,-0.107 -0.099,-0.354 -0.099,-0.483zm-0.831 -0.041c0,1.698 1.773,2.291 2.585,1.671 0.088,-0.067 0.099,-0.108 0.199,-0.175 0,0.393 -0.001,0.676 -0.156,0.924 -0.306,0.486 -0.954,0.524 -1.424,0.199 -0.163,-0.113 -0.237,-0.279 -0.332,-0.458l-0.706 0.291c0.036,0.428 0.789,1.122 1.496,1.122 0.672,0 0.985,-0.046 1.466,-0.53 0.241,-0.242 0.446,-0.744 0.446,-1.216l0 -3.532 -0.79 0 0 0.249c-0.328,-0.173 -0.424,-0.374 -0.997,-0.374 -0.958,0 -1.787,0.867 -1.787,1.829zm10.763 1.745l0.665 0 0 -2.95c0,-0.352 -0.042,-0.529 -0.042,-0.873l1.621 2.784 0.333 0 1.62 -2.784c0,0.344 -0.041,0.521 -0.041,0.873l0 2.95 0.665 0 0 -5.07 -0.624 0 -0.332 0.541c-0.043,0.075 -0.066,0.135 -0.116,0.216l-0.981 1.72c-0.048,0.079 -0.067,0.102 -0.108,0.183 -0.074,0.144 -0.167,0.238 -0.208,0.415l-0.083 0c-0.037,-0.156 -0.222,-0.415 -0.305,-0.567l-1.441 -2.508 -0.623 0 0 5.07zm-24.768 -2.95c0,0.564 0.025,0.994 0.291,1.496 0.953,1.796 3.353,2.117 4.582,0.883 0.342,-0.345 0.212,-0.201 0.438,-0.559 0.049,-0.079 0.078,-0.116 0.117,-0.215 0.134,-0.342 0.309,-1.094 0.194,-1.534 -0.028,-0.108 -0.014,-0.155 -0.136,-0.155l-2.452 0c-0.202,0 -0.125,0.303 -0.125,0.832l1.912 0c-0.07,0.144 -0.11,0.765 -0.54,1.081 -0.525,0.385 -0.748,0.456 -1.455,0.456 -0.521,0 -1.02,-0.25 -1.361,-0.591 -1.269,-1.269 -0.364,-3.564 1.361,-3.564 0.403,0 0.606,-0.001 0.984,0.179 0.131,0.062 0.172,0.092 0.288,0.17 0.108,0.072 0.174,0.13 0.266,0.191 0.108,-0.073 0.186,-0.159 0.281,-0.259l0.259 -0.323c-0.281,-0.419 -1.296,-0.79 -1.953,-0.79 -0.877,0 -1.583,0.355 -2.047,0.821 -0.268,0.269 -0.397,0.432 -0.597,0.774 -0.145,0.248 -0.307,0.8 -0.307,1.107zm-8.685 -3.617c-0.344,0.258 -0.693,1.156 -0.749,1.662 -0.068,0.603 -0.019,1.508 0.292,2.051 0.103,0.376 1.307,2.007 1.531,2.189 0.42,0.682 0.731,0.905 1.04,1.834 0.065,0.196 0.16,0.592 0.353,0.648 0.018,0.005 0.035,0.009 0.051,0.012l0.104 0c0.301,-0.057 0.334,-0.641 0.592,-1.15 0.24,-0.476 0.434,-0.774 0.751,-1.202 0.984,-1.331 1.936,-2.105 1.936,-3.882 0,-0.638 -0.036,-0.703 -0.213,-1.241 -0.059,-0.181 -0.058,-0.22 -0.161,-0.338 -0.098,-0.37 -0.677,-0.952 -1.038,-1.206 -0.094,-0.066 -0.179,-0.108 -0.283,-0.174 -0.185,-0.117 -0.436,-0.195 -0.642,-0.282 -0.326,-0.03 -0.272,-0.123 -1.067,-0.125l-0.026 0c-0.463,0.001 -0.681,0.062 -1.043,0.182 -0.515,0.17 -1.161,0.63 -1.428,1.022z"/>
 </g>
</svg>
