<?xml version="1.0" encoding="UTF-8"?>
<!DOCTYPE svg PUBLIC "-//W3C//DTD SVG 1.1//EN" "http://www.w3.org/Graphics/SVG/1.1/DTD/svg11.dtd">
<!-- Creator: CorelDRAW -->
<svg xmlns="http://www.w3.org/2000/svg" xml:space="preserve" width="432px" height="135px" version="1.1" shape-rendering="geometricPrecision" text-rendering="geometricPrecision" image-rendering="optimizeQuality" fill-rule="evenodd" clip-rule="evenodd"
viewBox="0 0 78.508 24.499"
 xmlns:xlink="http://www.w3.org/1999/xlink"
 xmlns:xodm="http://www.corel.com/coreldraw/odm/2003">
 <g id="Capa_x0020_1">
  <metadata id="CorelCorpID_0Corel-Layer"/>
  <path fill="#2B2A29" d="M72.532 3.338c-0.005,0.008 -0.005,0.021 0.025,0.046l-0.625 0.039c-0.103,-0.03 0.105,-0.049 -0.1,-0.016 -0.063,0.009 -0.093,0.04 -0.103,0.045l0.21 0.006c0.191,-0.052 0.414,-0.03 0.585,-0.003l-0.048 0.067c-0.259,0.277 -0.178,0.196 -0.53,0.344 -0.405,0.169 -0.328,0.728 0.056,0.417 0.091,-0.072 0.123,-0.164 0.156,-0.235 0.35,-0.083 0.333,0.104 0.695,0.083 -0.067,0.06 -0.004,-0.003 -0.015,0.071 -0.183,0.076 -0.155,0.052 -0.172,0.206 -0.059,0.044 -0.013,-0.012 -0.075,0.058 -0.103,0.114 -0.032,0.039 -0.06,0.098 -0.075,0.058 -0.006,-0.017 -0.075,0.058 -0.068,0.074 -0.045,0.062 -0.071,0.111 0.148,-0.123 0.087,-0.032 0.146,-0.169 0.054,-0.039 0.005,0.024 0.073,-0.05 0.083,-0.092 0.035,-0.043 0.062,-0.106 0.022,-0.018 0.075,-0.057 0.09,-0.075 0.005,-0.008 0.033,-0.035 0.038,-0.043 0.048,-0.067 0.02,-0.029 0.044,-0.088l0.061 0.075 -0.111 0.316c-0.081,-0.013 -0.054,-0.022 -0.037,0.065l-0.016 0.082 -0.101 0.242c0.096,-0.134 0.09,-0.093 0.101,-0.242 0.07,0.011 0.046,0.019 0.032,-0.057l0.021 -0.09c0.05,-0.039 0.024,0.046 0.083,-0.113 0.033,-0.089 0.027,-0.12 0.028,-0.203l0.041 -0.066c0.073,-0.107 0.022,-0.09 0.173,-0.091l-0.001 0.234c-0.085,0.156 -0.079,0.719 -0.068,0.886 0.048,-0.175 0.161,-0.613 0.108,-0.79l0.116 0.725 0.068 -0.463 0.139 0.566c0.032,-0.261 -0.102,-0.616 -0.141,-0.906l-0.004 -0.136 0.189 0.621 0.168 0.567 0.083 -0.146 -0.099 -0.523c0.013,0.12 0.012,0.077 0.064,0.199l0.118 0.161c0.013,0.012 0.029,0.019 0.045,0.027l-0.173 -0.516c-0.01,-0.016 -0.022,-0.024 -0.032,-0.037 -0.01,-0.012 -0.022,-0.021 -0.035,-0.033l-0.033 -0.151c0.153,0.103 0.078,0.179 0.25,0.328l-0.069 -0.299c0.059,-0.087 0.066,-0.013 0.031,-0.117 0.011,0.016 0.07,0.116 0.09,0.144 0.039,-0.076 0.051,-0.05 0.058,-0.141 0.048,0.059 -0.024,0.059 0.074,0.065 0.21,0.009 -0.057,-0.018 0.063,-0.045 0.028,-0.005 0.126,0.037 0.186,0.05 0.038,0.047 0.014,0.037 0.09,0.073 0.031,0.015 0.103,0.033 0.15,0.053l-0.24 -0.126c-0.061,-0.092 0.031,-0.006 -0.061,-0.071 -0.004,-0.002 -0.071,-0.036 -0.08,-0.041 -0.086,-0.059 -0.046,-0.053 -0.121,-0.106l0.39 0.028c-0.165,-0.054 -0.435,-0.037 -0.576,-0.136 0.159,-0.07 0.269,-0.077 0.431,-0.148 0.189,-0.084 0.175,0.012 0.419,-0.064 0.043,-0.015 0.173,-0.069 0.201,-0.089 0.127,-0.09 0.25,-0.232 0.451,-0.192 0.171,-0.267 0.075,0.068 0.52,-0.285 0.284,0.096 0.469,0.103 0.643,0.277 0.755,0.762 0.193,1.414 -1.103,1.569 -0.004,-0.002 -0.011,-0.023 -0.013,-0.015l-0.018 -0.036c-0.004,-0.003 -0.01,-0.012 -0.011,-0.016l-0.524 0.203c0.888,0.003 2.628,-0.117 2.114,-1.428 -0.172,-0.441 -0.374,-0.445 -0.606,-0.658l0.232 -0.046c0.204,0.069 1.065,-0.045 1.351,-0.112l-1.103 0.021c0.094,0.039 0.108,0.019 0.309,-0.021l1.054 -0.158c-0.123,-0.023 -1.281,0.063 -1.36,0.121l1.661 -0.363 -1.109 0.151 -0.89 0.152 1.785 -0.534c-0.404,0.139 -1.805,0.38 -2.467,0.577 -0.302,0.091 -0.659,0.01 -0.729,0.02l-0.737 0.014c-0.166,0.015 -0.419,0.06 -0.601,0.085l-0.014 -0.019c0.183,-0.111 0.378,-0.178 0.511,-0.326l-0.49 0.178c-0.082,0.038 -0.067,0.078 -0.096,0.134l-0.071 0.003c-0.003,-0.086 0.026,-0.088 0,-0.165 -0.034,-0.119 -0.049,-0.048 -0.051,-0.242 0.097,-0.184 0.118,-0.669 0.104,-0.925 -0.073,0.219 -0.113,0.492 -0.157,0.727l-0.022 -1.091c-0.083,0.239 -0.01,0.724 -0.093,0.887 -0.263,-0.814 -0.579,-1.313 -0.618,-2.25 -0.152,0.141 -0.299,0.568 -0.339,0.824 -0.085,0.519 0.026,0.645 0.072,1.143l-0.432 -0.707c-0.066,-0.137 -0.056,-0.197 -0.152,-0.3 -0.149,0.894 0.147,1.253 0.583,1.923l0.001 0.208c0.036,0 0.002,-0.062 -0.161,-0.109l-0.149 -0.176c0.046,0.11 0.014,0.095 0.149,0.176l0.028 0.092c-0.076,-0.022 -0.036,-0.133 -0.076,-0.007 -0.01,0.027 0.021,0.071 0.048,0.12l-0.085 -0.012c-0.037,-0.043 0.026,-0.013 -0.061,-0.057 -0.004,-0.002 -0.107,-0.033 -0.119,-0.038l0.18 0.095c-0.018,0.093 -0.045,0.084 0.038,0.068l0.205 0.089 0.039 0.006zm1.818 1.267l-0.123 -0.152c-0.09,-0.058 0.009,-0.006 -0.11,-0.047l0.233 0.199zm-0.037 0.219c-0.091,-0.176 -0.194,-0.278 -0.27,-0.339 -0.009,-0.009 -0.022,-0.017 -0.034,-0.026 0.067,0.124 0.065,0.113 0.147,0.205l0.157 0.16zm-2.491 -0.585c0.177,-0.049 0.215,-0.074 0.205,-0.256 -0.204,0.026 -0.24,0.058 -0.205,0.256z"/>
  <path fill="#2B2A29" d="M7.783 18.971c1.088,1.24 3.87,0.43 4.282,-0.202 -0.237,0.061 -0.454,0.134 -0.671,0.206 -1.56,0.313 -1.8,0.473 -3.504,0.026 -0.035,-0.01 -0.07,-0.02 -0.107,-0.03zm0.524 1.753c-0.193,-0.273 -0.434,-0.276 -0.938,-0.238 0.211,0.175 0.598,0.237 0.938,0.238zm-2.073 3.775c0.179,-0.241 0.436,-0.265 0.694,-0.656 -0.071,0.026 -0.133,0.053 -0.189,0.081 0.013,-0.015 0.027,-0.031 0.04,-0.048 -0.483,0.261 -0.342,0.215 -0.66,0.496 0.042,-0.906 0.337,-3.523 0.593,-4.355 0.088,-0.287 0.216,-0.378 0.345,-0.509 0.027,-0.025 0.052,-0.051 0.075,-0.082 0.071,-0.086 0.14,-0.198 0.201,-0.377l-0.078 0.056c0.003,-0.017 0.005,-0.034 0.008,-0.052 -0.241,0.292 -0.444,0.215 -0.674,0.574 -0.234,0.366 -0.407,1.089 -0.533,1.907 -0.076,0.333 -0.141,0.667 -0.172,0.991l-0.124 1.974 0.474 0zm4.415 0l-0.019 -0.054c-0.132,-0.432 -0.279,-0.938 -0.485,-1.336 -0.079,-0.211 -0.099,-0.23 -0.138,-0.236 -0.127,-0.188 -0.273,-0.332 -0.447,-0.404 0.177,0.263 0.312,0.533 0.424,0.814 0.101,0.395 0.223,0.809 0.347,1.216l0.318 0zm-2.156 -12.506c-0.055,0.078 -0.103,0.176 -0.152,0.327 0.042,-0.021 0.088,-0.049 0.136,-0.082 0.137,-0.034 0.041,0.04 0.256,-0.196 0.178,-0.149 0.36,-0.326 0.488,-0.476 0.107,-0.099 0.162,-0.16 0.17,-0.247l0.003 -0.01c0.112,-0.335 -0.076,-0.351 -0.3,-0.39l0.145 0.243 -0.102 0.178c-0.195,0.246 -0.351,0.085 -0.644,0.653zm-2.834 1.299c0.142,-0.232 0.228,-0.431 0.364,-0.648 0.18,-0.287 0.312,-0.437 0.391,-0.709 -0.217,0.09 -0.428,0.316 -0.553,0.556l-0.226 0.598c-0.021,0.108 -0.016,-0.105 -0.014,0.096 0.001,0.111 0.022,0.078 0.038,0.107zm2.499 1.73c0.497,0.054 0.812,0.051 1.035,-0.282 -0.207,-0.098 -0.299,-0.055 -0.491,0.04 -0.163,0.081 -0.044,0.038 -0.241,0.104 -0.092,0.031 -0.071,0.009 -0.162,0.05 -0.184,0.081 -0.073,0.041 -0.141,0.088zm0.003 -2.883c0.406,-0.211 0.595,-0.855 0.507,-1.14l-0.507 1.14zm-2.9 1.803c0.419,-0.013 0.923,-0.266 1.284,-0.324l0.073 0.096c0.052,0.107 0.086,0.228 0.143,0.346 0.029,0.079 0.063,0.154 0.097,0.231 0.01,-0.014 0.019,-0.026 0.027,-0.037 0.075,0.087 0.177,0.166 0.325,0.229 -0.113,-0.222 -0.285,-0.447 -0.255,-0.668 0.002,-0.007 0.003,-0.015 0.005,-0.023 0.012,-0.055 0.036,-0.106 0.069,-0.154 0.045,-0.062 0.111,-0.123 0.206,-0.183 0.335,-0.215 0.616,-0.216 0.88,-0.432 0.047,-0.019 0.091,-0.038 0.132,-0.057l-0.039 -0.029c0.013,-0.013 0.026,-0.027 0.039,-0.042 0.345,-0.397 0.456,-0.359 0.901,-0.665 0.329,-0.227 0.77,-0.425 0.405,-0.906l-0.008 0.416c-0.244,0.164 -0.51,0.3 -0.733,0.494 -0.162,0.141 -0.169,0.155 -0.292,0.328 -0.173,0.246 -0.057,0.095 -0.306,0.272l-0.237 -0.126c-0.029,0.03 -0.059,0.055 -0.088,0.077 -0.069,0.017 -0.132,0.086 -0.421,0.049 -0.081,-0.033 -0.161,-0.087 -0.238,-0.156l-0.09 -0.08c0.06,0.237 0.091,0.305 0.22,0.378l0.068 0.11c-0.192,0.093 -0.352,0.099 -0.515,0.194 -0.077,0.032 -0.153,0.072 -0.249,0.128 -0.002,0.026 -0.003,0.051 -0.003,0.075 -0.146,0.083 -0.375,0.127 -0.61,0.149 -0.883,-0.023 -1.713,0.096 -2.515,0.25 -0.047,-0.014 -0.115,0.021 -0.327,0.056l-1.187 0.253c0.026,-0.659 -0.157,-0.548 -0.415,-0.849 0.326,-1.104 4.846,-6.576 7.025,-8.616 0,0 -0.029,-0.234 -0.12,-0.146 -2.554,2.471 -5.453,5.921 -7.22,8.592 0.123,0.178 0.262,0.286 0.429,0.462 0.067,0.07 0.133,0.138 0.17,0.242 0.123,0.35 0.04,0.276 -0.056,0.375l1.214 -0.018c0.007,-0.022 0.024,-0.038 0.048,-0.049 0.682,-0.038 1.515,-0.116 2.164,-0.242zm0.551 -3.944c0.001,-0.25 0.026,-0.463 0.069,-0.644 0.194,-0.546 0.624,-1.176 1.658,-0.716 0.302,0.134 0.137,0.08 0.278,0.125 0.174,0.111 0.317,0.24 0.406,0.366 -0.146,-0.516 -0.549,-0.82 -0.995,-0.913 -0.297,-0.088 -0.609,-0.05 -0.877,0.09 -0.394,0.177 -0.7,0.549 -0.725,1.115 -0.01,0.219 0.003,0.33 0.058,0.424 0.008,0.046 0.018,0.093 0.029,0.141 0.006,-0.011 0.013,-0.036 0.021,-0.071 0.022,0.026 0.048,0.053 0.078,0.083zm0.169 1.285c-0.002,-0.231 -0.005,-0.45 -0.081,-0.604 -0.067,0.377 -0.278,0.516 -0.088,0.857 0.33,0.133 0.582,-0.227 1.123,-0.285 0.248,-0.027 0.511,-0.02 0.705,-0.124l0.014 -0.012 0.039 -0.004c0.195,-0.098 0.275,-0.195 0.312,-0.313 0.074,-0.102 0.061,-0.157 0.042,-0.366l0.001 -0.002 -0.001 0.001c-0.004,-0.05 -0.009,-0.107 -0.013,-0.176 -0.11,0.198 -0.198,0.345 -0.274,0.453l-0.269 0.26c-0.096,0.006 -0.181,0.011 -0.257,0.014 -0.137,-0.016 -0.317,-0.041 -0.598,0.011 -0.044,0 -0.064,0.004 -0.094,0.019 -0.195,0.048 -0.328,0.155 -0.495,0.243l-0.066 0.028zm0.549 -1.048c0.405,0.01 0.878,0.035 1.245,-0.127l0.243 -0.177c0.009,-0.009 0.024,-0.029 0.037,-0.043l-1.167 0.215c-0.317,0.05 -0.262,0.066 -0.358,0.132zm1.148 2.335c-0.293,-0.328 -0.144,0.028 -0.794,-0.621 -0.089,-0.088 -0.006,-0.023 -0.101,-0.106 -0.137,-0.119 -0.055,-0.052 -0.195,-0.131 0.199,0.508 0.43,0.842 1.09,0.858zm0.692 -2.534c0.015,0.01 0.037,0.007 0.044,0.028l0.135 0.082c0.067,0.043 0.137,0.095 0.217,0.148 -0.036,-0.294 0.014,-0.27 -0.176,-0.457 -0.2,0.077 -0.106,0.047 -0.22,0.199zm-8.297 5.342c0.001,0.022 0.019,0.033 0.087,0.016 0.024,-0.004 0.049,-0.012 0.073,-0.023 0.035,-0.012 0.079,-0.029 0.131,-0.051 0.019,-0.008 0.045,-0.034 0.07,-0.063 0.154,0.036 0.207,0.06 0.387,0.037 0.201,-0.024 0.214,-0.078 0.285,-0.144l-0.539 -0.085c-0.005,-0.012 -0.009,-0.024 -0.013,-0.035 0.008,-0.033 0,-0.04 -0.014,-0.045 -0.038,-0.129 -0.02,-0.145 -0.113,-0.165 -0.006,-0.005 -0.012,-0.01 -0.017,-0.017l-0.025 0.009c-0.029,-0.005 -0.066,-0.011 -0.112,-0.02 -0.036,0.038 -0.079,0.076 -0.121,0.117 -0.043,0.026 -0.071,0.055 -0.086,0.098 -0.044,0.06 -0.073,0.128 -0.065,0.209 0.009,0.089 0.036,0.139 0.072,0.162zm11.761 2.114c-0.454,0.021 -0.058,-0.127 -0.369,0.196 0.184,0.146 0.504,0.412 0.708,0.533l-0.096 -0.525c-0.296,-1.56 -0.341,-3.082 -1.039,-4.449 -0.343,-0.671 -0.459,-0.908 -0.863,-1.065 0.747,1.765 1.32,2.206 1.534,4.864 -0.073,-0.111 -0.303,-0.36 -0.417,-0.51 -0.206,-0.269 -0.227,-0.257 -0.61,-0.399 0.237,0.508 0.293,0.375 0.604,0.701 0.236,0.248 0.213,0.365 0.548,0.654zm-11.776 -2.876c0.139,-0.923 0.743,-0.621 0.985,-0.769 -0.144,-0.315 0.114,-0.331 -0.431,-0.258 -0.369,0.05 -0.616,0.446 -0.554,1.027zm6.687 1.198c-0.123,-0.196 -0.048,-0.063 -0.195,-0.189 0.048,0.395 0.403,2.324 0.678,2.655 -0.017,-0.652 -0.119,-1.888 -0.483,-2.466zm-4.638 -0.384c0.095,0.121 0.059,0.097 0.165,0.203l0.401 0.307c0.987,0.672 2.192,1.826 2.976,0.709 0.233,-0.332 0.528,-0.837 0.672,-1.229 -0.595,0.296 -0.464,0.683 -0.793,1.014 -0.267,0.268 -0.732,0.374 -1.206,0.181 -0.747,-0.305 -1.488,-1.034 -2.215,-1.185zm0.012 -0.365c0.633,0.382 1.913,0.321 2.698,0.166 0.926,-0.183 1.559,-0.123 2.54,-0.172 -0.028,-0.017 -0.059,-0.041 -0.083,-0.051 -0.025,-0.01 -0.057,-0.033 -0.087,-0.044 -0.25,-0.092 0.052,0.002 -0.186,-0.053 -0.781,-0.179 -4.198,0.081 -4.882,0.154zm6.264 9.434c0.293,-0.606 0.635,-1.131 0.867,-1.788l-0.337 0.356c-0.047,0.067 -0.132,0.205 -0.196,0.304 -0.203,0.311 -0.401,0.699 -0.585,1.128l0.251 0zm4.634 -3.587c-0.129,-0.627 -0.546,-1.544 -0.61,-1.962 -0.046,1.054 0.598,1.652 0.398,4.84 -0.012,0.187 -0.01,0.43 0.003,0.709l0.29 0c-0.027,-0.328 -0.037,-0.67 -0.02,-1.033 0.039,-0.843 0.104,-1.753 -0.061,-2.554z"/>
  <path fill="#2B2A29" fill-rule="nonzero" d="M8.51 4.585c0.945,-0.842 2.193,-1.933 4.182,-2.801 1.986,-0.867 4.708,-1.509 8.601,-1.453 4.138,0.06 7.814,1.07 11.685,2.133 3.395,0.932 6.94,1.906 11.073,2.312 4.424,0.435 9.412,0.862 14.215,0.891 4.799,0.029 9.414,-0.338 13.096,-1.49l0.054 0.173c-3.701,1.158 -8.334,1.527 -13.15,1.498 -4.813,-0.03 -9.806,-0.457 -14.232,-0.892 -4.148,-0.408 -7.701,-1.384 -11.104,-2.318 -3.859,-1.06 -7.525,-2.067 -11.639,-2.126 -3.863,-0.056 -6.561,0.579 -8.527,1.437 -1.962,0.857 -3.197,1.937 -4.134,2.771l-0.12 -0.135z"/>
  <g id="_2662043750528">
   <path fill="#2B2A29" fill-rule="nonzero" d="M19.025 16.732c0.027,-0.017 0.057,-0.024 0.087,-0.02 0.031,0.004 0.043,0.024 0.034,0.061 -0.014,0.056 -0.09,0.135 -0.225,0.238 -0.206,0.152 -0.418,0.269 -0.639,0.35 -0.185,0.081 -0.377,0.1 -0.575,0.058 -0.075,-0.025 -0.141,-0.061 -0.199,-0.106 -0.059,-0.046 -0.111,-0.104 -0.157,-0.173 -0.047,-0.069 -0.082,-0.132 -0.111,-0.186 -0.028,-0.054 -0.061,-0.125 -0.1,-0.215 -0.045,-0.103 -0.102,-0.262 -0.173,-0.477 -0.071,-0.215 -0.128,-0.374 -0.172,-0.478 -0.012,-0.024 -0.026,-0.063 -0.043,-0.114 -0.016,-0.051 -0.03,-0.09 -0.041,-0.115 -0.012,-0.027 -0.03,-0.066 -0.057,-0.113 -0.026,-0.047 -0.045,-0.081 -0.056,-0.104 -0.037,-0.072 -0.084,-0.138 -0.142,-0.196 -0.003,-0.003 -0.007,-0.007 -0.014,-0.013 -0.008,-0.004 -0.012,-0.009 -0.015,-0.011l-1.072 0 0 1.554c0,0.145 0.052,0.27 0.157,0.376 0.104,0.105 0.229,0.158 0.377,0.158l0 0.209 -2.01 0 0 -0.209c0.123,0 0.227,-0.043 0.312,-0.128 0.087,-0.087 0.13,-0.191 0.13,-0.313l0 -4.279c0,-0.123 -0.043,-0.227 -0.13,-0.314 -0.085,-0.085 -0.189,-0.128 -0.312,-0.128l0 -0.209 2.836 0c0.4,0 0.754,0.13 1.06,0.389 0.308,0.257 0.496,0.585 0.563,0.979 0.065,0.394 -0.003,0.764 -0.21,1.109 -0.205,0.344 -0.499,0.582 -0.879,0.713l0.099 0.113c0.195,0.25 0.36,0.506 0.497,0.767 0.137,0.267 0.313,0.512 0.53,0.734 0.081,0.094 0.182,0.151 0.306,0.17 0.123,0.017 0.239,-0.009 0.344,-0.077zm-3.67 -1.824l0.472 0c0.394,0.006 0.737,-0.125 1.027,-0.394 0.291,-0.268 0.447,-0.599 0.47,-0.994 0.013,-0.404 -0.121,-0.751 -0.406,-1.043 -0.283,-0.292 -0.626,-0.437 -1.029,-0.437l-0.534 0.004 0 2.864z"/>
   <path id="_1" fill="#2B2A29" fill-rule="nonzero" d="M21.402 17.206l0.03 0 0 0.209 -2.01 0 0 -0.209c0.123,0 0.227,-0.043 0.315,-0.128 0.087,-0.087 0.132,-0.191 0.135,-0.313l0.041 -2.086c0,-0.122 -0.042,-0.226 -0.128,-0.313 -0.087,-0.085 -0.19,-0.128 -0.313,-0.128l0 -0.209c0.175,-0.006 0.346,-0.036 0.511,-0.091 0.165,-0.056 0.303,-0.121 0.414,-0.195 0.111,-0.073 0.201,-0.15 0.268,-0.227 0.067,-0.078 0.1,-0.145 0.1,-0.201l0.183 0 0 3.441c0,0.125 0.044,0.232 0.134,0.319 0.088,0.088 0.195,0.131 0.32,0.131zm-1.188 -3.886c-0.205,0 -0.38,-0.073 -0.526,-0.217 -0.143,-0.145 -0.216,-0.32 -0.216,-0.525 0,-0.151 0.041,-0.289 0.125,-0.414 0.083,-0.124 0.194,-0.216 0.333,-0.275 0.14,-0.058 0.282,-0.072 0.43,-0.041 0.147,0.03 0.274,0.098 0.379,0.203 0.107,0.107 0.175,0.232 0.205,0.381 0.03,0.146 0.017,0.29 -0.041,0.429 -0.059,0.138 -0.151,0.251 -0.276,0.334 -0.126,0.084 -0.262,0.125 -0.413,0.125z"/>
   <path id="_2" fill="#2B2A29" fill-rule="nonzero" d="M26.077 17.206l0.054 0 0 0.209 -2.014 0 0 -0.209 0.021 0c0.125,0 0.231,-0.043 0.319,-0.131 0.087,-0.087 0.131,-0.194 0.131,-0.319l0 -2.172c0,-0.709 -0.189,-1.064 -0.567,-1.064 -0.503,0 -0.755,0.399 -0.755,1.196l0 2.04c0,0.125 0.045,0.232 0.133,0.322 0.087,0.085 0.193,0.128 0.318,0.128l0 0.209 -2.01 0 0 -0.209c0.122,0 0.226,-0.041 0.314,-0.127 0.087,-0.084 0.133,-0.188 0.136,-0.31l0.041 -2.09c0,-0.122 -0.043,-0.226 -0.128,-0.313 -0.087,-0.085 -0.191,-0.128 -0.313,-0.128l0 -0.209c0.175,-0.006 0.346,-0.036 0.511,-0.091 0.165,-0.056 0.303,-0.121 0.414,-0.195 0.111,-0.073 0.201,-0.15 0.267,-0.227 0.067,-0.078 0.1,-0.145 0.1,-0.201l0.184 0 0 0.305c0.195,-0.203 0.431,-0.305 0.709,-0.305 0.469,-0.008 0.868,0.153 1.197,0.48 0.333,0.333 0.495,0.732 0.488,1.193l0 1.768c0,0.128 0.043,0.235 0.128,0.322 0.087,0.085 0.194,0.128 0.322,0.128z"/>
   <path id="_3" fill="#2B2A29" fill-rule="nonzero" d="M28.668 13.549c-0.148,-0.014 -0.285,0.009 -0.41,0.065 -0.126,0.057 -0.231,0.141 -0.319,0.252 -0.087,0.111 -0.164,0.238 -0.231,0.379 -0.067,0.142 -0.119,0.295 -0.159,0.457 -0.039,0.162 -0.067,0.319 -0.087,0.467 -0.02,0.149 -0.031,0.292 -0.034,0.428 -0.006,0.366 0.065,0.691 0.213,0.97 0.147,0.279 0.345,0.471 0.592,0.578 0.261,0.102 0.524,0.102 0.789,0l0.004 0c0.295,-0.12 0.544,-0.295 0.75,-0.527 -0.15,0.295 -0.38,0.519 -0.689,0.672 -0.304,0.151 -0.623,0.213 -0.953,0.188 -0.329,-0.017 -0.632,-0.117 -0.91,-0.301 -0.642,-0.442 -0.908,-1.108 -0.797,-2.001l-0.004 0.004c0.098,-0.556 0.37,-1.013 0.815,-1.371 0.447,-0.357 0.934,-0.509 1.462,-0.456 0.323,0.037 0.612,0.152 0.87,0.348 0.256,0.197 0.447,0.446 0.569,0.749 0.062,0.164 0.036,0.315 -0.075,0.45 -0.114,0.136 -0.258,0.192 -0.43,0.168 -0.108,-0.009 -0.201,-0.053 -0.279,-0.13 -0.078,-0.078 -0.121,-0.171 -0.129,-0.28 -0.015,-0.316 -0.072,-0.577 -0.171,-0.779 -0.1,-0.203 -0.229,-0.313 -0.387,-0.33z"/>
   <path id="_4" fill="#2B2A29" fill-rule="nonzero" d="M31.344 13.593c0.279,-0.182 0.582,-0.273 0.909,-0.273 0.329,0 0.632,0.091 0.91,0.273 0.277,0.182 0.498,0.431 0.66,0.746 0.163,0.316 0.245,0.659 0.245,1.028 0,0.37 -0.082,0.713 -0.245,1.029 -0.162,0.314 -0.383,0.564 -0.66,0.746 -0.278,0.182 -0.581,0.273 -0.91,0.273 -0.327,0 -0.63,-0.091 -0.909,-0.273 -0.278,-0.182 -0.499,-0.432 -0.661,-0.746 -0.162,-0.316 -0.243,-0.659 -0.243,-1.029 0,-0.369 0.081,-0.712 0.243,-1.028 0.162,-0.315 0.383,-0.564 0.661,-0.746zm0.522 3.368c0.12,0.167 0.248,0.249 0.387,0.249 0.14,0 0.269,-0.082 0.389,-0.249 0.119,-0.168 0.213,-0.393 0.285,-0.678 0.071,-0.286 0.106,-0.592 0.106,-0.919 0,-0.329 -0.035,-0.635 -0.106,-0.918 -0.072,-0.284 -0.166,-0.508 -0.285,-0.676 -0.12,-0.167 -0.249,-0.25 -0.389,-0.25 -0.139,0 -0.267,0.083 -0.387,0.25 -0.119,0.168 -0.215,0.392 -0.286,0.676 -0.071,0.283 -0.107,0.589 -0.107,0.918 0,0.327 0.036,0.633 0.107,0.919 0.071,0.285 0.167,0.51 0.286,0.678z"/>
   <path id="_5" fill="#2B2A29" fill-rule="nonzero" d="M38.709 17.206l0.054 0 0 0.209 -2.015 0 0 -0.209 0.022 0c0.125,0 0.23,-0.043 0.319,-0.131 0.087,-0.087 0.131,-0.194 0.131,-0.319l0 -2.172c0,-0.709 -0.19,-1.064 -0.567,-1.064 -0.504,0 -0.756,0.399 -0.756,1.196l0 2.04c0,0.125 0.046,0.232 0.134,0.322 0.087,0.085 0.192,0.128 0.318,0.128l0 0.209 -2.01 0 0 -0.209c0.122,0 0.226,-0.041 0.314,-0.127 0.087,-0.084 0.133,-0.188 0.135,-0.31l0.042 -2.09c0,-0.122 -0.043,-0.226 -0.128,-0.313 -0.087,-0.085 -0.191,-0.128 -0.314,-0.128l0 -0.209c0.175,-0.006 0.346,-0.036 0.511,-0.091 0.166,-0.056 0.304,-0.121 0.415,-0.195 0.111,-0.073 0.2,-0.15 0.267,-0.227 0.067,-0.078 0.1,-0.145 0.1,-0.201l0.184 0 0 0.305c0.195,-0.203 0.431,-0.305 0.708,-0.305 0.47,-0.008 0.869,0.153 1.198,0.48 0.333,0.333 0.495,0.732 0.488,1.193l0 1.768c0,0.128 0.042,0.235 0.128,0.322 0.087,0.085 0.193,0.128 0.322,0.128z"/>
   <path id="_6" fill="#2B2A29" fill-rule="nonzero" d="M43.333 17.206l0.022 0 0 0.205 -1.543 0 0.004 -0.145c-0.276,0.096 -0.569,0.145 -0.88,0.145 -0.534,0 -0.985,-0.116 -1.352,-0.346 -0.366,-0.231 -0.549,-0.523 -0.549,-0.876 0,-0.364 0.186,-0.684 0.56,-0.962 0.373,-0.276 0.82,-0.414 1.341,-0.414 0.314,0 0.608,0.048 0.884,0.145l0 -0.242c0,-0.236 -0.018,-0.435 -0.057,-0.598 -0.037,-0.162 -0.089,-0.286 -0.158,-0.368 -0.068,-0.084 -0.141,-0.143 -0.219,-0.178 -0.078,-0.034 -0.166,-0.052 -0.266,-0.052 -0.162,0 -0.298,0.066 -0.407,0.195 -0.11,0.131 -0.178,0.324 -0.202,0.577 -0.017,0.135 -0.081,0.245 -0.192,0.329 -0.106,0.081 -0.228,0.109 -0.368,0.088 -0.247,-0.04 -0.394,-0.142 -0.441,-0.312 -0.047,-0.168 0.019,-0.338 0.199,-0.514 0.385,-0.354 0.836,-0.542 1.355,-0.568 0.084,-0.002 0.187,0.003 0.309,0.018 0.123,0.014 0.275,0.047 0.456,0.098 0.181,0.051 0.344,0.119 0.491,0.203 0.148,0.086 0.275,0.208 0.38,0.368 0.105,0.159 0.158,0.344 0.158,0.552l0 2.178c0,0.129 0.047,0.242 0.139,0.334 0.094,0.094 0.205,0.14 0.336,0.14zm-1.513 -0.474l0 -1.545c-0.172,-0.123 -0.364,-0.186 -0.576,-0.186 -0.302,0 -0.554,0.119 -0.752,0.359 -0.199,0.239 -0.299,0.515 -0.299,0.829 -0.008,0.295 0.093,0.544 0.301,0.751 0.209,0.206 0.458,0.301 0.75,0.287 0.206,0 0.397,-0.061 0.572,-0.183l0.004 -0.312z"/>
   <path id="_7" fill="#2B2A29" fill-rule="nonzero" d="M46.841 16.732c0,0.129 0.045,0.242 0.139,0.334 0.093,0.094 0.205,0.14 0.336,0.14l0 0.209 -1.506 0 0 -0.205c-0.242,0.137 -0.502,0.205 -0.78,0.205 -0.327,0 -0.63,-0.091 -0.909,-0.273 -0.278,-0.182 -0.499,-0.432 -0.661,-0.746 -0.162,-0.316 -0.243,-0.659 -0.243,-1.029 0,-0.369 0.081,-0.712 0.243,-1.028 0.162,-0.315 0.383,-0.564 0.661,-0.746 0.279,-0.182 0.582,-0.273 0.909,-0.273 0.275,0 0.533,0.065 0.772,0.196l0 -0.317c0,-0.123 -0.043,-0.227 -0.13,-0.313 -0.085,-0.086 -0.189,-0.128 -0.312,-0.128l0 -0.21 0.003 0c0.177,-0.005 0.346,-0.035 0.511,-0.091 0.167,-0.055 0.304,-0.121 0.413,-0.195 0.111,-0.072 0.199,-0.149 0.265,-0.226 0.067,-0.078 0.101,-0.145 0.101,-0.201l0.188 0 0 4.897zm-1.811 0.478c0.207,0 0.384,-0.175 0.537,-0.525 0.151,-0.35 0.23,-0.769 0.239,-1.256l0 -0.141c-0.009,-0.486 -0.088,-0.902 -0.239,-1.249 -0.153,-0.346 -0.33,-0.519 -0.537,-0.519 -0.139,0 -0.267,0.083 -0.387,0.25 -0.12,0.168 -0.215,0.392 -0.286,0.676 -0.071,0.283 -0.107,0.589 -0.107,0.918 0,0.327 0.036,0.633 0.107,0.919 0.071,0.285 0.166,0.51 0.286,0.678 0.12,0.167 0.248,0.249 0.387,0.249z"/>
   <path id="_8" fill="#2B2A29" fill-rule="nonzero" d="M51.585 17.206l0.021 0 0 0.205 -1.542 0 0.004 -0.145c-0.276,0.096 -0.57,0.145 -0.88,0.145 -0.534,0 -0.985,-0.116 -1.352,-0.346 -0.366,-0.231 -0.55,-0.523 -0.55,-0.876 0,-0.364 0.187,-0.684 0.561,-0.962 0.373,-0.276 0.82,-0.414 1.341,-0.414 0.313,0 0.608,0.048 0.884,0.145l0 -0.242c0,-0.236 -0.018,-0.435 -0.057,-0.598 -0.037,-0.162 -0.09,-0.286 -0.158,-0.368 -0.068,-0.084 -0.141,-0.143 -0.219,-0.178 -0.078,-0.034 -0.167,-0.052 -0.266,-0.052 -0.163,0 -0.298,0.066 -0.407,0.195 -0.11,0.131 -0.178,0.324 -0.203,0.577 -0.017,0.135 -0.081,0.245 -0.192,0.329 -0.105,0.081 -0.227,0.109 -0.367,0.088 -0.248,-0.04 -0.394,-0.142 -0.441,-0.312 -0.047,-0.168 0.018,-0.338 0.199,-0.514 0.384,-0.354 0.836,-0.542 1.355,-0.568 0.084,-0.002 0.187,0.003 0.309,0.018 0.123,0.014 0.275,0.047 0.456,0.098 0.18,0.051 0.344,0.119 0.491,0.203 0.148,0.086 0.274,0.208 0.38,0.368 0.105,0.159 0.158,0.344 0.158,0.552l0 2.178c0,0.129 0.047,0.242 0.139,0.334 0.094,0.094 0.205,0.14 0.336,0.14zm-1.513 -0.474l0 -1.545c-0.172,-0.123 -0.364,-0.186 -0.576,-0.186 -0.302,0 -0.554,0.119 -0.752,0.359 -0.199,0.239 -0.299,0.515 -0.299,0.829 -0.009,0.295 0.093,0.544 0.3,0.751 0.21,0.206 0.459,0.301 0.751,0.287 0.206,0 0.397,-0.061 0.572,-0.183l0.004 -0.312z"/>
   <path id="_9" fill="#2B2A29" fill-rule="nonzero" d="M59.948 14.625l0 0.208 -0.501 0 0 2.582 -0.013 -0.004c-0.242,-0.158 -0.505,-0.249 -0.791,-0.271 -0.286,-0.022 -0.561,0.027 -0.822,0.15 -0.267,0.089 -0.543,0.131 -0.829,0.125 -0.379,0 -0.734,-0.074 -1.067,-0.221 -0.331,-0.148 -0.616,-0.347 -0.851,-0.599 -0.235,-0.25 -0.418,-0.548 -0.554,-0.89 -0.135,-0.341 -0.202,-0.703 -0.202,-1.084 0.024,-0.379 0.118,-0.739 0.281,-1.085 0.163,-0.344 0.37,-0.642 0.622,-0.892 0.252,-0.25 0.545,-0.449 0.879,-0.597 0.335,-0.146 0.681,-0.22 1.037,-0.22 0.405,0.008 0.795,0.091 1.17,0.246 0.374,0.155 0.706,0.376 0.995,0.659 0.071,0.081 0.117,0.172 0.132,0.277 0.017,0.104 0.004,0.205 -0.037,0.302 -0.041,0.098 -0.105,0.177 -0.192,0.238 -0.085,0.061 -0.182,0.094 -0.288,0.097l-0.017 0c-0.102,-0.003 -0.193,-0.036 -0.274,-0.098 -0.082,-0.063 -0.136,-0.143 -0.163,-0.241 -0.122,-0.386 -0.301,-0.695 -0.538,-0.924 -0.236,-0.229 -0.504,-0.343 -0.801,-0.343 -0.298,0 -0.577,0.115 -0.837,0.347 -0.262,0.232 -0.476,0.547 -0.641,0.941 -0.165,0.395 -0.263,0.827 -0.294,1.297 0,0.473 0.068,0.905 0.205,1.297 0.136,0.393 0.328,0.704 0.579,0.936 0.251,0.232 0.534,0.348 0.851,0.348 0.138,0 0.271,-0.01 0.396,-0.03 0.125,-0.021 0.248,-0.058 0.369,-0.111 0.121,-0.053 0.226,-0.12 0.317,-0.201 0.09,-0.079 0.165,-0.183 0.224,-0.309 0.058,-0.124 0.091,-0.266 0.099,-0.424 0.012,-0.203 0.017,-0.636 0.017,-1.298l-0.721 0 0 -0.208 0.721 0 1.038 -0.004 0 0.004 0.501 0z"/>
   <path id="_10" fill="#2B2A29" fill-rule="nonzero" d="M63.871 14.007c0.181,0.175 0.248,0.348 0.198,0.516 -0.048,0.168 -0.195,0.272 -0.44,0.31 -0.138,0.023 -0.26,-0.006 -0.367,-0.087 -0.111,-0.084 -0.175,-0.194 -0.191,-0.329 -0.05,-0.515 -0.235,-0.771 -0.555,-0.771 -0.503,0 -0.755,0.397 -0.755,1.191l0 1.895c0,0.129 0.048,0.242 0.14,0.334 0.093,0.094 0.205,0.14 0.336,0.14l0 0.209 -2.01 0 0 -0.209 0.02 0c0.131,0 0.243,-0.046 0.336,-0.14 0.094,-0.092 0.139,-0.205 0.139,-0.334l0 -2.053c0,-0.122 -0.042,-0.226 -0.128,-0.313 -0.086,-0.085 -0.19,-0.128 -0.313,-0.128l0 -0.209 0.004 0c0.175,-0.006 0.345,-0.036 0.511,-0.091 0.166,-0.056 0.302,-0.121 0.413,-0.195 0.11,-0.073 0.198,-0.15 0.265,-0.227 0.067,-0.078 0.1,-0.145 0.1,-0.201l0.187 0 0 0.43c0.228,-0.212 0.497,-0.313 0.809,-0.304 0.507,0.025 0.94,0.213 1.301,0.566z"/>
   <path id="_11" fill="#2B2A29" fill-rule="nonzero" d="M65.272 13.593c0.279,-0.182 0.582,-0.273 0.909,-0.273 0.329,0 0.632,0.091 0.91,0.273 0.278,0.182 0.498,0.431 0.66,0.746 0.163,0.316 0.245,0.659 0.245,1.028 0,0.37 -0.082,0.713 -0.245,1.029 -0.162,0.314 -0.382,0.564 -0.66,0.746 -0.278,0.182 -0.581,0.273 -0.91,0.273 -0.327,0 -0.63,-0.091 -0.909,-0.273 -0.278,-0.182 -0.498,-0.432 -0.661,-0.746 -0.162,-0.316 -0.243,-0.659 -0.243,-1.029 0,-0.369 0.081,-0.712 0.243,-1.028 0.163,-0.315 0.383,-0.564 0.661,-0.746zm0.522 3.368c0.12,0.167 0.248,0.249 0.387,0.249 0.14,0 0.269,-0.082 0.389,-0.249 0.12,-0.168 0.214,-0.393 0.285,-0.678 0.071,-0.286 0.106,-0.592 0.106,-0.919 0,-0.329 -0.035,-0.635 -0.106,-0.918 -0.071,-0.284 -0.165,-0.508 -0.285,-0.676 -0.12,-0.167 -0.249,-0.25 -0.389,-0.25 -0.139,0 -0.267,0.083 -0.387,0.25 -0.119,0.168 -0.215,0.392 -0.286,0.676 -0.071,0.283 -0.107,0.589 -0.107,0.918 0,0.327 0.036,0.633 0.107,0.919 0.071,0.285 0.167,0.51 0.286,0.678z"/>
   <path id="_12" fill="#2B2A29" fill-rule="nonzero" d="M72.578 17.415l-1.568 0 0.008 -0.229c-0.208,0.166 -0.444,0.243 -0.709,0.229 -0.461,0 -0.844,-0.166 -1.146,-0.501 -0.303,-0.333 -0.455,-0.739 -0.455,-1.217l0 -0.384 -0.004 0 0.004 -0.634c0,-0.122 -0.043,-0.226 -0.13,-0.313 -0.085,-0.085 -0.189,-0.128 -0.311,-0.128l0 -0.209c0.175,-0.006 0.344,-0.036 0.511,-0.091 0.165,-0.056 0.303,-0.121 0.414,-0.195 0.111,-0.073 0.201,-0.15 0.268,-0.227 0.065,-0.078 0.099,-0.145 0.099,-0.201l0.184 0 0 1.995 0 0.837c0,0.706 0.189,1.059 0.566,1.059 0.396,0 0.637,-0.246 0.722,-0.742l0.037 -1.785c0,-0.122 -0.043,-0.226 -0.131,-0.313 -0.087,-0.085 -0.192,-0.128 -0.314,-0.128l0 -0.209 0.004 0c0.175,-0.006 0.346,-0.036 0.511,-0.091 0.165,-0.056 0.303,-0.121 0.413,-0.195 0.109,-0.073 0.197,-0.15 0.264,-0.227 0.067,-0.078 0.1,-0.145 0.1,-0.201l0.188 0 0 3.374c0,0.16 0.043,0.303 0.129,0.434 0.086,0.131 0.201,0.228 0.346,0.292z"/>
   <path id="_13" fill="#2B2A29" fill-rule="nonzero" d="M75.161 13.32c0.327,0 0.63,0.091 0.909,0.273 0.278,0.182 0.498,0.431 0.661,0.746 0.162,0.316 0.243,0.659 0.243,1.028 0,0.37 -0.081,0.713 -0.243,1.029 -0.163,0.314 -0.383,0.564 -0.661,0.746 -0.279,0.182 -0.582,0.273 -0.909,0.273 -0.265,0 -0.52,-0.065 -0.768,-0.196l0 0.997c0,0.13 0.047,0.242 0.14,0.335 0.092,0.094 0.205,0.139 0.336,0.139l0 0.21 -2.01 0 0 -0.21 0.02 0c0.131,0 0.243,-0.045 0.336,-0.139 0.094,-0.093 0.139,-0.205 0.139,-0.335l0 -2.636c-0.006,-0.047 -0.007,-0.118 -0.007,-0.212 0,-0.095 0.001,-0.166 0.007,-0.213l0 -0.472c0,-0.122 -0.043,-0.226 -0.128,-0.313 -0.087,-0.085 -0.191,-0.128 -0.313,-0.128l0 -0.209c0.175,-0.006 0.344,-0.036 0.511,-0.091 0.165,-0.056 0.303,-0.121 0.414,-0.195 0.111,-0.073 0.201,-0.15 0.268,-0.227 0.067,-0.078 0.099,-0.145 0.099,-0.2l0.188 0 0 0.196c0.239,-0.131 0.494,-0.196 0.768,-0.196zm0 3.89c0.139,0 0.267,-0.082 0.387,-0.249 0.119,-0.168 0.215,-0.393 0.286,-0.678 0.071,-0.286 0.107,-0.592 0.107,-0.919 0,-0.329 -0.036,-0.635 -0.107,-0.918 -0.071,-0.284 -0.167,-0.508 -0.286,-0.676 -0.12,-0.167 -0.248,-0.25 -0.387,-0.25 -0.19,0 -0.358,0.151 -0.503,0.455 -0.147,0.303 -0.235,0.676 -0.265,1.117l0 0.547c0.03,0.441 0.118,0.814 0.265,1.117 0.145,0.303 0.313,0.454 0.503,0.454z"/>
   <path fill="#2B2A29" fill-rule="nonzero" d="M15.194 19.003l-1.315 0 0 0.246 0.512 0 0 1.658 0.289 0 0 -1.658 0.514 0 0 -0.246z"/>
   <path id="_1_0" fill="#2B2A29" fill-rule="nonzero" d="M17.043 19.997c0.191,-0.072 0.34,-0.238 0.34,-0.482 0,-0.154 -0.052,-0.286 -0.151,-0.373 -0.12,-0.107 -0.294,-0.151 -0.542,-0.151 -0.172,0 -0.341,0.017 -0.463,0.039l0 1.877 0.286 0 0 -0.805 0.174 0c0.202,0 0.294,0.097 0.346,0.35 0.047,0.234 0.092,0.401 0.119,0.455l0.299 0c-0.038,-0.072 -0.085,-0.268 -0.142,-0.517 -0.045,-0.201 -0.125,-0.335 -0.266,-0.388l0 -0.005zm-0.53 -0.111l0 -0.654c0.035,-0.01 0.105,-0.018 0.202,-0.018 0.206,0 0.38,0.085 0.38,0.331 0,0.204 -0.149,0.341 -0.388,0.341l-0.194 0z"/>
   <path id="_2_1" fill="#2B2A29" fill-rule="nonzero" d="M19.324 19.003l-0.353 0 -0.582 1.904 0.296 0 0.164 -0.559 0.582 0 0.171 0.559 0.303 0 -0.581 -1.904zm-0.43 1.124l0.151 -0.501c0.033,-0.117 0.062,-0.257 0.09,-0.374l0.005 0c0.027,0.117 0.059,0.252 0.094,0.376l0.149 0.499 -0.489 0z"/>
   <path id="_3_2" fill="#2B2A29" fill-rule="nonzero" d="M22.012 19.003l-0.268 0.897c-0.072,0.234 -0.139,0.475 -0.184,0.701l-0.008 0c-0.047,-0.228 -0.109,-0.462 -0.178,-0.704l-0.252 -0.894 -0.315 0 0.576 1.904 0.321 0 0.617 -1.904 -0.309 0z"/>
   <path id="_4_3" fill="#2B2A29" fill-rule="nonzero" d="M24.383 20.666l-0.748 0 0 -0.631 0.666 0 0 -0.239 -0.666 0 0 -0.552 0.706 0 0 -0.241 -0.995 0 0 1.904 1.037 0 0 -0.241z"/>
   <path id="_5_4" fill="#2B2A29" fill-rule="nonzero" d="M26.517 20.664l-0.733 0 0 -1.661 -0.289 0 0 1.904 1.022 0 0 -0.243z"/>
   <path id="_6_5" fill="#2B2A29" fill-rule="nonzero" d="M28.706 20.907l0.286 0 0 -0.746c0.047,0.01 0.102,0.013 0.162,0.013 0.343,0 0.71,-0.159 0.71,-0.622 0,-0.174 -0.064,-0.318 -0.171,-0.41 -0.114,-0.102 -0.291,-0.151 -0.525,-0.151 -0.196,0 -0.348,0.017 -0.462,0.037l0 1.879zm0.286 -1.673c0.037,-0.007 0.104,-0.017 0.194,-0.017 0.231,0 0.39,0.117 0.39,0.348 0,0.243 -0.159,0.38 -0.422,0.38 -0.068,0 -0.12,-0.002 -0.162,-0.015l0 -0.696z"/>
   <path id="_7_6" fill="#2B2A29" fill-rule="nonzero" d="M32.001 20.664l-0.733 0 0 -1.661 -0.288 0 0 1.904 1.021 0 0 -0.243z"/>
   <path id="_8_7" fill="#2B2A29" fill-rule="nonzero" d="M33.874 19.003l-0.353 0 -0.581 1.904 0.296 0 0.164 -0.559 0.581 0 0.172 0.559 0.303 0 -0.582 -1.904zm-0.43 1.124l0.152 -0.501c0.032,-0.117 0.062,-0.257 0.09,-0.374l0.005 0c0.027,0.117 0.059,0.252 0.094,0.376l0.149 0.499 -0.49 0z"/>
   <path id="_9_8" fill="#2B2A29" fill-rule="nonzero" d="M36.901 19.003l-0.266 0 0 0.702c0,0.304 0.008,0.548 0.03,0.807l-0.007 0.002c-0.082,-0.202 -0.189,-0.421 -0.309,-0.63l-0.497 -0.881 -0.313 0 0 1.904 0.266 0 0 -0.712c0,-0.333 -0.005,-0.58 -0.02,-0.821l0.01 -0.003c0.087,0.215 0.201,0.439 0.316,0.645l0.499 0.891 0.291 0 0 -1.904z"/>
   <path id="_10_9" fill="#2B2A29" fill-rule="nonzero" d="M39.48 19.003l-0.266 0 0 0.702c0,0.304 0.008,0.548 0.03,0.807l-0.007 0.002c-0.082,-0.202 -0.189,-0.421 -0.308,-0.63l-0.498 -0.881 -0.313 0 0 1.904 0.266 0 0 -0.712c0,-0.333 -0.005,-0.58 -0.02,-0.821l0.01 -0.003c0.087,0.215 0.202,0.439 0.316,0.645l0.5 0.891 0.29 0 0 -1.904z"/>
   <path id="_11_10" fill="#2B2A29" fill-rule="nonzero" d="M40.697 20.907l0.289 0 0 -1.904 -0.289 0 0 1.904z"/>
   <path id="_12_11" fill="#2B2A29" fill-rule="nonzero" d="M43.563 19.003l-0.266 0 0 0.702c0,0.304 0.007,0.548 0.03,0.807l-0.008 0.002c-0.082,-0.202 -0.189,-0.421 -0.308,-0.63l-0.497 -0.881 -0.314 0 0 1.904 0.266 0 0 -0.712c0,-0.333 -0.005,-0.58 -0.02,-0.821l0.01 -0.003c0.087,0.215 0.202,0.439 0.316,0.645l0.5 0.891 0.291 0 0 -1.904z"/>
   <path id="_13_12" fill="#2B2A29" fill-rule="nonzero" d="M46.147 19.883l-0.607 0 0 0.231 0.328 0 0 0.537c-0.042,0.023 -0.129,0.04 -0.253,0.04 -0.373,0 -0.634,-0.254 -0.634,-0.733 0,-0.483 0.281,-0.729 0.671,-0.729 0.174,0 0.289,0.033 0.378,0.072l0.065 -0.236c-0.095,-0.047 -0.256,-0.079 -0.443,-0.079 -0.569,0 -0.974,0.368 -0.974,0.984 0,0.303 0.104,0.957 0.927,0.957 0.226,0 0.435,-0.055 0.542,-0.097l0 -0.947z"/>
   <path id="_14" fill="#2B2A29" fill-rule="nonzero" d="M49.589 20.564c0.146,-0.174 0.226,-0.42 0.271,-0.703l-0.259 0c-0.027,0.201 -0.077,0.392 -0.161,0.527 -0.117,-0.135 -0.274,-0.328 -0.403,-0.485l0 -0.01c0.281,-0.152 0.388,-0.311 0.388,-0.507 0,-0.256 -0.189,-0.41 -0.428,-0.41 -0.318,0 -0.485,0.236 -0.485,0.472 0,0.137 0.06,0.278 0.152,0.398l-0.003 0.007c-0.211,0.125 -0.35,0.303 -0.35,0.55 0,0.278 0.201,0.532 0.579,0.532 0.202,0 0.373,-0.065 0.515,-0.199 0.064,0.074 0.107,0.122 0.154,0.171l0.335 0 -0.305 -0.343zm-0.652 0.154c-0.211,0 -0.35,-0.161 -0.35,-0.36 0,-0.174 0.112,-0.286 0.204,-0.351 0.176,0.212 0.358,0.425 0.477,0.562 -0.052,0.06 -0.157,0.149 -0.331,0.149zm0.043 -1.548c0.139,0 0.194,0.119 0.194,0.228 0,0.145 -0.1,0.244 -0.269,0.348 -0.077,-0.099 -0.132,-0.199 -0.132,-0.323 0,-0.127 0.065,-0.253 0.207,-0.253z"/>
   <path id="_15" fill="#2B2A29" fill-rule="nonzero" d="M53.063 20.664l-0.733 0 0 -1.661 -0.289 0 0 1.904 1.022 0 0 -0.243z"/>
   <path id="_16" fill="#2B2A29" fill-rule="nonzero" d="M54.857 18.976c-0.488,0 -0.821,0.393 -0.821,0.992 0,0.574 0.311,0.967 0.796,0.967 0.462,0 0.818,-0.336 0.818,-0.997 0,-0.547 -0.289,-0.962 -0.793,-0.962zm-0.01 0.236c0.34,0 0.499,0.373 0.499,0.736 0,0.405 -0.171,0.75 -0.504,0.75 -0.328,0 -0.502,-0.353 -0.502,-0.738 0,-0.373 0.156,-0.748 0.507,-0.748z"/>
   <path id="_17" fill="#2B2A29" fill-rule="nonzero" d="M58.132 19.883l-0.607 0 0 0.231 0.329 0 0 0.537c-0.043,0.023 -0.13,0.04 -0.254,0.04 -0.373,0 -0.634,-0.254 -0.634,-0.733 0,-0.483 0.281,-0.729 0.671,-0.729 0.174,0 0.289,0.033 0.378,0.072l0.065 -0.236c-0.095,-0.047 -0.256,-0.079 -0.443,-0.079 -0.569,0 -0.974,0.368 -0.974,0.984 0,0.303 0.104,0.957 0.927,0.957 0.226,0 0.435,-0.055 0.542,-0.097l0 -0.947z"/>
   <path id="_18" fill="#2B2A29" fill-rule="nonzero" d="M59.297 20.907l0.288 0 0 -1.904 -0.288 0 0 1.904z"/>
   <path id="_19" fill="#2B2A29" fill-rule="nonzero" d="M61.759 19.063c-0.082,-0.043 -0.219,-0.087 -0.4,-0.087 -0.378,0 -0.619,0.226 -0.619,0.527 0,0.258 0.191,0.43 0.475,0.544 0.226,0.095 0.323,0.194 0.323,0.356 0,0.171 -0.127,0.288 -0.353,0.288 -0.157,0 -0.311,-0.05 -0.413,-0.112l-0.064 0.241c0.092,0.062 0.281,0.115 0.459,0.115 0.428,0 0.664,-0.239 0.664,-0.557 0,-0.261 -0.146,-0.428 -0.452,-0.562 -0.241,-0.104 -0.348,-0.184 -0.348,-0.346 0,-0.121 0.094,-0.253 0.32,-0.253 0.157,0 0.276,0.05 0.339,0.084l0.069 -0.238z"/>
   <path id="_20" fill="#2B2A29" fill-rule="nonzero" d="M64.09 19.003l-1.315 0 0 0.246 0.512 0 0 1.658 0.288 0 0 -1.658 0.515 0 0 -0.246z"/>
   <path id="_21" fill="#2B2A29" fill-rule="nonzero" d="M65.123 20.907l0.288 0 0 -1.904 -0.288 0 0 1.904z"/>
   <path id="_22" fill="#2B2A29" fill-rule="nonzero" d="M67.806 20.624c-0.082,0.04 -0.213,0.067 -0.343,0.067 -0.392,0 -0.636,-0.261 -0.636,-0.728 0,-0.495 0.273,-0.744 0.641,-0.744 0.142,0 0.254,0.033 0.333,0.07l0.063 -0.236c-0.053,-0.028 -0.187,-0.075 -0.406,-0.075 -0.527,0 -0.934,0.353 -0.934,1 0,0.606 0.355,0.957 0.885,0.957 0.206,0 0.368,-0.04 0.447,-0.08l-0.05 -0.231z"/>
   <path id="_23" fill="#2B2A29" fill-rule="nonzero" d="M69.921 19.063c-0.082,-0.043 -0.219,-0.087 -0.4,-0.087 -0.378,0 -0.619,0.226 -0.619,0.527 0,0.258 0.191,0.43 0.474,0.544 0.227,0.095 0.324,0.194 0.324,0.356 0,0.171 -0.127,0.288 -0.353,0.288 -0.157,0 -0.311,-0.05 -0.413,-0.112l-0.065 0.241c0.092,0.062 0.281,0.115 0.46,0.115 0.428,0 0.664,-0.239 0.664,-0.557 0,-0.261 -0.147,-0.428 -0.452,-0.562 -0.242,-0.104 -0.349,-0.184 -0.349,-0.346 0,-0.121 0.095,-0.253 0.321,-0.253 0.157,0 0.276,0.05 0.338,0.084l0.07 -0.238z"/>
  </g>
 </g>
</svg>
