<?xml version="1.0" encoding="UTF-8"?>
<!DOCTYPE svg PUBLIC "-//W3C//DTD SVG 1.1//EN" "http://www.w3.org/Graphics/SVG/1.1/DTD/svg11.dtd">
<!-- Creator: CorelDRAW -->
<svg xmlns="http://www.w3.org/2000/svg" xml:space="preserve" width="344px" height="49px" version="1.1" shape-rendering="geometricPrecision" text-rendering="geometricPrecision" image-rendering="optimizeQuality" fill-rule="evenodd" clip-rule="evenodd"
viewBox="0 0 52.347 7.444"
 xmlns:xlink="http://www.w3.org/1999/xlink"
 xmlns:xodm="http://www.corel.com/coreldraw/odm/2003">
 <g id="Capa_x0020_1">
  <metadata id="CorelCorpID_0Corel-Layer"/>
  <g id="_2660744146400">
   <path fill="#0E1B24" d="M30.027 1.9c-0.035,0.05 -0.017,0.031 -0.07,0.081l-0.122 0.125c-0.053,0.05 -0.106,0.124 -0.158,0.174l0 -0.467 -0.053 -0.05 -0.42 0.025 0 3.532 0.49 0c0.018,-0.492 -0.035,-2.205 0.088,-2.448 0.088,-0.392 0.333,-0.642 0.701,-0.71 0.718,-0.156 1.121,0.367 1.156,0.997 0.035,0.703 -0.017,1.451 0.018,2.167l0.49 0c0,-0.704 -0.052,-1.526 0,-2.205 0.035,-0.623 0.491,-1.102 1.209,-0.953 0.193,0.031 0.333,0.087 0.438,0.268l0.105 0.087c0.018,0.05 0.035,0.087 0.07,0.143 0.053,0.106 0.07,0.181 0.088,0.299 0.052,0.306 0.017,1.919 0.035,2.361l0.49 -0.025c0.018,-1.445 0.316,-3.251 -0.928,-3.575 -0.701,-0.174 -0.981,0.1 -1.244,0.143 -0.053,0.131 -0.14,0.175 -0.228,0.274l-0.087 0.075 -0.123 0.199 -0.088 -0.212 -0.035 -0.037c-0.07,-0.05 -0.07,0.037 -0.07,-0.05l-0.035 -0.081c-0.122,-0.074 -0.157,-0.149 -0.333,-0.23 -0.14,-0.069 -0.28,-0.112 -0.438,-0.125 -0.543,-0.043 -0.595,0.087 -0.946,0.218z"/>
   <path fill="#0E1B24" d="M15.329 2.205c0.894,-0.292 1.559,0.299 1.752,0.922 0.263,0.854 -0.263,1.557 -0.894,1.763 -1.769,0.579 -2.68,-2.08 -0.858,-2.685zm-0.981 -0.429l-0.49 0.006 0.017 5.338 0.491 -0.006 0.017 -2.43c0.333,0.542 1.244,0.96 2.12,0.623 1.612,-0.61 1.454,-3.089 -0.088,-3.55 -1.384,-0.411 -1.997,0.648 -2.067,0.679l0 -0.66z"/>
   <path fill="#0E1B24" d="M40.766 2.723c0.07,-0.162 0.141,-0.237 0.316,-0.312l0.175 -0.137c0.298,-0.131 0.578,-0.168 0.893,-0.118 0.701,0.106 1.174,0.766 1.122,1.526 -0.071,1.09 -1.402,1.731 -2.348,0.909 -0.683,-0.592 -0.438,-1.725 -0.158,-1.868zm-0.245 1.955c0.228,0.287 0.368,0.486 0.806,0.642 0.403,0.143 0.893,0.143 1.279,-0.006 0.648,-0.237 1.191,-0.86 1.174,-1.769 0,-1.477 -1.367,-2.174 -2.453,-1.769 -0.491,0.187 -0.526,0.361 -0.823,0.654l-0.018 -0.654 -0.473 -0.007 0 5.351 0.491 0 0.017 -2.442z"/>
   <path fill="#0E1B24" d="M12.824 2.392l0.017 -0.691c-0.105,0 -0.21,0.006 -0.297,0 -0.176,-0.006 -0.158,0.031 -0.211,-0.075 0.018,-0.704 -0.105,-0.797 0.543,-0.859l0 -0.729c-0.473,-0.118 -1.016,0.056 -1.278,0.305 -0.333,0.312 -0.333,0.729 -0.351,1.314l-0.403 0 0 0.723 0.403 0 0 2.909 1.086 0 0 -2.909 0.491 0.012z"/>
   <path fill="#0E1B24" d="M10.336 1.801c-0.49,-0.15 -1.156,-0.337 -1.682,-0.112 -0.42,0.18 -0.735,0.778 -0.525,1.376 0.193,0.604 0.718,0.523 1.086,0.909 0.263,0.287 -0.018,0.904 -0.964,0.449 -0.07,0.156 -0.245,0.536 -0.262,0.729 0.981,0.299 2.067,0.367 2.417,-0.623 0.175,-0.53 -0.105,-0.978 -0.42,-1.196 -0.351,-0.224 -0.911,-0.312 -0.859,-0.835 0.351,-0.33 0.561,-0.137 0.929,-0.025l0.28 -0.672z"/>
   <path fill="#0E1B24" d="M36.79 2.199c0.875,-0.268 1.559,0.305 1.751,0.966 0.228,0.834 -0.332,1.563 -0.928,1.738 -1.822,0.535 -2.61,-2.156 -0.823,-2.704zm1.261 3.009c0.053,-0.056 0.017,-0.031 0.07,-0.081 0.018,-0.007 0.07,-0.056 0.088,-0.063 0.087,-0.081 0.017,-0.037 0.122,-0.093l0.228 -0.255 0 0.604 0.508 0.006 0 -3.563 -0.508 0.025 0 0.567c-0.123,-0.069 -0.158,-0.125 -0.228,-0.218l-0.122 -0.106c-0.053,-0.031 -0.07,-0.043 -0.105,-0.068 -0.123,-0.069 -0.158,-0.081 -0.246,-0.175 -0.28,-0.012 -1.033,-0.38 -1.874,0.268 -0.946,0.716 -0.981,2.454 0.192,3.127 0.929,0.535 1.752,0.037 1.875,0.025z"/>
   <path fill="#0E1B24" d="M18.868 5.32c0.07,-1.339 -0.403,-3.189 1.174,-3.177 1.559,0.013 1.016,1.894 1.121,3.183l0.49 -0.006c0.018,-0.567 0,-1.202 0,-1.775 0,-0.567 -0.052,-1.034 -0.35,-1.396 -0.561,-0.697 -1.997,-0.61 -2.418,0.125l-0.017 -2.273 -0.491 0 0.018 5.325 0.473 -0.006z"/>
   <path fill="#0E1B24" d="M22.88 3.85c-0.421,-1.875 2.435,-2.379 2.75,-0.604 0.351,1.874 -2.347,2.423 -2.75,0.604zm2.715 0.841c0.035,-0.069 -0.07,-0.05 0.07,-0.063 0.088,0.324 0,0.318 0.053,0.611l0.35 0.012 0 -3.388 -0.35 -0.013c-0.053,0.299 0.035,0.299 -0.07,0.642l-0.07 -0.056 -0.053 -0.15c-0.981,-1.208 -3.223,-0.597 -3.153,1.346 0.052,2.08 2.662,2.242 3.223,1.059z"/>
   <path fill="#0E1B24" d="M1.945 6.659l2.435 0.006c0.07,-0.075 0.052,0.1 0.052,-0.124 0,-1.14 0.886,-1.673 1.91,-1.794l-0.018 -2.498c-0.632,-0.014 -1.259,-0.012 -1.892,-0.012l-0.035 -1.913 -2.487 -0.018c-0.072,0.747 -0.684,1.932 -1.91,1.924l0 2.571 1.892 -0.011 0.053 1.869z"/>
   <path fill="#0E1B24" d="M46.285 4.99c0.105,0.062 0.175,0.118 0.263,0.199 1.226,0.561 1.646,0 1.927,-0.062l0.262 -0.337 0 0.474 0.491 0.056 0 -3.551 -0.508 0c-0.035,1.439 0.403,3.177 -1.156,3.19 -1.489,0.012 -1.122,-1.726 -1.122,-3.196l-0.508 0.031c0,0.773 -0.105,2.317 0.211,2.915 0.017,0.056 0.035,0.088 0.07,0.137l0.052 0.113c0.018,-0.007 0.018,0.018 0.018,0.031z"/>
   <path fill="#0E1B24" d="M49.946 4.311c0.035,0.76 0.666,1.264 1.507,1.084 0.911,-0.187 1.051,-1.14 0.753,-1.601 -0.385,-0.623 -1.419,-0.449 -1.612,-0.972 -0.157,-0.398 0.141,-0.697 0.491,-0.729 0.473,-0.043 0.596,0.206 0.683,0.58l0.473 0c0.018,-0.766 -0.788,-1.221 -1.559,-0.91 -0.771,0.305 -0.823,1.265 -0.298,1.601 0.508,0.33 1.647,0.336 1.454,1.159 -0.087,0.317 -0.385,0.541 -0.806,0.479 -0.455,-0.068 -0.473,-0.305 -0.613,-0.691l-0.473 0z"/>
   <path fill="#0E1B24" d="M44.515 5.326l0.508 0 -0.017 -5.325 -0.491 0 0 5.325z"/>
   <path fill="#0E1B24" d="M27.592 3.19c0.035,-0.542 0.263,-0.854 0.736,-0.978l0.368 -0.069 0 -0.448c-0.456,-0.087 -1.086,0.342 -1.139,0.616l-0.017 -0.548 -0.456 0.031 0 3.526 0.491 0 0.017 -2.13z"/>
   <path fill="#0E1B24" d="M29.134 6.752c0.07,-0.112 0.07,-0.112 0.175,-0.174 0.14,0.05 0.228,0.131 0.263,0.262 -0.105,0.255 -0.438,0.292 -0.438,-0.088zm0.21 -0.348c-0.088,-0.1 -0.193,-0.349 0.053,-0.337 0.227,0.013 0.175,0.237 -0.053,0.337zm0.456 0.006l-0.141 0.293 -0.192 -0.206c0.122,-0.1 0.105,-0.062 0.175,-0.187 0.07,-0.623 -0.806,-0.336 -0.421,0.143 -0.087,0.1 -0.175,0.15 -0.21,0.256 -0.052,0.131 0,0.255 0.07,0.33 0.281,0.318 0.578,-0.075 0.631,-0.118 0.07,0.093 0.14,0.193 0.228,0.199 0.017,-0.05 0.087,0.093 0.017,-0.125 -0.035,-0.074 -0.087,-0.087 -0.192,-0.199l0.175 -0.386 -0.14 0z"/>
   <path fill="#0E1B24" d="M25.648 2.274c0,0.106 0.035,0.162 -0.07,0.162l0.07 0.056c0.105,-0.343 0.017,-0.343 0.07,-0.642l0.35 0.013 0 3.388 -0.35 -0.012c-0.053,-0.293 0.035,-0.287 -0.053,-0.611 -0.14,0.013 -0.035,-0.006 -0.07,0.063 0.088,0.131 0.035,0.442 0.035,0.641l0.526 -0.018 -0.018 -3.551 -0.508 0.013 0.018 0.498z"/>
   <path fill="#0E1B24" d="M22.214 6.989l-0.158 -0.156 -0.017 -0.267c0.263,-0.25 0.49,-0.262 0.595,0.018 0.123,0.312 -0.227,0.542 -0.42,0.405zm-0.158 0.025c0.281,0.274 0.736,0.118 0.736,-0.305 0.018,-0.399 -0.49,-0.604 -0.718,-0.318 -0.105,-0.137 0.017,-0.081 -0.158,-0.1 -0.035,0.206 -0.017,0.424 -0.017,0.636 0,0.517 -0.053,0.461 0.087,0.517l0.053 -0.212c0,-0.069 0,-0.143 0.017,-0.218z"/>
   <path fill="#0E1B24" d="M24.632 7.008c-0.368,-0.343 -0.035,-0.741 0.262,-0.604 0.316,0.137 0.333,0.672 -0.262,0.604zm-0.263 -0.511l-0.018 0.305c0.088,0.324 0.403,0.486 0.719,0.231 0.052,0.068 0.035,0.074 0.157,0.074 0.018,-0.205 0.018,-0.404 0.018,-0.61 0,-0.504 0.052,-0.455 -0.088,-0.529 -0.087,0.124 -0.052,0.193 -0.07,0.423 -0.333,-0.28 -0.543,-0.087 -0.718,0.106z"/>
   <path fill="#0E1B24" d="M17.799 6.752c-0.052,-0.442 0.561,-0.498 0.631,-0.118 0.087,0.492 -0.596,0.505 -0.631,0.118zm-0.105 -0.255c-0.035,0.268 -0.017,0.28 0.07,0.511 0.245,0.18 0.403,0.205 0.666,0.012 0.052,0.15 -0.088,0.087 0.123,0.087 0.017,-0.205 0.017,-0.411 0.017,-0.61 -0.017,-0.162 0.035,-0.386 -0.053,-0.523 -0.122,0.043 -0.07,-0.094 -0.087,0.168 -0.018,0.1 0,0.125 -0.018,0.243 -0.052,-0.081 -0.245,-0.137 -0.403,-0.112 -0.175,0.025 -0.227,0.143 -0.315,0.224z"/>
   <path fill="#0E1B24" d="M32.62 6.578c0.508,-0.61 1.051,0.48 0.158,0.43 -0.158,-0.175 -0.175,-0.156 -0.158,-0.43zm0.613 -0.181c-0.333,-0.28 -0.823,-0.106 -0.753,0.393 0.07,0.392 0.385,0.392 0.648,0.305 0.263,-0.081 -0.035,0.031 0.245,-0.006l-0.017 -0.785c-0.14,-0.013 -0.07,-0.075 -0.123,0.093z"/>
   <path fill="#0E1B24" d="M37.35 7.008c-0.613,0.068 -0.56,-0.498 -0.28,-0.604 0.333,-0.125 0.613,0.249 0.28,0.604zm-0.508 -0.604c-0.087,0.199 -0.087,0.193 -0.087,0.436 0.14,0.311 0.49,0.448 0.718,0.18 0.087,0.125 -0.018,0.075 0.175,0.1l-0.018 -0.835 -0.105 0.013c-0.052,0.137 0.018,0.05 -0.07,0.106 -0.035,-0.032 -0.017,-0.044 -0.035,-0.088 -0.298,-0.081 -0.403,-0.018 -0.578,0.088z"/>
   <path fill="#0E1B24" d="M20.602 7.008c-0.508,0.062 -0.543,-0.399 -0.35,-0.555 0.263,-0.211 0.56,-0.024 0.525,0.399l-0.175 0.156zm-0.578 -0.386l0.07 0.361c0.123,0.112 0.456,0.311 0.666,0.037l0 0.075 0.158 0.031 -0.018 -0.866 -0.105 0.05 -0.053 0.1c-0.035,-0.038 -0.017,-0.069 -0.052,-0.106 -0.351,-0.081 -0.561,-0.031 -0.666,0.318z"/>
   <path fill="#0E1B24" d="M38.384 6.653c-0.053,-0.374 0.578,-0.362 0.56,-0.013l-0.56 0.013zm0.017 -0.362l-0.157 0.219c-0.018,0.236 -0.035,0.454 0.192,0.579 0.228,0.137 0.456,0.056 0.578,-0.131l0.018 -0.062 -0.105 0c-0.245,0.205 -0.491,0.193 -0.561,-0.144l0.736 -0.012c0.035,-0.467 -0.333,-0.461 -0.701,-0.449z"/>
   <path fill="#0E1B24" d="M31.674 6.584c0.018,-0.124 0.053,-0.174 0.21,-0.199 0.158,-0.025 0.228,0.031 0.298,0.1 0.07,0.068 0.07,0.018 0.07,0.168l-0.613 -0.007c-0.017,-0.112 0,-0.024 0.035,-0.062zm0.666 0.268c-0.088,0.013 -0.596,0.461 -0.701,-0.1l0.736 -0.012c0.035,-0.61 -0.788,-0.629 -0.859,-0.118 -0.105,0.654 0.771,0.672 0.824,0.23z"/>
   <path fill="#0E1B24" d="M34.635 6.466c0,0 0.017,-0.118 0.21,-0.075 0.28,0.05 0.193,0.336 0.21,0.71l0.14 0.013c-0.052,-0.604 0.106,-1.022 -0.665,-0.779 0.017,-0.486 0,-0.299 -0.053,-0.367 -0.123,0.068 -0.087,0.049 -0.087,0.267 0,0.113 0,0.231 0,0.343 0,0.461 -0.053,0.492 0.087,0.554 0.105,-0.137 0.053,-0.467 0.088,-0.647 0.035,-0.038 0.035,-0.007 0.07,-0.019z"/>
   <path fill="#0E1B24" d="M15.417 6.354l0.017 0.093c0.105,-0.031 0.175,-0.056 0.316,-0.031 0.122,0.156 0.122,0.436 0.07,0.685l0.157 0.019c0,-0.399 -0.105,-0.598 0.193,-0.748 0.193,0.05 0.193,0.038 0.228,0.206 0.035,0.156 -0.053,0.486 0.087,0.554 0.158,-0.18 0.053,-0.66 -0.017,-0.828 -0.368,-0.069 -0.333,-0.056 -0.543,0.087 -0.158,-0.187 -0.316,-0.162 -0.508,-0.037z"/>
   <path fill="#0E1B24" d="M16.836 6.765c-0.14,-0.019 -0.035,0.037 -0.123,-0.056 0.07,-0.181 -0.052,-0.081 0.123,-0.119 0.122,-0.336 0.595,-0.249 0.578,0.056l-0.578 0.007 0 0.112zm0.035 -0.467c-0.07,0.118 -0.035,0.074 -0.14,0.155 -0.053,0.237 -0.088,0.287 0.035,0.505l0.035 0.075c0,-0.007 0,0.018 0.017,0.025 0.316,0.105 0.298,0.137 0.631,-0.019 0.017,-0.044 0,-0.006 0.035,-0.069 0.087,-0.149 -0.018,0.019 0.035,-0.049 -0.035,-0.069 0.017,-0.056 -0.14,-0.044 -0.053,0.1 0,0.031 -0.088,0.125 -0.28,0.068 -0.438,0.006 -0.455,-0.237l0.543 -0.025 0.192 0.006 -0.017 -0.168c-0.07,-0.143 -0.088,-0.224 -0.228,-0.28 -0.157,-0.056 -0.315,-0.013 -0.455,0z"/>
   <path fill="#0E1B24" d="M30.553 7.095l0.14 0.025c0.018,-0.255 -0.035,-0.492 0.105,-0.679 0.228,-0.131 0.333,-0.075 0.403,0.137 0.053,0.212 -0.052,0.486 0.105,0.548 0.158,-0.212 0.123,-1.177 -0.578,-0.772l-0.07 -0.38c-0.105,0.05 -0.088,-0.013 -0.088,0.212 0,0.267 0.035,0.666 -0.017,0.909z"/>
   <path fill="#0E1B24" d="M23.913 7.008c-0.49,0.037 -0.56,-0.312 -0.298,-0.611l0.333 0.019c0.228,0.212 0.193,0.392 -0.035,0.592zm0.298 -0.125l0 -0.342c-0.613,-0.897 -1.331,0.517 -0.49,0.604 0.297,0.031 0.385,-0.119 0.49,-0.262z"/>
   <path fill="#0E1B24" d="M19.831 7.045l0.088 -0.205c-0.193,0.025 -0.07,-0.007 -0.158,0.062 -0.14,0.1 -0.035,0.05 -0.192,0.112 -0.158,0.012 -0.281,-0.031 -0.351,-0.168 -0.035,-0.069 -0.052,-0.15 -0.017,-0.249 0.035,-0.131 0.087,-0.1 0.122,-0.119 0.141,-0.236 0.386,-0.037 0.473,0.106l0.123 0c-0.105,-0.442 -0.771,-0.423 -0.858,0.013 -0.053,0.205 0.052,0.417 0.21,0.498 0.21,0.118 0.385,0 0.56,-0.05z"/>
   <path fill="#0E1B24" d="M36.632 6.578l-0.053 -0.199c-0.683,-0.262 -0.876,0.112 -0.788,0.448 0.105,0.405 0.701,0.461 0.858,0.013 -0.315,0.018 -0.087,0.218 -0.578,0.162 -0.438,-0.212 0.123,-1.003 0.438,-0.418l0.123 -0.006z"/>
   <path fill="#0E1B24" d="M26.453 6.41l-0.07 0.374c0.088,0.448 0.684,0.541 0.859,0.049 -0.263,0.007 -0.07,0.032 -0.263,0.144 -0.403,0.249 -0.613,-0.387 -0.385,-0.461 0.052,-0.081 -0.053,-0.013 0.087,-0.1 0.07,-0.05 0.228,-0.062 0.316,0.044 0.192,0.106 -0.035,0.099 0.245,0.124 -0.053,-0.174 -0.158,-0.293 -0.351,-0.317 -0.245,-0.025 -0.315,0.074 -0.438,0.143z"/>
   <path fill="#0E1B24" d="M26.068 6.883l-0.087 0.106c-0.158,0.037 -0.351,0.062 -0.351,-0.112 -0.158,-0.137 -0.035,-0.324 -0.088,-0.473 -0.035,-0.175 0.036,-0.044 -0.087,-0.1l0 0.548c0.035,0.293 0.193,0.274 0.473,0.311 0.053,-0.062 -0.035,0.007 0.088,-0.081 0,-0.012 0.052,-0.031 0.052,-0.031l0.158 0.075 -0.018 -0.847 -0.122 0.044 -0.018 0.56z"/>
   <path fill="#0E1B24" d="M28.275 7.139l0.123 -0.106c0.018,-0.629 -0.473,-0.243 -0.403,-0.592 0.018,-0.012 0,-0.056 0.105,-0.062 0.158,-0.007 0.018,0.074 0.263,0.131 -0.035,-0.287 -0.21,-0.262 -0.455,-0.212 -0.053,0.162 -0.071,0.162 -0.035,0.348 0.245,0.125 0.437,0.075 0.35,0.368 -0.386,0.05 -0.088,-0.068 -0.386,-0.143 0.036,0.299 0.141,0.274 0.438,0.268z"/>
   <path fill="#0E1B24" d="M27.75 6.323c-0.053,-0.038 -0.035,-0.019 -0.07,-0.038 -0.088,-0.043 -0.035,0 -0.088,-0.05 0,-0.043 0,-0.137 0,-0.174 -0.017,-0.087 -0.017,-0.05 -0.052,-0.093 -0.123,0.068 -0.088,-0.007 -0.088,0.224 -0.052,0.156 0.035,0.037 -0.14,0.131 0.035,0.062 0.017,0.025 0.052,0.068l0.088 0.062c0.018,0.405 -0.07,0.611 0.088,0.679 0.105,-0.168 0.035,-0.51 0.07,-0.722l0.14 -0.087z"/>
   <path fill="#0E1B24" d="M33.969 6.267c-0.017,0.018 -0.035,0.087 -0.035,0.062 -0.017,-0.019 -0.017,0.056 -0.017,0.075l0.052 0.018c0.07,0.499 -0.105,0.648 0.14,0.704l0 -0.673c0.193,-0.137 0.105,0 0.193,-0.143l-0.175 -0.075c-0.018,-0.255 0.052,-0.23 -0.14,-0.267l-0.018 0.299z"/>
   <path fill="#0E1B24" d="M37.841 7.058l0.14 -0.069c0,-0.093 0,-0.237 0,-0.324 0.017,-0.149 0.017,-0.143 0.087,-0.187 0.053,-0.068 0.018,-0.031 0.088,-0.081 0.035,-0.031 0.035,-0.018 0.07,-0.037l0 -0.093c-0.122,0.012 -0.175,0.049 -0.21,0.056 -0.035,0 -0.105,-0.025 -0.175,-0.038l0 0.773z"/>
   <path fill="#0E1B24" d="M21.25 5.974l-0.122 -0.006c0,0.193 0,0.38 0,0.573 0,0.099 0,0.199 0,0.299l0.017 0.242c0.018,0.013 0.018,0.019 0.018,0.032 0.105,-0.05 0.035,0.056 0.087,-0.063 0,-0.037 0,-0.124 0,-0.162 0,-0.105 0,-0.205 0,-0.311 0,-0.199 0,-0.399 0,-0.604z"/>
   <path fill="#0E1B24" d="M33.584 7.002l0.122 0.006 0 -0.947c-0.017,-0.1 0,-0.031 -0.052,-0.087 -0.053,0.062 -0.053,0.006 -0.07,0.131l0 0.897z"/>
   <path fill="#0E1B24" d="M23.09 6.478l0.017 -0.118c-0.07,-0.081 -0.017,-0.062 -0.14,-0.062 -0.017,0.149 -0.017,0.305 -0.017,0.454 -0.018,0.468 0,0.312 0.087,0.368 0.07,-0.137 0.053,-0.43 0.053,-0.642z"/>
   <path fill="#0E1B24" d="M15.277 6.995l0.14 0.013 0.017 -0.561 -0.017 -0.093c-0.07,-0.087 0,-0.05 -0.14,-0.063l0 0.704z"/>
   <path fill="#0E1B24" d="M12.824 2.392c0.14,-0.012 0.017,0.007 0.07,-0.056l0 -0.685 -0.561 -0.025c0.053,0.106 0.035,0.069 0.211,0.075 0.087,0.006 0.192,0 0.297,0l-0.017 0.691z"/>
   <path fill="#0E1B24" d="M18.833 7.107c0.052,-0.074 0.052,0.137 0.052,-0.355 0,-0.149 0,-0.299 0,-0.448 -0.105,0.044 -0.105,-0.162 -0.087,0.361 0,0.175 -0.035,0.318 0.035,0.442z"/>
   <path fill="#0E1B24" d="M31.674 6.584c-0.035,0.038 -0.052,-0.05 -0.035,0.062l0.613 0.007c0,-0.15 0,-0.1 -0.07,-0.168 -0.017,0.081 -0.035,0.006 0.018,0.124l-0.526 -0.025z"/>
   <path fill="#0E1B24" d="M23.107 6.36l-0.017 0.118c0.14,-0.056 0.175,-0.049 0.263,-0.155 -0.07,-0.044 0.105,-0.081 -0.14,-0.044 -0.053,0.012 -0.088,0.081 -0.106,0.081z"/>
   <path fill="#0E1B24" d="M18.763 6.161c0.175,-0.038 0.245,-0.075 0.07,-0.193 -0.07,0.062 -0.07,-0.075 -0.07,0.193z"/>
   <path fill="#0E1B24" d="M16.836 6.765l0 -0.112 0 -0.063c-0.175,0.038 -0.053,-0.062 -0.123,0.119 0.088,0.093 -0.017,0.037 0.123,0.056z"/>
   <path fill="#0E1B24" d="M32.095 2.218l-0.088 0.056 -0.123 -0.069 0.088 0.212 0.123 -0.199z"/>
   <path fill="#0E1B24" d="M25.578 2.436c0.105,0 0.07,-0.056 0.07,-0.162l-0.123 0.012 0.053 0.15z"/>
   <path fill="#0E1B24" d="M15.417 7.008l-0.14 -0.013 0.035 0.137c0.122,-0.037 0.07,0.063 0.105,-0.124z"/>
   <path fill="#0E1B24" d="M37.981 6.989l-0.14 0.069c0.052,0.13 -0.035,0.068 0.122,0.068l0.018 -0.137z"/>
   <path fill="#0E1B24" d="M33.706 7.008l-0.122 -0.006c0.035,0.118 -0.018,0.049 0.07,0.118 0.07,-0.062 0.052,0.106 0.052,-0.112z"/>
   <path fill="#0E1B24" d="M33.969 6.422l-0.052 -0.018c0,-0.019 0,-0.094 0.017,-0.075 0,0.025 0.018,-0.044 0.035,-0.062 -0.175,0.018 -0.07,0.006 -0.14,0.056 0.07,0.124 -0.035,0.037 0.14,0.099z"/>
   <path fill="#0E1B24" d="M39.014 6.958c0.053,-0.05 0.035,0.093 0.053,-0.118 -0.245,0.006 -0.053,-0.007 -0.14,0.056l0.105 0 -0.018 0.062z"/>
   <path fill="#0E1B24" d="M16.731 6.453c0.105,-0.081 0.07,-0.037 0.14,-0.155l-0.105 0.037 -0.035 0.118z"/>
   <path fill="#0E1B24" d="M37.525 6.298l-0.105 0.018c0.018,0.044 0,0.056 0.035,0.088 0.088,-0.056 0.018,0.031 0.07,-0.106z"/>
   <path fill="#0E1B24" d="M20.795 6.31l-0.105 -0.006c0.035,0.037 0.017,0.068 0.052,0.106l0.053 -0.1z"/>
   <path fill="#0E1B24" d="M31.849 2.168l-0.105 -0.131 0.035 0.081c0,0.087 0,0 0.07,0.05z"/>
   <path fill="#0E1B24" d="M25.981 6.989l0.087 -0.106 -0.087 0.106z"/>
   <path fill="#0E1B24" d="M28.275 7.139l0.123 -0.106 -0.123 0.106z"/>
  </g>
 </g>
</svg>
