<?xml version="1.0" encoding="UTF-8"?>
<!DOCTYPE svg PUBLIC "-//W3C//DTD SVG 1.1//EN" "http://www.w3.org/Graphics/SVG/1.1/DTD/svg11.dtd">
<!-- Creator: CorelDRAW -->
<svg xmlns="http://www.w3.org/2000/svg" xml:space="preserve" width="192px" height="51px" version="1.1" shape-rendering="geometricPrecision" text-rendering="geometricPrecision" image-rendering="optimizeQuality" fill-rule="evenodd" clip-rule="evenodd"
viewBox="0 0 62.074 16.553"
 xmlns:xlink="http://www.w3.org/1999/xlink"
 xmlns:xodm="http://www.corel.com/coreldraw/odm/2003">
 <g id="Capa_x0020_1">
  <metadata id="CorelCorpID_0Corel-Layer"/>
  <g id="_1791267943120">
   <g id="layer1" inkscape:label="Layer 1" inkscape:groupmode="layer">
    <g id="g3359">
     <g id="g3371">
      <path id="path3356" fill="#2B2A29" fill-rule="nonzero" d="M55.138 11.888c0,-0.789 0.64,-1.429 1.429,-1.429 0.789,0 1.428,0.64 1.428,1.429 0,0.789 -0.639,1.429 -1.428,1.429 -0.789,0 -1.429,-0.64 -1.429,-1.429z" inkscape:connector-curvature="0"/>
      <g inkscape:connector-curvature="0">
       <path id="path3360" fill="#2B2A29" fill-rule="nonzero" d="M9.563 8.104c0,-0.905 -0.175,-1.577 -0.525,-2.014 -0.35,-0.438 -0.881,-0.656 -1.594,-0.656l-0.759 0 0 5.535 0.581 0c0.792,0 1.373,-0.235 1.742,-0.706 0.37,-0.471 0.555,-1.19 0.555,-2.159l0 0zm2.706 -0.095c0,1.649 -0.444,2.92 -1.33,3.812 -0.887,0.892 -2.133,1.338 -3.739,1.338l-3.122 0 0 -9.881 3.34 0c1.549,0 2.744,0.406 3.587,1.217 0.842,0.811 1.264,1.982 1.264,3.514z"/>
      </g>
      <path id="path3362" fill="#2B2A29" fill-rule="nonzero" d="M20.915 13.159l2.484 0 0 -9.922 -2.484 0 0 9.922z" inkscape:connector-curvature="0"/>
      <g inkscape:connector-curvature="0">
       <path id="path3366" fill="#2B2A29" fill-rule="nonzero" d="M26.889 9.458c0,0.633 0.082,1.115 0.247,1.447 0.166,0.332 0.443,0.498 0.832,0.498 0.386,0 0.658,-0.166 0.817,-0.498 0.159,-0.332 0.238,-0.814 0.238,-1.447 0,-0.629 -0.081,-1.104 -0.241,-1.424 -0.162,-0.322 -0.437,-0.483 -0.827,-0.483 -0.381,0 -0.653,0.161 -0.819,0.479 -0.165,0.319 -0.247,0.795 -0.247,1.428l0 0zm4.662 0c0,1.206 -0.316,2.146 -0.95,2.82 -0.633,0.674 -1.519,1.012 -2.658,1.012 -1.092,0 -1.962,-0.345 -2.608,-1.035 -0.646,-0.69 -0.969,-1.622 -0.969,-2.797 0,-1.201 0.317,-2.135 0.95,-2.801 0.634,-0.666 1.522,-0.998 2.665,-0.998 0.707,0 1.332,0.154 1.874,0.462 0.542,0.308 0.96,0.749 1.255,1.324 0.294,0.574 0.441,1.245 0.441,2.013l0 0zm0 0l0 0 0 0z"/>
      </g>
      <path id="path3370" fill="#2B2A29" fill-rule="nonzero" d="M32.537 13.159l2.484 0 0 -3.797 0 -3.573 -2.484 0 0 7.37 0 0z" inkscape:connector-curvature="0"/>
      <path id="path3372" fill="#2B2A29" fill-rule="nonzero" d="M32.537 4.897l2.484 0 0 -1.661 -2.484 0 0 1.661z" inkscape:connector-curvature="0"/>
      <g inkscape:connector-curvature="0">
       <path id="path3376" fill="#2B2A29" fill-rule="nonzero" d="M40.054 11.279c0.336,0 0.735,-0.085 1.201,-0.254l0 1.855c-0.335,0.147 -0.653,0.252 -0.956,0.315 -0.303,0.063 -0.658,0.094 -1.064,0.094 -0.834,0 -1.435,-0.209 -1.805,-0.628 -0.367,-0.418 -0.552,-1.061 -0.552,-1.928l0 -3.038 -0.87 0 0 -1.905 0.87 0 0 -1.883 2.504 -0.435 0 2.318 1.585 0 0 1.905 -1.585 0 0 2.869c0,0.477 0.224,0.715 0.672,0.715l0 0zm0 0l0 0 0 0z"/>
      </g>
      <g inkscape:connector-curvature="0">
       <path id="path3380" fill="#2B2A29" fill-rule="nonzero" d="M45.804 11.279c0.335,0 0.735,-0.085 1.201,-0.254l0 1.855c-0.335,0.147 -0.654,0.252 -0.956,0.315 -0.303,0.063 -0.657,0.094 -1.065,0.094 -0.834,0 -1.435,-0.209 -1.803,-0.628 -0.369,-0.418 -0.553,-1.061 -0.553,-1.928l0 -3.038 -0.87 0 0 -1.905 0.87 0 0 -1.911 2.503 -0.407 0 2.318 1.586 0 0 1.905 -1.586 0 0 2.869c0,0.477 0.224,0.715 0.673,0.715l0 0zm0 0l0 0 0 0z"/>
      </g>
      <path id="path3384" fill="#2B2A29" fill-rule="nonzero" d="M50.139 8.56c0.034,-0.403 0.15,-0.699 0.346,-0.888 0.198,-0.189 0.442,-0.283 0.734,-0.283 0.318,0 0.571,0.106 0.759,0.319 0.189,0.212 0.287,0.497 0.295,0.852l-2.134 0 0 0zm3.503 -2.032c-0.59,-0.579 -1.428,-0.869 -2.511,-0.869 -1.14,0 -2.016,0.333 -2.631,0.998 -0.614,0.666 -0.921,1.621 -0.921,2.866 0,1.205 0.332,2.135 0.994,2.787 0.663,0.653 1.594,0.979 2.793,0.979 0.575,0 1.071,-0.039 1.486,-0.117 0.413,-0.077 0.812,-0.217 1.199,-0.419l-0.381 -1.661c-0.282,0.115 -0.55,0.204 -0.803,0.262 -0.365,0.085 -0.767,0.127 -1.203,0.127 -0.479,0 -0.857,-0.117 -1.134,-0.351 -0.277,-0.234 -0.425,-0.558 -0.441,-0.97l4.44 0 0 -1.131c0,-1.089 -0.296,-1.923 -0.887,-2.501z" inkscape:connector-curvature="0"/>
      <g inkscape:connector-curvature="0">
       <path id="path3388" fill="#2B2A29" fill-rule="nonzero" d="M15.566 8.56c0.033,-0.403 0.149,-0.699 0.346,-0.888 0.197,-0.189 0.441,-0.283 0.734,-0.283 0.317,0 0.57,0.106 0.758,0.319 0.189,0.212 0.287,0.497 0.296,0.852l-2.134 0 0 0zm3.503 -2.032c-0.591,-0.579 -1.428,-0.869 -2.512,-0.869 -1.14,0 -2.016,0.333 -2.63,0.998 -0.614,0.666 -0.922,1.621 -0.922,2.866 0,1.205 0.332,2.135 0.995,2.787 0.662,0.653 1.593,0.979 2.792,0.979 0.575,0 1.071,-0.039 1.486,-0.117 0.413,-0.077 0.812,-0.217 1.2,-0.419l-0.382 -1.661c-0.282,0.115 -0.55,0.204 -0.802,0.262 -0.367,0.085 -0.767,0.127 -1.204,0.127 -0.478,0 -0.857,-0.117 -1.134,-0.351 -0.277,-0.234 -0.424,-0.558 -0.441,-0.97l4.44 0 0 -1.131c0,-1.089 -0.295,-1.923 -0.886,-2.501l0 0zm0 0l0 0 0 0z"/>
      </g>
     </g>
    </g>
   </g>
  </g>
  <path fill="none" d="M0 0l62.074 0 0 16.553 -62.074 0 0 -16.553z"/>
 </g>
</svg>
