<?xml version="1.0" encoding="UTF-8"?>
<!DOCTYPE svg PUBLIC "-//W3C//DTD SVG 1.1//EN" "http://www.w3.org/Graphics/SVG/1.1/DTD/svg11.dtd">
<!-- Creator: CorelDRAW -->
<svg xmlns="http://www.w3.org/2000/svg" xml:space="preserve" width="226px" height="127px" version="1.1" shape-rendering="geometricPrecision" text-rendering="geometricPrecision" image-rendering="optimizeQuality" fill-rule="evenodd" clip-rule="evenodd"
viewBox="0 0 33.088 18.644"
 xmlns:xlink="http://www.w3.org/1999/xlink"
 xmlns:xodm="http://www.corel.com/coreldraw/odm/2003">
 <g id="Capa_x0020_1">
  <metadata id="CorelCorpID_0Corel-Layer"/>
  <path fill="#0E1B24" fill-rule="nonzero" d="M0 0l0 18.644 33.088 -9.227 -33.088 -9.417zm14.154 6.297c0.006,0.037 0.011,0.076 0.015,0.114 0.019,0.227 0.037,0.453 0.057,0.679 0.015,0.187 0.028,0.373 0.045,0.56 0.017,0.186 0.032,0.37 0.047,0.556 0.004,0.069 0.011,0.144 0.015,0.218 0.458,-0.034 0.798,0.138 1.001,0.558 0.069,-0.086 0.16,-0.154 0.263,-0.197 0.093,-0.048 0.198,-0.073 0.303,-0.073 0.267,0 0.509,0.16 0.613,0.406 0.08,0.159 0.127,0.334 0.137,0.512 0.011,0.243 0.006,0.481 0.009,0.728 0,0.025 0,0.051 0,0.079l-0.647 0 0 -0.042c0,-0.231 0,-0.461 0,-0.692 0,-0.004 0,-0.007 0,-0.011 0,-0.064 -0.016,-0.128 -0.047,-0.185 -0.037,-0.073 -0.112,-0.119 -0.194,-0.119 -0.001,0 -0.002,0 -0.003,0 -0.001,0 -0.001,0 -0.002,0 -0.084,0 -0.16,0.051 -0.191,0.129 -0.023,0.048 -0.035,0.101 -0.037,0.154 -0.005,0.294 0,0.586 0,0.88l0 0.048 -0.619 0c0,-0.043 -0.006,-0.087 -0.009,-0.129 -0.015,-0.26 -0.026,-0.52 -0.041,-0.779 0,-0.002 0,-0.003 0,-0.004 0,-0.07 -0.005,-0.14 -0.016,-0.208 -0.028,-0.149 -0.141,-0.268 -0.288,-0.305 -0.014,-0.005 -0.028,-0.008 -0.043,-0.008 -0.068,0 -0.122,0.055 -0.122,0.122 0,0.002 0,0.005 0,0.008 0,0.001 0,0.002 0,0.003 0,0.034 0.003,0.068 0.007,0.102 0.021,0.188 0.048,0.375 0.061,0.564 0.015,0.201 0.022,0.405 0.02,0.607 0,0.009 0,0.017 0,0.026 0,0.289 -0.04,0.579 -0.119,0.857 -0.04,0.147 -0.109,0.285 -0.201,0.406 -0.088,0.113 -0.214,0.191 -0.354,0.22 -0.004,0 -0.008,0.004 -0.013,0.004l-0.127 0c-0.106,-0.023 -0.204,-0.077 -0.281,-0.154 -0.103,-0.111 -0.18,-0.244 -0.224,-0.388 -0.055,-0.167 -0.088,-0.34 -0.099,-0.515 -0.007,-0.087 -0.011,-0.176 -0.011,-0.263 0,-0.088 0.004,-0.176 0.011,-0.263 0.046,-0.514 0.17,-1.005 0.438,-1.449 0.07,-0.102 0.145,-0.201 0.224,-0.295 0.014,-0.015 0.022,-0.034 0.022,-0.053 0,-0.003 0,-0.007 -0.001,-0.009 -0.015,-0.16 -0.025,-0.32 -0.037,-0.482 -0.011,-0.137 -0.023,-0.27 -0.034,-0.406 -0.012,-0.135 -0.02,-0.256 -0.029,-0.385 -0.014,-0.165 -0.026,-0.33 -0.04,-0.496 -0.008,-0.089 -0.015,-0.177 -0.022,-0.266 -0.008,-0.114 -0.017,-0.226 -0.026,-0.344l0.221 -0.006 0.334 -0.012c0.01,-0.002 0.021,-0.003 0.031,-0.003 0.001,0 0.002,0.001 0.003,0.001zm-0.247 4.063c-0.006,-0.109 -0.009,-0.216 -0.022,-0.323 -0.009,-0.065 -0.025,-0.128 -0.048,-0.189 -0.011,-0.032 -0.04,-0.031 -0.057,0 -0.014,0.021 -0.024,0.044 -0.031,0.069 -0.04,0.139 -0.064,0.283 -0.069,0.428 -0.006,0.081 -0.01,0.162 -0.01,0.244 0,0.102 0.006,0.205 0.017,0.306 0.01,0.067 0.026,0.133 0.046,0.197 0.003,0.012 0.02,0.027 0.03,0.027 0.015,-0.002 0.029,-0.012 0.036,-0.026 0.016,-0.032 0.029,-0.065 0.039,-0.1 0.046,-0.2 0.069,-0.406 0.069,-0.611 0,-0.007 0,-0.015 0,-0.022l0 0zm-13.207 -2.116c0.015,-0.068 0.025,-0.143 0.046,-0.211 0.102,-0.348 0.352,-0.633 0.683,-0.779 0.204,-0.097 0.427,-0.148 0.652,-0.148 0.021,0 0.042,0 0.062,0.001 0.16,0.004 0.318,0.037 0.467,0.097 0.017,0.007 0.03,0.013 0.03,0.037 0,0.229 0,0.459 0,0.687 0,0.003 0,0.005 0,0.008 0,0.002 0,0.005 0,0.007l-0.035 -0.012c-0.142,-0.062 -0.296,-0.094 -0.451,-0.094 -0.007,0 -0.015,0 -0.022,0 -0.311,0.01 -0.586,0.182 -0.687,0.478 -0.026,0.076 -0.038,0.157 -0.038,0.238 0,0.081 0.012,0.161 0.038,0.238l0.033 -0.022c0.129,-0.097 0.285,-0.154 0.447,-0.16 0.004,0 0.008,0 0.012,0 0.179,0 0.348,0.083 0.458,0.224 0.101,0.117 0.157,0.267 0.157,0.422 0,0.004 0,0.008 0,0.011 0,0.003 0,0.006 0,0.009 0,0.213 -0.129,0.405 -0.326,0.486 -0.102,0.049 -0.214,0.076 -0.328,0.079 -0.069,0 -0.132,0 -0.206,0 0.044,0.082 0.114,0.145 0.199,0.181 0.077,0.031 0.16,0.047 0.243,0.047 0.046,0 0.093,-0.005 0.139,-0.015 0.171,-0.032 0.335,-0.096 0.481,-0.188 0.015,-0.006 0.024,-0.021 0.024,-0.036 0,-0.004 0,-0.007 -0.001,-0.011 -0.034,-0.199 -0.051,-0.401 -0.051,-0.603 0,-0.007 0,-0.015 0,-0.022 0,-0.013 0,-0.028 0,-0.042 0,-0.275 0.052,-0.548 0.152,-0.805 0.064,-0.169 0.173,-0.319 0.314,-0.432 0.087,-0.07 0.195,-0.108 0.307,-0.108 0.005,0 0.01,0 0.015,0 0.12,0.006 0.233,0.065 0.305,0.162 0.088,0.114 0.143,0.249 0.159,0.392 0.011,0.085 0.017,0.172 0.017,0.258 0,0.168 -0.021,0.336 -0.063,0.498 -0.061,0.266 -0.149,0.527 -0.261,0.775 -0.006,0.014 -0.014,0.027 -0.021,0.04 -0.009,0.011 -0.014,0.025 -0.014,0.039 0,0.027 0.018,0.051 0.044,0.059 0.029,0.012 0.06,0.02 0.091,0.022 0.012,0 0.025,0.001 0.037,0.001 0.136,0 0.269,-0.046 0.376,-0.13 0.004,-0.003 0.008,-0.005 0.012,-0.005 0,0.013 0,0.024 0,0.035 0,0.161 0,0.324 0,0.485 0.001,0.002 0.001,0.004 0.001,0.006 0,0.018 -0.01,0.034 -0.026,0.042 -0.285,0.173 -0.58,0.201 -0.884,0.053 -0.058,-0.033 -0.114,-0.069 -0.166,-0.11 -0.074,0.042 -0.15,0.088 -0.229,0.128 -0.189,0.095 -0.393,0.156 -0.603,0.18 -0.063,0.009 -0.128,0.014 -0.191,0.014 -0.183,0 -0.364,-0.036 -0.533,-0.106 -0.336,-0.132 -0.569,-0.441 -0.602,-0.8 -0.007,-0.055 -0.01,-0.11 -0.01,-0.165 0,-0.079 0.007,-0.158 0.02,-0.237 0,-0.003 0.001,-0.007 0.001,-0.011 0,-0.01 -0.003,-0.02 -0.007,-0.029 -0.114,-0.213 -0.197,-0.443 -0.246,-0.68 -0.022,-0.097 -0.033,-0.198 -0.033,-0.298 0,-0.06 0.004,-0.12 0.012,-0.18l0 0zm2.78 0.63c-0.005,-0.035 -0.011,-0.093 -0.023,-0.15 -0.007,-0.034 -0.016,-0.075 -0.058,-0.079 -0.042,-0.003 -0.06,0.034 -0.075,0.066 -0.062,0.133 -0.094,0.278 -0.094,0.425 0,0.054 0.004,0.109 0.013,0.163 0.005,0.026 0.015,0.052 0.028,0.075 0.006,0.018 0.023,0.031 0.042,0.031 0.015,0 0.029,-0.008 0.037,-0.02 0.018,-0.021 0.033,-0.044 0.045,-0.069 0.057,-0.138 0.086,-0.285 0.086,-0.434 0,-0.003 0,-0.006 0,-0.008l-0.001 0zm-1.636 0.532c0.079,0 0.144,-0.064 0.146,-0.143 -0.002,-0.08 -0.066,-0.144 -0.146,-0.146 -0.076,0.005 -0.135,0.069 -0.135,0.145 0,0.076 0.059,0.139 0.135,0.144l0 0zm7.517 -0.175c0.069,-0.15 0.275,-0.225 0.412,-0.207 0.017,0 0.029,0.005 0.029,0.026 0,0.185 0,0.37 0,0.557 -0.038,0.007 -0.074,0.013 -0.11,0.023 -0.124,0.023 -0.214,0.131 -0.214,0.256 0,0.006 0.001,0.013 0.001,0.019l0 0.584 -0.514 0 0 -0.037c0,-0.167 -0.003,-0.334 0,-0.501 0.004,-0.166 -0.103,-0.248 -0.241,-0.268 -0.032,-0.005 -0.064,-0.005 -0.098,-0.008 -0.006,0.04 -0.009,0.077 -0.017,0.114 -0.045,0.183 -0.151,0.345 -0.3,0.461 -0.168,0.143 -0.381,0.223 -0.602,0.224 -0.005,0 -0.011,0.001 -0.017,0.001 -0.18,0 -0.356,-0.05 -0.51,-0.142 -0.014,-0.01 -0.03,-0.016 -0.047,-0.016 -0.019,0 -0.038,0.007 -0.052,0.02 -0.25,0.164 -0.528,0.285 -0.818,0.355 -0.117,0.03 -0.238,0.046 -0.358,0.046 -0.212,0 -0.421,-0.048 -0.612,-0.14 -0.227,-0.114 -0.417,-0.29 -0.55,-0.506 -0.149,-0.237 -0.244,-0.506 -0.275,-0.785 -0.012,-0.089 -0.019,-0.18 -0.019,-0.27 0,-0.267 0.055,-0.532 0.161,-0.777 0.2,-0.483 0.626,-0.837 1.138,-0.946 0.175,-0.041 0.353,-0.061 0.533,-0.061 0.094,0 0.188,0.006 0.281,0.017l0.123 0.013 0 0.649c-0.053,-0.011 -0.107,-0.023 -0.16,-0.031 -0.1,-0.021 -0.203,-0.031 -0.306,-0.031 -0.134,0 -0.268,0.018 -0.398,0.053 -0.317,0.087 -0.566,0.333 -0.658,0.649 -0.047,0.134 -0.071,0.277 -0.071,0.419 0,0.257 0.078,0.507 0.222,0.719 0.119,0.192 0.316,0.322 0.539,0.357 0.038,0.004 0.077,0.007 0.116,0.007 0.125,0 0.25,-0.026 0.365,-0.076 0.149,-0.058 0.288,-0.139 0.413,-0.239 0.008,-0.008 0.014,-0.02 0.014,-0.032 0,-0.002 0,-0.003 -0.001,-0.004 -0.007,-0.038 -0.011,-0.077 -0.011,-0.115 0,-0.112 0.033,-0.221 0.095,-0.314 0.083,-0.134 0.229,-0.215 0.387,-0.215 0.011,0 0.021,0 0.032,0.001 0.12,0.006 0.215,0.106 0.215,0.226 0,0 0,0.001 0,0.001 0,0.078 0,0.157 0.007,0.235 0.004,0.067 0.016,0.134 0.037,0.199 0.072,0.201 0.27,0.211 0.402,0.131 0.035,-0.023 0.065,-0.053 0.088,-0.088 0.016,-0.019 0.024,-0.043 0.024,-0.068 0,-0.052 -0.037,-0.097 -0.088,-0.107 -0.051,-0.017 -0.103,-0.029 -0.153,-0.049 -0.11,-0.042 -0.206,-0.116 -0.275,-0.212 -0.055,-0.084 -0.084,-0.182 -0.084,-0.282 0,-0.042 0.005,-0.084 0.015,-0.126 0.037,-0.181 0.144,-0.341 0.297,-0.444 0.086,-0.06 0.187,-0.092 0.291,-0.092 0.116,0 0.229,0.04 0.319,0.113 0.124,0.101 0.225,0.228 0.294,0.372 0.008,0.019 0.026,0.032 0.047,0.032 0.001,0 0.002,0 0.003,-0.001 0.005,0.001 0.011,0 0.016,0 0.202,0 0.398,0.076 0.548,0.211 0.036,0.03 0.064,0.066 0.095,0.1zm-1.201 -0.207c0,-0.001 0,-0.002 0,-0.003 0,-0.055 -0.045,-0.101 -0.101,-0.101 0,0 -0.001,0 -0.002,0 -0.058,0 -0.105,0.048 -0.105,0.106 0,0.058 0.047,0.105 0.105,0.105 0.001,0 0.001,0 0.002,0 0.056,0 0.102,-0.045 0.102,-0.102 0,-0.002 0,-0.004 0,-0.005l-0.001 0zm1.82 0.597l0 -0.568 0.19 0c0.028,-0.426 0.054,-0.848 0.082,-1.276l0.562 0c-0.035,0.445 -0.069,0.894 -0.104,1.345 0.056,0 0.109,0 0.163,0 0.009,0 0.02,-0.016 0.025,-0.027 0.082,-0.167 0.188,-0.32 0.315,-0.455 0.135,-0.149 0.314,-0.252 0.51,-0.295 0.043,-0.009 0.086,-0.013 0.129,-0.013 0.281,0 0.524,0.193 0.587,0.466 0.008,0.04 0.012,0.08 0.012,0.12 0,0.132 -0.041,0.261 -0.116,0.369 -0.114,0.169 -0.268,0.309 -0.447,0.408 -0.079,0.046 -0.162,0.084 -0.242,0.125l-0.028 0.016c0.072,0.107 0.188,0.179 0.317,0.196 0.014,0 0.029,0.001 0.044,0.001 0.136,0 0.27,-0.039 0.385,-0.112 0.057,-0.032 0.111,-0.069 0.171,-0.105l0 0.037c0,0.19 0,0.379 0,0.569 0,0 0,0 0,0 0,0.028 -0.013,0.053 -0.035,0.069 -0.129,0.105 -0.286,0.171 -0.452,0.19 -0.051,0.007 -0.102,0.011 -0.153,0.011 -0.438,0 -0.827,-0.278 -0.969,-0.692 -0.02,-0.053 -0.047,-0.104 -0.078,-0.151 -0.02,-0.026 -0.047,-0.046 -0.078,-0.056 -0.009,-0.003 -0.017,-0.005 -0.027,-0.005 -0.038,0 -0.068,0.03 -0.068,0.068 0,0.002 0,0.004 0,0.006l0 0.691 -0.561 0 0 -0.919c-0.048,-0.007 -0.088,-0.01 -0.134,-0.013zm1.831 -0.624c0,-0.073 -0.04,-0.103 -0.106,-0.069 -0.035,0.017 -0.066,0.041 -0.092,0.069 -0.065,0.06 -0.104,0.143 -0.11,0.231 0,0.061 0.038,0.087 0.095,0.069 0.118,-0.057 0.198,-0.171 0.213,-0.3zm10.057 0.744c0.048,-0.019 0.095,-0.035 0.138,-0.053 0.183,-0.086 0.361,-0.186 0.53,-0.298 0.284,-0.176 0.561,-0.36 0.86,-0.509 0.16,-0.088 0.333,-0.15 0.512,-0.183 0.056,-0.011 0.113,-0.016 0.17,-0.016 0.114,0 0.226,0.021 0.332,0.061 0.212,0.084 0.359,0.278 0.383,0.504 0.008,0.053 0.011,0.106 0.011,0.159 0,0.261 -0.087,0.514 -0.249,0.718 -0.233,0.317 -0.58,0.53 -0.968,0.594 -0.087,0.016 -0.174,0.025 -0.264,0.036 0,-0.02 0,-0.031 0,-0.043 0,-0.192 0,-0.385 0,-0.576 0,-0.026 0.008,-0.037 0.035,-0.046 0.211,-0.058 0.41,-0.153 0.589,-0.279 0.062,-0.036 0.11,-0.092 0.137,-0.158 0.011,-0.027 0.016,-0.056 0.016,-0.085 0,-0.099 -0.061,-0.187 -0.153,-0.223 -0.024,-0.008 -0.05,-0.012 -0.075,-0.012 -0.04,0 -0.078,0.01 -0.113,0.028 -0.093,0.046 -0.184,0.097 -0.275,0.15 -0.423,0.258 -0.842,0.519 -1.263,0.781 -0.186,0.117 -0.402,0.179 -0.622,0.179 -0.025,0 -0.05,-0.001 -0.075,-0.003 -0.081,-0.003 -0.16,-0.026 -0.228,-0.068 -0.006,-0.003 -0.012,-0.004 -0.018,-0.004 -0.006,0 -0.013,0.001 -0.018,0.004 -0.192,0.133 -0.41,0.223 -0.64,0.263 -0.118,0.024 -0.238,0.037 -0.358,0.037 -0.015,0 -0.031,-0.001 -0.047,-0.001 -0.211,-0.009 -0.418,-0.047 -0.592,-0.181 -0.06,-0.053 -0.117,-0.11 -0.169,-0.17 -0.027,0.017 -0.059,0.039 -0.093,0.063 -0.18,0.124 -0.356,0.248 -0.535,0.372 -0.014,0.007 -0.023,0.022 -0.023,0.037 0,0.003 0,0.006 0.001,0.008 0.008,0.064 0.013,0.129 0.013,0.194 0,0.173 -0.031,0.345 -0.092,0.507 -0.079,0.234 -0.286,0.403 -0.532,0.433 -0.239,0.034 -0.463,0 -0.646,-0.175 -0.107,-0.101 -0.174,-0.239 -0.185,-0.387 -0.03,-0.326 0.108,-0.583 0.344,-0.795 0.115,-0.101 0.247,-0.181 0.391,-0.235 0.017,-0.004 0.029,-0.019 0.029,-0.036 0,-0.003 0,-0.005 -0.001,-0.008 0,-0.055 0,-0.108 0,-0.17 -0.042,0.026 -0.077,0.051 -0.117,0.072 -0.153,0.093 -0.324,0.152 -0.502,0.174 -0.035,0.006 -0.072,0.009 -0.108,0.009 -0.131,0 -0.259,-0.039 -0.367,-0.112 -0.113,-0.088 -0.19,-0.213 -0.219,-0.353 -0.068,-0.266 0.005,-0.501 0.149,-0.723 0.157,-0.236 0.375,-0.426 0.631,-0.55 0.271,-0.136 0.566,-0.221 0.868,-0.25 0.063,-0.006 0.125,-0.011 0.191,-0.017l0 0.643c-0.086,0.01 -0.17,0.017 -0.253,0.03 -0.246,0.029 -0.482,0.114 -0.688,0.251 -0.108,0.066 -0.185,0.173 -0.212,0.297 -0.003,0.018 -0.004,0.037 -0.004,0.055 0,0.019 0.001,0.037 0.004,0.056 0.006,0.046 0.022,0.057 0.069,0.052 0.077,-0.01 0.15,-0.04 0.211,-0.088 0.183,-0.124 0.324,-0.303 0.401,-0.51 0.007,-0.017 0.013,-0.029 0.036,-0.029l0.565 0 0.016 0 0 0.847c0.129,-0.046 0.251,-0.089 0.373,-0.132 -0.024,-0.078 -0.048,-0.151 -0.068,-0.226 -0.054,-0.188 -0.082,-0.385 -0.082,-0.581 0,-0.046 0.002,-0.092 0.005,-0.137 0.01,-0.256 0.085,-0.506 0.216,-0.726 0.076,-0.132 0.188,-0.241 0.323,-0.314 0.074,-0.035 0.155,-0.053 0.237,-0.053 0.077,0 0.154,0.016 0.225,0.048 0.242,0.084 0.413,0.301 0.437,0.556 0.007,0.06 0.011,0.121 0.011,0.181 0,0.173 -0.03,0.344 -0.087,0.506 -0.084,0.265 -0.211,0.514 -0.376,0.738 -0.013,0.016 -0.009,0.026 0,0.042 0.063,0.074 0.15,0.123 0.246,0.138 0.025,0.003 0.051,0.005 0.076,0.005 0.072,0 0.142,-0.014 0.208,-0.042 0.022,-0.007 0.027,-0.016 0.019,-0.041 -0.055,-0.155 -0.084,-0.32 -0.086,-0.485 -0.001,-0.012 -0.001,-0.026 -0.001,-0.038 0,-0.217 0.084,-0.425 0.235,-0.581 0.147,-0.138 0.341,-0.215 0.543,-0.215 0.155,0 0.306,0.046 0.435,0.131 0.157,0.107 0.253,0.282 0.261,0.471 0.001,0.018 0.002,0.036 0.002,0.055 0,0.133 -0.027,0.264 -0.078,0.387 -0.003,0.009 -0.005,0.018 -0.009,0.025 0.002,0.007 0.004,0.014 0.007,0.02zm-2.029 -0.963c0.001,-0.005 0.001,-0.009 0.001,-0.014 0,-0.005 0,-0.009 -0.001,-0.014 -0.006,-0.054 -0.016,-0.108 -0.028,-0.16 -0.017,-0.053 -0.056,-0.056 -0.091,-0.013 -0.016,0.019 -0.028,0.041 -0.038,0.063 -0.054,0.125 -0.081,0.26 -0.081,0.396 0,0.03 0.001,0.06 0.004,0.089 0.004,0.04 0.016,0.078 0.033,0.113 0.016,0.035 0.047,0.037 0.075,0.01 0.017,-0.018 0.032,-0.038 0.043,-0.059 0.055,-0.123 0.083,-0.257 0.083,-0.391 0,-0.007 0,-0.014 0,-0.02zm1.566 0.683c0,-0.006 0,-0.011 0,-0.016 0,-0.06 -0.016,-0.119 -0.048,-0.17 -0.02,-0.039 -0.061,-0.063 -0.105,-0.063 -0.044,0 -0.084,0.024 -0.105,0.063 -0.03,0.05 -0.046,0.107 -0.046,0.165 0,0.057 0.016,0.114 0.046,0.164 0.02,0.041 0.062,0.067 0.109,0.067 0.048,0 0.091,-0.028 0.11,-0.072 0.025,-0.041 0.038,-0.089 0.039,-0.137l0 -0.001zm-3.452 1.705c0,0.004 0,0.007 0,0.011 0,0.003 0,0.006 0,0.01 0.003,0.056 0.037,0.106 0.089,0.128 0.012,0.004 0.025,0.006 0.037,0.006 0.036,0 0.069,-0.015 0.091,-0.043 0.028,-0.032 0.043,-0.073 0.043,-0.115 0,-0.029 -0.007,-0.057 -0.02,-0.082 -0.019,-0.044 -0.061,-0.072 -0.109,-0.072 -0.034,0 -0.067,0.015 -0.09,0.041 -0.026,0.029 -0.041,0.066 -0.041,0.105 0,0.005 0,0.008 0,0.012l0 -0.001zm5.54 -3.13c-0.417,0.268 -0.83,0.534 -1.248,0.802l-0.395 -0.488 1.317 -0.854c0.11,0.182 0.216,0.358 0.326,0.54z"/>
 </g>
</svg>
