<?xml version="1.0" encoding="UTF-8"?>
<!DOCTYPE svg PUBLIC "-//W3C//DTD SVG 1.1//EN" "http://www.w3.org/Graphics/SVG/1.1/DTD/svg11.dtd">
<!-- Creator: CorelDRAW -->
<svg xmlns="http://www.w3.org/2000/svg" xml:space="preserve" width="147px" height="66px" version="1.1" shape-rendering="geometricPrecision" text-rendering="geometricPrecision" image-rendering="optimizeQuality" fill-rule="evenodd" clip-rule="evenodd"
viewBox="0 0 16.543 7.432"
 xmlns:xlink="http://www.w3.org/1999/xlink"
 xmlns:xodm="http://www.corel.com/coreldraw/odm/2003">
 <g id="Capa_x0020_1">
  <metadata id="CorelCorpID_0Corel-Layer"/>
  <g id="_2661478926448">
   <path fill="black" d="M0 2.093c0,0.247 0.05,0.517 0.139,0.738 0.056,0.139 0.058,0.135 0.121,0.259 0.028,0.056 0.064,0.107 0.098,0.158 0.076,0.115 0.187,0.244 0.286,0.342l0.099 0.088c0.102,0.079 0.171,0.14 0.293,0.211 0.258,0.148 0.492,0.235 0.791,0.279 0.512,0.075 1.086,-0.033 1.503,-0.34 0.545,-0.4 0.752,-0.938 0.752,-1.611 0,-0.137 -0.027,-0.277 -0.027,-0.311l-1.928 0 0 0.574 1.361 0c0,0.158 -0.096,0.431 -0.189,0.57 -0.024,0.036 -0.105,0.14 -0.137,0.167 -0.019,0.015 -0.024,0.017 -0.042,0.035 -0.082,0.084 -0.214,0.164 -0.32,0.218 -0.035,0.017 -0.072,0.035 -0.11,0.049 -0.32,0.111 -0.593,0.119 -0.921,0.052 -0.157,-0.033 -0.38,-0.135 -0.512,-0.235 -0.034,-0.026 -0.072,-0.052 -0.105,-0.081 -0.085,-0.075 -0.084,-0.084 -0.138,-0.138 -0.092,-0.09 -0.204,-0.28 -0.254,-0.395 -0.221,-0.502 -0.161,-1.091 0.159,-1.534 0.044,-0.062 0.163,-0.197 0.217,-0.239 0.204,-0.158 0.321,-0.245 0.592,-0.319 0.408,-0.112 0.907,-0.041 1.239,0.202l0.19 0.149 0.402 -0.399c-0.083,-0.119 -0.459,-0.355 -0.595,-0.41 -0.278,-0.114 -0.516,-0.172 -0.837,-0.172 -0.55,0 -1.107,0.227 -1.493,0.613 -0.098,0.098 -0.099,0.101 -0.187,0.207 -0.02,0.025 -0.038,0.048 -0.056,0.075 -0.244,0.354 -0.391,0.72 -0.391,1.198z"/>
   <path fill="black" d="M11.542 3.654c-0.17,0 -0.32,-0.051 -0.444,-0.143l-0.099 -0.087c-0.06,-0.071 -0.107,-0.137 -0.147,-0.226 -0.094,-0.209 -0.094,-0.502 0,-0.711 0.018,-0.042 0.04,-0.082 0.065,-0.122 0.119,-0.195 0.363,-0.341 0.605,-0.341 0.666,0 0.945,0.871 0.533,1.382 -0.1,0.124 -0.291,0.248 -0.513,0.248zm0.663 0.228c0,0.268 0.011,0.548 -0.174,0.758 -0.151,0.173 -0.325,0.223 -0.571,0.223 -0.233,0 -0.425,-0.136 -0.546,-0.297 -0.046,-0.061 -0.067,-0.111 -0.104,-0.18 -0.02,0.005 -0.044,0.016 -0.064,0.025 -0.024,0.011 -0.039,0.017 -0.064,0.027l-0.322 0.134c-0.024,0.01 -0.047,0.017 -0.068,0.028 0.019,0.081 0.134,0.245 0.185,0.313 0.036,0.049 0.075,0.088 0.117,0.131l0.136 0.113c0.091,0.068 0.207,0.132 0.326,0.171 0.352,0.117 0.792,0.092 1.101,-0.086 0.032,-0.018 0.072,-0.041 0.102,-0.063 0.105,-0.08 0.088,-0.066 0.18,-0.159 0.101,-0.102 0.199,-0.29 0.244,-0.426 0.054,-0.16 0.089,-0.372 0.089,-0.588l0 -2.431 -0.567 0 0 0.214c-0.035,-0.003 -0.081,-0.07 -0.138,-0.111 -0.051,-0.037 -0.095,-0.061 -0.156,-0.092 -0.334,-0.168 -0.762,-0.096 -1.066,0.086 -0.328,0.196 -0.574,0.54 -0.64,0.935 -0.071,0.429 0.052,0.871 0.355,1.173 0.143,0.143 0.276,0.245 0.466,0.321 0.34,0.136 0.788,0.125 1.071,-0.127 0.02,-0.019 0.032,-0.025 0.052,-0.045 0.037,-0.039 0.019,-0.044 0.056,-0.047z"/>
   <path fill="black" d="M5.636 2.024c0.198,0 0.346,0.071 0.49,0.187 0.021,0.018 0.036,0.028 0.054,0.05 0.143,0.171 0.216,0.34 0.216,0.585 0,0.172 -0.047,0.322 -0.127,0.453 -0.051,0.084 -0.109,0.147 -0.187,0.206 -0.265,0.2 -0.62,0.199 -0.889,-0.002 -0.339,-0.253 -0.404,-0.756 -0.187,-1.122 0.125,-0.212 0.381,-0.357 0.63,-0.357zm-1.353 0.808c0,0.108 0.01,0.209 0.03,0.301 0.018,0.082 0.044,0.179 0.08,0.252 0.019,0.039 0.031,0.074 0.054,0.111 0.067,0.11 0.15,0.239 0.248,0.326 0.019,0.016 0.027,0.019 0.045,0.038 0.071,0.07 0.163,0.118 0.246,0.168 0.019,0.012 0.033,0.02 0.054,0.029 0.267,0.113 0.375,0.129 0.666,0.129 0.328,0 0.676,-0.169 0.892,-0.385 0.095,-0.095 0.142,-0.154 0.21,-0.267 0.101,-0.169 0.182,-0.421 0.182,-0.619 0,-0.186 0.006,-0.239 -0.041,-0.428 -0.04,-0.16 -0.111,-0.314 -0.206,-0.443 -0.092,-0.125 -0.2,-0.233 -0.33,-0.32 -0.39,-0.259 -0.922,-0.311 -1.348,-0.112 -0.142,0.066 -0.192,0.103 -0.306,0.191 -0.018,0.014 -0.025,0.024 -0.043,0.039 -0.109,0.092 -0.19,0.204 -0.261,0.327 -0.104,0.18 -0.172,0.416 -0.172,0.663z"/>
   <path fill="black" d="M8.593 3.654c-0.14,0 -0.214,-0.027 -0.322,-0.072 -0.084,-0.035 -0.153,-0.096 -0.215,-0.158 -0.126,-0.124 -0.223,-0.34 -0.223,-0.53 0,-0.184 -0.001,-0.238 0.07,-0.413 0.13,-0.32 0.501,-0.523 0.854,-0.435 0.145,0.036 0.268,0.105 0.37,0.211 0.012,0.013 0.011,0.013 0.021,0.026 0.141,0.18 0.198,0.327 0.198,0.584 0,0.169 -0.053,0.31 -0.132,0.441 -0.114,0.192 -0.361,0.346 -0.621,0.346zm-1.361 -0.808c0,0.203 0.049,0.4 0.113,0.543 0.039,0.086 0.067,0.137 0.115,0.21 0.024,0.035 0.043,0.062 0.07,0.096 0.058,0.073 0.092,0.101 0.16,0.165 0.074,0.069 0.213,0.155 0.301,0.196 0.513,0.24 1.152,0.15 1.553,-0.252 0.115,-0.114 0.194,-0.216 0.267,-0.369 0.115,-0.239 0.129,-0.402 0.129,-0.665 0,-0.312 -0.137,-0.593 -0.317,-0.816 -0.102,-0.127 -0.314,-0.282 -0.47,-0.346 -0.203,-0.083 -0.337,-0.116 -0.595,-0.116 -0.352,0 -0.706,0.157 -0.944,0.395l-0.078 0.088c-0.198,0.257 -0.304,0.515 -0.304,0.871z"/>
   <path fill="black" d="M14.644 2.798c0,-0.205 0.054,-0.399 0.188,-0.538l0.045 -0.045c0.019,-0.018 0.025,-0.025 0.047,-0.042 0.02,-0.016 0.031,-0.025 0.051,-0.039 0.225,-0.148 0.536,-0.167 0.749,0.005 0.023,0.019 0.03,0.022 0.05,0.047 0.016,0.02 0.025,0.029 0.039,0.05 0.013,0.022 0.021,0.043 0.033,0.064l-0.602 0.248c-0.05,0.02 -0.097,0.038 -0.147,0.061l-0.453 0.189zm0.704 1.388c0.308,0 0.513,-0.051 0.739,-0.187 0.101,-0.06 0.269,-0.198 0.339,-0.29 0.021,-0.027 0.081,-0.092 0.09,-0.124 -0.095,-0.05 -0.368,-0.254 -0.463,-0.304 -0.025,0.048 -0.052,0.072 -0.081,0.106 -0.145,0.171 -0.33,0.267 -0.582,0.267 -0.321,0 -0.515,-0.153 -0.649,-0.407l0.564 -0.231c0.312,-0.14 0.691,-0.277 1.011,-0.419l0.227 -0.09c-0.015,-0.068 -0.135,-0.326 -0.167,-0.378l-0.108 -0.161c-0.043,-0.058 -0.08,-0.096 -0.13,-0.146 -0.076,-0.076 -0.14,-0.124 -0.23,-0.178 -0.345,-0.206 -0.797,-0.196 -1.147,-0.021 -0.071,0.036 -0.138,0.074 -0.201,0.124 -0.065,0.051 -0.156,0.134 -0.206,0.201 -0.013,0.016 -0.022,0.03 -0.036,0.047 -0.025,0.03 -0.046,0.065 -0.067,0.099 -0.02,0.034 -0.038,0.067 -0.056,0.103 -0.069,0.136 -0.13,0.359 -0.138,0.518 -0.008,0.147 -0.001,0.304 0.031,0.444 0.02,0.086 0.047,0.173 0.082,0.244 0.009,0.02 0.013,0.033 0.022,0.053l0.093 0.157c0.228,0.344 0.645,0.573 1.063,0.573z"/>
   <path fill="black" d="M13.173 4.089c0,0.016 0.004,0.021 0.02,0.021l0.56 0c0.016,0 0.021,-0.005 0.021,-0.021l0 -3.944 -0.601 0 0 3.944z"/>
   <path fill="black" d="M8.786 6.804c-0.206,0 -0.345,-0.173 -0.345,-0.352 0,-0.132 0.006,-0.206 0.088,-0.307 0.143,-0.178 0.466,-0.165 0.569,0.119 0.086,0.237 -0.047,0.54 -0.312,0.54zm-0.345 -0.781c0,-0.189 0.043,-0.152 -0.2,-0.152l0 1.561 0.207 0 0 -0.421c0,-0.076 -0.007,-0.125 -0.007,-0.2 0.011,0.008 0.045,0.049 0.06,0.064 0.156,0.157 0.469,0.152 0.626,0 0.081,-0.079 0.115,-0.116 0.162,-0.232 0.058,-0.144 0.054,-0.31 0.001,-0.453 -0.093,-0.248 -0.345,-0.407 -0.599,-0.338 -0.028,0.007 -0.074,0.024 -0.1,0.038 -0.027,0.014 -0.06,0.038 -0.082,0.056 -0.013,0.011 -0.024,0.022 -0.035,0.035l-0.033 0.042z"/>
   <path fill="black" d="M3.323 6.956l0.925 0 0 -0.194 -0.718 0 0 -0.497 0.649 0 0 -0.193 -0.649 0 0 -0.498 0.718 0 0 -0.2 -0.925 0 0 1.582z"/>
   <path fill="black" d="M7.522 6.03l0.076 0c0.135,0 0.267,0.124 0.27,0.256l-0.622 0c0.03,-0.128 0.138,-0.256 0.276,-0.256zm-0.497 0.387c0,0.143 0.039,0.25 0.112,0.358 0.079,0.118 0.25,0.215 0.392,0.215 0.143,0 0.242,0 0.368,-0.094 0.055,-0.041 0.14,-0.129 0.157,-0.203l-0.186 -0.076c-0.013,0.056 -0.06,0.104 -0.103,0.133 -0.172,0.116 -0.457,0.047 -0.519,-0.215 -0.006,-0.024 -0.005,-0.058 -0.014,-0.077l0.767 0.001c0.098,0 0.09,0.014 0.09,-0.076 0,-0.319 -0.216,-0.546 -0.532,-0.546 -0.312,0 -0.532,0.266 -0.532,0.58z"/>
   <path fill="black" d="M10.375 6.286c0.005,-0.065 0.054,-0.134 0.091,-0.171 0.085,-0.085 0.149,-0.085 0.254,-0.085 0.106,0 0.217,0.08 0.255,0.174 0.006,0.015 0.014,0.036 0.017,0.054 0.005,0.03 0.002,0.028 -0.036,0.028 -0.193,0.003 -0.388,0 -0.581,0zm-0.221 0.09c0,0.154 0.019,0.292 0.119,0.412 0.093,0.112 0.233,0.202 0.385,0.202 0.142,0 0.246,-0.004 0.363,-0.092 0.037,-0.028 0.065,-0.052 0.092,-0.088 0.045,-0.06 0.038,-0.055 0.07,-0.117l-0.186 -0.076c-0.062,0.117 -0.128,0.187 -0.297,0.187 -0.187,0 -0.339,-0.16 -0.339,-0.346l0.836 0c0.016,0 0.021,-0.004 0.021,-0.02 0,-0.561 -0.471,-0.694 -0.758,-0.551 -0.045,0.023 -0.121,0.073 -0.151,0.112l-0.057 0.074c-0.019,0.029 -0.032,0.049 -0.047,0.084 -0.024,0.059 -0.051,0.139 -0.051,0.219z"/>
   <path fill="black" d="M12.986 6.03c0.104,0 0.17,0.001 0.256,0.076 0.059,0.053 0.072,0.105 0.089,0.18l-0.621 0c0.005,-0.064 0.054,-0.135 0.091,-0.171 0.04,-0.04 0.109,-0.085 0.185,-0.085zm-0.497 0.346c0,0.121 0,0.172 0.045,0.286 0.022,0.056 0.061,0.117 0.101,0.161 0.042,0.044 0.095,0.085 0.151,0.112 0.211,0.104 0.518,0.068 0.662,-0.125 0.045,-0.06 0.037,-0.055 0.07,-0.117 -0.031,-0.007 -0.062,-0.025 -0.094,-0.037 -0.032,-0.013 -0.064,-0.025 -0.093,-0.039 -0.029,0.062 -0.041,0.087 -0.102,0.133 -0.186,0.137 -0.533,0.009 -0.533,-0.292l0.836 0c0.016,0 0.02,-0.004 0.02,-0.02 0,-0.628 -0.572,-0.705 -0.839,-0.502 -0.13,0.099 -0.224,0.275 -0.224,0.44z"/>
   <path fill="black" d="M1.368 6.804c-0.318,0 -0.448,-0.417 -0.258,-0.651 0.028,-0.034 0.055,-0.057 0.093,-0.08 0.182,-0.11 0.44,-0.01 0.5,0.202 0.01,0.034 0.028,0.12 0.022,0.161 -0.008,0.064 -0.012,0.094 -0.032,0.148 -0.047,0.132 -0.182,0.22 -0.325,0.22zm-0.553 -0.401c0,0.33 0.234,0.587 0.518,0.587 0.115,0 0.198,-0.001 0.302,-0.057 0.363,-0.195 0.375,-0.695 0.142,-0.925 -0.116,-0.115 -0.226,-0.171 -0.409,-0.171 -0.084,0 -0.171,0.022 -0.228,0.048 -0.092,0.041 -0.174,0.109 -0.228,0.194 -0.058,0.091 -0.097,0.205 -0.097,0.324z"/>
   <path fill="black" d="M13.698 5.892l0 0.56c0,0.157 0.014,0.28 0.078,0.377 0.146,0.219 0.494,0.213 0.659,0.014 0.012,-0.015 0.014,-0.022 0.029,-0.032l0 0.145 0.201 0 0 -1.064c0,-0.016 -0.005,-0.021 -0.021,-0.021l-0.187 0 0 0.574c0,0.129 -0.053,0.268 -0.154,0.322 -0.12,0.066 -0.28,0.046 -0.35,-0.067 -0.04,-0.064 -0.048,-0.165 -0.048,-0.269l0 -0.56 -0.187 0c-0.016,0 -0.02,0.005 -0.02,0.021z"/>
   <path fill="black" d="M11.57 6.023c0,-0.188 0.068,-0.152 -0.193,-0.152l0 1.085 0.207 0 0 -0.615c0,-0.145 0.116,-0.311 0.249,-0.311 0.086,0 0.179,-0.001 0.239,0.079 0.035,0.048 0.058,0.117 0.058,0.198l0 0.649 0.207 0 0 -0.677c0,-0.509 -0.544,-0.539 -0.734,-0.291 -0.008,0.01 -0.004,0.01 -0.014,0.02 -0.009,0.012 -0.003,0.01 -0.019,0.015z"/>
   <path fill="black" d="M4.649 6.023l0 -0.152 -0.194 0 0 1.085 0.208 0 0 -0.622c0,-0.146 0.121,-0.304 0.248,-0.304 0.097,0 0.177,-0.003 0.244,0.088 0.038,0.051 0.053,0.125 0.053,0.209l0 0.629 0.207 0 0 -0.67c0,-0.483 -0.497,-0.57 -0.733,-0.299 -0.014,0.016 -0.017,0.025 -0.033,0.036z"/>
   <path fill="black" d="M15.618 6.148c0,0.177 0.126,0.267 0.28,0.313 0.101,0.03 0.254,0.046 0.328,0.101 0.072,0.053 0.064,0.175 -0.042,0.221 -0.101,0.042 -0.247,0.032 -0.33,-0.05 -0.048,-0.048 -0.059,-0.068 -0.091,-0.129l-0.18 0.076c0.035,0.148 0.244,0.31 0.429,0.31l0.075 0c0.199,0 0.394,-0.134 0.394,-0.331 0,-0.427 -0.606,-0.284 -0.65,-0.476 -0.047,-0.201 0.405,-0.213 0.45,-0.022 0.031,0 0.155,-0.053 0.186,-0.069 -0.043,-0.081 -0.069,-0.132 -0.154,-0.183 -0.284,-0.171 -0.695,-0.013 -0.695,0.239z"/>
   <path fill="black" d="M0.276 5.692l0 0.179 -0.207 0 0 0.173c0,0.016 0.005,0.021 0.021,0.021l0.186 0 0 0.891 0.208 0 0 -0.891 0.262 0c0.036,0 0.021,-0.073 0.021,-0.173 0,-0.016 -0.005,-0.021 -0.021,-0.021l-0.262 0c0,-0.146 -0.03,-0.317 0.186,-0.317 0.041,0 0.052,0.013 0.09,0.013 0.002,-0.023 0.021,-0.063 0.03,-0.086 0.011,-0.026 0.03,-0.058 0.032,-0.086 -0.114,-0.061 -0.408,-0.042 -0.509,0.161 -0.015,0.031 -0.037,0.093 -0.037,0.136z"/>
   <path fill="black" d="M5.712 5.871l-0.186 0 0 0.194 0.186 0 0 0.573c0,0.225 0.141,0.339 0.367,0.339 0.067,0 0.1,-0.016 0.152,-0.028 -0.013,-0.027 -0.024,-0.06 -0.036,-0.089 -0.011,-0.027 -0.026,-0.059 -0.034,-0.091 -0.068,0.016 -0.169,0.038 -0.215,-0.039 -0.017,-0.028 -0.026,-0.07 -0.026,-0.113l0 -0.552 0.262 0 0 -0.194 -0.262 0 0 -0.331 -0.208 0 0 0.331z"/>
   <path fill="black" d="M9.677 6.051l0 -0.18 -0.2 0 0 1.085 0.207 0 0 -0.587c0,-0.131 0.056,-0.236 0.161,-0.288 0.105,-0.053 0.156,-0.023 0.233,-0.016 0.004,-0.047 0.065,-0.143 0.069,-0.194 -0.11,-0.025 -0.161,-0.047 -0.289,0.008 -0.037,0.016 -0.075,0.042 -0.103,0.07 -0.016,0.017 -0.03,0.028 -0.043,0.046l-0.035 0.056z"/>
   <path fill="black" d="M2.293 6.044c0,-0.214 0.044,-0.173 -0.2,-0.173l0 1.085 0.207 0 0 -0.629c0,-0.074 0.042,-0.149 0.081,-0.188 0.027,-0.027 0.045,-0.043 0.078,-0.06 0.096,-0.05 0.161,-0.02 0.228,-0.014 0.014,-0.028 0.025,-0.062 0.037,-0.094 0.013,-0.03 0.032,-0.071 0.039,-0.1 -0.079,-0.018 -0.037,-0.019 -0.147,-0.025 -0.094,-0.006 -0.225,0.06 -0.287,0.144l-0.036 0.054z"/>
   <path fill="black" d="M6.548 6.051l0 -0.18 -0.193 0 0 1.085 0.207 0 0 -0.629c0,-0.074 0.042,-0.149 0.081,-0.188 0.025,-0.025 0.045,-0.045 0.078,-0.061 0.105,-0.048 0.152,-0.02 0.228,-0.013 0.009,-0.041 0.065,-0.145 0.076,-0.194 -0.023,-0.005 -0.039,-0.013 -0.065,-0.018 -0.29,-0.051 -0.397,0.187 -0.412,0.198z"/>
   <path fill="black" d="M15.079 6.051l0 -0.18 -0.193 0 0 1.085 0.207 0 0 -0.629c0,-0.139 0.12,-0.276 0.29,-0.276 0.044,0 0.061,0.011 0.097,0.014 0.009,-0.041 0.064,-0.145 0.076,-0.194 -0.102,-0.023 -0.171,-0.046 -0.29,0.007 -0.056,0.025 -0.119,0.068 -0.151,0.119 -0.015,0.022 -0.017,0.04 -0.036,0.054z"/>
  </g>
 </g>
</svg>
