<?xml version="1.0" encoding="UTF-8"?>
<!DOCTYPE svg PUBLIC "-//W3C//DTD SVG 1.1//EN" "http://www.w3.org/Graphics/SVG/1.1/DTD/svg11.dtd">
<!-- Creator: CorelDRAW -->
<svg xmlns="http://www.w3.org/2000/svg" xml:space="preserve" width="192px" height="51px" version="1.1" shape-rendering="geometricPrecision" text-rendering="geometricPrecision" image-rendering="optimizeQuality" fill-rule="evenodd" clip-rule="evenodd"
viewBox="0 0 59.36 15.829"
 xmlns:xlink="http://www.w3.org/1999/xlink"
 xmlns:xodm="http://www.corel.com/coreldraw/odm/2003">
 <g id="Capa_x0020_1">
  <metadata id="CorelCorpID_0Corel-Layer"/>
  <g id="_1791241253056">
   <path fill="none" d="M0 0l59.36 0 0 15.829 -59.36 0 0 -15.829z"/>
   <path fill="black" fill-rule="nonzero" d="M3.957 9.721l0 -0.564 1.976 0 0 0.717c0,0.003 0,0.007 0,0.011 0,0.364 0.295,0.66 0.66,0.66 0.026,0 0.053,-0.002 0.079,-0.005 0.029,0.004 0.058,0.006 0.086,0.006 0.302,0 0.563,-0.21 0.628,-0.504 0.025,-0.083 0.037,-0.169 0.037,-0.255 0,-0.101 -0.017,-0.201 -0.049,-0.296 -0.383,-0.961 -2.996,-1.397 -3.328,-2.896 -0.036,-0.174 -0.054,-0.353 -0.054,-0.531 0,-0.157 0.015,-0.314 0.042,-0.468 0.204,-1.203 1.261,-1.639 2.574,-1.639 1.045,0 2.486,0.244 2.486,1.857l0 0.526 -1.835 0 0 -0.461c0.001,-0.013 0.001,-0.026 0.001,-0.039 0,-0.348 -0.282,-0.63 -0.631,-0.63 -0.02,0 -0.039,0.001 -0.059,0.002 -0.022,-0.002 -0.045,-0.003 -0.068,-0.003 -0.297,0 -0.552,0.211 -0.607,0.503 -0.008,0.053 -0.013,0.106 -0.013,0.159 0,0.076 0.009,0.152 0.026,0.225 0.216,0.858 3.008,1.319 3.314,2.869 0.04,0.212 0.061,0.428 0.061,0.643 0,0.192 -0.017,0.385 -0.048,0.574 -0.179,1.229 -1.275,1.69 -2.601,1.69 -1.39,0 -2.677,-0.5 -2.677,-2.151zm23.938 -0.026l0 -0.564 1.951 0 0 0.705c-0.001,0.007 -0.001,0.014 -0.001,0.021 0,0.359 0.291,0.649 0.649,0.649 0.026,0 0.051,-0.001 0.076,-0.004 0.031,0.004 0.063,0.007 0.094,0.007 0.297,0 0.554,-0.205 0.62,-0.494 0.024,-0.081 0.037,-0.166 0.037,-0.25 0,-0.098 -0.017,-0.196 -0.049,-0.288 -0.37,-0.947 -2.958,-1.385 -3.289,-2.882 -0.036,-0.172 -0.054,-0.349 -0.054,-0.526 0,-0.154 0.014,-0.308 0.041,-0.46 0.205,-1.191 1.265,-1.626 2.551,-1.626 1.033,0 2.46,0.256 2.46,1.844l0 0.513 -1.822 0 0 -0.449c0,-0.013 0.001,-0.027 0.001,-0.04 0,-0.346 -0.281,-0.627 -0.627,-0.627 -0.017,0 -0.033,0 -0.05,0.002 -0.026,-0.004 -0.052,-0.006 -0.078,-0.006 -0.288,0 -0.535,0.208 -0.585,0.492 -0.008,0.053 -0.013,0.107 -0.013,0.161 0,0.075 0.009,0.151 0.026,0.224 0.204,0.857 2.968,1.306 3.276,2.843 0.04,0.209 0.061,0.422 0.061,0.636 0,0.19 -0.016,0.38 -0.049,0.568 -0.178,1.229 -1.261,1.677 -2.572,1.677 -1.378,0.001 -2.654,-0.5 -2.654,-2.125l0 -0.001zm6.985 0.27c-0.011,-0.105 -0.017,-0.211 -0.017,-0.317 0,-0.057 0.002,-0.114 0.005,-0.17l0 -5.303 1.861 0 0 5.468c0,0.017 -0.001,0.035 -0.001,0.053 0,0.076 0.005,0.153 0.013,0.23 0.086,0.316 0.373,0.537 0.702,0.537 0.328,0 0.615,-0.221 0.701,-0.537 0.009,-0.077 0.013,-0.154 0.013,-0.231 0,-0.017 0,-0.035 -0.001,-0.052l0.001 -5.468 1.861 0 0 5.302c0,0.141 -0.012,0.41 -0.012,0.487 -0.128,1.385 -1.211,1.83 -2.562,1.83 -1.351,0 -2.436,-0.447 -2.564,-1.83l0 0.001zm15.322 -0.077c-0.017,-0.148 -0.026,-0.298 -0.026,-0.447 0,-0.014 0,-0.029 0,-0.043l0 -3.11c0,-0.128 0.012,-0.359 0.025,-0.487 0.166,-1.383 1.275,-1.818 2.588,-1.818 1.3,0 2.447,0.435 2.575,1.818 0.011,0.111 0.016,0.223 0.016,0.334 0,0.051 -0.001,0.103 -0.003,0.154l0 0.24 -1.861 0.001 0 -0.408c0,-0.002 0,-0.003 0,-0.005 0,-0.093 -0.009,-0.186 -0.025,-0.277 -0.101,-0.32 -0.398,-0.539 -0.734,-0.539 -0.335,0 -0.632,0.219 -0.733,0.539 -0.017,0.093 -0.026,0.189 -0.026,0.283 0,0.021 0,0.043 0.001,0.063l0 3.381c0,0.015 0,0.031 0,0.047 0,0.078 0.004,0.157 0.013,0.235 0.084,0.319 0.374,0.543 0.704,0.543 0.025,0 0.049,-0.002 0.073,-0.004 0.025,0.002 0.049,0.004 0.074,0.004 0.325,0 0.606,-0.225 0.678,-0.542 0.012,-0.061 0.017,-0.125 0.017,-0.187 0,-0.032 -0.001,-0.064 -0.004,-0.095l0 -1.077 -0.752 0 0 -1.076 2.601 0 0 1.984c-0.001,0.013 0,0.029 0,0.043 0,0.148 -0.009,0.297 -0.026,0.444 -0.127,1.344 -1.286,1.818 -2.588,1.818 -1.301,0 -2.46,-0.472 -2.587,-1.817l0 0.001zm-25.939 1.676l-0.05 -6.839 -1.276 6.839 -1.861 0 -1.262 -6.839 -0.05 6.839 -1.836 0 0.153 -7.376 2.995 0 0.931 5.763 0.93 -5.763 2.995 0 0.166 7.376 -1.835 0zm-9.79 0l-0.994 -6.839 -1.02 6.839 -1.988 0 1.351 -7.376 3.277 0 1.351 7.376 -1.977 0zm31.153 -0.076l-1.848 -6.135 0.102 6.134 -1.811 0 0 -7.299 2.728 0 1.731 5.942 -0.099 -5.942 1.823 0 0 7.3 -2.626 0z"/>
  </g>
 </g>
</svg>
