<?xml version="1.0" encoding="UTF-8"?>
<!DOCTYPE svg PUBLIC "-//W3C//DTD SVG 1.1//EN" "http://www.w3.org/Graphics/SVG/1.1/DTD/svg11.dtd">
<!-- Creator: CorelDRAW -->
<svg xmlns="http://www.w3.org/2000/svg" xml:space="preserve" width="233px" height="50px" version="1.1" shape-rendering="geometricPrecision" text-rendering="geometricPrecision" image-rendering="optimizeQuality" fill-rule="evenodd" clip-rule="evenodd"
viewBox="0 0 38.525 8.296"
 xmlns:xlink="http://www.w3.org/1999/xlink"
 xmlns:xodm="http://www.corel.com/coreldraw/odm/2003">
 <g id="Capa_x0020_1">
  <metadata id="CorelCorpID_0Corel-Layer"/>
  <path fill="#0E1B24" d="M1.608 2.696c0.196,-0.078 0.404,-0.19 0.589,-0.265 0.26,-0.104 0.18,-0.117 0.378,-0.525 0.089,-0.184 0.473,-1.109 0.578,-1.193 0.15,0.176 0.599,1.389 0.763,1.602 0.169,0.222 1.371,0.564 1.621,0.805 -0.086,0.097 -1.241,0.598 -1.466,0.697 -0.222,0.098 -0.274,0.325 -0.422,0.654 -0.059,0.133 -0.309,0.623 -0.338,0.758 -0.014,0.052 -0.046,0.156 -0.062,0.19 -0.08,0.172 0.015,0.072 -0.133,0.108l-0.052 -0.113c-0.211,-0.435 -0.409,-0.948 -0.639,-1.413 -0.083,-0.166 -0.124,-0.145 -0.297,-0.227 -0.138,-0.064 -0.238,-0.099 -0.366,-0.16 -0.156,-0.075 -0.632,-0.307 -0.728,-0.315 -0.041,-0.013 -0.127,-0.038 -0.164,-0.053 -0.189,-0.08 -0.091,-0.049 -0.14,-0.126 0.08,-0.118 0.141,-0.126 0.39,-0.235 0.145,-0.064 0.316,-0.143 0.488,-0.189zm27.48 0.013c0.123,0.414 0.851,0.273 0.692,-0.256 -0.114,-0.381 -0.846,-0.257 -0.692,0.256zm0.096 0.814c-0.054,0.273 -0.012,1.985 -0.017,2.508 -0.001,0.173 -0.04,0.24 0.136,0.253 0.468,0.037 0.399,-0.036 0.398,-0.366 -0.002,-0.505 0.029,-2.148 -0.015,-2.4l-0.502 0.005zm-8.883 -1.252l-0.451 0.015c-0.051,0.141 -0.051,3.615 -0.018,3.965l0.472 0.006 -0.003 -3.986zm-11.379 3.483l-0.015 -3.433 -0.474 -0.024 -0.001 3.949 2.197 0.003 -0.018 -0.424 -1.602 -0.007c-0.109,-0.036 -0.029,0.001 -0.087,-0.064zm7.14 -0.358c-0.363,0.666 -1.229,0.653 -1.528,-0.006 -0.509,-1.123 0.834,-2.102 1.49,-1.002 0.17,0.017 0.317,-0.086 0.464,-0.132 -0.119,-1.089 -2.585,-1.254 -2.59,0.654 -0.006,1.826 2.376,1.776 2.619,0.661 -0.108,-0.055 -0.306,-0.16 -0.455,-0.175zm20.828 -1.008c-0.081,-0.369 0.185,-0.472 0.511,-0.47 0.355,0.001 0.475,0.125 0.618,0.347l0.408 -0.156c-0.023,-0.565 -0.902,-0.785 -1.455,-0.601 -0.725,0.242 -0.823,0.886 -0.427,1.25 0.468,0.429 1.372,0.264 1.426,0.713 0.042,0.352 -0.364,0.459 -0.681,0.413 -0.326,-0.048 -0.421,-0.25 -0.598,-0.461 -0.156,0.008 -0.31,0.095 -0.431,0.139 0.064,0.416 0.524,0.718 0.926,0.788 1.226,0.216 1.797,-1.054 0.901,-1.531 -0.389,-0.206 -0.92,-0.154 -1.198,-0.431zm-8.942 1.671l0.073 -0.13c0.104,0.098 0.025,0.171 0.088,0.326l0.414 0.006c0.048,-0.117 0.056,-2.518 0.009,-2.702l-0.444 -0.016c-0.074,0.24 -0.006,1.17 -0.029,1.555 -0.01,0.153 -0.039,0.314 -0.147,0.385 -0.048,0.419 -1.003,0.638 -1.211,-0.023 -0.08,-0.253 -0.043,-0.668 -0.043,-0.96 0,-0.583 0.087,-0.945 -0.149,-0.972 -0.492,-0.056 -0.377,0.09 -0.377,0.636 0,0.212 -0.001,0.423 0,0.635 0.002,0.677 -0.011,1.475 0.936,1.565 0.523,0.049 0.744,-0.254 0.88,-0.305zm-16.611 -0.887c-0.278,-1.33 1.422,-1.741 1.741,-0.535 0.149,0.563 -0.182,1.055 -0.592,1.208 -0.555,0.207 -1.061,-0.251 -1.149,-0.673zm-0.528 0c0.33,1.815 3.057,1.506 2.791,-0.52 -0.094,-0.716 -0.79,-1.393 -1.674,-1.186 -0.857,0.2 -1.252,0.965 -1.117,1.706zm23.091 -0.602c-0.006,-0.36 0.39,-0.657 0.778,-0.654 0.369,0.002 0.769,0.285 0.763,0.654l-1.541 0zm1.538 0.88c-0.376,0.693 -1.307,0.507 -1.555,-0.147 -0.106,-0.279 -0.083,-0.311 0.196,-0.308l1.906 -0.008c0.102,-0.768 -0.411,-1.461 -1.082,-1.532 -1.792,-0.19 -2.13,2.195 -0.757,2.806 0.744,0.331 1.693,-0.129 1.733,-0.642 -0.109,-0.09 -0.287,-0.149 -0.441,-0.169zm-16.687 -0.359c0,0.692 -0.934,1.066 -1.321,0.579 -0.236,-0.297 0.1,-0.621 0.335,-0.699 0.346,-0.115 0.754,-0.019 0.986,0.12zm-1.384 -0.804c0.059,-0.044 0.006,0.013 0.089,-0.075 0.027,-0.03 0.032,-0.047 0.064,-0.08 0.283,-0.301 1.203,-0.387 1.219,0.47 -0.572,-0.088 -0.823,-0.224 -1.388,0.029 -0.764,0.342 -0.76,1.503 0.261,1.715 0.684,0.142 0.947,-0.308 1.142,-0.366l0.004 0.274 0.504 -0.005c0.018,-0.473 0.003,-0.974 0.003,-1.45 0.001,-0.502 -0.053,-0.767 -0.358,-1.056 -0.568,-0.538 -1.811,-0.303 -1.957,0.347 0.082,0.081 0.284,0.169 0.417,0.197zm13.966 -0.343c1.145,-0.281 1.454,1.661 0.387,1.922 -1.162,0.284 -1.526,-1.644 -0.387,-1.922zm1.043 -0.2c-0.021,0.138 -0.001,0.054 -0.048,0.118 -0.717,-0.906 -2.124,-0.25 -2.201,0.86 -0.045,0.649 0.192,1.101 0.552,1.386 0.684,0.541 1.441,0.041 1.497,0.033 0.046,-0.087 0.078,-0.193 0.21,-0.208l0.015 0.325 0.452 -0.001c0.038,-0.368 0.044,-3.809 -0.019,-3.975l-0.424 0.022c-0.026,0.039 -0.02,-0.002 -0.034,0.072l0 1.368zm-8.667 2.112c-1.137,0 -1.884,-1.163 -1.433,-2.235 0.4,-0.949 1.654,-1.237 2.39,-0.601 0.291,0.252 0.464,-0.25 0.457,-0.273 -0.074,-0.239 -1.315,-0.91 -2.34,-0.363 -1.394,0.742 -1.491,2.482 -0.538,3.394 1.317,1.261 3.771,0.364 3.4,-1.647l-1.712 -0.006c-0.188,0 -0.214,-0.005 -0.229,0.149l0.002 0.226c0.015,0.117 0.015,0.052 0.03,0.083 0.074,0.074 1.124,0.004 1.412,0.045 0.03,0.644 -0.588,1.228 -1.439,1.228zm-20.652 2.44l0.189 -0.003c0.021,-0.035 0.35,-0.362 0.427,-0.436l0.843 -0.951c1.105,-1.421 2.387,-3.265 1.444,-5.174 -0.146,-0.294 -0.594,-0.863 -0.806,-1.021 -2.652,-1.981 -5.834,0.523 -5.026,3.308 0.462,1.596 1.975,3.394 2.929,4.277z"/>
 </g>
</svg>
