<?xml version="1.0" encoding="UTF-8"?>
<!DOCTYPE svg PUBLIC "-//W3C//DTD SVG 1.1//EN" "http://www.w3.org/Graphics/SVG/1.1/DTD/svg11.dtd">
<!-- Creator: CorelDRAW -->
<svg xmlns="http://www.w3.org/2000/svg" xml:space="preserve" width="204px" height="86px" version="1.1" shape-rendering="geometricPrecision" text-rendering="geometricPrecision" image-rendering="optimizeQuality" fill-rule="evenodd" clip-rule="evenodd"
viewBox="0 0 19.367 8.199"
 xmlns:xlink="http://www.w3.org/1999/xlink"
 xmlns:xodm="http://www.corel.com/coreldraw/odm/2003">
 <g id="Capa_x0020_1">
  <metadata id="CorelCorpID_0Corel-Layer"/>
  <g id="_2625740558288">
   <path fill="#0E1B24" d="M3.992 2.895l0 2.834c0,0.07 0.01,0.081 0.082,0.081l1.387 0c0.505,0 0.881,-0.164 1.012,-0.551 0.138,-0.407 -0.001,-0.946 -0.408,-1.056 0.008,-0.007 0.01,-0.01 0.021,-0.018 0.006,-0.005 0.016,-0.012 0.021,-0.016 0.297,-0.211 0.35,-0.588 0.217,-0.889 -0.128,-0.29 -0.413,-0.461 -0.839,-0.461l-1.4 0c-0.075,0 -0.093,-0.001 -0.093,0.076zm0.5 2.464c0.088,0.041 1.035,0.025 1.181,-0.001 0.487,-0.089 0.395,-0.607 0.244,-0.761 -0.179,-0.183 -0.799,-0.129 -1.097,-0.129 -0.364,0 -0.337,-0.073 -0.337,0.281 0,0.145 -0.016,0.496 0.009,0.61zm0.013 -1.334c0.084,0.021 0.96,0.014 1.068,-0.005 0.432,-0.078 0.36,-0.554 0.203,-0.67 -0.206,-0.151 -0.695,-0.1 -0.991,-0.1 -0.31,0 -0.301,-0.062 -0.301,0.239 0,0.124 -0.021,0.457 0.021,0.536z"/>
   <path fill="#0E1B24" d="M9.368 3.859c0.061,-0.272 0.052,-0.493 -0.095,-0.694 -0.316,-0.434 -0.841,-0.341 -1.362,-0.341 -0.275,0 -0.568,-0.01 -0.84,0.001 -0.074,0.028 -0.047,0.172 -0.047,0.326l0 2.286c0,0.085 -0.023,0.306 0.024,0.362 0.062,0.031 0.979,0.012 1.131,0.012 0.359,0 0.71,0.007 0.989,-0.154 0.233,-0.135 0.383,-0.39 0.373,-0.769 -0.006,-0.235 -0.098,-0.452 -0.269,-0.579 -0.065,-0.049 -0.119,-0.065 -0.182,-0.108 0.027,-0.03 0.074,-0.039 0.169,-0.145 0.048,-0.054 0.074,-0.119 0.109,-0.197zm-1.822 -0.596c-0.059,0.031 -0.032,0.176 -0.032,0.238 0,0.631 -0.061,0.537 0.28,0.537 0.266,0 0.828,0.046 0.999,-0.098 0.183,-0.154 0.204,-0.583 -0.177,-0.667 -0.092,-0.02 -1.026,-0.034 -1.07,-0.01zm-0.032 1.299l0 0.723c0,0.08 0.014,0.093 0.093,0.093l0.805 0c0.363,0 0.636,-0.056 0.64,-0.442 0.005,-0.399 -0.257,-0.465 -0.628,-0.465l-0.817 0c-0.082,0 -0.093,0.009 -0.093,0.091z"/>
   <path fill="#0E1B24" d="M13.713 2.429c-0.002,0.027 -0.139,0.298 -0.174,0.328 -0.003,0.035 -0.349,0.68 -0.428,0.824l-0.033 0.053 -0.79 1.492c-0.03,0.053 -0.102,0.167 -0.097,0.229 0.059,0.023 0.413,0.012 0.514,0.013 0.064,-0.013 0.071,-0.074 0.105,-0.14l0.038 -0.051c0.003,-0.038 0.083,-0.179 0.107,-0.224 0.02,-0.038 0.037,-0.067 0.058,-0.105l0.068 -0.115c0.001,-0.047 0.15,-0.304 0.192,-0.383l0.038 -0.062c0.008,-0.051 0.071,-0.143 0.099,-0.198 0.032,-0.063 0.061,-0.159 0.115,-0.203 0.006,-0.049 0.079,-0.172 0.108,-0.226 0.067,-0.122 0.13,-0.338 0.227,-0.149 0.035,0.069 0.157,0.28 0.159,0.322l0.109 0.19c0.101,0.185 0.663,1.29 0.711,1.341l0.524 0.003c0.041,-0.062 -0.035,-0.158 -0.075,-0.229 -0.208,-0.374 -0.429,-0.829 -0.64,-1.203 -0.045,-0.079 -0.083,-0.155 -0.127,-0.234 -0.036,-0.067 -0.104,-0.183 -0.127,-0.254l-0.236 -0.437 -0.149 -0.282c-0.039,-0.051 -0.07,-0.128 -0.103,-0.186 -0.016,-0.03 -0.033,-0.059 -0.049,-0.09 -0.023,-0.044 -0.023,-0.063 -0.079,-0.071 -0.036,0.012 -0.008,0 -0.037,0.022 -0.018,0.014 -0.002,0.005 -0.028,0.025z"/>
   <path fill="#0E1B24" d="M10.234 4.157l0.796 1.484c0.08,0.145 0.056,0.17 0.149,0.168 0.042,-0.047 0.103,-0.17 0.135,-0.234 0.119,-0.243 0.261,-0.47 0.385,-0.723 0.048,-0.095 0.498,-0.942 0.515,-0.954 0.021,-0.065 0.43,-0.827 0.451,-0.85 0.026,-0.077 0.095,-0.139 0.08,-0.217 -0.08,-0.019 -0.259,-0.008 -0.356,-0.008 -0.247,0 -0.161,-0.041 -0.425,0.45 -0.026,0.048 -0.033,0.085 -0.069,0.115 -0.003,0.044 -0.303,0.599 -0.351,0.691 -0.059,0.117 -0.12,0.231 -0.181,0.343 -0.188,0.346 -0.181,0.499 -0.383,0.069 -0.045,-0.096 -0.104,-0.201 -0.152,-0.293 -0.102,-0.195 -0.201,-0.388 -0.305,-0.58l-0.306 -0.581c-0.114,-0.234 -0.096,-0.216 -0.23,-0.214 -0.103,0.001 -0.347,-0.013 -0.424,0.009 -0.015,0.072 0.032,0.114 0.064,0.177l0.607 1.148z"/>
  </g>
  <rect fill="none" width="19.367" height="8.199"/>
 </g>
</svg>
