<?xml version="1.0" encoding="UTF-8"?>
<!DOCTYPE svg PUBLIC "-//W3C//DTD SVG 1.1//EN" "http://www.w3.org/Graphics/SVG/1.1/DTD/svg11.dtd">
<!-- Creator: CorelDRAW -->
<svg xmlns="http://www.w3.org/2000/svg" xml:space="preserve" width="206px" height="50px" version="1.1" shape-rendering="geometricPrecision" text-rendering="geometricPrecision" image-rendering="optimizeQuality" fill-rule="evenodd" clip-rule="evenodd"
viewBox="0 0 29.269 7.026"
 xmlns:xlink="http://www.w3.org/1999/xlink"
 xmlns:xodm="http://www.corel.com/coreldraw/odm/2003">
 <g id="Capa_x0020_1">
  <metadata id="CorelCorpID_0Corel-Layer"/>
  <g id="_2661952885536">
   <path fill="#0E1B24" fill-rule="nonzero" d="M16.343 0c0.007,0.046 0.014,0.093 0.019,0.139 0.022,0.275 0.044,0.55 0.068,0.824 0.019,0.227 0.035,0.453 0.055,0.679 0.02,0.227 0.039,0.45 0.057,0.676 0.006,0.083 0.013,0.175 0.018,0.264 0.556,-0.042 0.969,0.167 1.215,0.678 0.085,-0.106 0.195,-0.188 0.319,-0.24 0.114,-0.058 0.241,-0.089 0.368,-0.089 0.325,0 0.618,0.194 0.744,0.493 0.098,0.193 0.155,0.405 0.167,0.622 0.013,0.294 0.007,0.584 0.011,0.883 0,0.031 0,0.062 0,0.096l-0.786 0 0 -0.05c0,-0.281 0,-0.56 0,-0.841 0,-0.004 0,-0.008 0,-0.013 0,-0.078 -0.019,-0.156 -0.056,-0.225 -0.046,-0.088 -0.137,-0.144 -0.236,-0.144 -0.001,0 -0.003,0 -0.004,0 -0.001,0 -0.002,0 -0.003,0 -0.101,0 -0.193,0.062 -0.231,0.156 -0.028,0.059 -0.043,0.123 -0.045,0.188 -0.006,0.356 0,0.711 0,1.067l0 0.059 -0.751 0c0,-0.053 -0.007,-0.106 -0.011,-0.157 -0.018,-0.315 -0.032,-0.631 -0.05,-0.946 0,-0.001 0,-0.003 0,-0.004 0,-0.085 -0.006,-0.17 -0.019,-0.253 -0.035,-0.181 -0.171,-0.325 -0.35,-0.37 -0.016,-0.006 -0.034,-0.009 -0.052,-0.009 -0.082,0 -0.148,0.066 -0.148,0.147 0,0.004 0,0.007 0,0.01 0,0.001 0,0.003 0,0.004 0,0.042 0.003,0.083 0.009,0.124 0.025,0.229 0.057,0.455 0.074,0.684 0.017,0.244 0.027,0.492 0.023,0.737 0,0.01 0,0.021 0,0.031 0,0.352 -0.048,0.703 -0.144,1.041 -0.048,0.178 -0.132,0.345 -0.244,0.492 -0.107,0.137 -0.259,0.232 -0.429,0.267 -0.006,0 -0.01,0.005 -0.016,0.006l-0.154 0c-0.129,-0.029 -0.248,-0.094 -0.341,-0.188 -0.126,-0.134 -0.219,-0.295 -0.273,-0.471 -0.065,-0.202 -0.106,-0.413 -0.119,-0.625 -0.009,-0.106 -0.014,-0.213 -0.014,-0.319 0,-0.106 0.005,-0.213 0.014,-0.319 0.055,-0.623 0.206,-1.22 0.532,-1.759 0.084,-0.124 0.175,-0.244 0.271,-0.358 0.017,-0.017 0.027,-0.04 0.027,-0.064 0,-0.004 -0.001,-0.008 -0.001,-0.011 -0.018,-0.194 -0.031,-0.388 -0.045,-0.585 -0.014,-0.166 -0.028,-0.327 -0.042,-0.492 -0.014,-0.164 -0.023,-0.311 -0.035,-0.467 -0.017,-0.2 -0.032,-0.402 -0.048,-0.603 -0.01,-0.107 -0.019,-0.215 -0.027,-0.323 -0.01,-0.137 -0.02,-0.274 -0.032,-0.417l0.269 -0.007 0.406 -0.015c0.012,-0.002 0.024,-0.003 0.036,-0.003 0.002,0 0.003,0 0.004,0zm-0.299 4.931c-0.008,-0.132 -0.011,-0.261 -0.027,-0.391 -0.011,-0.079 -0.03,-0.156 -0.058,-0.23 -0.014,-0.038 -0.049,-0.037 -0.07,0 -0.016,0.026 -0.029,0.054 -0.037,0.084 -0.049,0.169 -0.078,0.344 -0.084,0.52 -0.008,0.098 -0.012,0.197 -0.012,0.295 0,0.124 0.007,0.249 0.02,0.372 0.013,0.081 0.032,0.161 0.056,0.239 0.004,0.015 0.024,0.032 0.037,0.032 0.019,-0.002 0.035,-0.014 0.044,-0.03 0.019,-0.039 0.035,-0.08 0.047,-0.121 0.055,-0.243 0.084,-0.493 0.084,-0.743 0,-0.009 0,-0.018 0,-0.027l0 0z"/>
   <path fill="#0E1B24" fill-rule="nonzero" d="M0.015 2.364c0.018,-0.083 0.031,-0.173 0.056,-0.257 0.123,-0.421 0.427,-0.768 0.829,-0.945 0.247,-0.118 0.518,-0.18 0.791,-0.18 0.025,0 0.051,0.001 0.075,0.002 0.195,0.005 0.387,0.045 0.567,0.118 0.021,0.008 0.036,0.016 0.036,0.044 0,0.278 0,0.557 0,0.834 0,0.003 0,0.006 0,0.01 0,0.003 0,0.006 0,0.009l-0.042 -0.015c-0.173,-0.076 -0.359,-0.115 -0.548,-0.115 -0.009,0 -0.018,0 -0.026,0 -0.378,0.013 -0.711,0.221 -0.834,0.58 -0.031,0.094 -0.047,0.191 -0.047,0.289 0,0.099 0.016,0.196 0.046,0.29l0.04 -0.027c0.157,-0.119 0.347,-0.187 0.544,-0.195 0.005,0 0.01,0 0.015,0 0.217,0 0.422,0.101 0.555,0.273 0.122,0.142 0.19,0.324 0.19,0.512 0,0.004 0,0.009 0,0.013 0,0.004 0,0.008 0,0.011 0,0.258 -0.156,0.492 -0.395,0.59 -0.124,0.059 -0.26,0.091 -0.398,0.096 -0.083,0 -0.16,0 -0.25,0 0.053,0.099 0.139,0.176 0.242,0.22 0.093,0.037 0.193,0.056 0.294,0.056 0.057,0 0.113,-0.006 0.169,-0.018 0.207,-0.038 0.406,-0.116 0.584,-0.228 0.018,-0.008 0.029,-0.025 0.029,-0.044 0,-0.004 0,-0.009 -0.001,-0.013 -0.041,-0.241 -0.062,-0.487 -0.062,-0.732 0,-0.009 0,-0.018 0,-0.026 0,-0.017 -0.001,-0.035 -0.001,-0.052 0,-0.334 0.063,-0.665 0.185,-0.976 0.078,-0.206 0.21,-0.387 0.382,-0.524 0.105,-0.086 0.236,-0.132 0.372,-0.132 0.006,0 0.012,0 0.017,0 0.147,0.007 0.283,0.079 0.372,0.197 0.106,0.137 0.173,0.302 0.193,0.475 0.013,0.104 0.02,0.209 0.02,0.313 0,0.204 -0.026,0.408 -0.076,0.605 -0.075,0.323 -0.181,0.639 -0.317,0.941 -0.008,0.016 -0.017,0.033 -0.026,0.048 -0.011,0.013 -0.017,0.03 -0.017,0.047 0,0.033 0.022,0.063 0.053,0.072 0.036,0.015 0.073,0.024 0.111,0.026 0.015,0.001 0.03,0.002 0.045,0.002 0.165,0 0.326,-0.056 0.456,-0.158 0.004,-0.003 0.01,-0.005 0.015,-0.006 0,0.016 0,0.029 0,0.042 0,0.196 0,0.393 0,0.589 0,0.002 0.001,0.005 0.001,0.008 0,0.021 -0.012,0.041 -0.032,0.051 -0.346,0.209 -0.704,0.244 -1.072,0.063 -0.07,-0.039 -0.138,-0.084 -0.202,-0.132 -0.089,0.051 -0.182,0.106 -0.278,0.154 -0.229,0.115 -0.477,0.19 -0.732,0.219 -0.076,0.011 -0.154,0.016 -0.232,0.016 -0.222,0 -0.442,-0.043 -0.647,-0.128 -0.407,-0.16 -0.69,-0.535 -0.731,-0.971 -0.007,-0.066 -0.011,-0.133 -0.011,-0.199 0,-0.097 0.008,-0.193 0.024,-0.288 0.001,-0.005 0.001,-0.009 0.001,-0.013 0,-0.012 -0.003,-0.024 -0.008,-0.035 -0.138,-0.259 -0.239,-0.538 -0.299,-0.826 -0.026,-0.118 -0.04,-0.24 -0.04,-0.361 0,-0.073 0.005,-0.147 0.015,-0.219l0 0zm3.374 0.764c-0.006,-0.043 -0.014,-0.113 -0.028,-0.182 -0.008,-0.041 -0.02,-0.091 -0.071,-0.095 -0.051,-0.004 -0.072,0.041 -0.09,0.079 -0.075,0.161 -0.115,0.338 -0.115,0.516 0,0.066 0.006,0.132 0.016,0.198 0.006,0.032 0.018,0.063 0.034,0.091 0.007,0.022 0.028,0.037 0.051,0.037 0.019,0 0.036,-0.009 0.046,-0.024 0.021,-0.025 0.039,-0.053 0.053,-0.084 0.069,-0.166 0.105,-0.345 0.105,-0.526 0,-0.003 0,-0.007 0,-0.01l-0.001 0zm-1.986 0.647c0.097,-0.001 0.175,-0.079 0.177,-0.175 -0.002,-0.096 -0.08,-0.174 -0.177,-0.177 -0.092,0.007 -0.164,0.083 -0.164,0.176 0,0.092 0.072,0.169 0.164,0.176l0 0z"/>
   <path fill="#0E1B24" fill-rule="nonzero" d="M10.526 3.561c0.084,-0.182 0.334,-0.273 0.501,-0.25 0.02,0 0.035,0.005 0.035,0.031 0,0.225 0,0.449 0,0.676 -0.046,0.009 -0.09,0.016 -0.135,0.028 -0.149,0.027 -0.258,0.158 -0.258,0.311 0,0.007 0,0.015 0.001,0.023l0 0.708 -0.624 0 0 -0.045c0,-0.202 -0.004,-0.406 0,-0.608 0.004,-0.201 -0.126,-0.301 -0.293,-0.325 -0.038,-0.006 -0.078,-0.006 -0.119,-0.009 -0.007,0.048 -0.01,0.093 -0.02,0.137 -0.055,0.223 -0.184,0.42 -0.365,0.56 -0.203,0.174 -0.462,0.27 -0.73,0.273 -0.007,0 -0.014,0 -0.021,0 -0.218,0 -0.432,-0.06 -0.619,-0.172 -0.016,-0.013 -0.036,-0.019 -0.057,-0.019 -0.023,0 -0.046,0.008 -0.063,0.024 -0.304,0.199 -0.64,0.345 -0.993,0.43 -0.142,0.037 -0.288,0.056 -0.435,0.056 -0.256,0 -0.511,-0.058 -0.742,-0.169 -0.275,-0.139 -0.506,-0.352 -0.668,-0.614 -0.181,-0.289 -0.295,-0.614 -0.333,-0.953 -0.015,-0.108 -0.023,-0.218 -0.023,-0.328 0,-0.324 0.066,-0.645 0.195,-0.943 0.243,-0.586 0.76,-1.016 1.382,-1.149 0.211,-0.049 0.428,-0.074 0.646,-0.074 0.114,0 0.229,0.008 0.342,0.021l0.149 0.016 0 0.788c-0.065,-0.014 -0.13,-0.028 -0.194,-0.038 -0.122,-0.025 -0.247,-0.038 -0.372,-0.038 -0.163,0 -0.326,0.022 -0.483,0.065 -0.385,0.106 -0.687,0.404 -0.799,0.787 -0.056,0.164 -0.085,0.336 -0.085,0.51 0,0.311 0.093,0.615 0.268,0.872 0.145,0.233 0.384,0.391 0.654,0.433 0.047,0.005 0.094,0.009 0.141,0.009 0.153,0 0.304,-0.032 0.444,-0.093 0.18,-0.07 0.349,-0.168 0.5,-0.289 0.011,-0.011 0.017,-0.025 0.017,-0.04 0,-0.002 0,-0.003 0,-0.005 -0.01,-0.046 -0.014,-0.092 -0.014,-0.139 0,-0.136 0.04,-0.269 0.115,-0.381 0.101,-0.163 0.279,-0.261 0.47,-0.261 0.013,0 0.026,0 0.039,0.001 0.146,0.008 0.26,0.128 0.26,0.274 0,0.001 0,0.002 0,0.002 0,0.094 0,0.191 0.01,0.285 0.004,0.082 0.019,0.163 0.044,0.241 0.088,0.244 0.329,0.256 0.488,0.16 0.043,-0.028 0.08,-0.065 0.108,-0.107 0.018,-0.024 0.029,-0.053 0.029,-0.083 0,-0.063 -0.046,-0.118 -0.108,-0.129 -0.062,-0.021 -0.125,-0.035 -0.185,-0.06 -0.134,-0.051 -0.251,-0.141 -0.334,-0.257 -0.067,-0.102 -0.102,-0.221 -0.102,-0.342 0,-0.052 0.006,-0.103 0.019,-0.153 0.044,-0.22 0.173,-0.414 0.36,-0.539 0.103,-0.073 0.227,-0.112 0.353,-0.112 0.141,0 0.278,0.049 0.387,0.137 0.151,0.123 0.273,0.277 0.357,0.451 0.009,0.023 0.031,0.039 0.056,0.039 0.002,0 0.003,0 0.005,0 0.006,0 0.012,-0.001 0.019,-0.001 0.245,0 0.483,0.092 0.665,0.257 0.043,0.036 0.078,0.079 0.115,0.12zm-1.457 -0.25c0,-0.002 0,-0.003 0,-0.004 0,-0.068 -0.055,-0.122 -0.123,-0.122 0,0 -0.001,0 -0.002,0 -0.071,0 -0.128,0.057 -0.128,0.128 0,0.07 0.057,0.128 0.128,0.128 0,0 0.001,0 0.002,0 0.068,0 0.124,-0.056 0.124,-0.125 0,-0.002 0,-0.004 0,-0.006l-0.001 0.001z"/>
   <path fill="#0E1B24" fill-rule="nonzero" d="M11.277 4.035l0 -0.689 0.231 0c0.034,-0.518 0.066,-1.03 0.1,-1.549l0.681 0c-0.041,0.541 -0.083,1.085 -0.126,1.632 0.068,0 0.133,0 0.198,0 0.011,0 0.024,-0.019 0.031,-0.032 0.099,-0.203 0.228,-0.389 0.382,-0.553 0.164,-0.181 0.381,-0.306 0.619,-0.357 0.052,-0.011 0.104,-0.017 0.157,-0.017 0.34,0 0.636,0.235 0.712,0.566 0.009,0.048 0.014,0.097 0.014,0.146 0,0.16 -0.049,0.316 -0.141,0.447 -0.138,0.206 -0.325,0.376 -0.542,0.495 -0.095,0.057 -0.196,0.102 -0.294,0.153l-0.033 0.018c0.087,0.131 0.227,0.218 0.384,0.238 0.017,0.001 0.036,0.002 0.054,0.002 0.165,0 0.328,-0.048 0.467,-0.136 0.069,-0.039 0.135,-0.084 0.207,-0.128l0 0.045c0,0.231 0,0.461 0,0.691 0,0 0,0 0,0 0,0.033 -0.016,0.064 -0.042,0.084 -0.157,0.128 -0.348,0.208 -0.549,0.23 -0.061,0.009 -0.123,0.014 -0.185,0.014 -0.532,0 -1.004,-0.338 -1.177,-0.84 -0.024,-0.065 -0.056,-0.126 -0.095,-0.183 -0.023,-0.032 -0.056,-0.056 -0.094,-0.068 -0.01,-0.005 -0.021,-0.007 -0.032,-0.007 -0.046,0 -0.083,0.037 -0.083,0.084 0,0.002 0,0.004 0,0.006l0 0.839 -0.681 0.001 0 -1.116c-0.059,-0.009 -0.107,-0.013 -0.163,-0.016zm2.222 -0.758c0,-0.088 -0.048,-0.124 -0.128,-0.083 -0.042,0.021 -0.08,0.049 -0.112,0.083 -0.079,0.073 -0.126,0.174 -0.133,0.281 0,0.074 0.046,0.106 0.116,0.083 0.142,-0.069 0.24,-0.206 0.257,-0.364l0 0z"/>
   <path fill="#0E1B24" fill-rule="nonzero" d="M25.706 4.18c0.058,-0.022 0.114,-0.042 0.167,-0.064 0.222,-0.104 0.438,-0.226 0.644,-0.361 0.344,-0.214 0.68,-0.438 1.043,-0.619 0.193,-0.106 0.404,-0.181 0.621,-0.222 0.068,-0.012 0.138,-0.019 0.207,-0.019 0.138,0 0.274,0.025 0.403,0.074 0.256,0.102 0.436,0.338 0.465,0.612 0.009,0.064 0.013,0.129 0.013,0.193 0,0.316 -0.106,0.624 -0.302,0.872 -0.283,0.383 -0.705,0.642 -1.175,0.72 -0.106,0.019 -0.212,0.031 -0.321,0.044 0,-0.025 0,-0.038 0,-0.052 0,-0.233 0,-0.468 0,-0.7 0,-0.032 0.011,-0.044 0.042,-0.055 0.256,-0.07 0.499,-0.185 0.716,-0.339 0.074,-0.044 0.133,-0.111 0.166,-0.192 0.013,-0.032 0.019,-0.067 0.019,-0.103 0,-0.12 -0.074,-0.227 -0.186,-0.27 -0.029,-0.01 -0.06,-0.015 -0.091,-0.015 -0.048,0 -0.095,0.012 -0.137,0.034 -0.113,0.056 -0.223,0.117 -0.334,0.183 -0.512,0.312 -1.021,0.629 -1.532,0.947 -0.226,0.142 -0.488,0.217 -0.755,0.217 -0.03,0 -0.061,-0.001 -0.091,-0.003 -0.098,-0.004 -0.194,-0.032 -0.277,-0.083 -0.007,-0.003 -0.015,-0.005 -0.022,-0.005 -0.008,0 -0.015,0.002 -0.022,0.005 -0.232,0.161 -0.498,0.271 -0.777,0.319 -0.142,0.03 -0.288,0.044 -0.433,0.044 -0.019,0 -0.039,0 -0.057,0 -0.257,-0.011 -0.509,-0.057 -0.719,-0.22 -0.073,-0.064 -0.142,-0.133 -0.206,-0.206 -0.032,0.02 -0.071,0.048 -0.112,0.077 -0.218,0.15 -0.433,0.3 -0.65,0.451 -0.017,0.008 -0.027,0.026 -0.027,0.045 0,0.003 0,0.007 0,0.01 0.011,0.078 0.016,0.156 0.016,0.235 0,0.21 -0.037,0.418 -0.111,0.615 -0.096,0.285 -0.347,0.489 -0.646,0.526 -0.289,0.041 -0.561,0 -0.783,-0.213 -0.131,-0.123 -0.212,-0.29 -0.226,-0.469 -0.035,-0.397 0.132,-0.708 0.418,-0.965 0.139,-0.123 0.3,-0.219 0.474,-0.285 0.021,-0.005 0.036,-0.023 0.036,-0.044 0,-0.003 -0.001,-0.006 -0.001,-0.01 0,-0.067 0,-0.131 0,-0.207 -0.051,0.032 -0.094,0.063 -0.142,0.089 -0.186,0.112 -0.394,0.184 -0.609,0.21 -0.044,0.007 -0.088,0.011 -0.131,0.011 -0.159,0 -0.314,-0.047 -0.446,-0.136 -0.137,-0.106 -0.231,-0.258 -0.265,-0.428 -0.084,-0.322 0.005,-0.608 0.18,-0.877 0.191,-0.287 0.456,-0.518 0.766,-0.668 0.329,-0.165 0.687,-0.268 1.053,-0.303 0.076,-0.007 0.152,-0.014 0.231,-0.022l0 0.781c-0.103,0.012 -0.206,0.022 -0.306,0.037 -0.298,0.034 -0.584,0.138 -0.835,0.304 -0.131,0.08 -0.224,0.21 -0.257,0.361 -0.003,0.022 -0.005,0.044 -0.005,0.067 0,0.022 0.002,0.045 0.005,0.067 0.007,0.057 0.026,0.069 0.083,0.063 0.094,-0.011 0.182,-0.048 0.256,-0.106 0.223,-0.151 0.394,-0.368 0.488,-0.619 0.008,-0.021 0.016,-0.036 0.043,-0.035l0.685 0 0.02 0 0 1.028c0.156,-0.056 0.305,-0.108 0.453,-0.161 -0.03,-0.094 -0.058,-0.183 -0.083,-0.273 -0.065,-0.229 -0.099,-0.468 -0.099,-0.706 0,-0.055 0.002,-0.111 0.005,-0.167 0.013,-0.31 0.104,-0.613 0.263,-0.88 0.092,-0.161 0.228,-0.293 0.392,-0.381 0.089,-0.043 0.188,-0.065 0.287,-0.065 0.094,0 0.188,0.02 0.273,0.058 0.294,0.102 0.501,0.366 0.531,0.675 0.009,0.073 0.013,0.147 0.013,0.22 0,0.21 -0.035,0.417 -0.105,0.615 -0.102,0.32 -0.257,0.623 -0.457,0.894 -0.016,0.02 -0.011,0.033 0,0.052 0.077,0.089 0.183,0.149 0.299,0.167 0.031,0.004 0.062,0.007 0.093,0.007 0.086,0 0.172,-0.018 0.251,-0.051 0.027,-0.009 0.033,-0.02 0.024,-0.05 -0.067,-0.189 -0.103,-0.389 -0.105,-0.589 -0.001,-0.015 -0.001,-0.031 -0.001,-0.047 0,-0.263 0.102,-0.515 0.285,-0.704 0.178,-0.168 0.414,-0.261 0.659,-0.261 0.188,0 0.372,0.055 0.529,0.159 0.189,0.13 0.307,0.342 0.316,0.571 0.001,0.022 0.002,0.045 0.002,0.067 0,0.161 -0.032,0.321 -0.094,0.47 -0.004,0.011 -0.006,0.022 -0.011,0.031 0.002,0.008 0.005,0.016 0.009,0.023l0 0zm-2.463 -1.168c0.001,-0.006 0.001,-0.012 0.001,-0.017 0,-0.006 0,-0.012 -0.001,-0.017 -0.007,-0.066 -0.019,-0.131 -0.034,-0.195 -0.021,-0.063 -0.069,-0.067 -0.111,-0.015 -0.019,0.023 -0.034,0.049 -0.046,0.076 -0.065,0.152 -0.098,0.316 -0.098,0.481 0,0.036 0.001,0.072 0.005,0.108 0.005,0.048 0.019,0.094 0.04,0.137 0.019,0.043 0.057,0.045 0.091,0.012 0.021,-0.021 0.039,-0.046 0.052,-0.072 0.067,-0.149 0.101,-0.311 0.101,-0.474 0,-0.008 0,-0.017 0,-0.024l0 0zm1.9 0.828c0.001,-0.006 0.001,-0.013 0.001,-0.019 0,-0.073 -0.02,-0.144 -0.058,-0.206 -0.025,-0.047 -0.074,-0.077 -0.128,-0.077 -0.053,0 -0.103,0.03 -0.128,0.077 -0.036,0.06 -0.055,0.129 -0.055,0.2 0,0.07 0.019,0.139 0.055,0.199 0.025,0.05 0.076,0.082 0.132,0.082 0.058,0 0.111,-0.035 0.135,-0.088 0.029,-0.05 0.046,-0.107 0.046,-0.166l0 -0.002zm-4.189 2.07c0,0.004 0,0.008 0,0.013 0,0.004 0,0.008 0,0.012 0.003,0.068 0.045,0.129 0.108,0.156 0.014,0.005 0.03,0.008 0.045,0.008 0.043,0 0.084,-0.02 0.111,-0.053 0.033,-0.039 0.051,-0.089 0.051,-0.14 0,-0.035 -0.008,-0.069 -0.024,-0.099 -0.022,-0.053 -0.074,-0.088 -0.132,-0.088 -0.042,0 -0.082,0.019 -0.109,0.051 -0.032,0.034 -0.051,0.08 -0.051,0.127 0,0.005 0.001,0.01 0.001,0.015l0 -0.002z"/>
   <path fill="#0E1B24" fill-rule="nonzero" d="M27.678 2.111c-0.507,0.326 -1.008,0.648 -1.515,0.973l-0.48 -0.591 1.599 -1.038c0.133,0.222 0.262,0.435 0.396,0.656z"/>
  </g>
 </g>
</svg>
