<?xml version="1.0" encoding="UTF-8"?>
<!DOCTYPE svg PUBLIC "-//W3C//DTD SVG 1.1//EN" "http://www.w3.org/Graphics/SVG/1.1/DTD/svg11.dtd">
<!-- Creator: CorelDRAW -->
<svg xmlns="http://www.w3.org/2000/svg" xml:space="preserve" width="204px" height="86px" version="1.1" shape-rendering="geometricPrecision" text-rendering="geometricPrecision" image-rendering="optimizeQuality" fill-rule="evenodd" clip-rule="evenodd"
viewBox="0 0 16.017 6.781"
 xmlns:xlink="http://www.w3.org/1999/xlink"
 xmlns:xodm="http://www.corel.com/coreldraw/odm/2003">
 <g id="Capa_x0020_1">
  <metadata id="CorelCorpID_0Corel-Layer"/>
  <g id="_2661317119312">
   <path fill="#1D1B19" fill-rule="nonzero" d="M8.715 4.926l0 -1.421 0.667 0c0.108,0 0.226,0.043 0.326,0.125 0.1,0.079 0.173,0.218 0.173,0.381 0,0.145 -0.053,0.265 -0.157,0.361 -0.104,0.096 -0.218,0.142 -0.342,0.142l-0.279 0 0 0.412 -0.388 0zm0.388 -0.762l0 0 0.263 0c0.018,0 0.036,-0.004 0.071,-0.021 0.039,-0.016 0.063,-0.065 0.063,-0.132 0,-0.072 -0.024,-0.12 -0.063,-0.137 -0.039,-0.016 -0.055,-0.018 -0.073,-0.018l-0.261 0 0 0.308z"/>
   <path fill="#1D1B19" fill-rule="nonzero" d="M10.042 4.926l0 -1.421 0.388 0 0 1.071 0.54 0 0 0.35 -0.928 0z"/>
   <path fill="#1D1B19" fill-rule="nonzero" d="M11.05 3.505l0.387 0 0 0.769c0,0.234 0.09,0.322 0.251,0.322 0.161,0 0.25,-0.088 0.25,-0.322l0 -0.769 0.388 0 0 0.81c0,0.206 -0.061,0.363 -0.182,0.471 -0.12,0.108 -0.273,0.161 -0.456,0.161 -0.184,0 -0.337,-0.053 -0.457,-0.161 -0.12,-0.108 -0.181,-0.265 -0.181,-0.471l0 -0.81z"/>
   <path fill="#1D1B19" fill-rule="nonzero" d="M12.495 4.445c0.137,0.104 0.304,0.155 0.502,0.155 0.152,0 0.23,-0.035 0.23,-0.104 0,-0.026 -0.016,-0.047 -0.051,-0.065 -0.035,-0.018 -0.094,-0.039 -0.177,-0.063 -0.084,-0.025 -0.145,-0.045 -0.186,-0.059 -0.206,-0.076 -0.308,-0.21 -0.308,-0.4 0,-0.133 0.053,-0.237 0.159,-0.312 0.108,-0.076 0.237,-0.112 0.388,-0.112 0.165,0 0.305,0.032 0.426,0.096l0 0.361c-0.108,-0.076 -0.243,-0.113 -0.406,-0.113 -0.133,0 -0.198,0.027 -0.198,0.078 0,0.035 0.027,0.065 0.09,0.092 0.03,0.014 0.059,0.024 0.081,0.032l0.104 0.029c0.047,0.012 0.078,0.02 0.094,0.026 0.137,0.043 0.233,0.094 0.284,0.157 0.051,0.064 0.077,0.147 0.077,0.253 0,0.277 -0.194,0.451 -0.591,0.451 -0.204,0 -0.377,-0.039 -0.518,-0.114l0 -0.388z"/>
   <path fill="#1D1B19" fill-rule="nonzero" d="M5.834 2.418l2.096 0 0 -2.095c0,1.157 -0.939,2.095 -2.096,2.095z"/>
   <path fill="#1D1B19" fill-rule="nonzero" d="M7.93 4.514c0,-1.157 0.938,-2.096 2.095,-2.096l-2.095 0 0 2.096z"/>
   <path fill="#1D1B19" fill-rule="nonzero" d="M3.602 3.698l0 0.155c-0.131,-0.13 -0.285,-0.196 -0.467,-0.196 -0.169,0 -0.31,0.057 -0.421,0.171 -0.111,0.112 -0.166,0.253 -0.166,0.421 0,0.168 0.055,0.31 0.166,0.424 0.111,0.111 0.252,0.168 0.421,0.168 0.182,0 0.336,-0.065 0.467,-0.196l0 0.155c-0.123,0.111 -0.28,0.168 -0.467,0.168 -0.204,0 -0.375,-0.067 -0.513,-0.206 -0.139,-0.138 -0.209,-0.309 -0.209,-0.513 0,-0.203 0.07,-0.374 0.209,-0.513 0.138,-0.138 0.309,-0.206 0.513,-0.206 0.184,0 0.339,0.057 0.467,0.168z"/>
   <path fill="#1D1B19" fill-rule="nonzero" d="M3.873 4.933l0 -1.892 0.136 0 0 0.787c0.073,-0.19 0.228,-0.285 0.464,-0.285 0.155,0 0.277,0.049 0.372,0.15 0.095,0.097 0.141,0.23 0.141,0.396l0 0.844 -0.136 0 0 -0.817c0,-0.271 -0.16,-0.445 -0.407,-0.445 -0.263,0 -0.434,0.209 -0.434,0.527l0 0.735 -0.136 0z"/>
   <path fill="#1D1B19" fill-rule="nonzero" d="M5.254 4.252c0,-0.209 0.063,-0.383 0.191,-0.516 0.127,-0.136 0.287,-0.203 0.477,-0.203 0.182,0 0.334,0.065 0.454,0.198 0.122,0.133 0.181,0.293 0.181,0.483 0,0.027 0,0.049 -0.002,0.068l-1.167 0c0.002,0.165 0.054,0.298 0.154,0.404 0.101,0.106 0.231,0.158 0.386,0.158 0.236,0 0.418,-0.095 0.513,-0.212l0 0.16c-0.133,0.119 -0.304,0.179 -0.513,0.179 -0.198,0 -0.359,-0.065 -0.486,-0.195 -0.125,-0.133 -0.188,-0.304 -0.188,-0.516l0 -0.008zm1.16 -0.092l0 0c-0.003,-0.139 -0.052,-0.258 -0.147,-0.353 -0.095,-0.098 -0.209,-0.147 -0.345,-0.147 -0.144,0 -0.266,0.049 -0.369,0.147 -0.1,0.095 -0.155,0.214 -0.16,0.353l1.021 0z"/>
   <path fill="#1D1B19" fill-rule="nonzero" d="M6.937 4.933l0 -1.24 -0.211 0 0 -0.128 0.211 0 0 -0.127c0,-0.163 0.041,-0.28 0.123,-0.351 0.059,-0.051 0.146,-0.078 0.257,-0.078 0.047,0 0.082,0.002 0.106,0.011l0 0.122c-0.032,-0.006 -0.073,-0.008 -0.119,-0.008 -0.16,0 -0.231,0.089 -0.231,0.287l0 0.144 0.304 0 0 0.128 -0.304 0 0 1.24 -0.136 0z"/>
  </g>
  <rect fill="none" width="16.017" height="6.781"/>
 </g>
</svg>
