<?xml version="1.0" encoding="UTF-8"?>
<!DOCTYPE svg PUBLIC "-//W3C//DTD SVG 1.1//EN" "http://www.w3.org/Graphics/SVG/1.1/DTD/svg11.dtd">
<!-- Creator: CorelDRAW -->
<svg xmlns="http://www.w3.org/2000/svg" xml:space="preserve" width="372px" height="92px" version="1.1" shape-rendering="geometricPrecision" text-rendering="geometricPrecision" image-rendering="optimizeQuality" fill-rule="evenodd" clip-rule="evenodd"
viewBox="0 0 60.091 14.776"
 xmlns:xlink="http://www.w3.org/1999/xlink"
 xmlns:xodm="http://www.corel.com/coreldraw/odm/2003">
 <g id="Capa_x0020_1">
  <metadata id="CorelCorpID_0Corel-Layer"/>
  <g id="_2662042864944">
   <path fill="#0E1B24" fill-rule="nonzero" d="M48.827 8.53l0 -0.742 1.803 0 0 -0.858 -1.803 0 0 -0.684 2.046 0 0 -0.886 -3.182 0 0 4.057 3.258 0 0 -0.887 -2.122 0z"/>
   <path fill="#0E1B24" fill-rule="nonzero" d="M41.211 9.498c1.151,0 2.033,-0.702 2.218,-1.71l-1.181 0c-0.146,0.471 -0.549,0.759 -1.037,0.759 -0.615,0 -1.096,-0.457 -1.096,-1.159 0,-0.701 0.481,-1.159 1.096,-1.159 0.467,0 0.857,0.265 1.017,0.701l1.19 0c-0.208,-0.976 -1.078,-1.651 -2.207,-1.651 -1.299,0 -2.255,0.892 -2.255,2.109 0,1.217 0.956,2.11 2.255,2.11z"/>
   <path fill="#0E1B24" fill-rule="nonzero" d="M32.475 9.498c1.152,0 2.034,-0.702 2.219,-1.71l-1.181 0c-0.146,0.471 -0.55,0.759 -1.038,0.759 -0.614,0 -1.095,-0.457 -1.095,-1.159 0,-0.701 0.481,-1.159 1.095,-1.159 0.468,0 0.858,0.265 1.018,0.701l1.189 0c-0.207,-0.976 -1.078,-1.651 -2.207,-1.651 -1.298,0 -2.254,0.892 -2.254,2.109 0,1.217 0.956,2.11 2.254,2.11z"/>
   <path fill="#0E1B24" fill-rule="nonzero" d="M25.465 9.417l1.228 0 -0.875 -1.275c0.504,-0.244 0.794,-0.684 0.794,-1.281 0,-0.928 -0.695,-1.501 -1.802,-1.501l-1.855 0 0 4.057 1.148 0 0 -1.078 0.626 0 0.736 1.078zm-0.012 -2.556c0,0.371 -0.238,0.591 -0.713,0.591l-0.637 0 0 -1.188 0.637 0c0.475,0 0.713,0.22 0.713,0.597z"/>
   <path fill="#0E1B24" fill-rule="nonzero" d="M17.788 8.53l0 -0.742 1.802 0 0 -0.858 -1.802 0 0 -0.684 2.046 0 0 -0.886 -3.182 0 0 4.057 3.257 0 0 -0.887 -2.121 0z"/>
   <path fill="#0E1B24" fill-rule="nonzero" d="M12.261 7.301c0.348,-0.179 0.545,-0.492 0.545,-0.881 0,-0.626 -0.522,-1.06 -1.588,-1.06l-2.075 0 0 4.057 2.19 0c1.09,0 1.67,-0.412 1.67,-1.113 0,-0.493 -0.284,-0.84 -0.742,-1.003zm-1.194 -1.112c0.382,0 0.579,0.133 0.579,0.388 0,0.261 -0.197,0.394 -0.579,0.394l-0.788 0 0 -0.782 0.788 0zm0.174 2.399l-0.962 0 0 -0.823 0.962 0c0.394,0 0.602,0.133 0.602,0.412 0,0.278 -0.208,0.411 -0.602,0.411z"/>
   <rect fill="#0E1B24" x="39.564" y="10.275" width="3.257" height="0.858"/>
   <rect fill="#0E1B24" x="9.143" y="3.644" width="3.257" height="0.858"/>
  </g>
  <rect fill="none" width="60.091" height="14.776"/>
 </g>
</svg>
