<?xml version="1.0" encoding="UTF-8"?>
<!DOCTYPE svg PUBLIC "-//W3C//DTD SVG 1.1//EN" "http://www.w3.org/Graphics/SVG/1.1/DTD/svg11.dtd">
<!-- Creator: CorelDRAW -->
<svg xmlns="http://www.w3.org/2000/svg" xml:space="preserve" width="126px" height="126px" version="1.1" shape-rendering="geometricPrecision" text-rendering="geometricPrecision" image-rendering="optimizeQuality" fill-rule="evenodd" clip-rule="evenodd"
viewBox="0 0 12.593 12.593"
 xmlns:xlink="http://www.w3.org/1999/xlink"
 xmlns:xodm="http://www.corel.com/coreldraw/odm/2003">
 <g id="Capa_x0020_1">
  <metadata id="CorelCorpID_0Corel-Layer"/>
  <path fill="#2B2A29" fill-rule="nonzero" d="M0.12 0.05l12.423 0 0 12.493 -12.493 0 0 -12.493 0.07 0zm12.282 0.141l-12.211 0 0 12.211 12.211 0 0 -12.211z"/>
  <path fill="#2B2A29" fill-rule="nonzero" d="M0.12 0l12.473 0 0 12.593 -12.593 0 0 -12.593 0.12 0zm12.373 0.1l-12.393 0 0 12.393 12.393 0 0 -12.393zm-0.141 0.14l-12.112 0 0 12.112 12.112 0 0 -12.112zm-12.161 -0.099l12.261 0 0 12.311 -12.311 0 0 -12.311 0.05 0z"/>
  <path fill="#2B2A29" fill-rule="nonzero" d="M3.913 6.985c0.017,0 0.032,0.007 0.046,0.021l0.121 0.133c-0.094,0.108 -0.207,0.193 -0.34,0.254 -0.133,0.06 -0.294,0.091 -0.482,0.091 -0.165,0 -0.314,-0.029 -0.448,-0.086 -0.134,-0.057 -0.248,-0.136 -0.343,-0.239 -0.094,-0.103 -0.168,-0.226 -0.22,-0.369 -0.052,-0.144 -0.078,-0.301 -0.078,-0.474 0,-0.172 0.028,-0.33 0.084,-0.473 0.056,-0.144 0.134,-0.267 0.235,-0.37 0.101,-0.103 0.222,-0.183 0.363,-0.24 0.141,-0.057 0.296,-0.086 0.466,-0.086 0.167,0 0.312,0.026 0.434,0.079 0.122,0.053 0.23,0.124 0.324,0.214l-0.1 0.14c-0.008,0.01 -0.016,0.019 -0.026,0.026 -0.009,0.006 -0.023,0.01 -0.041,0.01 -0.014,0 -0.028,-0.005 -0.044,-0.015 -0.015,-0.011 -0.034,-0.023 -0.055,-0.038 -0.021,-0.015 -0.046,-0.03 -0.075,-0.047 -0.029,-0.017 -0.063,-0.033 -0.102,-0.048 -0.039,-0.015 -0.085,-0.028 -0.137,-0.038 -0.052,-0.01 -0.112,-0.015 -0.18,-0.015 -0.122,0 -0.234,0.021 -0.335,0.063 -0.102,0.042 -0.189,0.102 -0.263,0.179 -0.073,0.078 -0.13,0.172 -0.171,0.284 -0.04,0.112 -0.061,0.236 -0.061,0.375 0,0.142 0.021,0.269 0.061,0.38 0.041,0.112 0.097,0.206 0.168,0.283 0.07,0.077 0.154,0.136 0.25,0.176 0.097,0.041 0.201,0.061 0.313,0.061 0.068,0 0.129,-0.004 0.183,-0.012 0.054,-0.008 0.105,-0.021 0.151,-0.038 0.046,-0.017 0.089,-0.038 0.129,-0.064 0.04,-0.026 0.08,-0.057 0.12,-0.093 0.018,-0.016 0.036,-0.024 0.053,-0.024l0 0z"/>
  <path id="_1" fill="#2B2A29" fill-rule="nonzero" d="M4.687 5.109l0 2.349 -0.284 0 0 -2.349 0.284 0z"/>
  <path id="_2" fill="#2B2A29" fill-rule="nonzero" d="M5.77 5.818c0.118,0 0.225,0.02 0.32,0.059 0.095,0.04 0.175,0.095 0.242,0.168 0.066,0.072 0.117,0.159 0.153,0.262 0.035,0.102 0.053,0.217 0.053,0.343 0,0.128 -0.018,0.242 -0.053,0.344 -0.036,0.102 -0.087,0.19 -0.153,0.262 -0.067,0.072 -0.147,0.127 -0.242,0.166 -0.095,0.039 -0.202,0.058 -0.32,0.058 -0.118,0 -0.224,-0.019 -0.319,-0.058 -0.095,-0.039 -0.177,-0.094 -0.244,-0.166 -0.067,-0.072 -0.118,-0.16 -0.154,-0.262 -0.036,-0.102 -0.054,-0.216 -0.054,-0.344 0,-0.126 0.018,-0.241 0.054,-0.343 0.036,-0.103 0.087,-0.19 0.154,-0.262 0.067,-0.073 0.149,-0.128 0.244,-0.168 0.095,-0.039 0.201,-0.059 0.319,-0.059zm0 1.441c0.159,0 0.278,-0.054 0.357,-0.16 0.078,-0.107 0.118,-0.257 0.118,-0.448 0,-0.193 -0.04,-0.342 -0.118,-0.45 -0.079,-0.107 -0.198,-0.161 -0.357,-0.161 -0.081,0 -0.151,0.014 -0.21,0.041 -0.06,0.028 -0.109,0.068 -0.149,0.12 -0.04,0.052 -0.07,0.116 -0.089,0.192 -0.02,0.076 -0.03,0.162 -0.03,0.258 0,0.095 0.01,0.181 0.03,0.257 0.019,0.075 0.049,0.139 0.089,0.191 0.04,0.051 0.089,0.09 0.149,0.118 0.059,0.028 0.129,0.042 0.21,0.042l0 0z"/>
  <path id="_3" fill="#2B2A29" fill-rule="nonzero" d="M7.457 5.817c0.097,0 0.186,0.016 0.268,0.049 0.082,0.032 0.152,0.079 0.212,0.14 0.059,0.061 0.106,0.137 0.139,0.227 0.034,0.089 0.05,0.192 0.05,0.307 0,0.045 -0.004,0.075 -0.014,0.089 -0.01,0.015 -0.028,0.023 -0.054,0.023l-1.074 0c0.002,0.102 0.016,0.191 0.041,0.266 0.026,0.076 0.061,0.139 0.105,0.19 0.045,0.051 0.098,0.088 0.16,0.113 0.061,0.025 0.13,0.038 0.207,0.038 0.071,0 0.133,-0.009 0.184,-0.025 0.052,-0.017 0.096,-0.035 0.133,-0.054 0.037,-0.019 0.069,-0.036 0.094,-0.053 0.024,-0.017 0.046,-0.025 0.064,-0.025 0.023,0 0.041,0.009 0.054,0.027l0.08 0.104c-0.035,0.042 -0.077,0.079 -0.126,0.11 -0.049,0.032 -0.101,0.057 -0.157,0.077 -0.056,0.02 -0.114,0.035 -0.173,0.046 -0.06,0.01 -0.119,0.014 -0.177,0.014 -0.112,0 -0.214,-0.019 -0.308,-0.056 -0.094,-0.038 -0.175,-0.093 -0.244,-0.166 -0.068,-0.073 -0.122,-0.163 -0.16,-0.271 -0.039,-0.107 -0.058,-0.23 -0.058,-0.37 0,-0.112 0.018,-0.218 0.052,-0.315 0.035,-0.098 0.084,-0.183 0.149,-0.255 0.065,-0.071 0.144,-0.128 0.238,-0.169 0.093,-0.041 0.198,-0.061 0.315,-0.061l0 0zm0.006 0.21c-0.137,0 -0.244,0.039 -0.323,0.119 -0.079,0.078 -0.127,0.188 -0.147,0.327l0.878 0c0,-0.066 -0.009,-0.126 -0.027,-0.18 -0.018,-0.055 -0.044,-0.102 -0.079,-0.141 -0.035,-0.04 -0.078,-0.071 -0.128,-0.092 -0.051,-0.022 -0.109,-0.033 -0.174,-0.033z"/>
  <path id="_4" fill="#2B2A29" fill-rule="nonzero" d="M8.418 7.458l0 -1.616 0.169 0c0.04,0 0.065,0.02 0.076,0.059l0.022 0.176c0.07,-0.078 0.149,-0.141 0.236,-0.189 0.086,-0.047 0.186,-0.071 0.3,-0.071 0.088,0 0.166,0.015 0.233,0.044 0.068,0.029 0.124,0.071 0.169,0.124 0.046,0.054 0.08,0.119 0.103,0.194 0.023,0.075 0.035,0.159 0.035,0.25l0 1.029 -0.284 0 0 -1.029c0,-0.122 -0.027,-0.217 -0.083,-0.284 -0.056,-0.068 -0.141,-0.102 -0.256,-0.102 -0.084,0 -0.162,0.02 -0.235,0.061 -0.073,0.04 -0.14,0.095 -0.202,0.164l0 1.19 -0.283 0 0 0z"/>
  <path id="_5" fill="#ED2E38" fill-rule="nonzero" d="M10.027 7.283c0,-0.027 0.005,-0.053 0.015,-0.078 0.01,-0.024 0.024,-0.045 0.042,-0.064 0.017,-0.018 0.038,-0.032 0.062,-0.043 0.025,-0.011 0.051,-0.016 0.078,-0.016 0.028,0 0.054,0.005 0.078,0.016 0.025,0.011 0.046,0.025 0.064,0.043 0.018,0.019 0.032,0.04 0.043,0.064 0.01,0.025 0.014,0.051 0.014,0.078 0,0.03 -0.004,0.056 -0.014,0.08 -0.011,0.024 -0.025,0.045 -0.043,0.063 -0.018,0.018 -0.039,0.032 -0.064,0.042 -0.024,0.01 -0.05,0.016 -0.078,0.016 -0.027,0 -0.053,-0.006 -0.078,-0.016 -0.024,-0.01 -0.045,-0.024 -0.062,-0.042 -0.018,-0.018 -0.032,-0.039 -0.042,-0.063 -0.01,-0.024 -0.015,-0.05 -0.015,-0.08z"/>
 </g>
</svg>
