<?xml version="1.0" encoding="UTF-8"?>
<!DOCTYPE svg PUBLIC "-//W3C//DTD SVG 1.1//EN" "http://www.w3.org/Graphics/SVG/1.1/DTD/svg11.dtd">
<!-- Creator: CorelDRAW -->
<svg xmlns="http://www.w3.org/2000/svg" xml:space="preserve" width="106px" height="106px" version="1.1" shape-rendering="geometricPrecision" text-rendering="geometricPrecision" image-rendering="optimizeQuality" fill-rule="evenodd" clip-rule="evenodd"
viewBox="0 0 8.913 8.913"
 xmlns:xlink="http://www.w3.org/1999/xlink"
 xmlns:xodm="http://www.corel.com/coreldraw/odm/2003">
 <g id="Capa_x0020_1">
  <metadata id="CorelCorpID_0Corel-Layer"/>
  <path fill="#0E1B24" d="M1.063 0l6.787 0c0.585,0 1.063,0.478 1.063,1.063l0 6.787c0,0.585 -0.478,1.063 -1.063,1.063l-6.787 0c-0.585,0 -1.063,-0.478 -1.063,-1.063l0 -6.787c0,-0.585 0.478,-1.063 1.063,-1.063zm1.657 2.924c0.141,0 0.265,0.02 0.375,0.06 0.109,0.04 0.201,0.094 0.276,0.161 0.076,0.068 0.133,0.147 0.172,0.236 0.039,0.09 0.058,0.184 0.058,0.283 0,0.09 -0.009,0.169 -0.027,0.238 -0.018,0.068 -0.045,0.128 -0.08,0.178 -0.036,0.05 -0.08,0.093 -0.133,0.128 -0.053,0.036 -0.113,0.065 -0.181,0.089 0.151,0.052 0.266,0.128 0.344,0.228l0.002 -0.001c0.012,-0.047 0.026,-0.093 0.043,-0.137 0.055,-0.14 0.136,-0.283 0.242,-0.429l0.64 -0.864c0.028,-0.039 0.071,-0.072 0.128,-0.098 0.057,-0.027 0.122,-0.041 0.195,-0.041l0.538 0 -0.842 1.011c-0.013,0.015 -0.025,0.03 -0.038,0.045 -0.012,0.015 -0.024,0.03 -0.036,0.044 0.045,-0.019 0.094,-0.033 0.144,-0.044 0.05,-0.009 0.103,-0.015 0.16,-0.015 0.103,0 0.204,0.017 0.304,0.051 0.1,0.034 0.19,0.086 0.269,0.156 0.08,0.07 0.144,0.159 0.193,0.266 0.048,0.108 0.072,0.234 0.072,0.38 0,0.133 -0.024,0.259 -0.074,0.378 -0.015,0.036 -0.031,0.07 -0.05,0.103l0 0 0.002 0.002 0.086 -0.117c0.02,-0.026 0.043,-0.046 0.069,-0.059 0.026,-0.015 0.054,-0.021 0.084,-0.021 0.039,0 0.076,0.01 0.11,0.032 0.034,0.021 0.072,0.045 0.113,0.07 0.041,0.025 0.088,0.049 0.143,0.069 0.055,0.021 0.122,0.032 0.203,0.032 0.08,0 0.149,-0.014 0.206,-0.041 0.058,-0.026 0.104,-0.063 0.14,-0.109 0.036,-0.046 0.062,-0.1 0.078,-0.162 0.016,-0.061 0.024,-0.127 0.024,-0.197 0,-0.138 -0.039,-0.243 -0.117,-0.315 -0.078,-0.073 -0.188,-0.108 -0.331,-0.108 -0.128,0 -0.252,0.027 -0.375,0.082l-0.374 -0.111 0.242 -1.422 1.454 0 0 0.25c0,0.041 -0.006,0.079 -0.019,0.113 -0.013,0.034 -0.033,0.063 -0.061,0.088 -0.028,0.026 -0.065,0.045 -0.111,0.059 -0.045,0.013 -0.1,0.021 -0.164,0.021l-0.678 0 -0.08 0.469c0.053,-0.009 0.105,-0.017 0.154,-0.022 0.049,-0.004 0.098,-0.007 0.144,-0.007 0.15,0 0.282,0.023 0.396,0.068 0.114,0.046 0.211,0.108 0.289,0.187 0.078,0.079 0.137,0.171 0.176,0.277 0.04,0.106 0.06,0.22 0.06,0.342 0,0.152 -0.027,0.291 -0.081,0.417 -0.054,0.125 -0.129,0.234 -0.226,0.325 -0.096,0.091 -0.21,0.162 -0.343,0.212 -0.134,0.05 -0.28,0.075 -0.438,0.075 -0.093,0 -0.18,-0.01 -0.264,-0.029 -0.084,-0.02 -0.163,-0.046 -0.236,-0.08 -0.073,-0.033 -0.142,-0.071 -0.204,-0.115 -0.046,-0.031 -0.088,-0.064 -0.127,-0.099l-0.001 -0.001 -0.039 -0.034c-0.02,0.023 -0.041,0.046 -0.063,0.068 -0.09,0.089 -0.199,0.16 -0.327,0.212 -0.127,0.052 -0.268,0.078 -0.423,0.078 -0.158,0 -0.301,-0.025 -0.427,-0.075 -0.126,-0.05 -0.232,-0.12 -0.32,-0.21 -0.072,-0.073 -0.128,-0.157 -0.171,-0.248l-0.001 0c-0.005,0.011 -0.01,0.022 -0.016,0.033 -0.054,0.112 -0.127,0.204 -0.219,0.278 -0.091,0.074 -0.198,0.13 -0.319,0.167 -0.121,0.037 -0.247,0.055 -0.378,0.055 -0.135,0 -0.255,-0.014 -0.361,-0.044 -0.105,-0.029 -0.198,-0.074 -0.28,-0.136 -0.082,-0.062 -0.154,-0.14 -0.215,-0.236 -0.062,-0.096 -0.116,-0.21 -0.162,-0.342l0.269 -0.112c0.024,-0.011 0.047,-0.018 0.07,-0.022 0.023,-0.004 0.045,-0.006 0.067,-0.006 0.041,0 0.079,0.008 0.112,0.025 0.033,0.016 0.058,0.039 0.075,0.07 0.059,0.108 0.121,0.186 0.187,0.235 0.065,0.049 0.142,0.073 0.23,0.073 0.068,0 0.127,-0.011 0.177,-0.034 0.05,-0.023 0.092,-0.052 0.125,-0.088 0.033,-0.036 0.058,-0.076 0.074,-0.121 0.017,-0.046 0.026,-0.092 0.026,-0.139 0,-0.06 -0.004,-0.115 -0.013,-0.163 -0.008,-0.049 -0.032,-0.091 -0.071,-0.126 -0.039,-0.035 -0.097,-0.062 -0.176,-0.081 -0.079,-0.019 -0.189,-0.028 -0.329,-0.028l0 -0.417c0.118,0 0.214,-0.009 0.287,-0.028 0.072,-0.018 0.129,-0.043 0.169,-0.075 0.039,-0.032 0.065,-0.07 0.078,-0.116 0.013,-0.045 0.02,-0.095 0.02,-0.15 0,-0.111 -0.027,-0.198 -0.081,-0.258 -0.054,-0.061 -0.136,-0.091 -0.247,-0.091 -0.045,0 -0.087,0.007 -0.125,0.02 -0.037,0.013 -0.071,0.03 -0.101,0.052 -0.03,0.023 -0.055,0.049 -0.077,0.078 -0.021,0.03 -0.039,0.063 -0.052,0.098 -0.02,0.058 -0.046,0.101 -0.078,0.127 -0.032,0.026 -0.076,0.039 -0.13,0.039 -0.013,0 -0.027,-0.001 -0.042,-0.002 -0.015,-0.002 -0.03,-0.004 -0.046,-0.006l-0.32 -0.056c0.021,-0.142 0.061,-0.266 0.121,-0.372 0.059,-0.105 0.132,-0.193 0.22,-0.264 0.088,-0.07 0.188,-0.122 0.301,-0.157 0.113,-0.034 0.234,-0.052 0.364,-0.052zm0.135 3.078l0 0.387 -0.05 0 0 -0.276c0,-0.004 0.001,-0.008 0.001,-0.013 0,-0.004 0,-0.009 0.001,-0.014l-0.129 0.236c-0.004,0.009 -0.011,0.013 -0.021,0.013l-0.008 0c-0.009,0 -0.016,-0.004 -0.02,-0.013l-0.131 -0.237c0.001,0.01 0.001,0.02 0.001,0.028l0 0.276 -0.05 0 0 -0.387 0.042 0c0.005,0 0.009,0 0.012,0.001 0.003,0.001 0.006,0.004 0.008,0.009l0.129 0.231c0.003,0.005 0.005,0.01 0.007,0.015 0.002,0.005 0.005,0.011 0.007,0.016 0.003,-0.011 0.008,-0.021 0.013,-0.031l0.127 -0.231c0.002,-0.005 0.004,-0.008 0.007,-0.009 0.003,-0.001 0.007,-0.001 0.012,-0.001l0.042 0zm0.225 0.265c-0.022,0.001 -0.04,0.003 -0.055,0.005 -0.015,0.003 -0.027,0.006 -0.036,0.011 -0.01,0.004 -0.016,0.009 -0.02,0.015 -0.005,0.006 -0.007,0.012 -0.007,0.019 0,0.007 0.002,0.013 0.004,0.018 0.002,0.005 0.005,0.009 0.009,0.012 0.004,0.003 0.008,0.006 0.014,0.007 0.005,0.001 0.01,0.002 0.017,0.002 0.008,0 0.015,-0.001 0.022,-0.002 0.007,-0.002 0.013,-0.004 0.019,-0.007 0.006,-0.003 0.011,-0.007 0.017,-0.011 0.005,-0.004 0.01,-0.009 0.016,-0.015l0 -0.054zm-0.154 -0.114c0.015,-0.014 0.031,-0.025 0.049,-0.032 0.018,-0.007 0.038,-0.011 0.059,-0.011 0.016,0 0.029,0.003 0.042,0.008 0.012,0.005 0.022,0.012 0.03,0.021 0.008,0.009 0.014,0.02 0.019,0.033 0.004,0.013 0.006,0.027 0.006,0.042l0 0.175 -0.023 0c-0.006,0 -0.01,-0.001 -0.012,-0.003 -0.003,-0.002 -0.005,-0.005 -0.007,-0.009l-0.005 -0.024c-0.007,0.006 -0.014,0.012 -0.021,0.017 -0.007,0.005 -0.014,0.009 -0.022,0.012 -0.007,0.004 -0.015,0.007 -0.023,0.008 -0.009,0.002 -0.018,0.003 -0.028,0.003 -0.011,0 -0.021,-0.001 -0.031,-0.004 -0.009,-0.003 -0.017,-0.008 -0.024,-0.014 -0.007,-0.006 -0.013,-0.014 -0.017,-0.023 -0.004,-0.009 -0.006,-0.02 -0.006,-0.032 0,-0.011 0.003,-0.021 0.009,-0.031 0.006,-0.01 0.015,-0.019 0.028,-0.027 0.014,-0.008 0.031,-0.014 0.052,-0.019 0.021,-0.005 0.048,-0.008 0.079,-0.009l0 -0.02c0,-0.02 -0.005,-0.036 -0.014,-0.046 -0.008,-0.01 -0.021,-0.015 -0.038,-0.015 -0.012,0 -0.021,0.001 -0.029,0.004 -0.008,0.003 -0.015,0.006 -0.02,0.009 -0.006,0.004 -0.011,0.007 -0.015,0.01 -0.005,0.003 -0.009,0.004 -0.013,0.004 -0.004,0 -0.007,-0.001 -0.01,-0.003 -0.002,-0.002 -0.004,-0.004 -0.006,-0.007l-0.009 -0.017zm0.325 0.015c0.009,-0.018 0.02,-0.032 0.032,-0.043 0.012,-0.01 0.027,-0.015 0.045,-0.015 0.006,0 0.011,0.001 0.016,0.002 0.006,0.001 0.01,0.003 0.014,0.006l-0.003 0.04c-0.001,0.005 -0.004,0.007 -0.009,0.007 -0.003,0 -0.006,-0.001 -0.011,-0.002 -0.005,-0.001 -0.011,-0.001 -0.017,-0.001 -0.008,0 -0.015,0.001 -0.022,0.004 -0.006,0.002 -0.012,0.006 -0.017,0.01 -0.005,0.005 -0.01,0.011 -0.014,0.018 -0.004,0.007 -0.008,0.015 -0.011,0.023l0 0.172 -0.052 0 0 -0.274 0.03 0c0.005,0 0.009,0.001 0.012,0.003 0.002,0.002 0.003,0.006 0.004,0.011l0.003 0.039zm0.2 -0.177l0 0.233 0.013 0c0.004,0 0.007,-0.001 0.009,-0.002 0.003,-0.001 0.005,-0.003 0.008,-0.006l0.082 -0.091c0.003,-0.003 0.005,-0.006 0.008,-0.007 0.003,-0.002 0.007,-0.003 0.012,-0.003l0.048 0 -0.097 0.106c-0.005,0.007 -0.011,0.012 -0.017,0.015 0.004,0.003 0.007,0.005 0.01,0.008 0.002,0.003 0.005,0.007 0.007,0.01l0.103 0.135 -0.047 0c-0.004,0 -0.008,-0.001 -0.011,-0.002 -0.003,-0.002 -0.006,-0.004 -0.009,-0.008l-0.084 -0.11c-0.003,-0.004 -0.006,-0.007 -0.008,-0.008 -0.003,-0.001 -0.007,-0.002 -0.012,-0.002l-0.015 0 0 0.13 -0.052 0 0 -0.398 0.052 0zm0.391 0.23c0,-0.01 -0.001,-0.02 -0.004,-0.028 -0.003,-0.009 -0.008,-0.017 -0.013,-0.023 -0.006,-0.007 -0.013,-0.012 -0.021,-0.015 -0.008,-0.004 -0.018,-0.006 -0.029,-0.006 -0.022,0 -0.039,0.007 -0.052,0.019 -0.013,0.013 -0.021,0.031 -0.024,0.053l0.143 0zm0.044 0.129c-0.007,0.007 -0.014,0.014 -0.023,0.019 -0.008,0.006 -0.017,0.01 -0.027,0.014 -0.009,0.003 -0.019,0.005 -0.029,0.007 -0.01,0.002 -0.02,0.003 -0.03,0.003 -0.019,0 -0.036,-0.004 -0.053,-0.01 -0.016,-0.006 -0.03,-0.016 -0.041,-0.028 -0.012,-0.012 -0.021,-0.028 -0.028,-0.046 -0.006,-0.018 -0.01,-0.039 -0.01,-0.063 0,-0.019 0.003,-0.037 0.009,-0.053 0.006,-0.016 0.015,-0.031 0.026,-0.043 0.011,-0.012 0.024,-0.022 0.04,-0.029 0.016,-0.007 0.034,-0.01 0.054,-0.01 0.017,0 0.032,0.002 0.046,0.008 0.014,0.005 0.027,0.013 0.037,0.024 0.01,0.01 0.018,0.023 0.024,0.038 0.006,0.016 0.009,0.033 0.009,0.053 0,0.008 -0.001,0.013 -0.003,0.016 -0.002,0.003 -0.005,0.004 -0.01,0.004l-0.179 0c0,0.016 0.003,0.031 0.007,0.043 0.004,0.012 0.01,0.022 0.017,0.03 0.007,0.008 0.016,0.014 0.026,0.018 0.01,0.004 0.021,0.006 0.033,0.006 0.012,0 0.022,-0.001 0.031,-0.004 0.008,-0.003 0.016,-0.006 0.022,-0.009 0.006,-0.003 0.011,-0.006 0.015,-0.009 0.005,-0.002 0.008,-0.004 0.012,-0.004 0.004,0 0.007,0.002 0.01,0.005l0.015 0.02zm0.317 0.039l-0.052 0 0 -0.231 -0.138 0 0 0.16c0,0.011 0.003,0.019 0.008,0.024 0.006,0.005 0.012,0.008 0.021,0.008 0.004,0 0.009,-0.001 0.012,-0.002 0.004,-0.001 0.007,-0.003 0.009,-0.004 0.003,-0.002 0.005,-0.003 0.007,-0.004 0.001,-0.002 0.003,-0.002 0.004,-0.002 0.002,0 0.004,0 0.005,0.001 0.001,0.001 0.002,0.002 0.003,0.004l0.015 0.025c-0.008,0.008 -0.019,0.014 -0.03,0.019 -0.012,0.004 -0.025,0.006 -0.037,0.006 -0.022,0 -0.039,-0.006 -0.051,-0.019 -0.012,-0.012 -0.018,-0.03 -0.018,-0.053l0 -0.163 -0.032 0c-0.003,0 -0.006,-0.001 -0.008,-0.003 -0.002,-0.002 -0.003,-0.005 -0.003,-0.009l0 -0.021 0.045 -0.006 0.011 -0.082c0.001,-0.003 0.003,-0.005 0.005,-0.007 0.002,-0.002 0.004,-0.002 0.008,-0.002l0.026 0 0 0.091 0.19 0 0 0.27zm0.013 -0.36c0,0.005 -0.001,0.009 -0.003,0.014 -0.002,0.004 -0.005,0.008 -0.008,0.011 -0.004,0.004 -0.008,0.006 -0.012,0.008 -0.005,0.002 -0.009,0.003 -0.014,0.003 -0.005,0 -0.01,-0.001 -0.014,-0.003 -0.004,-0.002 -0.008,-0.004 -0.011,-0.008 -0.004,-0.003 -0.006,-0.007 -0.008,-0.011 -0.002,-0.005 -0.003,-0.009 -0.003,-0.014 0,-0.005 0.001,-0.01 0.003,-0.014 0.002,-0.005 0.004,-0.009 0.008,-0.012 0.003,-0.003 0.007,-0.006 0.011,-0.008 0.004,-0.002 0.009,-0.003 0.014,-0.003 0.005,0 0.009,0.001 0.014,0.003 0.004,0.002 0.008,0.005 0.012,0.008 0.003,0.003 0.006,0.007 0.008,0.012 0.002,0.004 0.003,0.009 0.003,0.014zm0.113 0.124c0.006,-0.006 0.012,-0.012 0.018,-0.017 0.007,-0.005 0.014,-0.01 0.021,-0.014 0.007,-0.003 0.015,-0.006 0.024,-0.008 0.008,-0.002 0.017,-0.003 0.026,-0.003 0.015,0 0.029,0.002 0.04,0.007 0.012,0.005 0.021,0.012 0.029,0.021 0.007,0.01 0.013,0.02 0.017,0.033 0.004,0.013 0.006,0.027 0.006,0.043l0 0.174 -0.053 0 0 -0.174c0,-0.02 -0.004,-0.035 -0.013,-0.046 -0.009,-0.011 -0.023,-0.016 -0.041,-0.016 -0.014,0 -0.026,0.003 -0.038,0.009 -0.012,0.006 -0.023,0.015 -0.033,0.026l0 0.201 -0.052 0 0 -0.274 0.031 0c0.007,0 0.012,0.004 0.014,0.011l0.004 0.027zm0.348 0.099c0.009,0 0.018,-0.001 0.025,-0.004 0.007,-0.002 0.013,-0.006 0.018,-0.01 0.004,-0.005 0.008,-0.01 0.01,-0.017 0.003,-0.006 0.004,-0.013 0.004,-0.021 0,-0.016 -0.005,-0.029 -0.014,-0.038 -0.01,-0.009 -0.024,-0.014 -0.043,-0.014 -0.018,0 -0.032,0.005 -0.042,0.014 -0.01,0.009 -0.014,0.022 -0.014,0.038 0,0.008 0.001,0.015 0.003,0.021 0.003,0.006 0.006,0.012 0.011,0.016 0.005,0.005 0.011,0.009 0.018,0.011 0.007,0.003 0.015,0.004 0.024,0.004zm0.084 0.151c0,-0.006 -0.002,-0.012 -0.006,-0.016 -0.003,-0.003 -0.008,-0.006 -0.014,-0.009 -0.006,-0.002 -0.014,-0.004 -0.022,-0.004 -0.008,-0.001 -0.017,-0.002 -0.026,-0.003 -0.009,0 -0.018,-0.001 -0.028,-0.001 -0.009,-0.001 -0.018,-0.002 -0.027,-0.003 -0.01,0.005 -0.017,0.011 -0.023,0.017 -0.006,0.007 -0.009,0.015 -0.009,0.024 0,0.005 0.001,0.011 0.004,0.016 0.003,0.005 0.008,0.009 0.014,0.013 0.006,0.003 0.014,0.006 0.023,0.008 0.01,0.002 0.021,0.004 0.034,0.004 0.013,0 0.024,-0.002 0.034,-0.004 0.01,-0.002 0.019,-0.005 0.025,-0.009 0.007,-0.004 0.012,-0.009 0.016,-0.015 0.003,-0.005 0.005,-0.011 0.005,-0.018zm0.053 -0.278l0 0.02c0,0.006 -0.004,0.011 -0.012,0.012l-0.029 0.004c0.002,0.006 0.004,0.012 0.006,0.018 0.001,0.006 0.002,0.013 0.002,0.02 0,0.013 -0.003,0.025 -0.008,0.036 -0.005,0.011 -0.012,0.02 -0.022,0.028 -0.009,0.008 -0.02,0.014 -0.032,0.018 -0.013,0.004 -0.027,0.006 -0.042,0.006 -0.012,0 -0.024,-0.001 -0.035,-0.004 -0.005,0.003 -0.009,0.007 -0.012,0.011 -0.003,0.003 -0.004,0.007 -0.004,0.011 0,0.006 0.003,0.011 0.008,0.014 0.005,0.003 0.012,0.005 0.021,0.007 0.008,0.001 0.018,0.002 0.029,0.002 0.011,0 0.022,0.001 0.034,0.002 0.011,0.001 0.022,0.002 0.033,0.004 0.011,0.002 0.021,0.006 0.03,0.01 0.008,0.005 0.015,0.011 0.02,0.019 0.006,0.008 0.008,0.018 0.008,0.031 0,0.012 -0.003,0.023 -0.008,0.035 -0.006,0.011 -0.015,0.021 -0.026,0.029 -0.011,0.009 -0.025,0.016 -0.041,0.021 -0.015,0.005 -0.034,0.008 -0.054,0.008 -0.02,0 -0.038,-0.002 -0.053,-0.006 -0.015,-0.004 -0.027,-0.009 -0.037,-0.016 -0.01,-0.007 -0.018,-0.014 -0.023,-0.023 -0.005,-0.009 -0.007,-0.018 -0.007,-0.028 0,-0.013 0.004,-0.024 0.012,-0.033 0.009,-0.01 0.02,-0.017 0.035,-0.022 -0.008,-0.004 -0.015,-0.009 -0.019,-0.015 -0.005,-0.006 -0.007,-0.014 -0.007,-0.024 0,-0.004 0,-0.009 0.002,-0.013 0.001,-0.004 0.004,-0.008 0.007,-0.012 0.002,-0.005 0.006,-0.009 0.011,-0.012 0.004,-0.004 0.009,-0.008 0.015,-0.011 -0.014,-0.007 -0.024,-0.017 -0.032,-0.03 -0.008,-0.012 -0.012,-0.027 -0.012,-0.043 0,-0.014 0.003,-0.026 0.008,-0.037 0.005,-0.011 0.013,-0.02 0.022,-0.027 0.009,-0.008 0.02,-0.014 0.033,-0.018 0.013,-0.004 0.027,-0.006 0.042,-0.006 0.024,0 0.044,0.004 0.061,0.014l0.076 0zm0.532 0.07c0,0.029 -0.004,0.056 -0.013,0.079 -0.01,0.024 -0.023,0.044 -0.04,0.061 -0.017,0.017 -0.037,0.03 -0.06,0.04 -0.024,0.009 -0.05,0.014 -0.079,0.014l-0.145 0 0 -0.387 0.145 0c0.029,0 0.055,0.005 0.079,0.014 0.023,0.009 0.043,0.022 0.06,0.039 0.017,0.017 0.03,0.038 0.04,0.062 0.009,0.023 0.013,0.05 0.013,0.078zm-0.058 0c0,-0.023 -0.003,-0.043 -0.01,-0.061 -0.006,-0.019 -0.015,-0.034 -0.027,-0.047 -0.011,-0.012 -0.025,-0.022 -0.042,-0.029 -0.016,-0.006 -0.034,-0.01 -0.055,-0.01l-0.087 0 0 0.294 0.087 0c0.021,0 0.039,-0.003 0.055,-0.01 0.017,-0.006 0.031,-0.016 0.042,-0.029 0.012,-0.012 0.021,-0.028 0.027,-0.046 0.007,-0.018 0.01,-0.038 0.01,-0.062zm0.17 -0.08l0 0.274 -0.053 0 0 -0.274 0.053 0zm0.01 -0.084c0,0.004 -0.001,0.009 -0.003,0.013 -0.002,0.005 -0.005,0.009 -0.008,0.012 -0.004,0.003 -0.008,0.006 -0.012,0.008 -0.005,0.002 -0.009,0.003 -0.014,0.003 -0.005,0 -0.009,-0.001 -0.014,-0.003 -0.004,-0.002 -0.008,-0.005 -0.011,-0.008 -0.004,-0.003 -0.006,-0.007 -0.008,-0.012 -0.002,-0.004 -0.003,-0.009 -0.003,-0.013 0,-0.005 0.001,-0.01 0.003,-0.015 0.002,-0.004 0.004,-0.008 0.008,-0.011 0.003,-0.004 0.007,-0.006 0.011,-0.008 0.005,-0.002 0.009,-0.003 0.014,-0.003 0.005,0 0.009,0.001 0.014,0.003 0.004,0.002 0.008,0.004 0.012,0.008 0.003,0.003 0.006,0.007 0.008,0.011 0.002,0.005 0.003,0.01 0.003,0.015zm0.162 0.221c0.009,0 0.018,-0.001 0.025,-0.004 0.007,-0.002 0.013,-0.006 0.017,-0.01 0.005,-0.005 0.009,-0.01 0.011,-0.017 0.003,-0.006 0.004,-0.013 0.004,-0.021 0,-0.016 -0.005,-0.029 -0.015,-0.038 -0.009,-0.009 -0.023,-0.014 -0.042,-0.014 -0.019,0 -0.033,0.005 -0.042,0.014 -0.01,0.009 -0.015,0.022 -0.015,0.038 0,0.008 0.002,0.015 0.004,0.021 0.003,0.006 0.006,0.012 0.011,0.016 0.005,0.005 0.011,0.009 0.018,0.011 0.007,0.003 0.015,0.004 0.024,0.004zm0.084 0.151c0,-0.006 -0.002,-0.012 -0.006,-0.016 -0.003,-0.003 -0.008,-0.006 -0.014,-0.009 -0.006,-0.002 -0.014,-0.004 -0.022,-0.004 -0.008,-0.001 -0.017,-0.002 -0.026,-0.003 -0.009,0 -0.018,-0.001 -0.028,-0.001 -0.009,-0.001 -0.019,-0.002 -0.027,-0.003 -0.01,0.005 -0.017,0.011 -0.023,0.017 -0.006,0.007 -0.009,0.015 -0.009,0.024 0,0.005 0.001,0.011 0.004,0.016 0.003,0.005 0.008,0.009 0.014,0.013 0.006,0.003 0.014,0.006 0.023,0.008 0.01,0.002 0.021,0.004 0.034,0.004 0.013,0 0.024,-0.002 0.034,-0.004 0.01,-0.002 0.018,-0.005 0.025,-0.009 0.007,-0.004 0.012,-0.009 0.016,-0.015 0.003,-0.005 0.005,-0.011 0.005,-0.018zm0.053 -0.278l0 0.02c0,0.006 -0.004,0.011 -0.012,0.012l-0.029 0.004c0.002,0.006 0.004,0.012 0.005,0.018 0.002,0.006 0.003,0.013 0.003,0.02 0,0.013 -0.003,0.025 -0.008,0.036 -0.005,0.011 -0.013,0.02 -0.022,0.028 -0.009,0.008 -0.02,0.014 -0.032,0.018 -0.013,0.004 -0.027,0.006 -0.042,0.006 -0.012,0 -0.024,-0.001 -0.035,-0.004 -0.005,0.003 -0.009,0.007 -0.012,0.011 -0.003,0.003 -0.004,0.007 -0.004,0.011 0,0.006 0.002,0.011 0.008,0.014 0.005,0.003 0.012,0.005 0.021,0.007 0.008,0.001 0.018,0.002 0.029,0.002 0.011,0 0.022,0.001 0.034,0.002 0.011,0.001 0.022,0.002 0.033,0.004 0.011,0.002 0.021,0.006 0.03,0.01 0.008,0.005 0.015,0.011 0.02,0.019 0.006,0.008 0.008,0.018 0.008,0.031 0,0.012 -0.003,0.023 -0.008,0.035 -0.006,0.011 -0.015,0.021 -0.026,0.029 -0.011,0.009 -0.025,0.016 -0.041,0.021 -0.016,0.005 -0.034,0.008 -0.054,0.008 -0.02,0 -0.038,-0.002 -0.053,-0.006 -0.015,-0.004 -0.027,-0.009 -0.037,-0.016 -0.01,-0.007 -0.018,-0.014 -0.023,-0.023 -0.005,-0.009 -0.007,-0.018 -0.007,-0.028 0,-0.013 0.004,-0.024 0.012,-0.033 0.008,-0.01 0.02,-0.017 0.034,-0.022 -0.007,-0.004 -0.014,-0.009 -0.018,-0.015 -0.005,-0.006 -0.007,-0.014 -0.007,-0.024 0,-0.004 0,-0.009 0.002,-0.013 0.001,-0.004 0.003,-0.008 0.006,-0.012 0.003,-0.005 0.007,-0.009 0.011,-0.012 0.005,-0.004 0.01,-0.008 0.016,-0.011 -0.014,-0.007 -0.025,-0.017 -0.032,-0.03 -0.008,-0.012 -0.012,-0.027 -0.012,-0.043 0,-0.014 0.003,-0.026 0.008,-0.037 0.005,-0.011 0.012,-0.02 0.022,-0.027 0.009,-0.008 0.02,-0.014 0.033,-0.018 0.013,-0.004 0.027,-0.006 0.042,-0.006 0.024,0 0.044,0.004 0.061,0.014l0.076 0zm0.103 -0.01l0 0.274 -0.053 0 0 -0.274 0.053 0zm0.01 -0.084c0,0.004 -0.001,0.009 -0.003,0.013 -0.002,0.005 -0.005,0.009 -0.008,0.012 -0.003,0.003 -0.007,0.006 -0.012,0.008 -0.004,0.002 -0.009,0.003 -0.014,0.003 -0.005,0 -0.009,-0.001 -0.013,-0.003 -0.005,-0.002 -0.009,-0.005 -0.012,-0.008 -0.003,-0.003 -0.006,-0.007 -0.008,-0.012 -0.002,-0.004 -0.003,-0.009 -0.003,-0.013 0,-0.005 0.001,-0.01 0.003,-0.015 0.002,-0.004 0.005,-0.008 0.008,-0.011 0.003,-0.004 0.007,-0.006 0.012,-0.008 0.004,-0.002 0.008,-0.003 0.013,-0.003 0.005,0 0.01,0.001 0.014,0.003 0.005,0.002 0.009,0.004 0.012,0.008 0.003,0.003 0.006,0.007 0.008,0.011 0.002,0.005 0.003,0.01 0.003,0.015zm0.152 0.362c-0.022,0 -0.039,-0.006 -0.051,-0.019 -0.012,-0.012 -0.018,-0.03 -0.018,-0.053l0 -0.163 -0.032 0c-0.003,0 -0.006,-0.001 -0.008,-0.003 -0.002,-0.002 -0.003,-0.005 -0.003,-0.009l0 -0.021 0.045 -0.006 0.012 -0.082c0,-0.003 0.002,-0.005 0.004,-0.007 0.002,-0.002 0.004,-0.002 0.008,-0.002l0.026 0 0 0.091 0.078 0 0 0.039 -0.078 0 0 0.16c0,0.011 0.003,0.019 0.008,0.024 0.006,0.005 0.012,0.008 0.021,0.008 0.004,0 0.009,-0.001 0.012,-0.002 0.004,-0.001 0.007,-0.003 0.009,-0.004 0.003,-0.002 0.005,-0.003 0.007,-0.004 0.001,-0.002 0.003,-0.002 0.004,-0.002 0.002,0 0.004,0 0.005,0.001 0.001,0.001 0.002,0.002 0.003,0.004l0.015 0.025c-0.008,0.008 -0.018,0.014 -0.03,0.019 -0.012,0.004 -0.024,0.006 -0.037,0.006zm0.256 -0.126c-0.021,0.001 -0.039,0.003 -0.054,0.005 -0.015,0.003 -0.027,0.006 -0.037,0.011 -0.009,0.004 -0.016,0.009 -0.02,0.015 -0.004,0.006 -0.006,0.012 -0.006,0.019 0,0.007 0.001,0.013 0.003,0.018 0.003,0.005 0.006,0.009 0.01,0.012 0.003,0.003 0.008,0.006 0.013,0.007 0.005,0.001 0.011,0.002 0.017,0.002 0.008,0 0.016,-0.001 0.022,-0.002 0.007,-0.002 0.013,-0.004 0.019,-0.007 0.006,-0.003 0.012,-0.007 0.017,-0.011 0.006,-0.004 0.011,-0.009 0.016,-0.015l0 -0.054zm-0.154 -0.114c0.015,-0.014 0.032,-0.025 0.05,-0.032 0.018,-0.007 0.037,-0.011 0.059,-0.011 0.015,0 0.029,0.003 0.041,0.008 0.012,0.005 0.022,0.012 0.031,0.021 0.008,0.009 0.014,0.02 0.018,0.033 0.005,0.013 0.007,0.027 0.007,0.042l0 0.175 -0.024 0c-0.005,0 -0.009,-0.001 -0.012,-0.003 -0.002,-0.002 -0.005,-0.005 -0.006,-0.009l-0.006 -0.024c-0.007,0.006 -0.014,0.012 -0.021,0.017 -0.006,0.005 -0.013,0.009 -0.021,0.012 -0.007,0.004 -0.015,0.007 -0.024,0.008 -0.008,0.002 -0.018,0.003 -0.028,0.003 -0.011,0 -0.021,-0.001 -0.03,-0.004 -0.009,-0.003 -0.018,-0.008 -0.025,-0.014 -0.007,-0.006 -0.012,-0.014 -0.016,-0.023 -0.004,-0.009 -0.006,-0.02 -0.006,-0.032 0,-0.011 0.003,-0.021 0.008,-0.031 0.006,-0.01 0.016,-0.019 0.029,-0.027 0.013,-0.008 0.03,-0.014 0.052,-0.019 0.021,-0.005 0.047,-0.008 0.078,-0.009l0 -0.02c0,-0.02 -0.004,-0.036 -0.013,-0.046 -0.009,-0.01 -0.022,-0.015 -0.039,-0.015 -0.011,0 -0.021,0.001 -0.029,0.004 -0.008,0.003 -0.014,0.006 -0.02,0.009 -0.006,0.004 -0.011,0.007 -0.015,0.01 -0.004,0.003 -0.008,0.004 -0.013,0.004 -0.003,0 -0.006,-0.001 -0.009,-0.003 -0.003,-0.002 -0.005,-0.004 -0.006,-0.007l-0.01 -0.017zm0.33 -0.162l0 0.398 -0.053 0 0 -0.398 0.053 0zm-2.396 -1.1c0,0.07 0.009,0.133 0.026,0.189 0.017,0.056 0.043,0.104 0.078,0.145 0.035,0.04 0.079,0.07 0.132,0.092 0.054,0.021 0.117,0.032 0.189,0.032 0.063,0 0.121,-0.011 0.175,-0.035 0.054,-0.023 0.1,-0.056 0.139,-0.097 0.039,-0.041 0.071,-0.089 0.093,-0.144 0.023,-0.055 0.034,-0.115 0.034,-0.18 0,-0.073 -0.01,-0.138 -0.032,-0.195 -0.021,-0.057 -0.052,-0.105 -0.091,-0.144 -0.039,-0.039 -0.086,-0.069 -0.141,-0.09 -0.055,-0.021 -0.117,-0.031 -0.184,-0.031 -0.061,0 -0.117,0.01 -0.168,0.032 -0.051,0.021 -0.094,0.053 -0.131,0.093 -0.037,0.04 -0.067,0.088 -0.087,0.144 -0.021,0.056 -0.032,0.119 -0.032,0.189z"/>
 </g>
</svg>
