<?xml version="1.0" encoding="UTF-8"?>
<!DOCTYPE svg PUBLIC "-//W3C//DTD SVG 1.1//EN" "http://www.w3.org/Graphics/SVG/1.1/DTD/svg11.dtd">
<!-- Creator: CorelDRAW -->
<svg xmlns="http://www.w3.org/2000/svg" xml:space="preserve" width="304px" height="55px" version="1.1" shape-rendering="geometricPrecision" text-rendering="geometricPrecision" image-rendering="optimizeQuality" fill-rule="evenodd" clip-rule="evenodd"
viewBox="0 0 43.471 7.888"
 xmlns:xlink="http://www.w3.org/1999/xlink"
 xmlns:xodm="http://www.corel.com/coreldraw/odm/2003">
 <g id="Capa_x0020_1">
  <metadata id="CorelCorpID_0Corel-Layer"/>
  <g id="_2661927351488">
   <g>
    <g>
     <path fill="#0E1B24" fill-rule="nonzero" d="M35.096 0.267c0.015,-0.017 0.036,-0.028 0.058,-0.029 0.029,0.002 0.051,0.026 0.051,0.055 0,0.002 0,0.003 0,0.005 -0.001,0.024 -0.012,0.046 -0.029,0.062 -0.763,0.948 -1.317,2.058 -1.317,3.596 0,1.539 0.557,2.625 1.317,3.574 0.017,0.016 0.028,0.038 0.029,0.061 0,0.002 0,0.004 0,0.006 0,0.029 -0.022,0.053 -0.051,0.055 -0.022,-0.002 -0.043,-0.012 -0.058,-0.029l-3.252 -3.145c-0.167,-0.126 -0.266,-0.323 -0.266,-0.532 0,-0.209 0.099,-0.407 0.266,-0.532l3.252 -3.146 0 -0.001zm0 0l0 0 0 0z"/>
    </g>
    <g>
     <g>
      <path fill="#0E1B24" fill-rule="nonzero" d="M37.595 0c-1.273,0 -1.77,1.804 -1.77,3.956 0,2.15 0.497,3.932 1.77,3.932 0.764,0 1.415,-0.448 1.418,-0.816 -0.001,-0.085 -0.037,-0.167 -0.099,-0.225 -0.362,-0.349 -0.503,-0.7 -0.505,-1.008 0,-0.589 0.509,-1.028 0.98,-1.028 0.651,0 1.03,0.509 1.03,1.168 0,0.625 -0.267,1.146 -0.558,1.562 -0.011,0.016 -0.017,0.034 -0.017,0.053 0,0.002 0,0.005 0,0.007 0,0.027 0.021,0.05 0.049,0.053 0.023,-0.003 0.045,-0.014 0.06,-0.032l3.252 -3.145c0.167,-0.126 0.266,-0.323 0.266,-0.532 0,-0.209 -0.099,-0.407 -0.266,-0.532l-3.252 -3.146c-0.015,-0.018 -0.037,-0.029 -0.06,-0.032 -0.03,0 -0.049,0.027 -0.049,0.061 0,0.018 0.006,0.037 0.017,0.052 0.289,0.417 0.558,0.937 0.558,1.561 0,0.659 -0.382,1.169 -1.03,1.169 -0.471,0 -0.982,-0.439 -0.98,-1.028 0,-0.308 0.143,-0.658 0.505,-1.008 0.062,-0.059 0.098,-0.14 0.099,-0.225 0,-0.372 -0.651,-0.816 -1.418,-0.816l0 -0.001zm-33.253 5.287c0,-0.006 -0.001,-0.012 -0.001,-0.018 0,-0.299 0.145,-0.581 0.388,-0.755 0.271,-0.182 0.59,-0.28 0.917,-0.28 0.02,0 0.041,0.001 0.061,0.001 0.007,0 0.015,0 0.022,0 0.224,0 0.445,0.041 0.653,0.121l0 -0.372c-0.006,-0.372 -0.146,-0.581 -0.563,-0.586 -0.134,0.005 -0.267,0.028 -0.395,0.069 0.014,0.052 0.022,0.106 0.022,0.16 0,0.004 0,0.008 0,0.012 0,0.114 -0.04,0.224 -0.114,0.311 -0.079,0.086 -0.191,0.136 -0.308,0.136 -0.004,0 -0.008,0 -0.012,0 -0.233,-0.003 -0.421,-0.193 -0.421,-0.427 0,-0.002 0,-0.004 0,-0.006 0.005,-0.45 0.552,-0.753 1.282,-0.754 0.58,0 0.943,0.138 1.138,0.388 0.177,0.224 0.186,0.551 0.186,1.014l0 1.208c0,0.233 0.136,0.296 0.426,0.342l0.033 0 0 0.033c-0.017,0.318 -0.251,0.45 -0.502,0.47l-0.065 0c-0.006,0 -0.012,0 -0.018,0 -0.249,0 -0.476,-0.145 -0.58,-0.372 -0.268,0.23 -0.606,0.361 -0.959,0.372 -0.674,0 -1.186,-0.456 -1.187,-1.078l-0.003 0.011zm20.687 0.91c-0.06,-0.096 -0.101,-0.202 -0.121,-0.313 -0.034,0.038 -0.073,0.078 -0.133,0.135 -0.224,0.213 -0.522,0.331 -0.83,0.331 -0.002,0 -0.004,0 -0.006,0 -0.012,0 -0.024,0.001 -0.036,0.001 -0.31,0 -0.605,-0.133 -0.812,-0.363 -0.294,-0.353 -0.292,-0.799 -0.292,-1.432l0 -0.611c-0.007,-0.247 -0.084,-0.331 -0.313,-0.337 -0.031,0 -0.063,0.002 -0.093,0.006l-0.027 0 -0.011 -0.026c-0.017,-0.042 -0.026,-0.087 -0.026,-0.132 0.007,-0.296 0.381,-0.454 0.6,-0.499 0.072,-0.014 0.146,-0.022 0.219,-0.025 0.012,0 0.024,-0.001 0.036,-0.001 0.137,0 0.267,0.059 0.358,0.162 0.076,0.108 0.117,0.238 0.117,0.371 0,0.013 0,0.027 -0.001,0.04l-0.005 1.043c0,0.384 0.027,0.672 0.112,0.858 0.086,0.186 0.217,0.27 0.456,0.272 0.012,0.001 0.024,0.001 0.036,0.001 0.2,0 0.384,-0.106 0.484,-0.279 0.091,-0.174 0.138,-0.368 0.138,-0.564 0,-0.016 0,-0.032 -0.001,-0.048l0 -0.844c-0.006,-0.247 -0.084,-0.331 -0.313,-0.337 -0.031,0 -0.062,0.002 -0.093,0.006l-0.028 0 -0.01 -0.026c-0.018,-0.037 -0.029,-0.077 -0.033,-0.118 0.007,-0.296 0.381,-0.454 0.601,-0.499 0.072,-0.014 0.146,-0.022 0.219,-0.025 0.012,0 0.024,-0.001 0.035,-0.001 0.138,0 0.269,0.059 0.36,0.162 0.077,0.108 0.118,0.238 0.118,0.37 0,0.014 0,0.028 -0.001,0.041 0,0.12 -0.011,0.332 -0.011,1.22 0,0.372 -0.007,0.575 -0.007,0.636 0.006,0.255 0.093,0.371 0.329,0.371l0.108 0 0.01 0.026c0.017,0.041 0.027,0.084 0.027,0.128 -0.009,0.288 -0.383,0.405 -0.601,0.447 -0.068,0.013 -0.137,0.021 -0.205,0.024 -0.011,0 -0.021,0.001 -0.031,0.001 -0.126,0 -0.245,-0.059 -0.321,-0.159l-0.002 -0.013zm-11.85 -1.51c-0.001,-0.02 -0.001,-0.04 -0.001,-0.059 0,-0.451 0.166,-0.887 0.465,-1.224 0.311,-0.323 0.739,-0.506 1.186,-0.506 0.015,0 0.029,0.001 0.043,0.001 0.017,-0.001 0.035,-0.001 0.053,-0.001 0.366,0 0.717,0.15 0.969,0.415 0.211,0.234 0.329,0.537 0.33,0.852 0,0.005 0,0.01 0,0.016 0,0.156 -0.038,0.31 -0.112,0.448l-0.01 0.019 -2.048 0c0.035,0.597 0.415,1.015 1.077,1.022 0.003,0 0.005,0 0.008,0 0.31,0 0.607,-0.13 0.818,-0.358l0.022 -0.028 0.029 0.022c0.077,0.057 0.123,0.147 0.123,0.243 0,0.008 0,0.017 -0.001,0.025 0,0.345 -0.406,0.786 -1.301,0.786 0,0 0,0 0,0 -0.911,0 -1.65,-0.739 -1.65,-1.65 0,-0.007 0,-0.015 0,-0.022l0 -0.001zm7.278 1.669c-0.006,-0.001 -0.014,0 -0.021,0 -0.437,0 -0.858,-0.172 -1.17,-0.478 -0.318,-0.325 -0.496,-0.761 -0.496,-1.215 0,-0.014 0,-0.028 0.001,-0.04 0,-0.008 0,-0.016 0,-0.024 0,-0.938 0.76,-1.698 1.698,-1.698 0.006,0 0.011,0 0.017,0 0.015,0 0.03,-0.001 0.045,-0.001 0.437,0 0.856,0.17 1.169,0.475 0.33,0.326 0.517,0.771 0.517,1.236 0,0.959 -0.778,1.737 -1.738,1.737 -0.007,0 -0.014,0 -0.021,0l-0.001 0.008zm6.293 -0.101c-0.143,-0.039 -0.235,-0.117 -0.234,-0.235 0.002,-0.052 0.016,-0.103 0.039,-0.15l0.008 -0.016 0.017 0c0.082,-0.016 0.159,-0.051 0.224,-0.101 0.086,-0.07 0.118,-0.168 0.118,-0.442l0 -1.385c-0.006,-0.233 -0.059,-0.313 -0.252,-0.319 -0.052,0.001 -0.103,0.007 -0.154,0.017l-0.029 0.005 -0.012 -0.028c-0.019,-0.046 -0.029,-0.097 -0.029,-0.147 0.004,-0.279 0.306,-0.418 0.509,-0.482 0.074,-0.023 0.151,-0.036 0.229,-0.037 0.278,0 0.425,0.198 0.488,0.453 0.181,-0.297 0.465,-0.493 0.752,-0.494 0.267,0 0.534,0.175 0.535,0.506 0,0.006 0,0.012 0,0.018 0,0.248 -0.194,0.452 -0.442,0.464 -0.003,0 -0.007,0 -0.01,0 -0.2,0 -0.373,-0.139 -0.416,-0.334 -0.156,0.051 -0.377,0.248 -0.379,0.929l0 0.836c0,0.273 0.039,0.372 0.116,0.44 0.093,0.053 0.195,0.087 0.301,0.102l0.017 0 0.008 0.016c0.025,0.051 0.04,0.106 0.042,0.162 0,0.112 -0.082,0.186 -0.216,0.225 -0.166,0.037 -0.337,0.057 -0.507,0.057 -0.032,0 -0.064,-0.001 -0.095,-0.002 -0.03,0.001 -0.062,0.001 -0.092,0.001 -0.18,0 -0.36,-0.02 -0.536,-0.059l0 0zm-9.942 0c-0.143,-0.039 -0.236,-0.118 -0.236,-0.236 0.002,-0.052 0.015,-0.102 0.038,-0.149l0.008 -0.016 0.018 0c0.082,-0.016 0.16,-0.051 0.227,-0.101 0.083,-0.07 0.116,-0.168 0.118,-0.441l0 -1.819 -0.487 -0.017 -0.008 -0.021c-0.024,-0.054 -0.036,-0.112 -0.037,-0.171 0,-0.001 0,-0.002 0,-0.003 0,-0.161 0.131,-0.292 0.292,-0.292 0.005,0 0.01,0 0.015,0l0.211 0 0 -0.201c0,-0.485 0.093,-0.761 0.214,-0.945 0.186,-0.295 0.519,-0.498 1.022,-0.498 0.631,0 1.161,0.294 1.163,0.766 0,0.005 0.001,0.01 0.001,0.015 0,0.243 -0.197,0.441 -0.44,0.443 -0.233,-0.003 -0.421,-0.189 -0.428,-0.422 0.002,-0.085 0.027,-0.168 0.073,-0.239 -0.085,-0.061 -0.188,-0.094 -0.293,-0.094 -0.007,0 -0.014,0 -0.021,0.001 -0.196,0 -0.303,0.069 -0.372,0.181 -0.062,0.127 -0.094,0.267 -0.094,0.408 0,0.019 0,0.038 0.001,0.056l0 0.522 0.837 0 0.009 0.022c0.023,0.055 0.036,0.115 0.036,0.175 0,0.003 0,0.007 0,0.011 0,0.166 -0.126,0.305 -0.292,0.321 -0.052,0.005 -0.105,0.007 -0.157,0.007 -0.01,0 -0.019,0 -0.028,0 -0.14,0 -0.279,-0.01 -0.38,-0.012l0 1.799c0,0.272 0.046,0.371 0.129,0.44 0.082,0.069 0.278,0.093 0.341,0.101l0.017 0 0.008 0.018c0.021,0.043 0.033,0.09 0.034,0.138 0,0.124 -0.101,0.202 -0.255,0.244 -0.184,0.041 -0.373,0.062 -0.562,0.062 -0.031,0 -0.063,-0.001 -0.094,-0.002 -0.03,0.001 -0.062,0.002 -0.093,0.002 -0.18,0 -0.361,-0.02 -0.536,-0.059l0.001 0.006zm-5.837 -0.006c-0.142,-0.039 -0.234,-0.117 -0.233,-0.235 0.003,-0.052 0.016,-0.103 0.039,-0.149l0.007 -0.017 0.019 0c0.082,-0.016 0.16,-0.05 0.227,-0.1 0.082,-0.071 0.117,-0.168 0.118,-0.441l0 -1.381c-0.007,-0.233 -0.062,-0.313 -0.254,-0.319 -0.051,0.001 -0.103,0.007 -0.153,0.017l-0.03 0.005 -0.011 -0.028c-0.02,-0.047 -0.03,-0.098 -0.031,-0.15 0.005,-0.279 0.307,-0.415 0.511,-0.479 0.073,-0.023 0.149,-0.036 0.225,-0.037 0.279,0 0.428,0.195 0.493,0.446 0.185,-0.292 0.47,-0.486 0.753,-0.488 0.263,0 0.534,0.174 0.534,0.505 0.001,0.006 0.001,0.012 0.001,0.018 0,0.249 -0.197,0.454 -0.447,0.464 -0.003,0 -0.006,0 -0.009,0 -0.2,0 -0.372,-0.139 -0.412,-0.334 -0.158,0.052 -0.382,0.248 -0.385,0.929l0 0.836c0,0.273 0.041,0.372 0.123,0.441 0.092,0.053 0.193,0.087 0.299,0.101l0.017 0 0.009 0.017c0.025,0.049 0.039,0.104 0.041,0.159 0,0.112 -0.083,0.186 -0.218,0.226 -0.167,0.038 -0.339,0.058 -0.511,0.058 -0.031,0 -0.062,-0.001 -0.093,-0.002 -0.03,0.001 -0.061,0.002 -0.092,0.002 -0.18,0 -0.36,-0.02 -0.535,-0.06l-0.002 -0.004zm-2.756 0.004c-0.142,-0.039 -0.233,-0.117 -0.233,-0.235 0.002,-0.051 0.015,-0.102 0.038,-0.148l0.008 -0.017 0.018 0c0.082,-0.016 0.16,-0.051 0.227,-0.101 0.083,-0.07 0.117,-0.168 0.118,-0.441l0 -1.385c-0.008,-0.233 -0.061,-0.313 -0.255,-0.319 -0.051,0.001 -0.103,0.007 -0.153,0.017l-0.03 0.005 -0.011 -0.028c-0.02,-0.047 -0.03,-0.098 -0.031,-0.15 0.005,-0.279 0.307,-0.415 0.512,-0.479 0.072,-0.023 0.148,-0.036 0.223,-0.037 0.279,0 0.428,0.195 0.493,0.445 0.186,-0.291 0.47,-0.485 0.754,-0.487 0.262,0 0.534,0.174 0.535,0.506 0,0.006 0,0.012 0,0.018 0,0.249 -0.197,0.454 -0.446,0.464 -0.003,0 -0.006,0 -0.009,0 -0.2,0 -0.372,-0.139 -0.413,-0.334 -0.158,0.052 -0.382,0.248 -0.384,0.929l0 0.836c0,0.273 0.04,0.372 0.123,0.441 0.092,0.053 0.194,0.087 0.299,0.101l0.019 0 0.007 0.017c0.025,0.049 0.039,0.104 0.042,0.159 0,0.112 -0.084,0.186 -0.219,0.226 -0.167,0.038 -0.339,0.058 -0.511,0.058 -0.031,0 -0.062,-0.001 -0.093,-0.002 -0.03,0.001 -0.061,0.002 -0.092,0.002 -0.179,0 -0.359,-0.02 -0.535,-0.06l-0.001 -0.001zm11.501 -1.724c0,0.906 0.396,1.296 0.782,1.301 0.441,0 0.761,-0.391 0.764,-1.153 0,-0.399 -0.088,-0.718 -0.232,-0.93 -0.119,-0.201 -0.334,-0.327 -0.568,-0.33 -0.459,0 -0.744,0.415 -0.744,1.12l-0.002 -0.008zm-13.858 0.2c-0.364,0 -0.609,0.174 -0.611,0.512 0,0.32 0.218,0.535 0.558,0.537 0.229,-0.009 0.444,-0.117 0.586,-0.297l0 -0.464c-0.009,-0.081 -0.059,-0.151 -0.132,-0.186 -0.112,-0.062 -0.239,-0.094 -0.367,-0.094 -0.011,0 -0.023,0 -0.034,0.001l0 -0.009zm9.424 -0.539c0.065,0 0.082,-0.016 0.093,-0.038 0.011,-0.03 0.016,-0.063 0.016,-0.095 0,-0.009 0,-0.017 -0.001,-0.025 -0.004,-0.336 -0.278,-0.606 -0.614,-0.606 -0.004,0 -0.009,0 -0.014,0 -0.475,0 -0.667,0.38 -0.697,0.764l1.213 0 0.004 0zm-14.622 1.57c-0.4,-0.411 -0.659,-1.011 -0.659,-1.758 0,-0.016 0,-0.033 0,-0.05 0,-0.625 0.232,-1.228 0.651,-1.692 0.383,-0.422 0.925,-0.665 1.495,-0.669 1.014,0 1.729,0.71 1.733,1.324 0,0.328 -0.208,0.581 -0.489,0.582 -0.003,0 -0.006,0 -0.008,0 -0.132,0 -0.258,-0.049 -0.355,-0.137 -0.099,-0.096 -0.155,-0.228 -0.155,-0.365 0,-0.006 0,-0.011 0.001,-0.016 0.003,-0.148 0.064,-0.289 0.171,-0.391 -0.137,-0.235 -0.401,-0.421 -0.815,-0.421 -0.351,0 -0.65,0.186 -0.86,0.504 -0.21,0.317 -0.339,0.781 -0.339,1.326 0,0.546 0.131,1.003 0.35,1.323 0.22,0.319 0.521,0.5 0.873,0.501 0.413,0 0.677,-0.186 0.81,-0.422 -0.106,-0.102 -0.168,-0.242 -0.171,-0.389 0,-0.005 0,-0.01 0,-0.015 0,-0.138 0.056,-0.27 0.154,-0.367 0.098,-0.089 0.225,-0.138 0.357,-0.138 0.002,0 0.004,0 0.007,0 0.278,0 0.487,0.253 0.488,0.58 0,0.616 -0.719,1.322 -1.733,1.325 -0.001,0 -0.002,0 -0.003,0 -0.566,0 -1.109,-0.23 -1.504,-0.635l0.001 0zm-0.001 0c-0.4,-0.411 -0.659,-1.011 -0.659,-1.758 0,-0.016 0,-0.033 0,-0.05 0,-0.625 0.232,-1.228 0.651,-1.692 0.383,-0.422 0.925,-0.665 1.495,-0.669 1.014,0 1.729,0.71 1.733,1.324 0,0.328 -0.208,0.581 -0.489,0.582 -0.003,0 -0.005,0 -0.008,0 -0.131,0 -0.258,-0.049 -0.355,-0.137 -0.099,-0.096 -0.155,-0.228 -0.155,-0.365 0,-0.006 0,-0.011 0.001,-0.016 0.003,-0.148 0.065,-0.289 0.171,-0.391 -0.136,-0.235 -0.4,-0.421 -0.814,-0.421 -0.351,0 -0.65,0.186 -0.86,0.504 -0.21,0.317 -0.339,0.781 -0.339,1.326 0,0.546 0.131,1.003 0.35,1.323 0.22,0.319 0.521,0.5 0.873,0.501 0.413,0 0.677,-0.186 0.81,-0.422 -0.106,-0.102 -0.168,-0.242 -0.171,-0.389 0,-0.005 0,-0.01 0,-0.015 0,-0.138 0.056,-0.27 0.154,-0.367 0.098,-0.089 0.225,-0.138 0.357,-0.138 0.002,0 0.004,0 0.007,0 0.278,0 0.487,0.253 0.488,0.58 0,0.616 -0.719,1.322 -1.733,1.325 -0.001,0 -0.002,0 -0.003,0 -0.566,0 -1.109,-0.23 -1.504,-0.635l0 0zm0 0c-0.4,-0.411 -0.659,-1.011 -0.659,-1.758 0,-0.016 0,-0.033 0,-0.05 0,-0.625 0.232,-1.228 0.651,-1.692 0.383,-0.422 0.925,-0.665 1.495,-0.669 1.014,0 1.729,0.71 1.733,1.324 0,0.328 -0.208,0.581 -0.489,0.582 -0.003,0 -0.005,0 -0.008,0 -0.131,0 -0.258,-0.049 -0.355,-0.137 -0.099,-0.096 -0.155,-0.228 -0.155,-0.365 0,-0.006 0,-0.011 0.001,-0.016 0.003,-0.148 0.065,-0.289 0.171,-0.391 -0.136,-0.235 -0.4,-0.421 -0.814,-0.421 -0.351,0 -0.65,0.186 -0.86,0.504 -0.21,0.317 -0.339,0.781 -0.339,1.326 0,0.546 0.131,1.003 0.35,1.323 0.22,0.319 0.521,0.5 0.873,0.501 0.413,0 0.677,-0.186 0.81,-0.422 -0.106,-0.102 -0.168,-0.242 -0.171,-0.389 0,-0.005 0,-0.01 0,-0.015 0,-0.138 0.056,-0.27 0.154,-0.367 0.098,-0.089 0.225,-0.138 0.357,-0.138 0.002,0 0.004,0 0.007,0 0.278,0 0.487,0.253 0.488,0.58 0,0.616 -0.719,1.322 -1.733,1.325 -0.001,0 -0.002,0 -0.003,0 -0.566,0 -1.109,-0.23 -1.504,-0.635l0 0zm0 0l0 0 0 0z"/>
     </g>
    </g>
   </g>
  </g>
 </g>
</svg>
